%TF.GenerationSoftware,KiCad,Pcbnew,(5.1.10)-1*%
%TF.CreationDate,2021-12-17T12:10:03-05:00*%
%TF.ProjectId,Chess-Timer-RevA,43686573-732d-4546-996d-65722d526576,rev?*%
%TF.SameCoordinates,Original*%
%TF.FileFunction,Legend,Bot*%
%TF.FilePolarity,Positive*%
%FSLAX46Y46*%
G04 Gerber Fmt 4.6, Leading zero omitted, Abs format (unit mm)*
G04 Created by KiCad (PCBNEW (5.1.10)-1) date 2021-12-17 12:10:03*
%MOMM*%
%LPD*%
G01*
G04 APERTURE LIST*
%ADD10C,0.150000*%
%ADD11C,0.120000*%
%ADD12C,0.500000*%
G04 APERTURE END LIST*
D10*
X8350000Y49204571D02*
X7588095Y49204571D01*
X7969047Y48823619D02*
X7969047Y49585523D01*
X7207142Y49823619D02*
X6588095Y49823619D01*
X6921428Y49442666D01*
X6778571Y49442666D01*
X6683333Y49395047D01*
X6635714Y49347428D01*
X6588095Y49252190D01*
X6588095Y49014095D01*
X6635714Y48918857D01*
X6683333Y48871238D01*
X6778571Y48823619D01*
X7064285Y48823619D01*
X7159523Y48871238D01*
X7207142Y48918857D01*
X6159523Y48918857D02*
X6111904Y48871238D01*
X6159523Y48823619D01*
X6207142Y48871238D01*
X6159523Y48918857D01*
X6159523Y48823619D01*
X5778571Y49823619D02*
X5159523Y49823619D01*
X5492857Y49442666D01*
X5350000Y49442666D01*
X5254761Y49395047D01*
X5207142Y49347428D01*
X5159523Y49252190D01*
X5159523Y49014095D01*
X5207142Y48918857D01*
X5254761Y48871238D01*
X5350000Y48823619D01*
X5635714Y48823619D01*
X5730952Y48871238D01*
X5778571Y48918857D01*
X4873809Y49823619D02*
X4540476Y48823619D01*
X4207142Y49823619D01*
X19272000Y49077571D02*
X18510095Y49077571D01*
X18891047Y48696619D02*
X18891047Y49458523D01*
X18129142Y49696619D02*
X17510095Y49696619D01*
X17843428Y49315666D01*
X17700571Y49315666D01*
X17605333Y49268047D01*
X17557714Y49220428D01*
X17510095Y49125190D01*
X17510095Y48887095D01*
X17557714Y48791857D01*
X17605333Y48744238D01*
X17700571Y48696619D01*
X17986285Y48696619D01*
X18081523Y48744238D01*
X18129142Y48791857D01*
X17081523Y48791857D02*
X17033904Y48744238D01*
X17081523Y48696619D01*
X17129142Y48744238D01*
X17081523Y48791857D01*
X17081523Y48696619D01*
X16700571Y49696619D02*
X16081523Y49696619D01*
X16414857Y49315666D01*
X16272000Y49315666D01*
X16176761Y49268047D01*
X16129142Y49220428D01*
X16081523Y49125190D01*
X16081523Y48887095D01*
X16129142Y48791857D01*
X16176761Y48744238D01*
X16272000Y48696619D01*
X16557714Y48696619D01*
X16652952Y48744238D01*
X16700571Y48791857D01*
X15795809Y49696619D02*
X15462476Y48696619D01*
X15129142Y49696619D01*
X8096000Y51744571D02*
X7334095Y51744571D01*
X7715047Y51363619D02*
X7715047Y52125523D01*
X6953142Y52363619D02*
X6334095Y52363619D01*
X6667428Y51982666D01*
X6524571Y51982666D01*
X6429333Y51935047D01*
X6381714Y51887428D01*
X6334095Y51792190D01*
X6334095Y51554095D01*
X6381714Y51458857D01*
X6429333Y51411238D01*
X6524571Y51363619D01*
X6810285Y51363619D01*
X6905523Y51411238D01*
X6953142Y51458857D01*
X5905523Y51458857D02*
X5857904Y51411238D01*
X5905523Y51363619D01*
X5953142Y51411238D01*
X5905523Y51458857D01*
X5905523Y51363619D01*
X5524571Y52363619D02*
X4905523Y52363619D01*
X5238857Y51982666D01*
X5096000Y51982666D01*
X5000761Y51935047D01*
X4953142Y51887428D01*
X4905523Y51792190D01*
X4905523Y51554095D01*
X4953142Y51458857D01*
X5000761Y51411238D01*
X5096000Y51363619D01*
X5381714Y51363619D01*
X5476952Y51411238D01*
X5524571Y51458857D01*
X4619809Y52363619D02*
X4286476Y51363619D01*
X3953142Y52363619D01*
X19272000Y51744571D02*
X18510095Y51744571D01*
X18891047Y51363619D02*
X18891047Y52125523D01*
X18129142Y52363619D02*
X17510095Y52363619D01*
X17843428Y51982666D01*
X17700571Y51982666D01*
X17605333Y51935047D01*
X17557714Y51887428D01*
X17510095Y51792190D01*
X17510095Y51554095D01*
X17557714Y51458857D01*
X17605333Y51411238D01*
X17700571Y51363619D01*
X17986285Y51363619D01*
X18081523Y51411238D01*
X18129142Y51458857D01*
X17081523Y51458857D02*
X17033904Y51411238D01*
X17081523Y51363619D01*
X17129142Y51411238D01*
X17081523Y51458857D01*
X17081523Y51363619D01*
X16700571Y52363619D02*
X16081523Y52363619D01*
X16414857Y51982666D01*
X16272000Y51982666D01*
X16176761Y51935047D01*
X16129142Y51887428D01*
X16081523Y51792190D01*
X16081523Y51554095D01*
X16129142Y51458857D01*
X16176761Y51411238D01*
X16272000Y51363619D01*
X16557714Y51363619D01*
X16652952Y51411238D01*
X16700571Y51458857D01*
X15795809Y52363619D02*
X15462476Y51363619D01*
X15129142Y52363619D01*
X8024714Y46156619D02*
X8024714Y47156619D01*
X7453285Y46156619D01*
X7453285Y47156619D01*
X6405666Y46251857D02*
X6453285Y46204238D01*
X6596142Y46156619D01*
X6691380Y46156619D01*
X6834238Y46204238D01*
X6929476Y46299476D01*
X6977095Y46394714D01*
X7024714Y46585190D01*
X7024714Y46728047D01*
X6977095Y46918523D01*
X6929476Y47013761D01*
X6834238Y47109000D01*
X6691380Y47156619D01*
X6596142Y47156619D01*
X6453285Y47109000D01*
X6405666Y47061380D01*
X18002095Y46029619D02*
X18002095Y47029619D01*
X17621142Y47029619D01*
X17525904Y46982000D01*
X17478285Y46934380D01*
X17430666Y46839142D01*
X17430666Y46696285D01*
X17478285Y46601047D01*
X17525904Y46553428D01*
X17621142Y46505809D01*
X18002095Y46505809D01*
X16668761Y46553428D02*
X16525904Y46505809D01*
X16478285Y46458190D01*
X16430666Y46362952D01*
X16430666Y46220095D01*
X16478285Y46124857D01*
X16525904Y46077238D01*
X16621142Y46029619D01*
X17002095Y46029619D01*
X17002095Y47029619D01*
X16668761Y47029619D01*
X16573523Y46982000D01*
X16525904Y46934380D01*
X16478285Y46839142D01*
X16478285Y46743904D01*
X16525904Y46648666D01*
X16573523Y46601047D01*
X16668761Y46553428D01*
X17002095Y46553428D01*
X15573523Y46696285D02*
X15573523Y46029619D01*
X15811619Y47077238D02*
X16049714Y46362952D01*
X15430666Y46362952D01*
X18002095Y43489619D02*
X18002095Y44489619D01*
X17621142Y44489619D01*
X17525904Y44442000D01*
X17478285Y44394380D01*
X17430666Y44299142D01*
X17430666Y44156285D01*
X17478285Y44061047D01*
X17525904Y44013428D01*
X17621142Y43965809D01*
X18002095Y43965809D01*
X16668761Y44013428D02*
X16525904Y43965809D01*
X16478285Y43918190D01*
X16430666Y43822952D01*
X16430666Y43680095D01*
X16478285Y43584857D01*
X16525904Y43537238D01*
X16621142Y43489619D01*
X17002095Y43489619D01*
X17002095Y44489619D01*
X16668761Y44489619D01*
X16573523Y44442000D01*
X16525904Y44394380D01*
X16478285Y44299142D01*
X16478285Y44203904D01*
X16525904Y44108666D01*
X16573523Y44061047D01*
X16668761Y44013428D01*
X17002095Y44013428D01*
X15954476Y43489619D02*
X15764000Y43489619D01*
X15668761Y43537238D01*
X15621142Y43584857D01*
X15525904Y43727714D01*
X15478285Y43918190D01*
X15478285Y44299142D01*
X15525904Y44394380D01*
X15573523Y44442000D01*
X15668761Y44489619D01*
X15859238Y44489619D01*
X15954476Y44442000D01*
X16002095Y44394380D01*
X16049714Y44299142D01*
X16049714Y44061047D01*
X16002095Y43965809D01*
X15954476Y43918190D01*
X15859238Y43870571D01*
X15668761Y43870571D01*
X15573523Y43918190D01*
X15525904Y43965809D01*
X15478285Y44061047D01*
X17875095Y41076619D02*
X17875095Y42076619D01*
X17494142Y42076619D01*
X17398904Y42029000D01*
X17351285Y41981380D01*
X17303666Y41886142D01*
X17303666Y41743285D01*
X17351285Y41648047D01*
X17398904Y41600428D01*
X17494142Y41552809D01*
X17875095Y41552809D01*
X16541761Y41600428D02*
X16398904Y41552809D01*
X16351285Y41505190D01*
X16303666Y41409952D01*
X16303666Y41267095D01*
X16351285Y41171857D01*
X16398904Y41124238D01*
X16494142Y41076619D01*
X16875095Y41076619D01*
X16875095Y42076619D01*
X16541761Y42076619D01*
X16446523Y42029000D01*
X16398904Y41981380D01*
X16351285Y41886142D01*
X16351285Y41790904D01*
X16398904Y41695666D01*
X16446523Y41648047D01*
X16541761Y41600428D01*
X16875095Y41600428D01*
X15970333Y42076619D02*
X15303666Y42076619D01*
X15732238Y41076619D01*
X8223095Y43616619D02*
X8223095Y44616619D01*
X7842142Y44616619D01*
X7746904Y44569000D01*
X7699285Y44521380D01*
X7651666Y44426142D01*
X7651666Y44283285D01*
X7699285Y44188047D01*
X7746904Y44140428D01*
X7842142Y44092809D01*
X8223095Y44092809D01*
X6889761Y44140428D02*
X6746904Y44092809D01*
X6699285Y44045190D01*
X6651666Y43949952D01*
X6651666Y43807095D01*
X6699285Y43711857D01*
X6746904Y43664238D01*
X6842142Y43616619D01*
X7223095Y43616619D01*
X7223095Y44616619D01*
X6889761Y44616619D01*
X6794523Y44569000D01*
X6746904Y44521380D01*
X6699285Y44426142D01*
X6699285Y44330904D01*
X6746904Y44235666D01*
X6794523Y44188047D01*
X6889761Y44140428D01*
X7223095Y44140428D01*
X6080238Y44188047D02*
X6175476Y44235666D01*
X6223095Y44283285D01*
X6270714Y44378523D01*
X6270714Y44426142D01*
X6223095Y44521380D01*
X6175476Y44569000D01*
X6080238Y44616619D01*
X5889761Y44616619D01*
X5794523Y44569000D01*
X5746904Y44521380D01*
X5699285Y44426142D01*
X5699285Y44378523D01*
X5746904Y44283285D01*
X5794523Y44235666D01*
X5889761Y44188047D01*
X6080238Y44188047D01*
X6175476Y44140428D01*
X6223095Y44092809D01*
X6270714Y43997571D01*
X6270714Y43807095D01*
X6223095Y43711857D01*
X6175476Y43664238D01*
X6080238Y43616619D01*
X5889761Y43616619D01*
X5794523Y43664238D01*
X5746904Y43711857D01*
X5699285Y43807095D01*
X5699285Y43997571D01*
X5746904Y44092809D01*
X5794523Y44140428D01*
X5889761Y44188047D01*
X8096095Y41076619D02*
X8096095Y42076619D01*
X7715142Y42076619D01*
X7619904Y42029000D01*
X7572285Y41981380D01*
X7524666Y41886142D01*
X7524666Y41743285D01*
X7572285Y41648047D01*
X7619904Y41600428D01*
X7715142Y41552809D01*
X8096095Y41552809D01*
X6762761Y41600428D02*
X6619904Y41552809D01*
X6572285Y41505190D01*
X6524666Y41409952D01*
X6524666Y41267095D01*
X6572285Y41171857D01*
X6619904Y41124238D01*
X6715142Y41076619D01*
X7096095Y41076619D01*
X7096095Y42076619D01*
X6762761Y42076619D01*
X6667523Y42029000D01*
X6619904Y41981380D01*
X6572285Y41886142D01*
X6572285Y41790904D01*
X6619904Y41695666D01*
X6667523Y41648047D01*
X6762761Y41600428D01*
X7096095Y41600428D01*
X5667523Y42076619D02*
X5858000Y42076619D01*
X5953238Y42029000D01*
X6000857Y41981380D01*
X6096095Y41838523D01*
X6143714Y41648047D01*
X6143714Y41267095D01*
X6096095Y41171857D01*
X6048476Y41124238D01*
X5953238Y41076619D01*
X5762761Y41076619D01*
X5667523Y41124238D01*
X5619904Y41171857D01*
X5572285Y41267095D01*
X5572285Y41505190D01*
X5619904Y41600428D01*
X5667523Y41648047D01*
X5762761Y41695666D01*
X5953238Y41695666D01*
X6048476Y41648047D01*
X6096095Y41600428D01*
X6143714Y41505190D01*
X17525904Y39489000D02*
X17621142Y39536619D01*
X17764000Y39536619D01*
X17906857Y39489000D01*
X18002095Y39393761D01*
X18049714Y39298523D01*
X18097333Y39108047D01*
X18097333Y38965190D01*
X18049714Y38774714D01*
X18002095Y38679476D01*
X17906857Y38584238D01*
X17764000Y38536619D01*
X17668761Y38536619D01*
X17525904Y38584238D01*
X17478285Y38631857D01*
X17478285Y38965190D01*
X17668761Y38965190D01*
X17049714Y38536619D02*
X17049714Y39536619D01*
X16478285Y38536619D01*
X16478285Y39536619D01*
X16002095Y38536619D02*
X16002095Y39536619D01*
X15764000Y39536619D01*
X15621142Y39489000D01*
X15525904Y39393761D01*
X15478285Y39298523D01*
X15430666Y39108047D01*
X15430666Y38965190D01*
X15478285Y38774714D01*
X15525904Y38679476D01*
X15621142Y38584238D01*
X15764000Y38536619D01*
X16002095Y38536619D01*
X7619904Y39616000D02*
X7715142Y39663619D01*
X7858000Y39663619D01*
X8000857Y39616000D01*
X8096095Y39520761D01*
X8143714Y39425523D01*
X8191333Y39235047D01*
X8191333Y39092190D01*
X8143714Y38901714D01*
X8096095Y38806476D01*
X8000857Y38711238D01*
X7858000Y38663619D01*
X7762761Y38663619D01*
X7619904Y38711238D01*
X7572285Y38758857D01*
X7572285Y39092190D01*
X7762761Y39092190D01*
X7143714Y38663619D02*
X7143714Y39663619D01*
X6572285Y38663619D01*
X6572285Y39663619D01*
X6096095Y38663619D02*
X6096095Y39663619D01*
X5858000Y39663619D01*
X5715142Y39616000D01*
X5619904Y39520761D01*
X5572285Y39425523D01*
X5524666Y39235047D01*
X5524666Y39092190D01*
X5572285Y38901714D01*
X5619904Y38806476D01*
X5715142Y38711238D01*
X5858000Y38663619D01*
X6096095Y38663619D01*
X7619904Y37076000D02*
X7715142Y37123619D01*
X7858000Y37123619D01*
X8000857Y37076000D01*
X8096095Y36980761D01*
X8143714Y36885523D01*
X8191333Y36695047D01*
X8191333Y36552190D01*
X8143714Y36361714D01*
X8096095Y36266476D01*
X8000857Y36171238D01*
X7858000Y36123619D01*
X7762761Y36123619D01*
X7619904Y36171238D01*
X7572285Y36218857D01*
X7572285Y36552190D01*
X7762761Y36552190D01*
X7143714Y36123619D02*
X7143714Y37123619D01*
X6572285Y36123619D01*
X6572285Y37123619D01*
X6096095Y36123619D02*
X6096095Y37123619D01*
X5858000Y37123619D01*
X5715142Y37076000D01*
X5619904Y36980761D01*
X5572285Y36885523D01*
X5524666Y36695047D01*
X5524666Y36552190D01*
X5572285Y36361714D01*
X5619904Y36266476D01*
X5715142Y36171238D01*
X5858000Y36123619D01*
X6096095Y36123619D01*
X17525904Y36949000D02*
X17621142Y36996619D01*
X17764000Y36996619D01*
X17906857Y36949000D01*
X18002095Y36853761D01*
X18049714Y36758523D01*
X18097333Y36568047D01*
X18097333Y36425190D01*
X18049714Y36234714D01*
X18002095Y36139476D01*
X17906857Y36044238D01*
X17764000Y35996619D01*
X17668761Y35996619D01*
X17525904Y36044238D01*
X17478285Y36091857D01*
X17478285Y36425190D01*
X17668761Y36425190D01*
X17049714Y35996619D02*
X17049714Y36996619D01*
X16478285Y35996619D01*
X16478285Y36996619D01*
X16002095Y35996619D02*
X16002095Y36996619D01*
X15764000Y36996619D01*
X15621142Y36949000D01*
X15525904Y36853761D01*
X15478285Y36758523D01*
X15430666Y36568047D01*
X15430666Y36425190D01*
X15478285Y36234714D01*
X15525904Y36139476D01*
X15621142Y36044238D01*
X15764000Y35996619D01*
X16002095Y35996619D01*
X17875095Y33456619D02*
X17875095Y34456619D01*
X17494142Y34456619D01*
X17398904Y34409000D01*
X17351285Y34361380D01*
X17303666Y34266142D01*
X17303666Y34123285D01*
X17351285Y34028047D01*
X17398904Y33980428D01*
X17494142Y33932809D01*
X17875095Y33932809D01*
X16303666Y33551857D02*
X16351285Y33504238D01*
X16494142Y33456619D01*
X16589380Y33456619D01*
X16732238Y33504238D01*
X16827476Y33599476D01*
X16875095Y33694714D01*
X16922714Y33885190D01*
X16922714Y34028047D01*
X16875095Y34218523D01*
X16827476Y34313761D01*
X16732238Y34409000D01*
X16589380Y34456619D01*
X16494142Y34456619D01*
X16351285Y34409000D01*
X16303666Y34361380D01*
X15684619Y34456619D02*
X15589380Y34456619D01*
X15494142Y34409000D01*
X15446523Y34361380D01*
X15398904Y34266142D01*
X15351285Y34075666D01*
X15351285Y33837571D01*
X15398904Y33647095D01*
X15446523Y33551857D01*
X15494142Y33504238D01*
X15589380Y33456619D01*
X15684619Y33456619D01*
X15779857Y33504238D01*
X15827476Y33551857D01*
X15875095Y33647095D01*
X15922714Y33837571D01*
X15922714Y34075666D01*
X15875095Y34266142D01*
X15827476Y34361380D01*
X15779857Y34409000D01*
X15684619Y34456619D01*
X17748095Y30789619D02*
X17748095Y31789619D01*
X17367142Y31789619D01*
X17271904Y31742000D01*
X17224285Y31694380D01*
X17176666Y31599142D01*
X17176666Y31456285D01*
X17224285Y31361047D01*
X17271904Y31313428D01*
X17367142Y31265809D01*
X17748095Y31265809D01*
X16176666Y30884857D02*
X16224285Y30837238D01*
X16367142Y30789619D01*
X16462380Y30789619D01*
X16605238Y30837238D01*
X16700476Y30932476D01*
X16748095Y31027714D01*
X16795714Y31218190D01*
X16795714Y31361047D01*
X16748095Y31551523D01*
X16700476Y31646761D01*
X16605238Y31742000D01*
X16462380Y31789619D01*
X16367142Y31789619D01*
X16224285Y31742000D01*
X16176666Y31694380D01*
X15795714Y31694380D02*
X15748095Y31742000D01*
X15652857Y31789619D01*
X15414761Y31789619D01*
X15319523Y31742000D01*
X15271904Y31694380D01*
X15224285Y31599142D01*
X15224285Y31503904D01*
X15271904Y31361047D01*
X15843333Y30789619D01*
X15224285Y30789619D01*
X17676666Y28376619D02*
X17676666Y29376619D01*
X17295714Y29376619D01*
X17200476Y29329000D01*
X17152857Y29281380D01*
X17105238Y29186142D01*
X17105238Y29043285D01*
X17152857Y28948047D01*
X17200476Y28900428D01*
X17295714Y28852809D01*
X17676666Y28852809D01*
X16724285Y28662333D02*
X16248095Y28662333D01*
X16819523Y28376619D02*
X16486190Y29376619D01*
X16152857Y28376619D01*
X15629047Y29376619D02*
X15533809Y29376619D01*
X15438571Y29329000D01*
X15390952Y29281380D01*
X15343333Y29186142D01*
X15295714Y28995666D01*
X15295714Y28757571D01*
X15343333Y28567095D01*
X15390952Y28471857D01*
X15438571Y28424238D01*
X15533809Y28376619D01*
X15629047Y28376619D01*
X15724285Y28424238D01*
X15771904Y28471857D01*
X15819523Y28567095D01*
X15867142Y28757571D01*
X15867142Y28995666D01*
X15819523Y29186142D01*
X15771904Y29281380D01*
X15724285Y29329000D01*
X15629047Y29376619D01*
X18478285Y25836619D02*
X18478285Y26836619D01*
X18097333Y26836619D01*
X18002095Y26789000D01*
X17954476Y26741380D01*
X17906857Y26646142D01*
X17906857Y26503285D01*
X17954476Y26408047D01*
X18002095Y26360428D01*
X18097333Y26312809D01*
X18478285Y26312809D01*
X17144952Y26360428D02*
X17002095Y26312809D01*
X16954476Y26265190D01*
X16906857Y26169952D01*
X16906857Y26027095D01*
X16954476Y25931857D01*
X17002095Y25884238D01*
X17097333Y25836619D01*
X17478285Y25836619D01*
X17478285Y26836619D01*
X17144952Y26836619D01*
X17049714Y26789000D01*
X17002095Y26741380D01*
X16954476Y26646142D01*
X16954476Y26550904D01*
X17002095Y26455666D01*
X17049714Y26408047D01*
X17144952Y26360428D01*
X17478285Y26360428D01*
X15954476Y25836619D02*
X16525904Y25836619D01*
X16240190Y25836619D02*
X16240190Y26836619D01*
X16335428Y26693761D01*
X16430666Y26598523D01*
X16525904Y26550904D01*
X15335428Y26836619D02*
X15240190Y26836619D01*
X15144952Y26789000D01*
X15097333Y26741380D01*
X15049714Y26646142D01*
X15002095Y26455666D01*
X15002095Y26217571D01*
X15049714Y26027095D01*
X15097333Y25931857D01*
X15144952Y25884238D01*
X15240190Y25836619D01*
X15335428Y25836619D01*
X15430666Y25884238D01*
X15478285Y25931857D01*
X15525904Y26027095D01*
X15573523Y26217571D01*
X15573523Y26455666D01*
X15525904Y26646142D01*
X15478285Y26741380D01*
X15430666Y26789000D01*
X15335428Y26836619D01*
X17621095Y23423619D02*
X17621095Y24423619D01*
X17240142Y24423619D01*
X17144904Y24376000D01*
X17097285Y24328380D01*
X17049666Y24233142D01*
X17049666Y24090285D01*
X17097285Y23995047D01*
X17144904Y23947428D01*
X17240142Y23899809D01*
X17621095Y23899809D01*
X16287761Y23947428D02*
X16144904Y23899809D01*
X16097285Y23852190D01*
X16049666Y23756952D01*
X16049666Y23614095D01*
X16097285Y23518857D01*
X16144904Y23471238D01*
X16240142Y23423619D01*
X16621095Y23423619D01*
X16621095Y24423619D01*
X16287761Y24423619D01*
X16192523Y24376000D01*
X16144904Y24328380D01*
X16097285Y24233142D01*
X16097285Y24137904D01*
X16144904Y24042666D01*
X16192523Y23995047D01*
X16287761Y23947428D01*
X16621095Y23947428D01*
X15668714Y24328380D02*
X15621095Y24376000D01*
X15525857Y24423619D01*
X15287761Y24423619D01*
X15192523Y24376000D01*
X15144904Y24328380D01*
X15097285Y24233142D01*
X15097285Y24137904D01*
X15144904Y23995047D01*
X15716333Y23423619D01*
X15097285Y23423619D01*
X8096095Y33710619D02*
X8096095Y34710619D01*
X7715142Y34710619D01*
X7619904Y34663000D01*
X7572285Y34615380D01*
X7524666Y34520142D01*
X7524666Y34377285D01*
X7572285Y34282047D01*
X7619904Y34234428D01*
X7715142Y34186809D01*
X8096095Y34186809D01*
X6524666Y33805857D02*
X6572285Y33758238D01*
X6715142Y33710619D01*
X6810380Y33710619D01*
X6953238Y33758238D01*
X7048476Y33853476D01*
X7096095Y33948714D01*
X7143714Y34139190D01*
X7143714Y34282047D01*
X7096095Y34472523D01*
X7048476Y34567761D01*
X6953238Y34663000D01*
X6810380Y34710619D01*
X6715142Y34710619D01*
X6572285Y34663000D01*
X6524666Y34615380D01*
X5572285Y33710619D02*
X6143714Y33710619D01*
X5858000Y33710619D02*
X5858000Y34710619D01*
X5953238Y34567761D01*
X6048476Y34472523D01*
X6143714Y34424904D01*
X8096095Y31043619D02*
X8096095Y32043619D01*
X7715142Y32043619D01*
X7619904Y31996000D01*
X7572285Y31948380D01*
X7524666Y31853142D01*
X7524666Y31710285D01*
X7572285Y31615047D01*
X7619904Y31567428D01*
X7715142Y31519809D01*
X8096095Y31519809D01*
X6524666Y31138857D02*
X6572285Y31091238D01*
X6715142Y31043619D01*
X6810380Y31043619D01*
X6953238Y31091238D01*
X7048476Y31186476D01*
X7096095Y31281714D01*
X7143714Y31472190D01*
X7143714Y31615047D01*
X7096095Y31805523D01*
X7048476Y31900761D01*
X6953238Y31996000D01*
X6810380Y32043619D01*
X6715142Y32043619D01*
X6572285Y31996000D01*
X6524666Y31948380D01*
X6191333Y32043619D02*
X5572285Y32043619D01*
X5905619Y31662666D01*
X5762761Y31662666D01*
X5667523Y31615047D01*
X5619904Y31567428D01*
X5572285Y31472190D01*
X5572285Y31234095D01*
X5619904Y31138857D01*
X5667523Y31091238D01*
X5762761Y31043619D01*
X6048476Y31043619D01*
X6143714Y31091238D01*
X6191333Y31138857D01*
X8191285Y28376619D02*
X8191285Y29376619D01*
X7810333Y29376619D01*
X7715095Y29329000D01*
X7667476Y29281380D01*
X7619857Y29186142D01*
X7619857Y29043285D01*
X7667476Y28948047D01*
X7715095Y28900428D01*
X7810333Y28852809D01*
X8191285Y28852809D01*
X6857952Y28900428D02*
X6715095Y28852809D01*
X6667476Y28805190D01*
X6619857Y28709952D01*
X6619857Y28567095D01*
X6667476Y28471857D01*
X6715095Y28424238D01*
X6810333Y28376619D01*
X7191285Y28376619D01*
X7191285Y29376619D01*
X6857952Y29376619D01*
X6762714Y29329000D01*
X6715095Y29281380D01*
X6667476Y29186142D01*
X6667476Y29090904D01*
X6715095Y28995666D01*
X6762714Y28948047D01*
X6857952Y28900428D01*
X7191285Y28900428D01*
X5667476Y28376619D02*
X6238904Y28376619D01*
X5953190Y28376619D02*
X5953190Y29376619D01*
X6048428Y29233761D01*
X6143666Y29138523D01*
X6238904Y29090904D01*
X4715095Y28376619D02*
X5286523Y28376619D01*
X5000809Y28376619D02*
X5000809Y29376619D01*
X5096047Y29233761D01*
X5191285Y29138523D01*
X5286523Y29090904D01*
X8223095Y25836619D02*
X8223095Y26836619D01*
X7842142Y26836619D01*
X7746904Y26789000D01*
X7699285Y26741380D01*
X7651666Y26646142D01*
X7651666Y26503285D01*
X7699285Y26408047D01*
X7746904Y26360428D01*
X7842142Y26312809D01*
X8223095Y26312809D01*
X6651666Y25931857D02*
X6699285Y25884238D01*
X6842142Y25836619D01*
X6937380Y25836619D01*
X7080238Y25884238D01*
X7175476Y25979476D01*
X7223095Y26074714D01*
X7270714Y26265190D01*
X7270714Y26408047D01*
X7223095Y26598523D01*
X7175476Y26693761D01*
X7080238Y26789000D01*
X6937380Y26836619D01*
X6842142Y26836619D01*
X6699285Y26789000D01*
X6651666Y26741380D01*
X5746904Y26836619D02*
X6223095Y26836619D01*
X6270714Y26360428D01*
X6223095Y26408047D01*
X6127857Y26455666D01*
X5889761Y26455666D01*
X5794523Y26408047D01*
X5746904Y26360428D01*
X5699285Y26265190D01*
X5699285Y26027095D01*
X5746904Y25931857D01*
X5794523Y25884238D01*
X5889761Y25836619D01*
X6127857Y25836619D01*
X6223095Y25884238D01*
X6270714Y25931857D01*
X8096095Y23423619D02*
X8096095Y24423619D01*
X7715142Y24423619D01*
X7619904Y24376000D01*
X7572285Y24328380D01*
X7524666Y24233142D01*
X7524666Y24090285D01*
X7572285Y23995047D01*
X7619904Y23947428D01*
X7715142Y23899809D01*
X8096095Y23899809D01*
X6762761Y23947428D02*
X6619904Y23899809D01*
X6572285Y23852190D01*
X6524666Y23756952D01*
X6524666Y23614095D01*
X6572285Y23518857D01*
X6619904Y23471238D01*
X6715142Y23423619D01*
X7096095Y23423619D01*
X7096095Y24423619D01*
X6762761Y24423619D01*
X6667523Y24376000D01*
X6619904Y24328380D01*
X6572285Y24233142D01*
X6572285Y24137904D01*
X6619904Y24042666D01*
X6667523Y23995047D01*
X6762761Y23947428D01*
X7096095Y23947428D01*
X5572285Y23423619D02*
X6143714Y23423619D01*
X5858000Y23423619D02*
X5858000Y24423619D01*
X5953238Y24280761D01*
X6048476Y24185523D01*
X6143714Y24137904D01*
D11*
%TO.C,U4*%
X46250000Y47250000D02*
X40000000Y47250000D01*
X46250000Y26750000D02*
X40000000Y26750000D01*
X46250000Y26750000D02*
X46250000Y47250000D01*
D12*
X38650000Y47000000D02*
G75*
G03*
X38650000Y47000000I-150000J0D01*
G01*
D10*
X47797619Y36238095D02*
X46988095Y36238095D01*
X46892857Y36285714D01*
X46845238Y36333333D01*
X46797619Y36428571D01*
X46797619Y36619047D01*
X46845238Y36714285D01*
X46892857Y36761904D01*
X46988095Y36809523D01*
X47797619Y36809523D01*
X47464285Y37714285D02*
X46797619Y37714285D01*
X47845238Y37476190D02*
X47130952Y37238095D01*
X47130952Y37857142D01*
%TD*%
M02*
