%TF.GenerationSoftware,KiCad,Pcbnew,(5.1.10)-1*%
%TF.CreationDate,2021-12-17T12:10:03-05:00*%
%TF.ProjectId,Chess-Timer-RevA,43686573-732d-4546-996d-65722d526576,rev?*%
%TF.SameCoordinates,Original*%
%TF.FileFunction,Copper,L4,Bot*%
%TF.FilePolarity,Positive*%
%FSLAX46Y46*%
G04 Gerber Fmt 4.6, Leading zero omitted, Abs format (unit mm)*
G04 Created by KiCad (PCBNEW (5.1.10)-1) date 2021-12-17 12:10:03*
%MOMM*%
%LPD*%
G01*
G04 APERTURE LIST*
%TA.AperFunction,SMDPad,CuDef*%
%ADD10R,5.000000X0.300000*%
%TD*%
%TA.AperFunction,ComponentPad*%
%ADD11C,2.600000*%
%TD*%
%TA.AperFunction,ComponentPad*%
%ADD12C,6.400000*%
%TD*%
%TA.AperFunction,ComponentPad*%
%ADD13C,2.000000*%
%TD*%
%TA.AperFunction,ComponentPad*%
%ADD14C,1.700000*%
%TD*%
%TA.AperFunction,ComponentPad*%
%ADD15R,1.700000X1.700000*%
%TD*%
%TA.AperFunction,ComponentPad*%
%ADD16O,1.700000X1.700000*%
%TD*%
%TA.AperFunction,ComponentPad*%
%ADD17C,1.524000*%
%TD*%
%TA.AperFunction,ViaPad*%
%ADD18C,0.800000*%
%TD*%
%TA.AperFunction,ViaPad*%
%ADD19C,0.600000*%
%TD*%
%TA.AperFunction,Conductor*%
%ADD20C,0.500000*%
%TD*%
%TA.AperFunction,Conductor*%
%ADD21C,0.250000*%
%TD*%
%TA.AperFunction,Conductor*%
%ADD22C,0.750000*%
%TD*%
%TA.AperFunction,Conductor*%
%ADD23C,1.500000*%
%TD*%
%TA.AperFunction,Conductor*%
%ADD24C,0.300000*%
%TD*%
%TA.AperFunction,Conductor*%
%ADD25C,1.000000*%
%TD*%
%TA.AperFunction,Conductor*%
%ADD26C,0.254000*%
%TD*%
%TA.AperFunction,Conductor*%
%ADD27C,0.100000*%
%TD*%
G04 APERTURE END LIST*
D10*
%TO.P,U4,40*%
%TO.N,ADC_IN21*%
X42000000Y27250000D03*
%TO.P,U4,39*%
%TO.N,ADC_IN20*%
X42000000Y27750000D03*
%TO.P,U4,38*%
%TO.N,ADC_IN19*%
X42000000Y28250000D03*
%TO.P,U4,37*%
%TO.N,ADC_IN18*%
X42000000Y28750000D03*
%TO.P,U4,36*%
%TO.N,SPI_CS*%
X42000000Y29250000D03*
%TO.P,U4,35*%
%TO.N,RS*%
X42000000Y29750000D03*
%TO.P,U4,34*%
%TO.N,WR*%
X42000000Y30250000D03*
%TO.P,U4,33*%
%TO.N,RD*%
X42000000Y30750000D03*
%TO.P,U4,32*%
%TO.N,GND*%
X42000000Y31250000D03*
%TO.P,U4,31*%
X42000000Y31750000D03*
%TO.P,U4,30*%
X42000000Y32250000D03*
%TO.P,U4,29*%
X42000000Y32750000D03*
%TO.P,U4,28*%
X42000000Y33250000D03*
%TO.P,U4,27*%
X42000000Y33750000D03*
%TO.P,U4,26*%
X42000000Y34250000D03*
%TO.P,U4,25*%
X42000000Y34750000D03*
%TO.P,U4,24*%
X42000000Y35250000D03*
%TO.P,U4,23*%
X42000000Y35750000D03*
%TO.P,U4,22*%
X42000000Y36250000D03*
%TO.P,U4,21*%
X42000000Y36750000D03*
%TO.P,U4,1*%
X42000000Y46750000D03*
%TO.P,U4,2*%
%TO.N,Net-(R14-Pad1)*%
X42000000Y46250000D03*
%TO.P,U4,3*%
%TO.N,GND*%
X42000000Y45750000D03*
%TO.P,U4,4*%
%TO.N,Net-(U4-Pad4)*%
X42000000Y45250000D03*
%TO.P,U4,5*%
%TO.N,Net-(U4-Pad5)*%
X42000000Y44750000D03*
%TO.P,U4,6*%
%TO.N,Net-(U4-Pad6)*%
X42000000Y44250000D03*
%TO.P,U4,7*%
%TO.N,SPI_MOSI*%
X42000000Y43750000D03*
%TO.P,U4,8*%
%TO.N,SPI_SCLK*%
X42000000Y43250000D03*
%TO.P,U4,9*%
%TO.N,DE*%
X42000000Y42750000D03*
%TO.P,U4,10*%
%TO.N,VSYNC*%
X42000000Y42250000D03*
%TO.P,U4,11*%
%TO.N,HSYNC*%
X42000000Y41750000D03*
%TO.P,U4,12*%
%TO.N,+3V3*%
X42000000Y41250000D03*
%TO.P,U4,13*%
%TO.N,LCD_RESET*%
X42000000Y40750000D03*
%TO.P,U4,14*%
%TO.N,GND*%
X42000000Y40250000D03*
%TO.P,U4,15*%
X42000000Y39750000D03*
%TO.P,U4,16*%
X42000000Y39250000D03*
%TO.P,U4,17*%
X42000000Y38750000D03*
%TO.P,U4,18*%
X42000000Y38250000D03*
%TO.P,U4,19*%
X42000000Y37750000D03*
%TO.P,U4,20*%
X42000000Y37250000D03*
%TD*%
D11*
%TO.P,TP9,1*%
%TO.N,CHARGE_STAT*%
X13208000Y16002000D03*
%TD*%
D12*
%TO.P,MT3,1*%
%TO.N,N/C*%
X64000000Y68250000D03*
%TD*%
%TO.P,MT4,1*%
%TO.N,N/C*%
X64000000Y5750000D03*
%TD*%
%TO.P,MT1,1*%
%TO.N,N/C*%
X6000000Y5750000D03*
%TD*%
%TO.P,MT2,1*%
%TO.N,N/C*%
X6000000Y68250000D03*
%TD*%
D13*
%TO.P,H7,1*%
%TO.N,GND*%
X2794000Y58013600D03*
%TD*%
%TO.P,H3,1*%
%TO.N,HSYNC*%
X65227200Y52730400D03*
%TD*%
%TO.P,H2,1*%
%TO.N,VSYNC*%
X60604400Y59131200D03*
%TD*%
%TO.P,H1,1*%
%TO.N,DE*%
X55321200Y64414400D03*
%TD*%
%TO.P,J2,1*%
%TO.N,+3V3*%
%TA.AperFunction,ComponentPad*%
G36*
G01*
X52490000Y47914000D02*
X52490000Y49114000D01*
G75*
G02*
X52740000Y49364000I250000J0D01*
G01*
X53940000Y49364000D01*
G75*
G02*
X54190000Y49114000I0J-250000D01*
G01*
X54190000Y47914000D01*
G75*
G02*
X53940000Y47664000I-250000J0D01*
G01*
X52740000Y47664000D01*
G75*
G02*
X52490000Y47914000I0J250000D01*
G01*
G37*
%TD.AperFunction*%
D14*
%TO.P,J2,3*%
%TO.N,Net-(J2-Pad3)*%
X53340000Y45974000D03*
%TO.P,J2,5*%
%TO.N,Net-(J2-Pad5)*%
X53340000Y43434000D03*
%TO.P,J2,7*%
%TO.N,SWDIO*%
X53340000Y40894000D03*
%TO.P,J2,9*%
%TO.N,SWCLK*%
X53340000Y38354000D03*
%TO.P,J2,11*%
%TO.N,Net-(J2-Pad11)*%
X53340000Y35814000D03*
%TO.P,J2,13*%
%TO.N,SWO*%
X53340000Y33274000D03*
%TO.P,J2,15*%
%TO.N,NRST*%
X53340000Y30734000D03*
%TO.P,J2,17*%
%TO.N,Net-(J2-Pad17)*%
X53340000Y28194000D03*
%TO.P,J2,19*%
%TO.N,+5V*%
X53340000Y25654000D03*
%TO.P,J2,2*%
%TO.N,Net-(J2-Pad2)*%
X55880000Y48514000D03*
%TO.P,J2,4*%
%TO.N,GND*%
X55880000Y45974000D03*
%TO.P,J2,6*%
X55880000Y43434000D03*
%TO.P,J2,8*%
X55880000Y40894000D03*
%TO.P,J2,10*%
X55880000Y38354000D03*
%TO.P,J2,12*%
X55880000Y35814000D03*
%TO.P,J2,14*%
X55880000Y33274000D03*
%TO.P,J2,16*%
X55880000Y30734000D03*
%TO.P,J2,18*%
X55880000Y28194000D03*
%TO.P,J2,20*%
X55880000Y25654000D03*
%TD*%
D15*
%TO.P,J4,1*%
%TO.N,+3V3*%
X10414000Y51816000D03*
D16*
%TO.P,J4,2*%
X12954000Y51816000D03*
%TO.P,J4,3*%
X10414000Y49276000D03*
%TO.P,J4,4*%
X12954000Y49276000D03*
%TO.P,J4,5*%
%TO.N,Net-(J4-Pad5)*%
X10414000Y46736000D03*
%TO.P,J4,6*%
%TO.N,PB4*%
X12954000Y46736000D03*
%TO.P,J4,7*%
%TO.N,PB8*%
X10414000Y44196000D03*
%TO.P,J4,8*%
%TO.N,PB9*%
X12954000Y44196000D03*
%TO.P,J4,9*%
%TO.N,PB6*%
X10414000Y41656000D03*
%TO.P,J4,10*%
%TO.N,PB7*%
X12954000Y41656000D03*
%TO.P,J4,11*%
%TO.N,GND*%
X10414000Y39116000D03*
%TO.P,J4,12*%
X12954000Y39116000D03*
%TO.P,J4,13*%
X10414000Y36576000D03*
%TO.P,J4,14*%
X12954000Y36576000D03*
%TO.P,J4,15*%
%TO.N,PC1*%
X10414000Y34036000D03*
%TO.P,J4,16*%
%TO.N,PC0*%
X12954000Y34036000D03*
%TO.P,J4,17*%
%TO.N,PC3*%
X10414000Y31496000D03*
%TO.P,J4,18*%
%TO.N,PC2*%
X12954000Y31496000D03*
%TO.P,J4,19*%
%TO.N,PB11*%
X10414000Y28956000D03*
%TO.P,J4,20*%
%TO.N,PA0*%
X12954000Y28956000D03*
%TO.P,J4,21*%
%TO.N,PC5*%
X10414000Y26416000D03*
%TO.P,J4,22*%
%TO.N,PB10*%
X12954000Y26416000D03*
%TO.P,J4,23*%
%TO.N,PB1*%
X10414000Y23876000D03*
%TO.P,J4,24*%
%TO.N,PB2*%
X12954000Y23876000D03*
%TD*%
D11*
%TO.P,TP1,1*%
%TO.N,Net-(C1-Pad1)*%
X53962300Y16878300D03*
%TD*%
%TO.P,TP3,1*%
%TO.N,Net-(R7-Pad2)*%
X3302000Y26314400D03*
%TD*%
%TO.P,TP4,1*%
%TO.N,GND*%
X12573000Y7569200D03*
%TD*%
%TO.P,TP5,1*%
%TO.N,Net-(C3-Pad1)*%
X22860000Y62738000D03*
%TD*%
%TO.P,TP6,1*%
%TO.N,GND*%
X47200000Y62738000D03*
%TD*%
%TO.P,TP7,1*%
%TO.N,+3V3*%
X34950400Y65100200D03*
%TD*%
D17*
%TO.P,BT1,1*%
%TO.N,+BATT*%
X22526000Y2794000D03*
%TO.P,BT1,2*%
%TO.N,GND*%
X12526000Y2794000D03*
%TD*%
D18*
%TO.N,GND*%
X17627600Y20955000D03*
X26720800Y44792900D03*
X25908000Y44119800D03*
X19304000Y11938000D03*
X20574000Y11938000D03*
X21844000Y11938000D03*
X21844000Y10668000D03*
X30226000Y13716000D03*
X30226000Y12446000D03*
X30226000Y11176000D03*
X28448000Y12446000D03*
X28448000Y11176000D03*
X32867600Y15392400D03*
X30607000Y42037000D03*
X33147000Y42037000D03*
X25044400Y44767500D03*
X6263000Y57190000D03*
X23723600Y30734000D03*
X23876000Y36931600D03*
X37363400Y7924800D03*
X38557200Y7061200D03*
X39751000Y7874000D03*
X20574000Y40640000D03*
X31242000Y19812000D03*
X32893000Y38658800D03*
X25400000Y28702000D03*
X26974800Y28752800D03*
X45402500Y33401000D03*
X46990000Y43942000D03*
X38354000Y32664400D03*
X37185600Y31851600D03*
X35864800Y32715200D03*
X47599600Y46786800D03*
X48006000Y45364400D03*
X67614800Y37084000D03*
X65024000Y30734000D03*
X2438400Y32512000D03*
X2413000Y37338000D03*
X57099200Y2794000D03*
X21695493Y25302293D03*
X39268400Y19913600D03*
X40817800Y18389600D03*
X25908000Y46812200D03*
%TO.N,+BATT*%
X42824400Y4318000D03*
X44754800Y4267200D03*
X42773600Y2387600D03*
X44754800Y2387600D03*
%TO.N,NRST*%
X37033200Y27381200D03*
%TO.N,SWDIO*%
X47752000Y34226500D03*
D19*
%TO.N,RS*%
X37287200Y29133800D03*
%TO.N,WR*%
X36499800Y29819600D03*
%TO.N,RD*%
X36042600Y30759400D03*
D18*
%TO.N,PC0*%
X28448000Y29108400D03*
%TO.N,PC1*%
X32355597Y28960003D03*
%TO.N,PC2*%
X32562800Y27482800D03*
%TO.N,PC3*%
X32562800Y26416000D03*
%TO.N,PB2*%
X38125400Y21437600D03*
%TO.N,PC5*%
X34899600Y18846800D03*
%TO.N,PB4*%
X29108400Y40233600D03*
%TO.N,PB6*%
X32918400Y30710010D03*
%TO.N,PB7*%
X32258000Y31597600D03*
%TO.N,PB8*%
X32969200Y32461200D03*
%TO.N,PB9*%
X32308344Y33301338D03*
%TO.N,Net-(R9-Pad1)*%
X25196800Y41503600D03*
X19939000Y57531000D03*
%TO.N,ADC_IN8*%
X37388800Y17170400D03*
X57099200Y4809995D03*
%TO.N,Net-(R14-Pad1)*%
X44364408Y52543208D03*
D19*
%TO.N,SPI_CS*%
X35240073Y28255073D03*
%TO.N,SPI_SCLK*%
X35814000Y26035000D03*
%TO.N,SPI_MOSI*%
X35052000Y24892000D03*
%TO.N,ADC_IN18*%
X40132000Y25019000D03*
%TO.N,ADC_IN19*%
X40068500Y25971500D03*
%TO.N,ADC_IN20*%
X43116500Y26035000D03*
%TO.N,ADC_IN21*%
X44005500Y26352500D03*
D18*
%TO.N,LCD_RESET*%
X38303200Y36474400D03*
%TO.N,+3V3*%
X44221400Y21717000D03*
X42646600Y23317200D03*
X65074800Y48920400D03*
X37033200Y40995600D03*
X31750000Y48641000D03*
X33274000Y48641000D03*
X34925000Y48641000D03*
X36449000Y48641000D03*
X34925000Y47244000D03*
X36449000Y47244000D03*
X34925000Y45974000D03*
X36449000Y45974000D03*
X34925000Y44704000D03*
X36449000Y44704000D03*
X33274000Y47244000D03*
X31750000Y47244000D03*
X30861000Y38735000D03*
X45317516Y35073484D03*
X42468800Y48310800D03*
X33274000Y19812000D03*
X27686000Y23977600D03*
X25399997Y24002997D03*
X48542707Y40560493D03*
X49580800Y55118000D03*
X44332404Y54543204D03*
X3429000Y48768000D03*
%TO.N,PA12*%
X58572400Y32004000D03*
X62382400Y41503600D03*
%TO.N,TIM3_CH1*%
X62433200Y35509200D03*
X58470800Y26974800D03*
%TO.N,PB1*%
X37795200Y19227800D03*
%TO.N,PB10*%
X37795200Y24942800D03*
%TO.N,PB11*%
X37030773Y25804681D03*
%TO.N,PA0*%
X32207200Y25298400D03*
%TD*%
D20*
%TO.N,GND*%
X42000000Y39750000D02*
X42000000Y39280000D01*
X42000000Y39280000D02*
X42037000Y39243000D01*
X42037000Y39243000D02*
X42037000Y38354000D01*
X42037000Y38354000D02*
X42037000Y37719000D01*
X42037000Y37719000D02*
X42037000Y37211000D01*
X42037000Y37211000D02*
X42037000Y36830000D01*
X42037000Y36830000D02*
X42037000Y36322000D01*
X42037000Y36322000D02*
X42037000Y35687000D01*
X42037000Y35687000D02*
X42037000Y35179000D01*
X42037000Y35179000D02*
X42037000Y34798000D01*
X42037000Y34798000D02*
X42037000Y34290000D01*
X42037000Y34290000D02*
X42037000Y33782000D01*
X42037000Y33782000D02*
X42037000Y33274000D01*
X42037000Y33274000D02*
X42037000Y32766000D01*
X42037000Y32766000D02*
X42037000Y32258000D01*
X42037000Y32258000D02*
X42037000Y31750000D01*
X42037000Y31750000D02*
X42037000Y31475010D01*
X42000000Y39750000D02*
X42000000Y40024999D01*
D21*
X38955600Y31250000D02*
X38608000Y31597600D01*
X42000000Y31250000D02*
X38955600Y31250000D01*
X42000000Y45750000D02*
X45385200Y45750000D01*
D20*
X48006000Y45466000D02*
X48006000Y45364400D01*
X47701200Y45770800D02*
X48006000Y45466000D01*
X45313600Y45770800D02*
X47701200Y45770800D01*
D21*
X43752800Y46750000D02*
X43738800Y46736000D01*
D22*
X45198000Y46750000D02*
X47562800Y46750000D01*
D21*
X42000000Y46750000D02*
X45198000Y46750000D01*
D22*
X47562800Y46750000D02*
X47599600Y46786800D01*
D21*
X45198000Y46750000D02*
X45756800Y46750000D01*
D23*
%TO.N,+BATT*%
X42519600Y2794000D02*
X42722800Y2997200D01*
X22526000Y2794000D02*
X42519600Y2794000D01*
D24*
%TO.N,NRST*%
X46888400Y24282400D02*
X53340000Y30734000D01*
X39801800Y24282400D02*
X46888400Y24282400D01*
X37033200Y27051000D02*
X39801800Y24282400D01*
X37033200Y27381200D02*
X37033200Y27051000D01*
%TO.N,SWDIO*%
X47752000Y35369500D02*
X47752000Y34226500D01*
X53213000Y40830500D02*
X47752000Y35369500D01*
D21*
%TO.N,RS*%
X37903400Y29750000D02*
X37287200Y29133800D01*
X42000000Y29750000D02*
X37903400Y29750000D01*
%TO.N,WR*%
X36930200Y30250000D02*
X36499800Y29819600D01*
X42000000Y30250000D02*
X36930200Y30250000D01*
%TO.N,RD*%
X36052000Y30750000D02*
X42000000Y30750000D01*
X36042600Y30759400D02*
X36052000Y30750000D01*
%TO.N,HSYNC*%
X51257200Y44704000D02*
X57302400Y44704000D01*
X57302400Y44704000D02*
X65278000Y52679600D01*
X48303200Y41750000D02*
X51257200Y44704000D01*
X42000000Y41750000D02*
X48303200Y41750000D01*
%TO.N,VSYNC*%
X50647600Y49123600D02*
X60706000Y59182000D01*
X50647600Y45008800D02*
X50647600Y49123600D01*
X47888800Y42250000D02*
X50647600Y45008800D01*
X42000000Y42250000D02*
X47888800Y42250000D01*
%TO.N,DE*%
X49784000Y52273200D02*
X55321200Y57810400D01*
X49784000Y45110400D02*
X49784000Y52273200D01*
X55321200Y57810400D02*
X55321200Y64414400D01*
X47423600Y42750000D02*
X49784000Y45110400D01*
X42000000Y42750000D02*
X47423600Y42750000D01*
D24*
%TO.N,PC0*%
X28448000Y29108400D02*
X27940000Y29616400D01*
X19812000Y29616400D02*
X15392400Y34036000D01*
X27940000Y29616400D02*
X19812000Y29616400D01*
X12954000Y34036000D02*
X15392400Y34036000D01*
%TO.N,PC1*%
X10414000Y34036000D02*
X11684000Y32766000D01*
X32355597Y28960003D02*
X30988000Y27592406D01*
X20261194Y27592406D02*
X15087600Y32766000D01*
X30988000Y27592406D02*
X20261194Y27592406D01*
X11684000Y32766000D02*
X15087600Y32766000D01*
%TO.N,PC2*%
X15036800Y31496000D02*
X12954000Y31496000D01*
X19659600Y26873200D02*
X15036800Y31496000D01*
X31953200Y26873200D02*
X19659600Y26873200D01*
X32562800Y27482800D02*
X31953200Y26873200D01*
%TO.N,PC3*%
X14668798Y30226000D02*
X18724809Y26169989D01*
X10414000Y31496000D02*
X11684000Y30226000D01*
X11684000Y30226000D02*
X14668798Y30226000D01*
X18724809Y26169989D02*
X32316789Y26169989D01*
X32316789Y26169989D02*
X32562800Y26416000D01*
%TO.N,PB2*%
X36271200Y21437600D02*
X38125400Y21437600D01*
X33782000Y18948400D02*
X36271200Y21437600D01*
X16256000Y18948400D02*
X33782000Y18948400D01*
X12954000Y22250400D02*
X16256000Y18948400D01*
X12954000Y23876000D02*
X12954000Y22250400D01*
%TO.N,PC5*%
X34340800Y18288000D02*
X34899600Y18846800D01*
X15595600Y18288000D02*
X34340800Y18288000D01*
X11734800Y22148800D02*
X15595600Y18288000D01*
X11684000Y22148800D02*
X11734800Y22148800D01*
X11684000Y25146000D02*
X11684000Y22148800D01*
X10414000Y26416000D02*
X11684000Y25146000D01*
%TO.N,PB4*%
X29108400Y40233600D02*
X23571200Y40233600D01*
X23571200Y40233600D02*
X17119600Y46685200D01*
X17119600Y46685200D02*
X12852400Y46685200D01*
%TO.N,PB6*%
X10414000Y41656000D02*
X11684000Y40386000D01*
X11684000Y40386000D02*
X15443200Y40386000D01*
X15443200Y40386000D02*
X25119190Y30710010D01*
X25119190Y30710010D02*
X32918400Y30710010D01*
%TO.N,PB7*%
X15290800Y41656000D02*
X12954000Y41656000D01*
X25349200Y31597600D02*
X15290800Y41656000D01*
X32258000Y31597600D02*
X25349200Y31597600D01*
%TO.N,PB8*%
X25755600Y32461200D02*
X32969200Y32461200D01*
X15290800Y42926000D02*
X25755600Y32461200D01*
X11684000Y42926000D02*
X15290800Y42926000D01*
X10414000Y44196000D02*
X11684000Y42926000D01*
%TO.N,PB9*%
X15240000Y44196000D02*
X12954000Y44196000D01*
X26134662Y33301338D02*
X15240000Y44196000D01*
X32308344Y33301338D02*
X26134662Y33301338D01*
D20*
%TO.N,Net-(R9-Pad1)*%
X19812000Y57531000D02*
X19812000Y57531000D01*
X23901400Y41503600D02*
X25196800Y41503600D01*
X19939000Y45466000D02*
X23901400Y41503600D01*
X19939000Y57531000D02*
X19939000Y45466000D01*
%TO.N,ADC_IN8*%
X54905405Y4809995D02*
X57099200Y4809995D01*
X42545000Y17170400D02*
X54905405Y4809995D01*
X37388800Y17170400D02*
X42545000Y17170400D01*
D21*
%TO.N,Net-(R14-Pad1)*%
X39264998Y46250000D02*
X38455600Y47059398D01*
X42000000Y46250000D02*
X39264998Y46250000D01*
X38455600Y47059398D02*
X38455600Y47802800D01*
D25*
X43196008Y52543208D02*
X44364408Y52543208D01*
X38455600Y47802800D02*
X43196008Y52543208D01*
D21*
%TO.N,SPI_CS*%
X38639412Y29250000D02*
X38639396Y29250016D01*
X42000000Y29250000D02*
X38639412Y29250000D01*
X38639412Y29250000D02*
X37644485Y28255073D01*
X37644485Y28255073D02*
X35240073Y28255073D01*
D24*
%TO.N,SPI_SCLK*%
X34544000Y27305000D02*
X35814000Y26035000D01*
X34544000Y39979600D02*
X34544000Y27305000D01*
X37814400Y43250000D02*
X34544000Y39979600D01*
X42000000Y43250000D02*
X37814400Y43250000D01*
%TO.N,SPI_MOSI*%
X33934400Y26009600D02*
X35052000Y24892000D01*
X33934400Y40690800D02*
X33934400Y26009600D01*
X36993600Y43750000D02*
X33934400Y40690800D01*
X42000000Y43750000D02*
X36993600Y43750000D01*
D21*
%TO.N,ADC_IN18*%
X40030400Y25019000D02*
X40132000Y25019000D01*
X38531800Y26517600D02*
X40030400Y25019000D01*
X38531800Y28244800D02*
X38531800Y26517600D01*
X39037008Y28750008D02*
X38531800Y28244800D01*
X42008808Y28750008D02*
X39037008Y28750008D01*
%TO.N,ADC_IN19*%
X39738300Y25971500D02*
X40068500Y25971500D01*
X39014400Y26695400D02*
X39738300Y25971500D01*
X39014400Y28064400D02*
X39014400Y26695400D01*
X39200000Y28250000D02*
X39014400Y28064400D01*
X42000000Y28250000D02*
X39200000Y28250000D01*
%TO.N,ADC_IN20*%
X43497500Y25654000D02*
X43116500Y26035000D01*
X44269002Y25654000D02*
X43497500Y25654000D01*
X45466000Y26850998D02*
X44269002Y25654000D01*
X45466000Y27241500D02*
X45466000Y26850998D01*
X44957500Y27750000D02*
X45466000Y27241500D01*
X42000000Y27750000D02*
X44957500Y27750000D01*
D24*
%TO.N,ADC_IN21*%
X44005500Y26352500D02*
X43116500Y27241500D01*
X43116500Y27241500D02*
X41973500Y27241500D01*
D21*
%TO.N,LCD_RESET*%
X38303200Y39803200D02*
X38303200Y36474400D01*
X39250000Y40750000D02*
X38303200Y39803200D01*
X42000000Y40750000D02*
X39250000Y40750000D01*
%TO.N,+3V3*%
X38506800Y41250000D02*
X38455600Y41198800D01*
X42000000Y41250000D02*
X38506800Y41250000D01*
D25*
X37236400Y41198800D02*
X38455600Y41198800D01*
X37033200Y40995600D02*
X37236400Y41198800D01*
D24*
%TO.N,PA12*%
X60198000Y39319200D02*
X62382400Y41503600D01*
X60198000Y33629600D02*
X60198000Y39319200D01*
X58572400Y32004000D02*
X60198000Y33629600D01*
%TO.N,TIM3_CH1*%
X62433200Y30937200D02*
X62433200Y35509200D01*
X58470800Y26974800D02*
X62433200Y30937200D01*
%TO.N,PB1*%
X14910799Y17652001D02*
X36219401Y17652001D01*
X10414000Y22148800D02*
X14910799Y17652001D01*
X36219401Y17652001D02*
X37795200Y19227800D01*
X10414000Y23876000D02*
X10414000Y22148800D01*
%TO.N,PB10*%
X17119600Y22098000D02*
X12903200Y26314400D01*
X37795200Y23977600D02*
X35915600Y22098000D01*
X35915600Y22098000D02*
X17119600Y22098000D01*
X37795200Y24942800D02*
X37795200Y23977600D01*
%TO.N,PB11*%
X10414000Y28956000D02*
X11684000Y27686000D01*
X18745200Y22606000D02*
X33832092Y22606000D01*
X11684000Y27686000D02*
X13665200Y27686000D01*
X13665200Y27686000D02*
X18745200Y22606000D01*
X33832092Y22606000D02*
X37030773Y25804681D01*
%TO.N,PA0*%
X14376400Y28956000D02*
X12954000Y28956000D01*
X20167600Y23164800D02*
X14376400Y28956000D01*
X30073600Y23164800D02*
X20167600Y23164800D01*
X32207200Y25298400D02*
X30073600Y23164800D01*
%TD*%
D26*
%TO.N,GND*%
X38887400Y31470600D02*
X36466773Y31470600D01*
X36434331Y31492277D01*
X36283827Y31554618D01*
X36124052Y31586400D01*
X35961148Y31586400D01*
X35801373Y31554618D01*
X35650869Y31492277D01*
X35618427Y31470600D01*
X35382200Y31470600D01*
X35382200Y33350200D01*
X38887400Y33350200D01*
X38887400Y31470600D01*
%TA.AperFunction,Conductor*%
D27*
G36*
X38887400Y31470600D02*
G01*
X36466773Y31470600D01*
X36434331Y31492277D01*
X36283827Y31554618D01*
X36124052Y31586400D01*
X35961148Y31586400D01*
X35801373Y31554618D01*
X35650869Y31492277D01*
X35618427Y31470600D01*
X35382200Y31470600D01*
X35382200Y33350200D01*
X38887400Y33350200D01*
X38887400Y31470600D01*
G37*
%TD.AperFunction*%
%TD*%
D26*
%TO.N,+BATT*%
X45745400Y1549400D02*
X42037000Y1549400D01*
X42037000Y4851400D01*
X45745400Y4851400D01*
X45745400Y1549400D01*
%TA.AperFunction,Conductor*%
D27*
G36*
X45745400Y1549400D02*
G01*
X42037000Y1549400D01*
X42037000Y4851400D01*
X45745400Y4851400D01*
X45745400Y1549400D01*
G37*
%TD.AperFunction*%
%TD*%
M02*
