%TF.GenerationSoftware,KiCad,Pcbnew,(5.1.10)-1*%
%TF.CreationDate,2021-12-17T12:10:02-05:00*%
%TF.ProjectId,Chess-Timer-RevA,43686573-732d-4546-996d-65722d526576,rev?*%
%TF.SameCoordinates,Original*%
%TF.FileFunction,Copper,L2,Inr*%
%TF.FilePolarity,Positive*%
%FSLAX46Y46*%
G04 Gerber Fmt 4.6, Leading zero omitted, Abs format (unit mm)*
G04 Created by KiCad (PCBNEW (5.1.10)-1) date 2021-12-17 12:10:02*
%MOMM*%
%LPD*%
G01*
G04 APERTURE LIST*
%TA.AperFunction,ComponentPad*%
%ADD10C,2.600000*%
%TD*%
%TA.AperFunction,ComponentPad*%
%ADD11C,6.400000*%
%TD*%
%TA.AperFunction,ComponentPad*%
%ADD12C,2.000000*%
%TD*%
%TA.AperFunction,ComponentPad*%
%ADD13C,1.700000*%
%TD*%
%TA.AperFunction,ComponentPad*%
%ADD14R,1.700000X1.700000*%
%TD*%
%TA.AperFunction,ComponentPad*%
%ADD15O,1.700000X1.700000*%
%TD*%
%TA.AperFunction,ComponentPad*%
%ADD16C,1.524000*%
%TD*%
%TA.AperFunction,ViaPad*%
%ADD17C,0.800000*%
%TD*%
%TA.AperFunction,ViaPad*%
%ADD18C,0.600000*%
%TD*%
%TA.AperFunction,Conductor*%
%ADD19C,0.254000*%
%TD*%
%TA.AperFunction,Conductor*%
%ADD20C,0.100000*%
%TD*%
G04 APERTURE END LIST*
D10*
%TO.N,CHARGE_STAT*%
%TO.C,TP9*%
X13208000Y16002000D03*
%TD*%
D11*
%TO.N,N/C*%
%TO.C,MT3*%
X64000000Y68250000D03*
%TD*%
%TO.N,N/C*%
%TO.C,MT4*%
X64000000Y5750000D03*
%TD*%
%TO.N,N/C*%
%TO.C,MT1*%
X6000000Y5750000D03*
%TD*%
%TO.N,N/C*%
%TO.C,MT2*%
X6000000Y68250000D03*
%TD*%
D12*
%TO.N,GND*%
%TO.C,H7*%
X2794000Y58013600D03*
%TD*%
%TO.N,HSYNC*%
%TO.C,H3*%
X65227200Y52730400D03*
%TD*%
%TO.N,VSYNC*%
%TO.C,H2*%
X60604400Y59131200D03*
%TD*%
%TO.N,DE*%
%TO.C,H1*%
X55321200Y64414400D03*
%TD*%
%TO.N,+3V3*%
%TO.C,J2*%
%TA.AperFunction,ComponentPad*%
G36*
G01*
X52490000Y47914000D02*
X52490000Y49114000D01*
G75*
G02*
X52740000Y49364000I250000J0D01*
G01*
X53940000Y49364000D01*
G75*
G02*
X54190000Y49114000I0J-250000D01*
G01*
X54190000Y47914000D01*
G75*
G02*
X53940000Y47664000I-250000J0D01*
G01*
X52740000Y47664000D01*
G75*
G02*
X52490000Y47914000I0J250000D01*
G01*
G37*
%TD.AperFunction*%
D13*
%TO.N,Net-(J2-Pad3)*%
X53340000Y45974000D03*
%TO.N,Net-(J2-Pad5)*%
X53340000Y43434000D03*
%TO.N,SWDIO*%
X53340000Y40894000D03*
%TO.N,SWCLK*%
X53340000Y38354000D03*
%TO.N,Net-(J2-Pad11)*%
X53340000Y35814000D03*
%TO.N,SWO*%
X53340000Y33274000D03*
%TO.N,NRST*%
X53340000Y30734000D03*
%TO.N,Net-(J2-Pad17)*%
X53340000Y28194000D03*
%TO.N,+5V*%
X53340000Y25654000D03*
%TO.N,Net-(J2-Pad2)*%
X55880000Y48514000D03*
%TO.N,GND*%
X55880000Y45974000D03*
X55880000Y43434000D03*
X55880000Y40894000D03*
X55880000Y38354000D03*
X55880000Y35814000D03*
X55880000Y33274000D03*
X55880000Y30734000D03*
X55880000Y28194000D03*
X55880000Y25654000D03*
%TD*%
D14*
%TO.N,+3V3*%
%TO.C,J4*%
X10414000Y51816000D03*
D15*
X12954000Y51816000D03*
X10414000Y49276000D03*
X12954000Y49276000D03*
%TO.N,Net-(J4-Pad5)*%
X10414000Y46736000D03*
%TO.N,PB4*%
X12954000Y46736000D03*
%TO.N,PB8*%
X10414000Y44196000D03*
%TO.N,PB9*%
X12954000Y44196000D03*
%TO.N,PB6*%
X10414000Y41656000D03*
%TO.N,PB7*%
X12954000Y41656000D03*
%TO.N,GND*%
X10414000Y39116000D03*
X12954000Y39116000D03*
X10414000Y36576000D03*
X12954000Y36576000D03*
%TO.N,PC1*%
X10414000Y34036000D03*
%TO.N,PC0*%
X12954000Y34036000D03*
%TO.N,PC3*%
X10414000Y31496000D03*
%TO.N,PC2*%
X12954000Y31496000D03*
%TO.N,PB11*%
X10414000Y28956000D03*
%TO.N,PA0*%
X12954000Y28956000D03*
%TO.N,PC5*%
X10414000Y26416000D03*
%TO.N,PB10*%
X12954000Y26416000D03*
%TO.N,PB1*%
X10414000Y23876000D03*
%TO.N,PB2*%
X12954000Y23876000D03*
%TD*%
D10*
%TO.N,Net-(C1-Pad1)*%
%TO.C,TP1*%
X53962300Y16878300D03*
%TD*%
%TO.N,Net-(R7-Pad2)*%
%TO.C,TP3*%
X3302000Y26314400D03*
%TD*%
%TO.N,GND*%
%TO.C,TP4*%
X12573000Y7569200D03*
%TD*%
%TO.N,Net-(C3-Pad1)*%
%TO.C,TP5*%
X22860000Y62738000D03*
%TD*%
%TO.N,GND*%
%TO.C,TP6*%
X47200000Y62738000D03*
%TD*%
%TO.N,+3V3*%
%TO.C,TP7*%
X34950400Y65100200D03*
%TD*%
D16*
%TO.N,+BATT*%
%TO.C,BT1*%
X22526000Y2794000D03*
%TO.N,GND*%
X12526000Y2794000D03*
%TD*%
D17*
%TO.N,GND*%
X17627600Y20955000D03*
X26720800Y44792900D03*
X25908000Y44119800D03*
X19304000Y11938000D03*
X20574000Y11938000D03*
X21844000Y11938000D03*
X21844000Y10668000D03*
X30226000Y13716000D03*
X30226000Y12446000D03*
X30226000Y11176000D03*
X28448000Y12446000D03*
X28448000Y11176000D03*
X32867600Y15392400D03*
X30607000Y42037000D03*
X33147000Y42037000D03*
X25044400Y44767500D03*
X6263000Y57190000D03*
X23723600Y30734000D03*
X23876000Y36931600D03*
X37363400Y7924800D03*
X38557200Y7061200D03*
X39751000Y7874000D03*
X20574000Y40640000D03*
X31242000Y19812000D03*
X32893000Y38658800D03*
X25400000Y28702000D03*
X26974800Y28752800D03*
X45402500Y33401000D03*
X46990000Y43942000D03*
X38354000Y32664400D03*
X37185600Y31851600D03*
X35864800Y32715200D03*
X47599600Y46786800D03*
X48006000Y45364400D03*
X67614800Y37084000D03*
X65024000Y30734000D03*
X2438400Y32512000D03*
X2413000Y37338000D03*
X57099200Y2794000D03*
X21695493Y25302293D03*
X39268400Y19913600D03*
X40817800Y18389600D03*
X25908000Y46812200D03*
%TO.N,+BATT*%
X42824400Y4318000D03*
X44754800Y4267200D03*
X42773600Y2387600D03*
X44754800Y2387600D03*
%TO.N,NRST*%
X37033200Y27381200D03*
%TO.N,SWDIO*%
X47752000Y34226500D03*
D18*
%TO.N,RS*%
X37287200Y29133800D03*
%TO.N,WR*%
X36499800Y29819600D03*
%TO.N,RD*%
X36042600Y30759400D03*
D17*
%TO.N,PC0*%
X28448000Y29108400D03*
%TO.N,PC1*%
X32355597Y28960003D03*
%TO.N,PC2*%
X32562800Y27482800D03*
%TO.N,PC3*%
X32562800Y26416000D03*
%TO.N,PB2*%
X38125400Y21437600D03*
%TO.N,PC5*%
X34899600Y18846800D03*
%TO.N,PB4*%
X29108400Y40233600D03*
%TO.N,PB6*%
X32918400Y30710010D03*
%TO.N,PB7*%
X32258000Y31597600D03*
%TO.N,PB8*%
X32969200Y32461200D03*
%TO.N,PB9*%
X32308344Y33301338D03*
%TO.N,Net-(R9-Pad1)*%
X25196800Y41503600D03*
X19939000Y57531000D03*
%TO.N,ADC_IN8*%
X37388800Y17170400D03*
X57099200Y4809995D03*
%TO.N,Net-(R14-Pad1)*%
X44364408Y52543208D03*
D18*
%TO.N,SPI_CS*%
X35240073Y28255073D03*
%TO.N,SPI_SCLK*%
X35814000Y26035000D03*
%TO.N,SPI_MOSI*%
X35052000Y24892000D03*
%TO.N,ADC_IN18*%
X40132000Y25019000D03*
%TO.N,ADC_IN19*%
X40068500Y25971500D03*
%TO.N,ADC_IN20*%
X43116500Y26035000D03*
%TO.N,ADC_IN21*%
X44005500Y26352500D03*
D17*
%TO.N,LCD_RESET*%
X38303200Y36474400D03*
%TO.N,+3V3*%
X44221400Y21717000D03*
X42646600Y23317200D03*
X65074800Y48920400D03*
X37033200Y40995600D03*
X31750000Y48641000D03*
X33274000Y48641000D03*
X34925000Y48641000D03*
X36449000Y48641000D03*
X34925000Y47244000D03*
X36449000Y47244000D03*
X34925000Y45974000D03*
X36449000Y45974000D03*
X34925000Y44704000D03*
X36449000Y44704000D03*
X33274000Y47244000D03*
X31750000Y47244000D03*
X30861000Y38735000D03*
X45317516Y35073484D03*
X42468800Y48310800D03*
X33274000Y19812000D03*
X27686000Y23977600D03*
X25399997Y24002997D03*
X48542707Y40560493D03*
X49580800Y55118000D03*
X44332404Y54543204D03*
X3429000Y48768000D03*
%TO.N,PA12*%
X58572400Y32004000D03*
X62382400Y41503600D03*
%TO.N,TIM3_CH1*%
X62433200Y35509200D03*
X58470800Y26974800D03*
%TO.N,PB1*%
X37795200Y19227800D03*
%TO.N,PB10*%
X37795200Y24942800D03*
%TO.N,PB11*%
X37030773Y25804681D03*
%TO.N,PA0*%
X32207200Y25298400D03*
%TD*%
D19*
%TO.N,GND*%
X64859503Y73191857D02*
X65695928Y72981762D01*
X66486804Y72637879D01*
X67210902Y72169440D01*
X67848766Y71589027D01*
X68383265Y70912233D01*
X68800049Y70157231D01*
X69087927Y69344288D01*
X69241427Y68482546D01*
X69265000Y67982679D01*
X69265001Y64358455D01*
X69275636Y64250475D01*
X69317664Y64111927D01*
X69385914Y63984240D01*
X69477763Y63872322D01*
X69589681Y63780473D01*
X69717368Y63712223D01*
X69751744Y63701795D01*
X70192190Y63518835D01*
X70559140Y63273576D01*
X70871462Y62961713D01*
X71117260Y62595130D01*
X71287172Y62187788D01*
X71374731Y61755191D01*
X71376596Y61313836D01*
X71292700Y60880521D01*
X71126235Y60471751D01*
X70883546Y60103103D01*
X70573871Y59788610D01*
X70209011Y59540259D01*
X69771754Y59354274D01*
X69717367Y59337776D01*
X69589680Y59269526D01*
X69477762Y59177676D01*
X69385913Y59065758D01*
X69317663Y58938071D01*
X69296372Y58867884D01*
X69296370Y58867879D01*
X69296369Y58867874D01*
X69275635Y58799523D01*
X69265000Y58691543D01*
X69265001Y15308455D01*
X69275636Y15200475D01*
X69317664Y15061927D01*
X69385914Y14934240D01*
X69477763Y14822322D01*
X69589681Y14730473D01*
X69717368Y14662223D01*
X69751744Y14651795D01*
X70192190Y14468835D01*
X70559140Y14223576D01*
X70871462Y13911713D01*
X71117260Y13545130D01*
X71287172Y13137788D01*
X71374731Y12705191D01*
X71376596Y12263836D01*
X71292700Y11830521D01*
X71126235Y11421751D01*
X70883546Y11053103D01*
X70573871Y10738610D01*
X70209011Y10490259D01*
X69771754Y10304274D01*
X69717367Y10287776D01*
X69589680Y10219526D01*
X69477762Y10127676D01*
X69385913Y10015758D01*
X69317663Y9888071D01*
X69296372Y9817884D01*
X69296370Y9817879D01*
X69296369Y9817874D01*
X69275635Y9749523D01*
X69265000Y9641543D01*
X69265001Y6030180D01*
X69191857Y5140496D01*
X68981761Y4304070D01*
X68637877Y3513191D01*
X68169443Y2789102D01*
X67589030Y2151237D01*
X66912233Y1616735D01*
X66157227Y1199948D01*
X65344287Y912072D01*
X64482547Y758573D01*
X63982680Y735000D01*
X6030167Y735000D01*
X5140495Y808143D01*
X4304069Y1018239D01*
X3513191Y1362123D01*
X2789102Y1830557D01*
X2151235Y2410971D01*
X1616736Y3087763D01*
X1199952Y3842765D01*
X912073Y4655712D01*
X758573Y5517453D01*
X735000Y6017319D01*
X735000Y6127715D01*
X2165000Y6127715D01*
X2165000Y5372285D01*
X2312377Y4631372D01*
X2601467Y3933446D01*
X3021161Y3305330D01*
X3555330Y2771161D01*
X4183446Y2351467D01*
X4881372Y2062377D01*
X5622285Y1915000D01*
X6377715Y1915000D01*
X6628327Y1964850D01*
X11876455Y1964850D01*
X11957796Y1795869D01*
X12163439Y1704197D01*
X12383016Y1654405D01*
X12608087Y1648407D01*
X12830004Y1686434D01*
X13040238Y1767024D01*
X13094204Y1795869D01*
X13175545Y1964850D01*
X12526000Y2614395D01*
X11876455Y1964850D01*
X6628327Y1964850D01*
X7118628Y2062377D01*
X7816554Y2351467D01*
X8355999Y2711913D01*
X11380407Y2711913D01*
X11418434Y2489996D01*
X11499024Y2279762D01*
X11527869Y2225796D01*
X11696850Y2144455D01*
X12346395Y2794000D01*
X12705605Y2794000D01*
X13355150Y2144455D01*
X13524131Y2225796D01*
X13615803Y2431439D01*
X13665595Y2651016D01*
X13671593Y2876087D01*
X13662082Y2931592D01*
X21129000Y2931592D01*
X21129000Y2656408D01*
X21182686Y2386510D01*
X21287995Y2132273D01*
X21440880Y1903465D01*
X21635465Y1708880D01*
X21864273Y1555995D01*
X22118510Y1450686D01*
X22388408Y1397000D01*
X22663592Y1397000D01*
X22933490Y1450686D01*
X23187727Y1555995D01*
X23416535Y1708880D01*
X23611120Y1903465D01*
X23764005Y2132273D01*
X23869314Y2386510D01*
X23889807Y2489539D01*
X41738600Y2489539D01*
X41738600Y2285661D01*
X41778374Y2085702D01*
X41856395Y1897344D01*
X41969663Y1727826D01*
X42113826Y1583663D01*
X42283344Y1470395D01*
X42471702Y1392374D01*
X42671661Y1352600D01*
X42875539Y1352600D01*
X43075498Y1392374D01*
X43263856Y1470395D01*
X43433374Y1583663D01*
X43577537Y1727826D01*
X43690805Y1897344D01*
X43764200Y2074534D01*
X43837595Y1897344D01*
X43950863Y1727826D01*
X44095026Y1583663D01*
X44264544Y1470395D01*
X44452902Y1392374D01*
X44652861Y1352600D01*
X44856739Y1352600D01*
X45056698Y1392374D01*
X45245056Y1470395D01*
X45414574Y1583663D01*
X45558737Y1727826D01*
X45672005Y1897344D01*
X45750026Y2085702D01*
X45789800Y2285661D01*
X45789800Y2489539D01*
X45750026Y2689498D01*
X45672005Y2877856D01*
X45558737Y3047374D01*
X45414574Y3191537D01*
X45245056Y3304805D01*
X45190507Y3327400D01*
X45245056Y3349995D01*
X45414574Y3463263D01*
X45558737Y3607426D01*
X45672005Y3776944D01*
X45750026Y3965302D01*
X45789800Y4165261D01*
X45789800Y4369139D01*
X45750026Y4569098D01*
X45672005Y4757456D01*
X45558737Y4926974D01*
X45414574Y5071137D01*
X45245056Y5184405D01*
X45056698Y5262426D01*
X44856739Y5302200D01*
X44652861Y5302200D01*
X44452902Y5262426D01*
X44264544Y5184405D01*
X44095026Y5071137D01*
X43950863Y4926974D01*
X43837595Y4757456D01*
X43800121Y4666987D01*
X43741605Y4808256D01*
X43628337Y4977774D01*
X43484174Y5121937D01*
X43314656Y5235205D01*
X43126298Y5313226D01*
X42926339Y5353000D01*
X42722461Y5353000D01*
X42522502Y5313226D01*
X42334144Y5235205D01*
X42164626Y5121937D01*
X42020463Y4977774D01*
X41907195Y4808256D01*
X41829174Y4619898D01*
X41789400Y4419939D01*
X41789400Y4216061D01*
X41829174Y4016102D01*
X41907195Y3827744D01*
X42020463Y3658226D01*
X42164626Y3514063D01*
X42334144Y3400795D01*
X42424613Y3363321D01*
X42283344Y3304805D01*
X42113826Y3191537D01*
X41969663Y3047374D01*
X41856395Y2877856D01*
X41778374Y2689498D01*
X41738600Y2489539D01*
X23889807Y2489539D01*
X23923000Y2656408D01*
X23923000Y2931592D01*
X23869314Y3201490D01*
X23764005Y3455727D01*
X23611120Y3684535D01*
X23416535Y3879120D01*
X23187727Y4032005D01*
X22933490Y4137314D01*
X22663592Y4191000D01*
X22388408Y4191000D01*
X22118510Y4137314D01*
X21864273Y4032005D01*
X21635465Y3879120D01*
X21440880Y3684535D01*
X21287995Y3455727D01*
X21182686Y3201490D01*
X21129000Y2931592D01*
X13662082Y2931592D01*
X13633566Y3098004D01*
X13552976Y3308238D01*
X13524131Y3362204D01*
X13355150Y3443545D01*
X12705605Y2794000D01*
X12346395Y2794000D01*
X11696850Y3443545D01*
X11527869Y3362204D01*
X11436197Y3156561D01*
X11386405Y2936984D01*
X11380407Y2711913D01*
X8355999Y2711913D01*
X8444670Y2771161D01*
X8978839Y3305330D01*
X9191199Y3623150D01*
X11876455Y3623150D01*
X12526000Y2973605D01*
X13175545Y3623150D01*
X13094204Y3792131D01*
X12888561Y3883803D01*
X12668984Y3933595D01*
X12443913Y3939593D01*
X12221996Y3901566D01*
X12011762Y3820976D01*
X11957796Y3792131D01*
X11876455Y3623150D01*
X9191199Y3623150D01*
X9398533Y3933446D01*
X9687623Y4631372D01*
X9835000Y5372285D01*
X9835000Y6127715D01*
X9687623Y6868628D01*
X9398533Y7566554D01*
X9269423Y7759781D01*
X10638000Y7759781D01*
X10638000Y7378619D01*
X10712361Y7004781D01*
X10858225Y6652634D01*
X11069987Y6335709D01*
X11339509Y6066187D01*
X11656434Y5854425D01*
X12008581Y5708561D01*
X12382419Y5634200D01*
X12763581Y5634200D01*
X13137419Y5708561D01*
X13489566Y5854425D01*
X13700749Y5995533D01*
X47007061Y5995533D01*
X47007061Y5504467D01*
X47102863Y5022837D01*
X47290786Y4569151D01*
X47563608Y4160845D01*
X47910844Y3813609D01*
X48319150Y3540787D01*
X48772836Y3352864D01*
X49254466Y3257062D01*
X49745532Y3257062D01*
X50227162Y3352864D01*
X50680848Y3540787D01*
X51089154Y3813609D01*
X51436390Y4160845D01*
X51709212Y4569151D01*
X51851197Y4911934D01*
X56064200Y4911934D01*
X56064200Y4708056D01*
X56103974Y4508097D01*
X56181995Y4319739D01*
X56295263Y4150221D01*
X56439426Y4006058D01*
X56608944Y3892790D01*
X56797302Y3814769D01*
X56997261Y3774995D01*
X57201139Y3774995D01*
X57401098Y3814769D01*
X57589456Y3892790D01*
X57758974Y4006058D01*
X57903137Y4150221D01*
X58016405Y4319739D01*
X58094426Y4508097D01*
X58134200Y4708056D01*
X58134200Y4911934D01*
X58094426Y5111893D01*
X58016405Y5300251D01*
X57903137Y5469769D01*
X57758974Y5613932D01*
X57589456Y5727200D01*
X57401098Y5805221D01*
X57201139Y5844995D01*
X56997261Y5844995D01*
X56797302Y5805221D01*
X56608944Y5727200D01*
X56439426Y5613932D01*
X56295263Y5469769D01*
X56181995Y5300251D01*
X56103974Y5111893D01*
X56064200Y4911934D01*
X51851197Y4911934D01*
X51897135Y5022837D01*
X51992937Y5504467D01*
X51992937Y5995533D01*
X51966645Y6127715D01*
X60165000Y6127715D01*
X60165000Y5372285D01*
X60312377Y4631372D01*
X60601467Y3933446D01*
X61021161Y3305330D01*
X61555330Y2771161D01*
X62183446Y2351467D01*
X62881372Y2062377D01*
X63622285Y1915000D01*
X64377715Y1915000D01*
X65118628Y2062377D01*
X65816554Y2351467D01*
X66444670Y2771161D01*
X66978839Y3305330D01*
X67398533Y3933446D01*
X67687623Y4631372D01*
X67835000Y5372285D01*
X67835000Y6127715D01*
X67687623Y6868628D01*
X67398533Y7566554D01*
X66978839Y8194670D01*
X66444670Y8728839D01*
X65816554Y9148533D01*
X65118628Y9437623D01*
X64377715Y9585000D01*
X63622285Y9585000D01*
X62881372Y9437623D01*
X62183446Y9148533D01*
X61555330Y8728839D01*
X61021161Y8194670D01*
X60601467Y7566554D01*
X60312377Y6868628D01*
X60165000Y6127715D01*
X51966645Y6127715D01*
X51897135Y6477163D01*
X51709212Y6930849D01*
X51436390Y7339155D01*
X51089154Y7686391D01*
X50680848Y7959213D01*
X50227162Y8147136D01*
X49745532Y8242938D01*
X49254466Y8242938D01*
X48772836Y8147136D01*
X48319150Y7959213D01*
X47910844Y7686391D01*
X47563608Y7339155D01*
X47290786Y6930849D01*
X47102863Y6477163D01*
X47007061Y5995533D01*
X13700749Y5995533D01*
X13806491Y6066187D01*
X14076013Y6335709D01*
X14287775Y6652634D01*
X14433639Y7004781D01*
X14508000Y7378619D01*
X14508000Y7759781D01*
X14433639Y8133619D01*
X14287775Y8485766D01*
X14076013Y8802691D01*
X13806491Y9072213D01*
X13489566Y9283975D01*
X13137419Y9429839D01*
X12763581Y9504200D01*
X12382419Y9504200D01*
X12008581Y9429839D01*
X11656434Y9283975D01*
X11339509Y9072213D01*
X11069987Y8802691D01*
X10858225Y8485766D01*
X10712361Y8133619D01*
X10638000Y7759781D01*
X9269423Y7759781D01*
X8978839Y8194670D01*
X8444670Y8728839D01*
X7816554Y9148533D01*
X7118628Y9437623D01*
X6377715Y9585000D01*
X5622285Y9585000D01*
X4881372Y9437623D01*
X4183446Y9148533D01*
X3555330Y8728839D01*
X3021161Y8194670D01*
X2601467Y7566554D01*
X2312377Y6868628D01*
X2165000Y6127715D01*
X735000Y6127715D01*
X735000Y9641544D01*
X724365Y9749524D01*
X682337Y9888072D01*
X614087Y10015759D01*
X522238Y10127677D01*
X410320Y10219526D01*
X282633Y10287776D01*
X248280Y10298197D01*
X-192192Y10481167D01*
X-559141Y10726426D01*
X-871457Y11038282D01*
X-1117259Y11404872D01*
X-1287172Y11812214D01*
X-1374730Y12244807D01*
X-1376274Y12610264D01*
X-498355Y12610264D01*
X-498355Y12339736D01*
X-445578Y12074407D01*
X-342051Y11824473D01*
X-191754Y11599537D01*
X-463Y11408246D01*
X224473Y11257949D01*
X474407Y11154422D01*
X739736Y11101645D01*
X1010264Y11101645D01*
X1275593Y11154422D01*
X1525527Y11257949D01*
X1750463Y11408246D01*
X1941754Y11599537D01*
X2092051Y11824473D01*
X2195578Y12074407D01*
X2248355Y12339736D01*
X2248355Y12610264D01*
X67751645Y12610264D01*
X67751645Y12339736D01*
X67804422Y12074407D01*
X67907949Y11824473D01*
X68058246Y11599537D01*
X68249537Y11408246D01*
X68474473Y11257949D01*
X68724407Y11154422D01*
X68989736Y11101645D01*
X69260264Y11101645D01*
X69525593Y11154422D01*
X69775527Y11257949D01*
X70000463Y11408246D01*
X70191754Y11599537D01*
X70342051Y11824473D01*
X70445578Y12074407D01*
X70498355Y12339736D01*
X70498355Y12610264D01*
X70445578Y12875593D01*
X70342051Y13125527D01*
X70191754Y13350463D01*
X70000463Y13541754D01*
X69775527Y13692051D01*
X69525593Y13795578D01*
X69260264Y13848355D01*
X68989736Y13848355D01*
X68724407Y13795578D01*
X68474473Y13692051D01*
X68249537Y13541754D01*
X68058246Y13350463D01*
X67907949Y13125527D01*
X67804422Y12875593D01*
X67751645Y12610264D01*
X2248355Y12610264D01*
X2195578Y12875593D01*
X2092051Y13125527D01*
X1941754Y13350463D01*
X1750463Y13541754D01*
X1525527Y13692051D01*
X1275593Y13795578D01*
X1010264Y13848355D01*
X739736Y13848355D01*
X474407Y13795578D01*
X224473Y13692051D01*
X-463Y13541754D01*
X-191754Y13350463D01*
X-342051Y13125527D01*
X-445578Y12875593D01*
X-498355Y12610264D01*
X-1376274Y12610264D01*
X-1376595Y12686163D01*
X-1292699Y13119481D01*
X-1126237Y13528245D01*
X-883546Y13896896D01*
X-573873Y14211387D01*
X-209011Y14459740D01*
X228252Y14645727D01*
X282632Y14662223D01*
X410319Y14730473D01*
X522237Y14822322D01*
X614087Y14934240D01*
X682337Y15061927D01*
X724365Y15200475D01*
X735000Y15308455D01*
X735000Y16192581D01*
X11273000Y16192581D01*
X11273000Y15811419D01*
X11347361Y15437581D01*
X11493225Y15085434D01*
X11704987Y14768509D01*
X11974509Y14498987D01*
X12291434Y14287225D01*
X12643581Y14141361D01*
X13017419Y14067000D01*
X13398581Y14067000D01*
X13772419Y14141361D01*
X14124566Y14287225D01*
X14441491Y14498987D01*
X14711013Y14768509D01*
X14922775Y15085434D01*
X15068639Y15437581D01*
X15143000Y15811419D01*
X15143000Y16192581D01*
X15068639Y16566419D01*
X14922775Y16918566D01*
X14711013Y17235491D01*
X14674165Y17272339D01*
X36353800Y17272339D01*
X36353800Y17068461D01*
X36393574Y16868502D01*
X36471595Y16680144D01*
X36584863Y16510626D01*
X36729026Y16366463D01*
X36898544Y16253195D01*
X37086902Y16175174D01*
X37286861Y16135400D01*
X37490739Y16135400D01*
X37690698Y16175174D01*
X37879056Y16253195D01*
X38048574Y16366463D01*
X38192737Y16510626D01*
X38306005Y16680144D01*
X38384026Y16868502D01*
X38423800Y17068461D01*
X38423800Y17068881D01*
X52027300Y17068881D01*
X52027300Y16687719D01*
X52101661Y16313881D01*
X52247525Y15961734D01*
X52459287Y15644809D01*
X52728809Y15375287D01*
X53045734Y15163525D01*
X53397881Y15017661D01*
X53771719Y14943300D01*
X54152881Y14943300D01*
X54526719Y15017661D01*
X54878866Y15163525D01*
X55195791Y15375287D01*
X55465313Y15644809D01*
X55677075Y15961734D01*
X55822939Y16313881D01*
X55897300Y16687719D01*
X55897300Y17068881D01*
X55822939Y17442719D01*
X55677075Y17794866D01*
X55465313Y18111791D01*
X55195791Y18381313D01*
X54878866Y18593075D01*
X54526719Y18738939D01*
X54152881Y18813300D01*
X53771719Y18813300D01*
X53397881Y18738939D01*
X53045734Y18593075D01*
X52728809Y18381313D01*
X52459287Y18111791D01*
X52247525Y17794866D01*
X52101661Y17442719D01*
X52027300Y17068881D01*
X38423800Y17068881D01*
X38423800Y17272339D01*
X38384026Y17472298D01*
X38306005Y17660656D01*
X38192737Y17830174D01*
X38048574Y17974337D01*
X37879056Y18087605D01*
X37690698Y18165626D01*
X37490739Y18205400D01*
X37286861Y18205400D01*
X37086902Y18165626D01*
X36898544Y18087605D01*
X36729026Y17974337D01*
X36584863Y17830174D01*
X36471595Y17660656D01*
X36393574Y17472298D01*
X36353800Y17272339D01*
X14674165Y17272339D01*
X14441491Y17505013D01*
X14124566Y17716775D01*
X13772419Y17862639D01*
X13398581Y17937000D01*
X13017419Y17937000D01*
X12643581Y17862639D01*
X12291434Y17716775D01*
X11974509Y17505013D01*
X11704987Y17235491D01*
X11493225Y16918566D01*
X11347361Y16566419D01*
X11273000Y16192581D01*
X735000Y16192581D01*
X735000Y19913939D01*
X32239000Y19913939D01*
X32239000Y19710061D01*
X32278774Y19510102D01*
X32356795Y19321744D01*
X32470063Y19152226D01*
X32614226Y19008063D01*
X32783744Y18894795D01*
X32972102Y18816774D01*
X33172061Y18777000D01*
X33375939Y18777000D01*
X33575898Y18816774D01*
X33764256Y18894795D01*
X33867606Y18963851D01*
X33864600Y18948739D01*
X33864600Y18744861D01*
X33904374Y18544902D01*
X33982395Y18356544D01*
X34095663Y18187026D01*
X34239826Y18042863D01*
X34409344Y17929595D01*
X34597702Y17851574D01*
X34797661Y17811800D01*
X35001539Y17811800D01*
X35201498Y17851574D01*
X35389856Y17929595D01*
X35559374Y18042863D01*
X35703537Y18187026D01*
X35816805Y18356544D01*
X35894826Y18544902D01*
X35934600Y18744861D01*
X35934600Y18948739D01*
X35894826Y19148698D01*
X35819836Y19329739D01*
X36760200Y19329739D01*
X36760200Y19125861D01*
X36799974Y18925902D01*
X36877995Y18737544D01*
X36991263Y18568026D01*
X37135426Y18423863D01*
X37304944Y18310595D01*
X37493302Y18232574D01*
X37693261Y18192800D01*
X37897139Y18192800D01*
X38097098Y18232574D01*
X38285456Y18310595D01*
X38454974Y18423863D01*
X38599137Y18568026D01*
X38712405Y18737544D01*
X38790426Y18925902D01*
X38830200Y19125861D01*
X38830200Y19329739D01*
X38790426Y19529698D01*
X38712405Y19718056D01*
X38599137Y19887574D01*
X38454974Y20031737D01*
X38285456Y20145005D01*
X38097098Y20223026D01*
X37897139Y20262800D01*
X37693261Y20262800D01*
X37493302Y20223026D01*
X37304944Y20145005D01*
X37135426Y20031737D01*
X36991263Y19887574D01*
X36877995Y19718056D01*
X36799974Y19529698D01*
X36760200Y19329739D01*
X35819836Y19329739D01*
X35816805Y19337056D01*
X35703537Y19506574D01*
X35559374Y19650737D01*
X35389856Y19764005D01*
X35201498Y19842026D01*
X35001539Y19881800D01*
X34797661Y19881800D01*
X34597702Y19842026D01*
X34409344Y19764005D01*
X34305994Y19694949D01*
X34309000Y19710061D01*
X34309000Y19913939D01*
X34269226Y20113898D01*
X34191205Y20302256D01*
X34077937Y20471774D01*
X33933774Y20615937D01*
X33764256Y20729205D01*
X33575898Y20807226D01*
X33375939Y20847000D01*
X33172061Y20847000D01*
X32972102Y20807226D01*
X32783744Y20729205D01*
X32614226Y20615937D01*
X32470063Y20471774D01*
X32356795Y20302256D01*
X32278774Y20113898D01*
X32239000Y19913939D01*
X735000Y19913939D01*
X735000Y21539539D01*
X37090400Y21539539D01*
X37090400Y21335661D01*
X37130174Y21135702D01*
X37208195Y20947344D01*
X37321463Y20777826D01*
X37465626Y20633663D01*
X37635144Y20520395D01*
X37823502Y20442374D01*
X38023461Y20402600D01*
X38227339Y20402600D01*
X38427298Y20442374D01*
X38615656Y20520395D01*
X38785174Y20633663D01*
X38929337Y20777826D01*
X39042605Y20947344D01*
X39120626Y21135702D01*
X39160400Y21335661D01*
X39160400Y21539539D01*
X39120626Y21739498D01*
X39087721Y21818939D01*
X43186400Y21818939D01*
X43186400Y21615061D01*
X43226174Y21415102D01*
X43304195Y21226744D01*
X43417463Y21057226D01*
X43561626Y20913063D01*
X43731144Y20799795D01*
X43919502Y20721774D01*
X44119461Y20682000D01*
X44323339Y20682000D01*
X44523298Y20721774D01*
X44711656Y20799795D01*
X44881174Y20913063D01*
X45025337Y21057226D01*
X45138605Y21226744D01*
X45216626Y21415102D01*
X45256400Y21615061D01*
X45256400Y21818939D01*
X45216626Y22018898D01*
X45138605Y22207256D01*
X45025337Y22376774D01*
X44881174Y22520937D01*
X44711656Y22634205D01*
X44523298Y22712226D01*
X44323339Y22752000D01*
X44119461Y22752000D01*
X43919502Y22712226D01*
X43731144Y22634205D01*
X43561626Y22520937D01*
X43417463Y22376774D01*
X43304195Y22207256D01*
X43226174Y22018898D01*
X43186400Y21818939D01*
X39087721Y21818939D01*
X39042605Y21927856D01*
X38929337Y22097374D01*
X38785174Y22241537D01*
X38615656Y22354805D01*
X38427298Y22432826D01*
X38227339Y22472600D01*
X38023461Y22472600D01*
X37823502Y22432826D01*
X37635144Y22354805D01*
X37465626Y22241537D01*
X37321463Y22097374D01*
X37208195Y21927856D01*
X37130174Y21739498D01*
X37090400Y21539539D01*
X735000Y21539539D01*
X735000Y26504981D01*
X1367000Y26504981D01*
X1367000Y26123819D01*
X1441361Y25749981D01*
X1587225Y25397834D01*
X1798987Y25080909D01*
X2068509Y24811387D01*
X2385434Y24599625D01*
X2737581Y24453761D01*
X3111419Y24379400D01*
X3492581Y24379400D01*
X3866419Y24453761D01*
X4218566Y24599625D01*
X4535491Y24811387D01*
X4805013Y25080909D01*
X5016775Y25397834D01*
X5162639Y25749981D01*
X5237000Y26123819D01*
X5237000Y26504981D01*
X5162639Y26878819D01*
X5016775Y27230966D01*
X4805013Y27547891D01*
X4535491Y27817413D01*
X4218566Y28029175D01*
X3866419Y28175039D01*
X3492581Y28249400D01*
X3111419Y28249400D01*
X2737581Y28175039D01*
X2385434Y28029175D01*
X2068509Y27817413D01*
X1798987Y27547891D01*
X1587225Y27230966D01*
X1441361Y26878819D01*
X1367000Y26504981D01*
X735000Y26504981D01*
X735000Y34182260D01*
X8929000Y34182260D01*
X8929000Y33889740D01*
X8986068Y33602842D01*
X9098010Y33332589D01*
X9260525Y33089368D01*
X9467368Y32882525D01*
X9641760Y32766000D01*
X9467368Y32649475D01*
X9260525Y32442632D01*
X9098010Y32199411D01*
X8986068Y31929158D01*
X8929000Y31642260D01*
X8929000Y31349740D01*
X8986068Y31062842D01*
X9098010Y30792589D01*
X9260525Y30549368D01*
X9467368Y30342525D01*
X9641760Y30226000D01*
X9467368Y30109475D01*
X9260525Y29902632D01*
X9098010Y29659411D01*
X8986068Y29389158D01*
X8929000Y29102260D01*
X8929000Y28809740D01*
X8986068Y28522842D01*
X9098010Y28252589D01*
X9260525Y28009368D01*
X9467368Y27802525D01*
X9641760Y27686000D01*
X9467368Y27569475D01*
X9260525Y27362632D01*
X9098010Y27119411D01*
X8986068Y26849158D01*
X8929000Y26562260D01*
X8929000Y26269740D01*
X8986068Y25982842D01*
X9098010Y25712589D01*
X9260525Y25469368D01*
X9467368Y25262525D01*
X9641760Y25146000D01*
X9467368Y25029475D01*
X9260525Y24822632D01*
X9098010Y24579411D01*
X8986068Y24309158D01*
X8929000Y24022260D01*
X8929000Y23729740D01*
X8986068Y23442842D01*
X9098010Y23172589D01*
X9260525Y22929368D01*
X9467368Y22722525D01*
X9710589Y22560010D01*
X9980842Y22448068D01*
X10267740Y22391000D01*
X10560260Y22391000D01*
X10847158Y22448068D01*
X11117411Y22560010D01*
X11360632Y22722525D01*
X11567475Y22929368D01*
X11684000Y23103760D01*
X11800525Y22929368D01*
X12007368Y22722525D01*
X12250589Y22560010D01*
X12520842Y22448068D01*
X12807740Y22391000D01*
X13100260Y22391000D01*
X13387158Y22448068D01*
X13657411Y22560010D01*
X13900632Y22722525D01*
X14107475Y22929368D01*
X14269990Y23172589D01*
X14381932Y23442842D01*
X14439000Y23729740D01*
X14439000Y24022260D01*
X14422555Y24104936D01*
X24364997Y24104936D01*
X24364997Y23901058D01*
X24404771Y23701099D01*
X24482792Y23512741D01*
X24596060Y23343223D01*
X24740223Y23199060D01*
X24909741Y23085792D01*
X25098099Y23007771D01*
X25298058Y22967997D01*
X25501936Y22967997D01*
X25701895Y23007771D01*
X25890253Y23085792D01*
X26059771Y23199060D01*
X26203934Y23343223D01*
X26317202Y23512741D01*
X26395223Y23701099D01*
X26434997Y23901058D01*
X26434997Y24079539D01*
X26651000Y24079539D01*
X26651000Y23875661D01*
X26690774Y23675702D01*
X26768795Y23487344D01*
X26882063Y23317826D01*
X27026226Y23173663D01*
X27195744Y23060395D01*
X27384102Y22982374D01*
X27584061Y22942600D01*
X27787939Y22942600D01*
X27987898Y22982374D01*
X28176256Y23060395D01*
X28345774Y23173663D01*
X28489937Y23317826D01*
X28557631Y23419139D01*
X41611600Y23419139D01*
X41611600Y23215261D01*
X41651374Y23015302D01*
X41729395Y22826944D01*
X41842663Y22657426D01*
X41986826Y22513263D01*
X42156344Y22399995D01*
X42344702Y22321974D01*
X42544661Y22282200D01*
X42748539Y22282200D01*
X42948498Y22321974D01*
X43136856Y22399995D01*
X43306374Y22513263D01*
X43450537Y22657426D01*
X43563805Y22826944D01*
X43641826Y23015302D01*
X43681600Y23215261D01*
X43681600Y23419139D01*
X43641826Y23619098D01*
X43563805Y23807456D01*
X43450537Y23976974D01*
X43306374Y24121137D01*
X43136856Y24234405D01*
X42948498Y24312426D01*
X42748539Y24352200D01*
X42544661Y24352200D01*
X42344702Y24312426D01*
X42156344Y24234405D01*
X41986826Y24121137D01*
X41842663Y23976974D01*
X41729395Y23807456D01*
X41651374Y23619098D01*
X41611600Y23419139D01*
X28557631Y23419139D01*
X28603205Y23487344D01*
X28681226Y23675702D01*
X28721000Y23875661D01*
X28721000Y24079539D01*
X28681226Y24279498D01*
X28603205Y24467856D01*
X28489937Y24637374D01*
X28345774Y24781537D01*
X28176256Y24894805D01*
X27987898Y24972826D01*
X27787939Y25012600D01*
X27584061Y25012600D01*
X27384102Y24972826D01*
X27195744Y24894805D01*
X27026226Y24781537D01*
X26882063Y24637374D01*
X26768795Y24467856D01*
X26690774Y24279498D01*
X26651000Y24079539D01*
X26434997Y24079539D01*
X26434997Y24104936D01*
X26395223Y24304895D01*
X26317202Y24493253D01*
X26203934Y24662771D01*
X26059771Y24806934D01*
X25890253Y24920202D01*
X25701895Y24998223D01*
X25501936Y25037997D01*
X25298058Y25037997D01*
X25098099Y24998223D01*
X24909741Y24920202D01*
X24740223Y24806934D01*
X24596060Y24662771D01*
X24482792Y24493253D01*
X24404771Y24304895D01*
X24364997Y24104936D01*
X14422555Y24104936D01*
X14381932Y24309158D01*
X14269990Y24579411D01*
X14107475Y24822632D01*
X13900632Y25029475D01*
X13726240Y25146000D01*
X13900632Y25262525D01*
X14107475Y25469368D01*
X14269990Y25712589D01*
X14381932Y25982842D01*
X14439000Y26269740D01*
X14439000Y26562260D01*
X14381932Y26849158D01*
X14269990Y27119411D01*
X14107475Y27362632D01*
X13900632Y27569475D01*
X13726240Y27686000D01*
X13900632Y27802525D01*
X14107475Y28009368D01*
X14269990Y28252589D01*
X14381932Y28522842D01*
X14439000Y28809740D01*
X14439000Y29102260D01*
X14381932Y29389158D01*
X14269990Y29659411D01*
X14107475Y29902632D01*
X13900632Y30109475D01*
X13726240Y30226000D01*
X13900632Y30342525D01*
X14107475Y30549368D01*
X14269990Y30792589D01*
X14381932Y31062842D01*
X14439000Y31349740D01*
X14439000Y31642260D01*
X14381932Y31929158D01*
X14269990Y32199411D01*
X14107475Y32442632D01*
X13900632Y32649475D01*
X13726240Y32766000D01*
X13900632Y32882525D01*
X14107475Y33089368D01*
X14269990Y33332589D01*
X14381932Y33602842D01*
X14439000Y33889740D01*
X14439000Y34182260D01*
X14381932Y34469158D01*
X14269990Y34739411D01*
X14107475Y34982632D01*
X13900632Y35189475D01*
X13657411Y35351990D01*
X13430100Y35446145D01*
X13496949Y35471201D01*
X13702052Y35598353D01*
X13878408Y35763076D01*
X14019239Y35959039D01*
X14119134Y36178712D01*
X14143489Y36259020D01*
X14082627Y36449000D01*
X13081000Y36449000D01*
X13081000Y36429000D01*
X12827000Y36429000D01*
X12827000Y36449000D01*
X11825373Y36449000D01*
X11764511Y36259020D01*
X11788866Y36178712D01*
X11888761Y35959039D01*
X12029592Y35763076D01*
X12205948Y35598353D01*
X12411051Y35471201D01*
X12477900Y35446145D01*
X12250589Y35351990D01*
X12007368Y35189475D01*
X11800525Y34982632D01*
X11684000Y34808240D01*
X11567475Y34982632D01*
X11360632Y35189475D01*
X11117411Y35351990D01*
X10890100Y35446145D01*
X10956949Y35471201D01*
X11162052Y35598353D01*
X11338408Y35763076D01*
X11479239Y35959039D01*
X11579134Y36178712D01*
X11603489Y36259020D01*
X11542627Y36449000D01*
X10541000Y36449000D01*
X10541000Y36429000D01*
X10287000Y36429000D01*
X10287000Y36449000D01*
X9285373Y36449000D01*
X9224511Y36259020D01*
X9248866Y36178712D01*
X9348761Y35959039D01*
X9489592Y35763076D01*
X9665948Y35598353D01*
X9871051Y35471201D01*
X9937900Y35446145D01*
X9710589Y35351990D01*
X9467368Y35189475D01*
X9260525Y34982632D01*
X9098010Y34739411D01*
X8986068Y34469158D01*
X8929000Y34182260D01*
X735000Y34182260D01*
X735000Y36892980D01*
X9224511Y36892980D01*
X9285373Y36703000D01*
X10287000Y36703000D01*
X10287000Y37705187D01*
X10541000Y37705187D01*
X10541000Y36703000D01*
X11542627Y36703000D01*
X11603489Y36892980D01*
X11764511Y36892980D01*
X11825373Y36703000D01*
X12827000Y36703000D01*
X12827000Y37705187D01*
X13081000Y37705187D01*
X13081000Y36703000D01*
X14082627Y36703000D01*
X14143489Y36892980D01*
X14119134Y36973288D01*
X14019239Y37192961D01*
X13878408Y37388924D01*
X13702052Y37553647D01*
X13496949Y37680799D01*
X13270981Y37765495D01*
X13081000Y37705187D01*
X12827000Y37705187D01*
X12637019Y37765495D01*
X12411051Y37680799D01*
X12205948Y37553647D01*
X12029592Y37388924D01*
X11888761Y37192961D01*
X11788866Y36973288D01*
X11764511Y36892980D01*
X11603489Y36892980D01*
X11579134Y36973288D01*
X11479239Y37192961D01*
X11338408Y37388924D01*
X11162052Y37553647D01*
X10956949Y37680799D01*
X10730981Y37765495D01*
X10541000Y37705187D01*
X10287000Y37705187D01*
X10097019Y37765495D01*
X9871051Y37680799D01*
X9665948Y37553647D01*
X9489592Y37388924D01*
X9348761Y37192961D01*
X9248866Y36973288D01*
X9224511Y36892980D01*
X735000Y36892980D01*
X735000Y38799020D01*
X9224511Y38799020D01*
X9248866Y38718712D01*
X9348761Y38499039D01*
X9489592Y38303076D01*
X9665948Y38138353D01*
X9871051Y38011201D01*
X10097019Y37926505D01*
X10287000Y37986813D01*
X10287000Y38989000D01*
X10541000Y38989000D01*
X10541000Y37986813D01*
X10730981Y37926505D01*
X10956949Y38011201D01*
X11162052Y38138353D01*
X11338408Y38303076D01*
X11479239Y38499039D01*
X11579134Y38718712D01*
X11603489Y38799020D01*
X11764511Y38799020D01*
X11788866Y38718712D01*
X11888761Y38499039D01*
X12029592Y38303076D01*
X12205948Y38138353D01*
X12411051Y38011201D01*
X12637019Y37926505D01*
X12827000Y37986813D01*
X12827000Y38989000D01*
X13081000Y38989000D01*
X13081000Y37986813D01*
X13270981Y37926505D01*
X13496949Y38011201D01*
X13702052Y38138353D01*
X13878408Y38303076D01*
X14019239Y38499039D01*
X14119134Y38718712D01*
X14143489Y38799020D01*
X14082627Y38989000D01*
X13081000Y38989000D01*
X12827000Y38989000D01*
X11825373Y38989000D01*
X11764511Y38799020D01*
X11603489Y38799020D01*
X11542627Y38989000D01*
X10541000Y38989000D01*
X10287000Y38989000D01*
X9285373Y38989000D01*
X9224511Y38799020D01*
X735000Y38799020D01*
X735000Y48869939D01*
X2394000Y48869939D01*
X2394000Y48666061D01*
X2433774Y48466102D01*
X2511795Y48277744D01*
X2625063Y48108226D01*
X2769226Y47964063D01*
X2938744Y47850795D01*
X3127102Y47772774D01*
X3327061Y47733000D01*
X3530939Y47733000D01*
X3730898Y47772774D01*
X3919256Y47850795D01*
X4088774Y47964063D01*
X4232937Y48108226D01*
X4346205Y48277744D01*
X4424226Y48466102D01*
X4464000Y48666061D01*
X4464000Y48869939D01*
X4424226Y49069898D01*
X4346205Y49258256D01*
X4232937Y49427774D01*
X4088774Y49571937D01*
X3919256Y49685205D01*
X3730898Y49763226D01*
X3530939Y49803000D01*
X3327061Y49803000D01*
X3127102Y49763226D01*
X2938744Y49685205D01*
X2769226Y49571937D01*
X2625063Y49427774D01*
X2511795Y49258256D01*
X2433774Y49069898D01*
X2394000Y48869939D01*
X735000Y48869939D01*
X735000Y52666000D01*
X8925928Y52666000D01*
X8925928Y50966000D01*
X8938188Y50841518D01*
X8974498Y50721820D01*
X9033463Y50611506D01*
X9112815Y50514815D01*
X9209506Y50435463D01*
X9319820Y50376498D01*
X9392380Y50354487D01*
X9260525Y50222632D01*
X9098010Y49979411D01*
X8986068Y49709158D01*
X8929000Y49422260D01*
X8929000Y49129740D01*
X8986068Y48842842D01*
X9098010Y48572589D01*
X9260525Y48329368D01*
X9467368Y48122525D01*
X9641760Y48006000D01*
X9467368Y47889475D01*
X9260525Y47682632D01*
X9098010Y47439411D01*
X8986068Y47169158D01*
X8929000Y46882260D01*
X8929000Y46589740D01*
X8986068Y46302842D01*
X9098010Y46032589D01*
X9260525Y45789368D01*
X9467368Y45582525D01*
X9641760Y45466000D01*
X9467368Y45349475D01*
X9260525Y45142632D01*
X9098010Y44899411D01*
X8986068Y44629158D01*
X8929000Y44342260D01*
X8929000Y44049740D01*
X8986068Y43762842D01*
X9098010Y43492589D01*
X9260525Y43249368D01*
X9467368Y43042525D01*
X9641760Y42926000D01*
X9467368Y42809475D01*
X9260525Y42602632D01*
X9098010Y42359411D01*
X8986068Y42089158D01*
X8929000Y41802260D01*
X8929000Y41509740D01*
X8986068Y41222842D01*
X9098010Y40952589D01*
X9260525Y40709368D01*
X9467368Y40502525D01*
X9710589Y40340010D01*
X9937900Y40245855D01*
X9871051Y40220799D01*
X9665948Y40093647D01*
X9489592Y39928924D01*
X9348761Y39732961D01*
X9248866Y39513288D01*
X9224511Y39432980D01*
X9285373Y39243000D01*
X10287000Y39243000D01*
X10287000Y39263000D01*
X10541000Y39263000D01*
X10541000Y39243000D01*
X11542627Y39243000D01*
X11603489Y39432980D01*
X11579134Y39513288D01*
X11479239Y39732961D01*
X11338408Y39928924D01*
X11162052Y40093647D01*
X10956949Y40220799D01*
X10890100Y40245855D01*
X11117411Y40340010D01*
X11360632Y40502525D01*
X11567475Y40709368D01*
X11684000Y40883760D01*
X11800525Y40709368D01*
X12007368Y40502525D01*
X12250589Y40340010D01*
X12477900Y40245855D01*
X12411051Y40220799D01*
X12205948Y40093647D01*
X12029592Y39928924D01*
X11888761Y39732961D01*
X11788866Y39513288D01*
X11764511Y39432980D01*
X11825373Y39243000D01*
X12827000Y39243000D01*
X12827000Y39263000D01*
X13081000Y39263000D01*
X13081000Y39243000D01*
X14082627Y39243000D01*
X14143489Y39432980D01*
X14119134Y39513288D01*
X14039913Y39687500D01*
X20383500Y39687500D01*
X20383500Y34798000D01*
X20385940Y34773224D01*
X20393167Y34749399D01*
X20404903Y34727443D01*
X20420697Y34708197D01*
X20439943Y34692403D01*
X20461899Y34680667D01*
X20485724Y34673440D01*
X20510500Y34671000D01*
X21082000Y34671000D01*
X21106776Y34673440D01*
X21130601Y34680667D01*
X21152557Y34692403D01*
X21171803Y34708197D01*
X21187597Y34727443D01*
X21199333Y34749399D01*
X21206560Y34773224D01*
X21209000Y34798000D01*
X21209000Y38989000D01*
X27368500Y38989000D01*
X27368500Y34798000D01*
X27370940Y34773224D01*
X27378167Y34749399D01*
X27389903Y34727443D01*
X27405697Y34708197D01*
X27424943Y34692403D01*
X27446899Y34680667D01*
X27470724Y34673440D01*
X27495500Y34671000D01*
X28067000Y34671000D01*
X28067000Y31178500D01*
X28069440Y31153724D01*
X28076667Y31129899D01*
X28088403Y31107943D01*
X28104197Y31088697D01*
X28123443Y31072903D01*
X28145399Y31061167D01*
X28169224Y31053940D01*
X28194000Y31051500D01*
X30607000Y31051500D01*
X30607000Y30353000D01*
X25146000Y30353000D01*
X25121224Y30350560D01*
X25097399Y30343333D01*
X25075443Y30331597D01*
X25056197Y30315803D01*
X25040403Y30296557D01*
X25028667Y30274601D01*
X25021440Y30250776D01*
X25019000Y30226000D01*
X25019000Y30099000D01*
X23622000Y30099000D01*
X23597224Y30096560D01*
X23573399Y30089333D01*
X23551443Y30077597D01*
X23532197Y30061803D01*
X23516403Y30042557D01*
X23504667Y30020601D01*
X23497440Y29996776D01*
X23495000Y29972000D01*
X23495000Y29337000D01*
X21209000Y29337000D01*
X21209000Y33972500D01*
X21206560Y33997276D01*
X21199333Y34021101D01*
X21187597Y34043057D01*
X21171803Y34062303D01*
X21152557Y34078097D01*
X21130601Y34089833D01*
X21106776Y34097060D01*
X21082000Y34099500D01*
X20510500Y34099500D01*
X20485724Y34097060D01*
X20461899Y34089833D01*
X20439943Y34078097D01*
X20420697Y34062303D01*
X20404903Y34043057D01*
X20393167Y34021101D01*
X20385940Y33997276D01*
X20383500Y33972500D01*
X20383500Y28702000D01*
X20385940Y28677224D01*
X20393167Y28653399D01*
X20404903Y28631443D01*
X20420697Y28612197D01*
X20439943Y28596403D01*
X20461899Y28584667D01*
X20485724Y28577440D01*
X20510500Y28575000D01*
X24130000Y28575000D01*
X24154776Y28577440D01*
X24178601Y28584667D01*
X24200557Y28596403D01*
X24219803Y28612197D01*
X24235597Y28631443D01*
X24247333Y28653399D01*
X24254560Y28677224D01*
X24257000Y28702000D01*
X24257000Y29337000D01*
X25463500Y29337000D01*
X25488276Y29339440D01*
X25512101Y29346667D01*
X25534057Y29358403D01*
X25553303Y29374197D01*
X25569097Y29393443D01*
X25580833Y29415399D01*
X25588060Y29439224D01*
X25590500Y29464000D01*
X25590500Y29719403D01*
X27626592Y29742026D01*
X27530795Y29598656D01*
X27452774Y29410298D01*
X27413000Y29210339D01*
X27413000Y29006461D01*
X27452774Y28806502D01*
X27530795Y28618144D01*
X27644063Y28448626D01*
X27788226Y28304463D01*
X27957744Y28191195D01*
X28146102Y28113174D01*
X28346061Y28073400D01*
X28549939Y28073400D01*
X28749898Y28113174D01*
X28938256Y28191195D01*
X29107774Y28304463D01*
X29251937Y28448626D01*
X29365205Y28618144D01*
X29443226Y28806502D01*
X29483000Y29006461D01*
X29483000Y29210339D01*
X29443226Y29410298D01*
X29365205Y29598656D01*
X29257301Y29760146D01*
X31179911Y29781508D01*
X31204659Y29784223D01*
X31228401Y29791715D01*
X31250226Y29803694D01*
X31269295Y29819701D01*
X31284874Y29839120D01*
X31296365Y29861206D01*
X31303327Y29885109D01*
X31305500Y29908500D01*
X31305500Y31192553D01*
X31340795Y31107344D01*
X31454063Y30937826D01*
X31598226Y30793663D01*
X31767744Y30680395D01*
X31883400Y30632488D01*
X31883400Y30608071D01*
X31923174Y30408112D01*
X32001195Y30219754D01*
X32114463Y30050236D01*
X32183626Y29981073D01*
X32053699Y29955229D01*
X31865341Y29877208D01*
X31695823Y29763940D01*
X31551660Y29619777D01*
X31438392Y29450259D01*
X31360371Y29261901D01*
X31320597Y29061942D01*
X31320597Y28858064D01*
X31360371Y28658105D01*
X31438392Y28469747D01*
X31551660Y28300229D01*
X31695823Y28156066D01*
X31745638Y28122781D01*
X31645595Y27973056D01*
X31567574Y27784698D01*
X31527800Y27584739D01*
X31527800Y27380861D01*
X31567574Y27180902D01*
X31645595Y26992544D01*
X31674423Y26949400D01*
X31645595Y26906256D01*
X31567574Y26717898D01*
X31527800Y26517939D01*
X31527800Y26314061D01*
X31567276Y26115600D01*
X31547426Y26102337D01*
X31403263Y25958174D01*
X31289995Y25788656D01*
X31211974Y25600298D01*
X31172200Y25400339D01*
X31172200Y25196461D01*
X31211974Y24996502D01*
X31289995Y24808144D01*
X31403263Y24638626D01*
X31547426Y24494463D01*
X31716944Y24381195D01*
X31905302Y24303174D01*
X32105261Y24263400D01*
X32309139Y24263400D01*
X32509098Y24303174D01*
X32697456Y24381195D01*
X32866974Y24494463D01*
X33011137Y24638626D01*
X33124405Y24808144D01*
X33197284Y24984089D01*
X34117000Y24984089D01*
X34117000Y24799911D01*
X34152932Y24619271D01*
X34223414Y24449111D01*
X34325738Y24295972D01*
X34455972Y24165738D01*
X34609111Y24063414D01*
X34779271Y23992932D01*
X34959911Y23957000D01*
X35144089Y23957000D01*
X35324729Y23992932D01*
X35494889Y24063414D01*
X35648028Y24165738D01*
X35778262Y24295972D01*
X35880586Y24449111D01*
X35951068Y24619271D01*
X35987000Y24799911D01*
X35987000Y24984089D01*
X35961742Y25111070D01*
X36086729Y25135932D01*
X36201162Y25183331D01*
X36226836Y25144907D01*
X36370999Y25000744D01*
X36540517Y24887476D01*
X36728875Y24809455D01*
X36767995Y24801674D01*
X36799974Y24640902D01*
X36877995Y24452544D01*
X36991263Y24283026D01*
X37135426Y24138863D01*
X37304944Y24025595D01*
X37493302Y23947574D01*
X37693261Y23907800D01*
X37897139Y23907800D01*
X38097098Y23947574D01*
X38285456Y24025595D01*
X38454974Y24138863D01*
X38599137Y24283026D01*
X38712405Y24452544D01*
X38790426Y24640902D01*
X38830200Y24840861D01*
X38830200Y25044739D01*
X38790426Y25244698D01*
X38712405Y25433056D01*
X38599137Y25602574D01*
X38454974Y25746737D01*
X38285456Y25860005D01*
X38097098Y25938026D01*
X38057978Y25945807D01*
X38034551Y26063589D01*
X39133500Y26063589D01*
X39133500Y25879411D01*
X39169432Y25698771D01*
X39239914Y25528611D01*
X39296174Y25444411D01*
X39232932Y25291729D01*
X39197000Y25111089D01*
X39197000Y24926911D01*
X39232932Y24746271D01*
X39303414Y24576111D01*
X39405738Y24422972D01*
X39535972Y24292738D01*
X39689111Y24190414D01*
X39859271Y24119932D01*
X40039911Y24084000D01*
X40224089Y24084000D01*
X40404729Y24119932D01*
X40574889Y24190414D01*
X40728028Y24292738D01*
X40858262Y24422972D01*
X40960586Y24576111D01*
X41031068Y24746271D01*
X41067000Y24926911D01*
X41067000Y25111089D01*
X41031068Y25291729D01*
X40960586Y25461889D01*
X40904326Y25546089D01*
X40967568Y25698771D01*
X41003500Y25879411D01*
X41003500Y26063589D01*
X40990869Y26127089D01*
X42181500Y26127089D01*
X42181500Y25942911D01*
X42217432Y25762271D01*
X42287914Y25592111D01*
X42390238Y25438972D01*
X42520472Y25308738D01*
X42673611Y25206414D01*
X42843771Y25135932D01*
X43024411Y25100000D01*
X43208589Y25100000D01*
X43389229Y25135932D01*
X43559389Y25206414D01*
X43712528Y25308738D01*
X43836574Y25432784D01*
X43913411Y25417500D01*
X44097589Y25417500D01*
X44278229Y25453432D01*
X44448389Y25523914D01*
X44601528Y25626238D01*
X44731762Y25756472D01*
X44834086Y25909611D01*
X44904568Y26079771D01*
X44940500Y26260411D01*
X44940500Y26444589D01*
X44904568Y26625229D01*
X44834086Y26795389D01*
X44731762Y26948528D01*
X44601528Y27078762D01*
X44448389Y27181086D01*
X44278229Y27251568D01*
X44097589Y27287500D01*
X43913411Y27287500D01*
X43732771Y27251568D01*
X43562611Y27181086D01*
X43409472Y27078762D01*
X43285426Y26954716D01*
X43208589Y26970000D01*
X43024411Y26970000D01*
X42843771Y26934068D01*
X42673611Y26863586D01*
X42520472Y26761262D01*
X42390238Y26631028D01*
X42287914Y26477889D01*
X42217432Y26307729D01*
X42181500Y26127089D01*
X40990869Y26127089D01*
X40967568Y26244229D01*
X40897086Y26414389D01*
X40794762Y26567528D01*
X40664528Y26697762D01*
X40511389Y26800086D01*
X40341229Y26870568D01*
X40160589Y26906500D01*
X39976411Y26906500D01*
X39795771Y26870568D01*
X39625611Y26800086D01*
X39472472Y26697762D01*
X39342238Y26567528D01*
X39239914Y26414389D01*
X39169432Y26244229D01*
X39133500Y26063589D01*
X38034551Y26063589D01*
X38025999Y26106579D01*
X37947978Y26294937D01*
X37834710Y26464455D01*
X37707438Y26591727D01*
X37837137Y26721426D01*
X37950405Y26890944D01*
X38028426Y27079302D01*
X38068200Y27279261D01*
X38068200Y27483139D01*
X38028426Y27683098D01*
X37950405Y27871456D01*
X37837137Y28040974D01*
X37692974Y28185137D01*
X37596240Y28249772D01*
X37730089Y28305214D01*
X37883228Y28407538D01*
X38013462Y28537772D01*
X38115786Y28690911D01*
X38186268Y28861071D01*
X38222200Y29041711D01*
X38222200Y29225889D01*
X38186268Y29406529D01*
X38115786Y29576689D01*
X38013462Y29729828D01*
X37883228Y29860062D01*
X37730089Y29962386D01*
X37559929Y30032868D01*
X37404548Y30063776D01*
X37398868Y30092329D01*
X37328386Y30262489D01*
X37226062Y30415628D01*
X37095828Y30545862D01*
X36970146Y30629840D01*
X36977600Y30667311D01*
X36977600Y30851489D01*
X36941668Y31032129D01*
X36871186Y31202289D01*
X36768862Y31355428D01*
X36638628Y31485662D01*
X36485489Y31587986D01*
X36315329Y31658468D01*
X36134689Y31694400D01*
X35950511Y31694400D01*
X35769871Y31658468D01*
X35599711Y31587986D01*
X35446572Y31485662D01*
X35316338Y31355428D01*
X35214014Y31202289D01*
X35143532Y31032129D01*
X35107600Y30851489D01*
X35107600Y30667311D01*
X35143532Y30486671D01*
X35214014Y30316511D01*
X35316338Y30163372D01*
X35446572Y30033138D01*
X35572254Y29949160D01*
X35564800Y29911689D01*
X35564800Y29727511D01*
X35600732Y29546871D01*
X35671214Y29376711D01*
X35773538Y29223572D01*
X35903772Y29093338D01*
X36056911Y28991014D01*
X36227071Y28920532D01*
X36382452Y28889624D01*
X36388132Y28861071D01*
X36458614Y28690911D01*
X36560938Y28537772D01*
X36691172Y28407538D01*
X36736259Y28377412D01*
X36731302Y28376426D01*
X36542944Y28298405D01*
X36373426Y28185137D01*
X36229263Y28040974D01*
X36115995Y27871456D01*
X36037974Y27683098D01*
X35998200Y27483139D01*
X35998200Y27279261D01*
X36037974Y27079302D01*
X36100494Y26928366D01*
X36086729Y26934068D01*
X35906089Y26970000D01*
X35721911Y26970000D01*
X35541271Y26934068D01*
X35371111Y26863586D01*
X35217972Y26761262D01*
X35087738Y26631028D01*
X34985414Y26477889D01*
X34914932Y26307729D01*
X34879000Y26127089D01*
X34879000Y25942911D01*
X34904258Y25815930D01*
X34779271Y25791068D01*
X34609111Y25720586D01*
X34455972Y25618262D01*
X34325738Y25488028D01*
X34223414Y25334889D01*
X34152932Y25164729D01*
X34117000Y24984089D01*
X33197284Y24984089D01*
X33202426Y24996502D01*
X33242200Y25196461D01*
X33242200Y25400339D01*
X33202724Y25598800D01*
X33222574Y25612063D01*
X33366737Y25756226D01*
X33480005Y25925744D01*
X33558026Y26114102D01*
X33597800Y26314061D01*
X33597800Y26517939D01*
X33558026Y26717898D01*
X33480005Y26906256D01*
X33451177Y26949400D01*
X33480005Y26992544D01*
X33558026Y27180902D01*
X33597800Y27380861D01*
X33597800Y27584739D01*
X33558026Y27784698D01*
X33480005Y27973056D01*
X33366737Y28142574D01*
X33222574Y28286737D01*
X33172759Y28320022D01*
X33190893Y28347162D01*
X34305073Y28347162D01*
X34305073Y28162984D01*
X34341005Y27982344D01*
X34411487Y27812184D01*
X34513811Y27659045D01*
X34644045Y27528811D01*
X34797184Y27426487D01*
X34967344Y27356005D01*
X35147984Y27320073D01*
X35332162Y27320073D01*
X35512802Y27356005D01*
X35682962Y27426487D01*
X35836101Y27528811D01*
X35966335Y27659045D01*
X36068659Y27812184D01*
X36139141Y27982344D01*
X36175073Y28162984D01*
X36175073Y28347162D01*
X36139141Y28527802D01*
X36068659Y28697962D01*
X35966335Y28851101D01*
X35836101Y28981335D01*
X35682962Y29083659D01*
X35512802Y29154141D01*
X35332162Y29190073D01*
X35147984Y29190073D01*
X34967344Y29154141D01*
X34797184Y29083659D01*
X34644045Y28981335D01*
X34513811Y28851101D01*
X34411487Y28697962D01*
X34341005Y28527802D01*
X34305073Y28347162D01*
X33190893Y28347162D01*
X33272802Y28469747D01*
X33350823Y28658105D01*
X33390597Y28858064D01*
X33390597Y29061942D01*
X33350823Y29261901D01*
X33272802Y29450259D01*
X33159534Y29619777D01*
X33090371Y29688940D01*
X33220298Y29714784D01*
X33408656Y29792805D01*
X33578174Y29906073D01*
X33722337Y30050236D01*
X33835605Y30219754D01*
X33913626Y30408112D01*
X33953400Y30608071D01*
X33953400Y30811949D01*
X33913626Y31011908D01*
X33835605Y31200266D01*
X33722337Y31369784D01*
X33578174Y31513947D01*
X33496330Y31568633D01*
X33628974Y31657263D01*
X33773137Y31801426D01*
X33886405Y31970944D01*
X33964426Y32159302D01*
X34004200Y32359261D01*
X34004200Y32563139D01*
X33964426Y32763098D01*
X33886405Y32951456D01*
X33773137Y33120974D01*
X33628974Y33265137D01*
X33459456Y33378405D01*
X33338310Y33428586D01*
X33303570Y33603236D01*
X33225549Y33791594D01*
X33112281Y33961112D01*
X32968118Y34105275D01*
X32798600Y34218543D01*
X32610242Y34296564D01*
X32410283Y34336338D01*
X32206405Y34336338D01*
X32006446Y34296564D01*
X31818088Y34218543D01*
X31648570Y34105275D01*
X31504407Y33961112D01*
X31391139Y33791594D01*
X31313118Y33603236D01*
X31273344Y33403277D01*
X31273344Y33199399D01*
X31313118Y32999440D01*
X31391139Y32811082D01*
X31504407Y32641564D01*
X31648570Y32497401D01*
X31695134Y32466288D01*
X31598226Y32401537D01*
X31454063Y32257374D01*
X31340795Y32087856D01*
X31262774Y31899498D01*
X31242146Y31795791D01*
X31227101Y31803833D01*
X31203276Y31811060D01*
X31178500Y31813500D01*
X28892500Y31813500D01*
X28892500Y35175423D01*
X44282516Y35175423D01*
X44282516Y34971545D01*
X44322290Y34771586D01*
X44400311Y34583228D01*
X44513579Y34413710D01*
X44657742Y34269547D01*
X44827260Y34156279D01*
X45015618Y34078258D01*
X45215577Y34038484D01*
X45419455Y34038484D01*
X45619414Y34078258D01*
X45807772Y34156279D01*
X45977290Y34269547D01*
X46036182Y34328439D01*
X46717000Y34328439D01*
X46717000Y34124561D01*
X46756774Y33924602D01*
X46834795Y33736244D01*
X46948063Y33566726D01*
X47092226Y33422563D01*
X47261744Y33309295D01*
X47450102Y33231274D01*
X47650061Y33191500D01*
X47853939Y33191500D01*
X48053898Y33231274D01*
X48242256Y33309295D01*
X48411774Y33422563D01*
X48555937Y33566726D01*
X48669205Y33736244D01*
X48747226Y33924602D01*
X48787000Y34124561D01*
X48787000Y34328439D01*
X48747226Y34528398D01*
X48669205Y34716756D01*
X48555937Y34886274D01*
X48411774Y35030437D01*
X48242256Y35143705D01*
X48053898Y35221726D01*
X47853939Y35261500D01*
X47650061Y35261500D01*
X47450102Y35221726D01*
X47261744Y35143705D01*
X47092226Y35030437D01*
X46948063Y34886274D01*
X46834795Y34716756D01*
X46756774Y34528398D01*
X46717000Y34328439D01*
X46036182Y34328439D01*
X46121453Y34413710D01*
X46234721Y34583228D01*
X46312742Y34771586D01*
X46352516Y34971545D01*
X46352516Y35175423D01*
X46312742Y35375382D01*
X46234721Y35563740D01*
X46121453Y35733258D01*
X45977290Y35877421D01*
X45807772Y35990689D01*
X45619414Y36068710D01*
X45419455Y36108484D01*
X45215577Y36108484D01*
X45015618Y36068710D01*
X44827260Y35990689D01*
X44657742Y35877421D01*
X44513579Y35733258D01*
X44400311Y35563740D01*
X44322290Y35375382D01*
X44282516Y35175423D01*
X28892500Y35175423D01*
X28892500Y35369500D01*
X28890060Y35394276D01*
X28882833Y35418101D01*
X28871097Y35440057D01*
X28855303Y35459303D01*
X28836057Y35475097D01*
X28814101Y35486833D01*
X28790276Y35494060D01*
X28765500Y35496500D01*
X28257500Y35496500D01*
X28257500Y36576339D01*
X37268200Y36576339D01*
X37268200Y36372461D01*
X37307974Y36172502D01*
X37385995Y35984144D01*
X37499263Y35814626D01*
X37643426Y35670463D01*
X37812944Y35557195D01*
X38001302Y35479174D01*
X38201261Y35439400D01*
X38405139Y35439400D01*
X38605098Y35479174D01*
X38793456Y35557195D01*
X38962974Y35670463D01*
X39107137Y35814626D01*
X39220405Y35984144D01*
X39298426Y36172502D01*
X39338200Y36372461D01*
X39338200Y36576339D01*
X39298426Y36776298D01*
X39220405Y36964656D01*
X39107137Y37134174D01*
X38962974Y37278337D01*
X38793456Y37391605D01*
X38605098Y37469626D01*
X38405139Y37509400D01*
X38201261Y37509400D01*
X38001302Y37469626D01*
X37812944Y37391605D01*
X37643426Y37278337D01*
X37499263Y37134174D01*
X37385995Y36964656D01*
X37307974Y36776298D01*
X37268200Y36576339D01*
X28257500Y36576339D01*
X28257500Y38836939D01*
X29826000Y38836939D01*
X29826000Y38633061D01*
X29865774Y38433102D01*
X29943795Y38244744D01*
X30057063Y38075226D01*
X30201226Y37931063D01*
X30370744Y37817795D01*
X30559102Y37739774D01*
X30759061Y37700000D01*
X30962939Y37700000D01*
X31162898Y37739774D01*
X31351256Y37817795D01*
X31520774Y37931063D01*
X31664937Y38075226D01*
X31778205Y38244744D01*
X31856226Y38433102D01*
X31896000Y38633061D01*
X31896000Y38836939D01*
X31856226Y39036898D01*
X31778205Y39225256D01*
X31664937Y39394774D01*
X31520774Y39538937D01*
X31351256Y39652205D01*
X31162898Y39730226D01*
X30962939Y39770000D01*
X30759061Y39770000D01*
X30559102Y39730226D01*
X30370744Y39652205D01*
X30201226Y39538937D01*
X30057063Y39394774D01*
X29943795Y39225256D01*
X29865774Y39036898D01*
X29826000Y38836939D01*
X28257500Y38836939D01*
X28257500Y39644111D01*
X28304463Y39573826D01*
X28448626Y39429663D01*
X28618144Y39316395D01*
X28806502Y39238374D01*
X29006461Y39198600D01*
X29210339Y39198600D01*
X29410298Y39238374D01*
X29598656Y39316395D01*
X29768174Y39429663D01*
X29912337Y39573826D01*
X30025605Y39743344D01*
X30103626Y39931702D01*
X30143400Y40131661D01*
X30143400Y40335539D01*
X30103626Y40535498D01*
X30025605Y40723856D01*
X29912337Y40893374D01*
X29768174Y41037537D01*
X29678375Y41097539D01*
X35998200Y41097539D01*
X35998200Y40893661D01*
X36037974Y40693702D01*
X36115995Y40505344D01*
X36229263Y40335826D01*
X36373426Y40191663D01*
X36542944Y40078395D01*
X36731302Y40000374D01*
X36931261Y39960600D01*
X37135139Y39960600D01*
X37335098Y40000374D01*
X37523456Y40078395D01*
X37692974Y40191663D01*
X37837137Y40335826D01*
X37950405Y40505344D01*
X38015473Y40662432D01*
X47507707Y40662432D01*
X47507707Y40458554D01*
X47547481Y40258595D01*
X47625502Y40070237D01*
X47738770Y39900719D01*
X47882933Y39756556D01*
X48052451Y39643288D01*
X48240809Y39565267D01*
X48440768Y39525493D01*
X48644646Y39525493D01*
X48844605Y39565267D01*
X49032963Y39643288D01*
X49202481Y39756556D01*
X49346644Y39900719D01*
X49459912Y40070237D01*
X49537933Y40258595D01*
X49577707Y40458554D01*
X49577707Y40662432D01*
X49537933Y40862391D01*
X49459912Y41050749D01*
X49346644Y41220267D01*
X49202481Y41364430D01*
X49032963Y41477698D01*
X48844605Y41555719D01*
X48644646Y41595493D01*
X48440768Y41595493D01*
X48240809Y41555719D01*
X48052451Y41477698D01*
X47882933Y41364430D01*
X47738770Y41220267D01*
X47625502Y41050749D01*
X47547481Y40862391D01*
X47507707Y40662432D01*
X38015473Y40662432D01*
X38028426Y40693702D01*
X38068200Y40893661D01*
X38068200Y41097539D01*
X38028426Y41297498D01*
X37950405Y41485856D01*
X37837137Y41655374D01*
X37692974Y41799537D01*
X37523456Y41912805D01*
X37335098Y41990826D01*
X37135139Y42030600D01*
X36931261Y42030600D01*
X36731302Y41990826D01*
X36542944Y41912805D01*
X36373426Y41799537D01*
X36229263Y41655374D01*
X36115995Y41485856D01*
X36037974Y41297498D01*
X35998200Y41097539D01*
X29678375Y41097539D01*
X29598656Y41150805D01*
X29410298Y41228826D01*
X29210339Y41268600D01*
X29006461Y41268600D01*
X28806502Y41228826D01*
X28618144Y41150805D01*
X28448626Y41037537D01*
X28304463Y40893374D01*
X28191195Y40723856D01*
X28113174Y40535498D01*
X28073400Y40335539D01*
X28073400Y40131661D01*
X28113174Y39931702D01*
X28163803Y39809473D01*
X28155276Y39812060D01*
X28130500Y39814500D01*
X20510500Y39814500D01*
X20485724Y39812060D01*
X20461899Y39804833D01*
X20439943Y39793097D01*
X20420697Y39777303D01*
X20404903Y39758057D01*
X20393167Y39736101D01*
X20385940Y39712276D01*
X20383500Y39687500D01*
X14039913Y39687500D01*
X14019239Y39732961D01*
X13878408Y39928924D01*
X13702052Y40093647D01*
X13496949Y40220799D01*
X13430100Y40245855D01*
X13657411Y40340010D01*
X13900632Y40502525D01*
X14107475Y40709368D01*
X14269990Y40952589D01*
X14381932Y41222842D01*
X14439000Y41509740D01*
X14439000Y41605539D01*
X24161800Y41605539D01*
X24161800Y41401661D01*
X24201574Y41201702D01*
X24279595Y41013344D01*
X24392863Y40843826D01*
X24537026Y40699663D01*
X24706544Y40586395D01*
X24894902Y40508374D01*
X25094861Y40468600D01*
X25298739Y40468600D01*
X25498698Y40508374D01*
X25687056Y40586395D01*
X25856574Y40699663D01*
X26000737Y40843826D01*
X26114005Y41013344D01*
X26192026Y41201702D01*
X26231800Y41401661D01*
X26231800Y41605539D01*
X26192026Y41805498D01*
X26114005Y41993856D01*
X26000737Y42163374D01*
X25856574Y42307537D01*
X25687056Y42420805D01*
X25498698Y42498826D01*
X25298739Y42538600D01*
X25094861Y42538600D01*
X24894902Y42498826D01*
X24706544Y42420805D01*
X24537026Y42307537D01*
X24392863Y42163374D01*
X24279595Y41993856D01*
X24201574Y41805498D01*
X24161800Y41605539D01*
X14439000Y41605539D01*
X14439000Y41802260D01*
X14381932Y42089158D01*
X14269990Y42359411D01*
X14107475Y42602632D01*
X13900632Y42809475D01*
X13726240Y42926000D01*
X13900632Y43042525D01*
X14107475Y43249368D01*
X14269990Y43492589D01*
X14381932Y43762842D01*
X14439000Y44049740D01*
X14439000Y44342260D01*
X14381932Y44629158D01*
X14269990Y44899411D01*
X14107475Y45142632D01*
X13900632Y45349475D01*
X13726240Y45466000D01*
X13900632Y45582525D01*
X14107475Y45789368D01*
X14269990Y46032589D01*
X14381932Y46302842D01*
X14439000Y46589740D01*
X14439000Y46882260D01*
X14381932Y47169158D01*
X14269990Y47439411D01*
X14107475Y47682632D01*
X13900632Y47889475D01*
X13726240Y48006000D01*
X13900632Y48122525D01*
X14107475Y48329368D01*
X14269990Y48572589D01*
X14340550Y48742939D01*
X30715000Y48742939D01*
X30715000Y48539061D01*
X30754774Y48339102D01*
X30832795Y48150744D01*
X30946063Y47981226D01*
X30984789Y47942500D01*
X30946063Y47903774D01*
X30832795Y47734256D01*
X30754774Y47545898D01*
X30715000Y47345939D01*
X30715000Y47142061D01*
X30754774Y46942102D01*
X30832795Y46753744D01*
X30946063Y46584226D01*
X31090226Y46440063D01*
X31259744Y46326795D01*
X31448102Y46248774D01*
X31648061Y46209000D01*
X31851939Y46209000D01*
X32051898Y46248774D01*
X32240256Y46326795D01*
X32409774Y46440063D01*
X32512000Y46542289D01*
X32614226Y46440063D01*
X32783744Y46326795D01*
X32972102Y46248774D01*
X33172061Y46209000D01*
X33375939Y46209000D01*
X33575898Y46248774D01*
X33764256Y46326795D01*
X33933774Y46440063D01*
X34077937Y46584226D01*
X34099500Y46616497D01*
X34104510Y46609000D01*
X34007795Y46464256D01*
X33929774Y46275898D01*
X33890000Y46075939D01*
X33890000Y45872061D01*
X33929774Y45672102D01*
X34007795Y45483744D01*
X34104510Y45339000D01*
X34007795Y45194256D01*
X33929774Y45005898D01*
X33890000Y44805939D01*
X33890000Y44602061D01*
X33929774Y44402102D01*
X34007795Y44213744D01*
X34121063Y44044226D01*
X34265226Y43900063D01*
X34434744Y43786795D01*
X34623102Y43708774D01*
X34823061Y43669000D01*
X35026939Y43669000D01*
X35226898Y43708774D01*
X35415256Y43786795D01*
X35584774Y43900063D01*
X35687000Y44002289D01*
X35789226Y43900063D01*
X35958744Y43786795D01*
X36147102Y43708774D01*
X36347061Y43669000D01*
X36550939Y43669000D01*
X36750898Y43708774D01*
X36939256Y43786795D01*
X37108774Y43900063D01*
X37252937Y44044226D01*
X37366205Y44213744D01*
X37444226Y44402102D01*
X37484000Y44602061D01*
X37484000Y44805939D01*
X37444226Y45005898D01*
X37366205Y45194256D01*
X37269490Y45339000D01*
X37366205Y45483744D01*
X37444226Y45672102D01*
X37484000Y45872061D01*
X37484000Y46075939D01*
X37444226Y46275898D01*
X37366205Y46464256D01*
X37269490Y46609000D01*
X37366205Y46753744D01*
X37444226Y46942102D01*
X37484000Y47142061D01*
X37484000Y47345939D01*
X37444226Y47545898D01*
X37366205Y47734256D01*
X37252937Y47903774D01*
X37214211Y47942500D01*
X37252937Y47981226D01*
X37366205Y48150744D01*
X37444226Y48339102D01*
X37458873Y48412739D01*
X41433800Y48412739D01*
X41433800Y48208861D01*
X41473574Y48008902D01*
X41551595Y47820544D01*
X41664863Y47651026D01*
X41809026Y47506863D01*
X41978544Y47393595D01*
X42166902Y47315574D01*
X42366861Y47275800D01*
X42570739Y47275800D01*
X42770698Y47315574D01*
X42959056Y47393595D01*
X43128574Y47506863D01*
X43272737Y47651026D01*
X43386005Y47820544D01*
X43464026Y48008902D01*
X43503800Y48208861D01*
X43503800Y48412739D01*
X43464026Y48612698D01*
X43386005Y48801056D01*
X43272737Y48970574D01*
X43129311Y49114000D01*
X51851928Y49114000D01*
X51851928Y47914000D01*
X51868992Y47740746D01*
X51919528Y47574150D01*
X52001595Y47420614D01*
X52112038Y47286038D01*
X52246614Y47175595D01*
X52373608Y47107715D01*
X52186525Y46920632D01*
X52024010Y46677411D01*
X51912068Y46407158D01*
X51855000Y46120260D01*
X51855000Y45827740D01*
X51912068Y45540842D01*
X52024010Y45270589D01*
X52186525Y45027368D01*
X52393368Y44820525D01*
X52567760Y44704000D01*
X52393368Y44587475D01*
X52186525Y44380632D01*
X52024010Y44137411D01*
X51912068Y43867158D01*
X51855000Y43580260D01*
X51855000Y43287740D01*
X51912068Y43000842D01*
X52024010Y42730589D01*
X52186525Y42487368D01*
X52393368Y42280525D01*
X52567760Y42164000D01*
X52393368Y42047475D01*
X52186525Y41840632D01*
X52024010Y41597411D01*
X51912068Y41327158D01*
X51855000Y41040260D01*
X51855000Y40747740D01*
X51912068Y40460842D01*
X52024010Y40190589D01*
X52186525Y39947368D01*
X52393368Y39740525D01*
X52567760Y39624000D01*
X52393368Y39507475D01*
X52186525Y39300632D01*
X52024010Y39057411D01*
X51912068Y38787158D01*
X51855000Y38500260D01*
X51855000Y38207740D01*
X51912068Y37920842D01*
X52024010Y37650589D01*
X52186525Y37407368D01*
X52393368Y37200525D01*
X52567760Y37084000D01*
X52393368Y36967475D01*
X52186525Y36760632D01*
X52024010Y36517411D01*
X51912068Y36247158D01*
X51855000Y35960260D01*
X51855000Y35667740D01*
X51912068Y35380842D01*
X52024010Y35110589D01*
X52186525Y34867368D01*
X52393368Y34660525D01*
X52567760Y34544000D01*
X52393368Y34427475D01*
X52186525Y34220632D01*
X52024010Y33977411D01*
X51912068Y33707158D01*
X51855000Y33420260D01*
X51855000Y33127740D01*
X51912068Y32840842D01*
X52024010Y32570589D01*
X52186525Y32327368D01*
X52393368Y32120525D01*
X52567760Y32004000D01*
X52393368Y31887475D01*
X52186525Y31680632D01*
X52024010Y31437411D01*
X51912068Y31167158D01*
X51855000Y30880260D01*
X51855000Y30587740D01*
X51912068Y30300842D01*
X52024010Y30030589D01*
X52186525Y29787368D01*
X52393368Y29580525D01*
X52567760Y29464000D01*
X52393368Y29347475D01*
X52186525Y29140632D01*
X52024010Y28897411D01*
X51912068Y28627158D01*
X51855000Y28340260D01*
X51855000Y28047740D01*
X51912068Y27760842D01*
X52024010Y27490589D01*
X52186525Y27247368D01*
X52393368Y27040525D01*
X52567760Y26924000D01*
X52393368Y26807475D01*
X52186525Y26600632D01*
X52024010Y26357411D01*
X51912068Y26087158D01*
X51855000Y25800260D01*
X51855000Y25507740D01*
X51912068Y25220842D01*
X52024010Y24950589D01*
X52186525Y24707368D01*
X52393368Y24500525D01*
X52636589Y24338010D01*
X52906842Y24226068D01*
X53193740Y24169000D01*
X53486260Y24169000D01*
X53773158Y24226068D01*
X54043411Y24338010D01*
X54286632Y24500525D01*
X54493475Y24707368D01*
X54529912Y24761900D01*
X55167505Y24761900D01*
X55259523Y24583922D01*
X55480207Y24483434D01*
X55716255Y24427931D01*
X55958596Y24419544D01*
X56197917Y24458598D01*
X56425020Y24543589D01*
X56500477Y24583922D01*
X56592495Y24761900D01*
X55880000Y25474395D01*
X55167505Y24761900D01*
X54529912Y24761900D01*
X54655990Y24950589D01*
X54746810Y25169848D01*
X54769589Y25108980D01*
X54809922Y25033523D01*
X54987900Y24941505D01*
X55700395Y25654000D01*
X56059605Y25654000D01*
X56772100Y24941505D01*
X56950078Y25033523D01*
X57050566Y25254207D01*
X57106069Y25490255D01*
X57114456Y25732596D01*
X57075402Y25971917D01*
X56990411Y26199020D01*
X56950078Y26274477D01*
X56772100Y26366495D01*
X56059605Y25654000D01*
X55700395Y25654000D01*
X54987900Y26366495D01*
X54809922Y26274477D01*
X54747304Y26136959D01*
X54655990Y26357411D01*
X54529913Y26546100D01*
X55167505Y26546100D01*
X55880000Y25833605D01*
X56592495Y26546100D01*
X56500477Y26724078D01*
X56279793Y26824566D01*
X56043745Y26880069D01*
X55801404Y26888456D01*
X55562083Y26849402D01*
X55334980Y26764411D01*
X55259523Y26724078D01*
X55167505Y26546100D01*
X54529913Y26546100D01*
X54493475Y26600632D01*
X54286632Y26807475D01*
X54112240Y26924000D01*
X54286632Y27040525D01*
X54493475Y27247368D01*
X54529912Y27301900D01*
X55167505Y27301900D01*
X55259523Y27123922D01*
X55480207Y27023434D01*
X55716255Y26967931D01*
X55958596Y26959544D01*
X56197917Y26998598D01*
X56406716Y27076739D01*
X57435800Y27076739D01*
X57435800Y26872861D01*
X57475574Y26672902D01*
X57553595Y26484544D01*
X57666863Y26315026D01*
X57811026Y26170863D01*
X57980544Y26057595D01*
X58168902Y25979574D01*
X58368861Y25939800D01*
X58572739Y25939800D01*
X58772698Y25979574D01*
X58961056Y26057595D01*
X59130574Y26170863D01*
X59274737Y26315026D01*
X59388005Y26484544D01*
X59466026Y26672902D01*
X59505800Y26872861D01*
X59505800Y27076739D01*
X59466026Y27276698D01*
X59388005Y27465056D01*
X59274737Y27634574D01*
X59130574Y27778737D01*
X58961056Y27892005D01*
X58772698Y27970026D01*
X58572739Y28009800D01*
X58368861Y28009800D01*
X58168902Y27970026D01*
X57980544Y27892005D01*
X57811026Y27778737D01*
X57666863Y27634574D01*
X57553595Y27465056D01*
X57475574Y27276698D01*
X57435800Y27076739D01*
X56406716Y27076739D01*
X56425020Y27083589D01*
X56500477Y27123922D01*
X56592495Y27301900D01*
X55880000Y28014395D01*
X55167505Y27301900D01*
X54529912Y27301900D01*
X54655990Y27490589D01*
X54746810Y27709848D01*
X54769589Y27648980D01*
X54809922Y27573523D01*
X54987900Y27481505D01*
X55700395Y28194000D01*
X56059605Y28194000D01*
X56772100Y27481505D01*
X56950078Y27573523D01*
X57050566Y27794207D01*
X57106069Y28030255D01*
X57114456Y28272596D01*
X57075402Y28511917D01*
X56990411Y28739020D01*
X56950078Y28814477D01*
X56772100Y28906495D01*
X56059605Y28194000D01*
X55700395Y28194000D01*
X54987900Y28906495D01*
X54809922Y28814477D01*
X54747304Y28676959D01*
X54655990Y28897411D01*
X54529913Y29086100D01*
X55167505Y29086100D01*
X55880000Y28373605D01*
X56592495Y29086100D01*
X56500477Y29264078D01*
X56279793Y29364566D01*
X56043745Y29420069D01*
X55801404Y29428456D01*
X55562083Y29389402D01*
X55334980Y29304411D01*
X55259523Y29264078D01*
X55167505Y29086100D01*
X54529913Y29086100D01*
X54493475Y29140632D01*
X54286632Y29347475D01*
X54112240Y29464000D01*
X54286632Y29580525D01*
X54493475Y29787368D01*
X54529912Y29841900D01*
X55167505Y29841900D01*
X55259523Y29663922D01*
X55480207Y29563434D01*
X55716255Y29507931D01*
X55958596Y29499544D01*
X56197917Y29538598D01*
X56425020Y29623589D01*
X56500477Y29663922D01*
X56592495Y29841900D01*
X55880000Y30554395D01*
X55167505Y29841900D01*
X54529912Y29841900D01*
X54655990Y30030589D01*
X54746810Y30249848D01*
X54769589Y30188980D01*
X54809922Y30113523D01*
X54987900Y30021505D01*
X55700395Y30734000D01*
X56059605Y30734000D01*
X56772100Y30021505D01*
X56950078Y30113523D01*
X57050566Y30334207D01*
X57106069Y30570255D01*
X57114456Y30812596D01*
X57075402Y31051917D01*
X56990411Y31279020D01*
X56950078Y31354477D01*
X56772100Y31446495D01*
X56059605Y30734000D01*
X55700395Y30734000D01*
X54987900Y31446495D01*
X54809922Y31354477D01*
X54747304Y31216959D01*
X54655990Y31437411D01*
X54529913Y31626100D01*
X55167505Y31626100D01*
X55880000Y30913605D01*
X56592495Y31626100D01*
X56500477Y31804078D01*
X56279793Y31904566D01*
X56043745Y31960069D01*
X55801404Y31968456D01*
X55562083Y31929402D01*
X55334980Y31844411D01*
X55259523Y31804078D01*
X55167505Y31626100D01*
X54529913Y31626100D01*
X54493475Y31680632D01*
X54286632Y31887475D01*
X54112240Y32004000D01*
X54286632Y32120525D01*
X54493475Y32327368D01*
X54529912Y32381900D01*
X55167505Y32381900D01*
X55259523Y32203922D01*
X55480207Y32103434D01*
X55716255Y32047931D01*
X55958596Y32039544D01*
X56197917Y32078598D01*
X56270974Y32105939D01*
X57537400Y32105939D01*
X57537400Y31902061D01*
X57577174Y31702102D01*
X57655195Y31513744D01*
X57768463Y31344226D01*
X57912626Y31200063D01*
X58082144Y31086795D01*
X58270502Y31008774D01*
X58470461Y30969000D01*
X58674339Y30969000D01*
X58874298Y31008774D01*
X59062656Y31086795D01*
X59232174Y31200063D01*
X59376337Y31344226D01*
X59489605Y31513744D01*
X59567626Y31702102D01*
X59607400Y31902061D01*
X59607400Y32105939D01*
X59567626Y32305898D01*
X59489605Y32494256D01*
X59376337Y32663774D01*
X59232174Y32807937D01*
X59062656Y32921205D01*
X58874298Y32999226D01*
X58674339Y33039000D01*
X58470461Y33039000D01*
X58270502Y32999226D01*
X58082144Y32921205D01*
X57912626Y32807937D01*
X57768463Y32663774D01*
X57655195Y32494256D01*
X57577174Y32305898D01*
X57537400Y32105939D01*
X56270974Y32105939D01*
X56425020Y32163589D01*
X56500477Y32203922D01*
X56592495Y32381900D01*
X55880000Y33094395D01*
X55167505Y32381900D01*
X54529912Y32381900D01*
X54655990Y32570589D01*
X54746810Y32789848D01*
X54769589Y32728980D01*
X54809922Y32653523D01*
X54987900Y32561505D01*
X55700395Y33274000D01*
X56059605Y33274000D01*
X56772100Y32561505D01*
X56950078Y32653523D01*
X57050566Y32874207D01*
X57106069Y33110255D01*
X57114456Y33352596D01*
X57075402Y33591917D01*
X56990411Y33819020D01*
X56950078Y33894477D01*
X56772100Y33986495D01*
X56059605Y33274000D01*
X55700395Y33274000D01*
X54987900Y33986495D01*
X54809922Y33894477D01*
X54747304Y33756959D01*
X54655990Y33977411D01*
X54529913Y34166100D01*
X55167505Y34166100D01*
X55880000Y33453605D01*
X56592495Y34166100D01*
X56500477Y34344078D01*
X56279793Y34444566D01*
X56043745Y34500069D01*
X55801404Y34508456D01*
X55562083Y34469402D01*
X55334980Y34384411D01*
X55259523Y34344078D01*
X55167505Y34166100D01*
X54529913Y34166100D01*
X54493475Y34220632D01*
X54286632Y34427475D01*
X54112240Y34544000D01*
X54286632Y34660525D01*
X54493475Y34867368D01*
X54529912Y34921900D01*
X55167505Y34921900D01*
X55259523Y34743922D01*
X55480207Y34643434D01*
X55716255Y34587931D01*
X55958596Y34579544D01*
X56197917Y34618598D01*
X56425020Y34703589D01*
X56500477Y34743922D01*
X56592495Y34921900D01*
X55880000Y35634395D01*
X55167505Y34921900D01*
X54529912Y34921900D01*
X54655990Y35110589D01*
X54746810Y35329848D01*
X54769589Y35268980D01*
X54809922Y35193523D01*
X54987900Y35101505D01*
X55700395Y35814000D01*
X56059605Y35814000D01*
X56772100Y35101505D01*
X56950078Y35193523D01*
X57050566Y35414207D01*
X57096871Y35611139D01*
X61398200Y35611139D01*
X61398200Y35407261D01*
X61437974Y35207302D01*
X61515995Y35018944D01*
X61629263Y34849426D01*
X61773426Y34705263D01*
X61942944Y34591995D01*
X62131302Y34513974D01*
X62331261Y34474200D01*
X62535139Y34474200D01*
X62735098Y34513974D01*
X62923456Y34591995D01*
X63092974Y34705263D01*
X63237137Y34849426D01*
X63350405Y35018944D01*
X63428426Y35207302D01*
X63468200Y35407261D01*
X63468200Y35611139D01*
X63428426Y35811098D01*
X63350405Y35999456D01*
X63237137Y36168974D01*
X63092974Y36313137D01*
X62923456Y36426405D01*
X62735098Y36504426D01*
X62535139Y36544200D01*
X62331261Y36544200D01*
X62131302Y36504426D01*
X61942944Y36426405D01*
X61773426Y36313137D01*
X61629263Y36168974D01*
X61515995Y35999456D01*
X61437974Y35811098D01*
X61398200Y35611139D01*
X57096871Y35611139D01*
X57106069Y35650255D01*
X57114456Y35892596D01*
X57075402Y36131917D01*
X56990411Y36359020D01*
X56950078Y36434477D01*
X56772100Y36526495D01*
X56059605Y35814000D01*
X55700395Y35814000D01*
X54987900Y36526495D01*
X54809922Y36434477D01*
X54747304Y36296959D01*
X54655990Y36517411D01*
X54529913Y36706100D01*
X55167505Y36706100D01*
X55880000Y35993605D01*
X56592495Y36706100D01*
X56500477Y36884078D01*
X56279793Y36984566D01*
X56043745Y37040069D01*
X55801404Y37048456D01*
X55562083Y37009402D01*
X55334980Y36924411D01*
X55259523Y36884078D01*
X55167505Y36706100D01*
X54529913Y36706100D01*
X54493475Y36760632D01*
X54286632Y36967475D01*
X54112240Y37084000D01*
X54286632Y37200525D01*
X54493475Y37407368D01*
X54529912Y37461900D01*
X55167505Y37461900D01*
X55259523Y37283922D01*
X55480207Y37183434D01*
X55716255Y37127931D01*
X55958596Y37119544D01*
X56197917Y37158598D01*
X56425020Y37243589D01*
X56500477Y37283922D01*
X56592495Y37461900D01*
X55880000Y38174395D01*
X55167505Y37461900D01*
X54529912Y37461900D01*
X54655990Y37650589D01*
X54746810Y37869848D01*
X54769589Y37808980D01*
X54809922Y37733523D01*
X54987900Y37641505D01*
X55700395Y38354000D01*
X56059605Y38354000D01*
X56772100Y37641505D01*
X56950078Y37733523D01*
X57050566Y37954207D01*
X57106069Y38190255D01*
X57114456Y38432596D01*
X57075402Y38671917D01*
X56990411Y38899020D01*
X56950078Y38974477D01*
X56772100Y39066495D01*
X56059605Y38354000D01*
X55700395Y38354000D01*
X54987900Y39066495D01*
X54809922Y38974477D01*
X54747304Y38836959D01*
X54655990Y39057411D01*
X54529913Y39246100D01*
X55167505Y39246100D01*
X55880000Y38533605D01*
X56592495Y39246100D01*
X56500477Y39424078D01*
X56279793Y39524566D01*
X56043745Y39580069D01*
X55801404Y39588456D01*
X55562083Y39549402D01*
X55334980Y39464411D01*
X55259523Y39424078D01*
X55167505Y39246100D01*
X54529913Y39246100D01*
X54493475Y39300632D01*
X54286632Y39507475D01*
X54112240Y39624000D01*
X54286632Y39740525D01*
X54493475Y39947368D01*
X54529912Y40001900D01*
X55167505Y40001900D01*
X55259523Y39823922D01*
X55480207Y39723434D01*
X55716255Y39667931D01*
X55958596Y39659544D01*
X56197917Y39698598D01*
X56425020Y39783589D01*
X56500477Y39823922D01*
X56592495Y40001900D01*
X55880000Y40714395D01*
X55167505Y40001900D01*
X54529912Y40001900D01*
X54655990Y40190589D01*
X54746810Y40409848D01*
X54769589Y40348980D01*
X54809922Y40273523D01*
X54987900Y40181505D01*
X55700395Y40894000D01*
X56059605Y40894000D01*
X56772100Y40181505D01*
X56950078Y40273523D01*
X57050566Y40494207D01*
X57106069Y40730255D01*
X57114456Y40972596D01*
X57075402Y41211917D01*
X56990411Y41439020D01*
X56950078Y41514477D01*
X56773950Y41605539D01*
X61347400Y41605539D01*
X61347400Y41401661D01*
X61387174Y41201702D01*
X61465195Y41013344D01*
X61578463Y40843826D01*
X61722626Y40699663D01*
X61892144Y40586395D01*
X62080502Y40508374D01*
X62280461Y40468600D01*
X62484339Y40468600D01*
X62684298Y40508374D01*
X62872656Y40586395D01*
X63042174Y40699663D01*
X63186337Y40843826D01*
X63299605Y41013344D01*
X63377626Y41201702D01*
X63417400Y41401661D01*
X63417400Y41605539D01*
X63377626Y41805498D01*
X63299605Y41993856D01*
X63186337Y42163374D01*
X63042174Y42307537D01*
X62872656Y42420805D01*
X62684298Y42498826D01*
X62484339Y42538600D01*
X62280461Y42538600D01*
X62080502Y42498826D01*
X61892144Y42420805D01*
X61722626Y42307537D01*
X61578463Y42163374D01*
X61465195Y41993856D01*
X61387174Y41805498D01*
X61347400Y41605539D01*
X56773950Y41605539D01*
X56772100Y41606495D01*
X56059605Y40894000D01*
X55700395Y40894000D01*
X54987900Y41606495D01*
X54809922Y41514477D01*
X54747304Y41376959D01*
X54655990Y41597411D01*
X54529913Y41786100D01*
X55167505Y41786100D01*
X55880000Y41073605D01*
X56592495Y41786100D01*
X56500477Y41964078D01*
X56279793Y42064566D01*
X56043745Y42120069D01*
X55801404Y42128456D01*
X55562083Y42089402D01*
X55334980Y42004411D01*
X55259523Y41964078D01*
X55167505Y41786100D01*
X54529913Y41786100D01*
X54493475Y41840632D01*
X54286632Y42047475D01*
X54112240Y42164000D01*
X54286632Y42280525D01*
X54493475Y42487368D01*
X54529912Y42541900D01*
X55167505Y42541900D01*
X55259523Y42363922D01*
X55480207Y42263434D01*
X55716255Y42207931D01*
X55958596Y42199544D01*
X56197917Y42238598D01*
X56425020Y42323589D01*
X56500477Y42363922D01*
X56592495Y42541900D01*
X55880000Y43254395D01*
X55167505Y42541900D01*
X54529912Y42541900D01*
X54655990Y42730589D01*
X54746810Y42949848D01*
X54769589Y42888980D01*
X54809922Y42813523D01*
X54987900Y42721505D01*
X55700395Y43434000D01*
X56059605Y43434000D01*
X56772100Y42721505D01*
X56950078Y42813523D01*
X57050566Y43034207D01*
X57106069Y43270255D01*
X57114456Y43512596D01*
X57075402Y43751917D01*
X56990411Y43979020D01*
X56950078Y44054477D01*
X56772100Y44146495D01*
X56059605Y43434000D01*
X55700395Y43434000D01*
X54987900Y44146495D01*
X54809922Y44054477D01*
X54747304Y43916959D01*
X54655990Y44137411D01*
X54529913Y44326100D01*
X55167505Y44326100D01*
X55880000Y43613605D01*
X56592495Y44326100D01*
X56500477Y44504078D01*
X56279793Y44604566D01*
X56043745Y44660069D01*
X55801404Y44668456D01*
X55562083Y44629402D01*
X55334980Y44544411D01*
X55259523Y44504078D01*
X55167505Y44326100D01*
X54529913Y44326100D01*
X54493475Y44380632D01*
X54286632Y44587475D01*
X54112240Y44704000D01*
X54286632Y44820525D01*
X54493475Y45027368D01*
X54529912Y45081900D01*
X55167505Y45081900D01*
X55259523Y44903922D01*
X55480207Y44803434D01*
X55716255Y44747931D01*
X55958596Y44739544D01*
X56197917Y44778598D01*
X56425020Y44863589D01*
X56500477Y44903922D01*
X56592495Y45081900D01*
X55880000Y45794395D01*
X55167505Y45081900D01*
X54529912Y45081900D01*
X54655990Y45270589D01*
X54746810Y45489848D01*
X54769589Y45428980D01*
X54809922Y45353523D01*
X54987900Y45261505D01*
X55700395Y45974000D01*
X56059605Y45974000D01*
X56772100Y45261505D01*
X56950078Y45353523D01*
X57050566Y45574207D01*
X57106069Y45810255D01*
X57114456Y46052596D01*
X57075402Y46291917D01*
X56990411Y46519020D01*
X56950078Y46594477D01*
X56772100Y46686495D01*
X56059605Y45974000D01*
X55700395Y45974000D01*
X54987900Y46686495D01*
X54809922Y46594477D01*
X54747304Y46456959D01*
X54655990Y46677411D01*
X54493475Y46920632D01*
X54306392Y47107715D01*
X54433386Y47175595D01*
X54567962Y47286038D01*
X54678405Y47420614D01*
X54746285Y47547608D01*
X54933368Y47360525D01*
X55176589Y47198010D01*
X55395848Y47107190D01*
X55334980Y47084411D01*
X55259523Y47044078D01*
X55167505Y46866100D01*
X55880000Y46153605D01*
X56592495Y46866100D01*
X56500477Y47044078D01*
X56362959Y47106696D01*
X56583411Y47198010D01*
X56826632Y47360525D01*
X57033475Y47567368D01*
X57195990Y47810589D01*
X57307932Y48080842D01*
X57365000Y48367740D01*
X57365000Y48660260D01*
X57307932Y48947158D01*
X57276792Y49022339D01*
X64039800Y49022339D01*
X64039800Y48818461D01*
X64079574Y48618502D01*
X64157595Y48430144D01*
X64270863Y48260626D01*
X64415026Y48116463D01*
X64584544Y48003195D01*
X64772902Y47925174D01*
X64972861Y47885400D01*
X65176739Y47885400D01*
X65376698Y47925174D01*
X65565056Y48003195D01*
X65734574Y48116463D01*
X65878737Y48260626D01*
X65992005Y48430144D01*
X66070026Y48618502D01*
X66109800Y48818461D01*
X66109800Y49022339D01*
X66070026Y49222298D01*
X65992005Y49410656D01*
X65878737Y49580174D01*
X65734574Y49724337D01*
X65565056Y49837605D01*
X65376698Y49915626D01*
X65176739Y49955400D01*
X64972861Y49955400D01*
X64772902Y49915626D01*
X64584544Y49837605D01*
X64415026Y49724337D01*
X64270863Y49580174D01*
X64157595Y49410656D01*
X64079574Y49222298D01*
X64039800Y49022339D01*
X57276792Y49022339D01*
X57195990Y49217411D01*
X57033475Y49460632D01*
X56826632Y49667475D01*
X56583411Y49829990D01*
X56313158Y49941932D01*
X56026260Y49999000D01*
X55733740Y49999000D01*
X55446842Y49941932D01*
X55176589Y49829990D01*
X54933368Y49667475D01*
X54746285Y49480392D01*
X54678405Y49607386D01*
X54567962Y49741962D01*
X54433386Y49852405D01*
X54279850Y49934472D01*
X54113254Y49985008D01*
X53940000Y50002072D01*
X52740000Y50002072D01*
X52566746Y49985008D01*
X52400150Y49934472D01*
X52246614Y49852405D01*
X52112038Y49741962D01*
X52001595Y49607386D01*
X51919528Y49453850D01*
X51868992Y49287254D01*
X51851928Y49114000D01*
X43129311Y49114000D01*
X43128574Y49114737D01*
X42959056Y49228005D01*
X42770698Y49306026D01*
X42570739Y49345800D01*
X42366861Y49345800D01*
X42166902Y49306026D01*
X41978544Y49228005D01*
X41809026Y49114737D01*
X41664863Y48970574D01*
X41551595Y48801056D01*
X41473574Y48612698D01*
X41433800Y48412739D01*
X37458873Y48412739D01*
X37484000Y48539061D01*
X37484000Y48742939D01*
X37444226Y48942898D01*
X37366205Y49131256D01*
X37252937Y49300774D01*
X37108774Y49444937D01*
X36939256Y49558205D01*
X36750898Y49636226D01*
X36550939Y49676000D01*
X36347061Y49676000D01*
X36147102Y49636226D01*
X35958744Y49558205D01*
X35789226Y49444937D01*
X35687000Y49342711D01*
X35584774Y49444937D01*
X35415256Y49558205D01*
X35226898Y49636226D01*
X35026939Y49676000D01*
X34823061Y49676000D01*
X34623102Y49636226D01*
X34434744Y49558205D01*
X34265226Y49444937D01*
X34121063Y49300774D01*
X34099500Y49268503D01*
X34077937Y49300774D01*
X33933774Y49444937D01*
X33764256Y49558205D01*
X33575898Y49636226D01*
X33375939Y49676000D01*
X33172061Y49676000D01*
X32972102Y49636226D01*
X32783744Y49558205D01*
X32614226Y49444937D01*
X32512000Y49342711D01*
X32409774Y49444937D01*
X32240256Y49558205D01*
X32051898Y49636226D01*
X31851939Y49676000D01*
X31648061Y49676000D01*
X31448102Y49636226D01*
X31259744Y49558205D01*
X31090226Y49444937D01*
X30946063Y49300774D01*
X30832795Y49131256D01*
X30754774Y48942898D01*
X30715000Y48742939D01*
X14340550Y48742939D01*
X14381932Y48842842D01*
X14439000Y49129740D01*
X14439000Y49422260D01*
X14381932Y49709158D01*
X14269990Y49979411D01*
X14107475Y50222632D01*
X13900632Y50429475D01*
X13726240Y50546000D01*
X13900632Y50662525D01*
X14107475Y50869368D01*
X14269990Y51112589D01*
X14381932Y51382842D01*
X14439000Y51669740D01*
X14439000Y51962260D01*
X14381932Y52249158D01*
X14269990Y52519411D01*
X14107475Y52762632D01*
X13900632Y52969475D01*
X13657411Y53131990D01*
X13387158Y53243932D01*
X13100260Y53301000D01*
X12807740Y53301000D01*
X12520842Y53243932D01*
X12250589Y53131990D01*
X12007368Y52969475D01*
X11875513Y52837620D01*
X11853502Y52910180D01*
X11794537Y53020494D01*
X11715185Y53117185D01*
X11618494Y53196537D01*
X11508180Y53255502D01*
X11388482Y53291812D01*
X11264000Y53304072D01*
X9564000Y53304072D01*
X9439518Y53291812D01*
X9319820Y53255502D01*
X9209506Y53196537D01*
X9112815Y53117185D01*
X9033463Y53020494D01*
X8974498Y52910180D01*
X8938188Y52790482D01*
X8925928Y52666000D01*
X735000Y52666000D01*
X735000Y54645143D01*
X43297404Y54645143D01*
X43297404Y54441265D01*
X43337178Y54241306D01*
X43415199Y54052948D01*
X43528467Y53883430D01*
X43672630Y53739267D01*
X43842148Y53625999D01*
X44030506Y53547978D01*
X44070499Y53540023D01*
X44062510Y53538434D01*
X43874152Y53460413D01*
X43704634Y53347145D01*
X43560471Y53202982D01*
X43447203Y53033464D01*
X43369182Y52845106D01*
X43329408Y52645147D01*
X43329408Y52441269D01*
X43369182Y52241310D01*
X43447203Y52052952D01*
X43560471Y51883434D01*
X43704634Y51739271D01*
X43874152Y51626003D01*
X44062510Y51547982D01*
X44262469Y51508208D01*
X44466347Y51508208D01*
X44666306Y51547982D01*
X44854664Y51626003D01*
X45024182Y51739271D01*
X45168345Y51883434D01*
X45281613Y52052952D01*
X45359634Y52241310D01*
X45399408Y52441269D01*
X45399408Y52645147D01*
X45359634Y52845106D01*
X45340445Y52891433D01*
X63592200Y52891433D01*
X63592200Y52569367D01*
X63655032Y52253488D01*
X63778282Y51955937D01*
X63957213Y51688148D01*
X64184948Y51460413D01*
X64452737Y51281482D01*
X64750288Y51158232D01*
X65066167Y51095400D01*
X65388233Y51095400D01*
X65704112Y51158232D01*
X66001663Y51281482D01*
X66269452Y51460413D01*
X66497187Y51688148D01*
X66676118Y51955937D01*
X66799368Y52253488D01*
X66862200Y52569367D01*
X66862200Y52891433D01*
X66799368Y53207312D01*
X66676118Y53504863D01*
X66497187Y53772652D01*
X66269452Y54000387D01*
X66001663Y54179318D01*
X65704112Y54302568D01*
X65388233Y54365400D01*
X65066167Y54365400D01*
X64750288Y54302568D01*
X64452737Y54179318D01*
X64184948Y54000387D01*
X63957213Y53772652D01*
X63778282Y53504863D01*
X63655032Y53207312D01*
X63592200Y52891433D01*
X45340445Y52891433D01*
X45281613Y53033464D01*
X45168345Y53202982D01*
X45024182Y53347145D01*
X44854664Y53460413D01*
X44666306Y53538434D01*
X44626313Y53546389D01*
X44634302Y53547978D01*
X44822660Y53625999D01*
X44992178Y53739267D01*
X45136341Y53883430D01*
X45249609Y54052948D01*
X45327630Y54241306D01*
X45367404Y54441265D01*
X45367404Y54645143D01*
X45327630Y54845102D01*
X45249609Y55033460D01*
X45136341Y55202978D01*
X45119380Y55219939D01*
X48545800Y55219939D01*
X48545800Y55016061D01*
X48585574Y54816102D01*
X48663595Y54627744D01*
X48776863Y54458226D01*
X48921026Y54314063D01*
X49090544Y54200795D01*
X49278902Y54122774D01*
X49478861Y54083000D01*
X49682739Y54083000D01*
X49882698Y54122774D01*
X50071056Y54200795D01*
X50240574Y54314063D01*
X50384737Y54458226D01*
X50498005Y54627744D01*
X50576026Y54816102D01*
X50615800Y55016061D01*
X50615800Y55219939D01*
X50576026Y55419898D01*
X50498005Y55608256D01*
X50384737Y55777774D01*
X50240574Y55921937D01*
X50071056Y56035205D01*
X49882698Y56113226D01*
X49682739Y56153000D01*
X49478861Y56153000D01*
X49278902Y56113226D01*
X49090544Y56035205D01*
X48921026Y55921937D01*
X48776863Y55777774D01*
X48663595Y55608256D01*
X48585574Y55419898D01*
X48545800Y55219939D01*
X45119380Y55219939D01*
X44992178Y55347141D01*
X44822660Y55460409D01*
X44634302Y55538430D01*
X44434343Y55578204D01*
X44230465Y55578204D01*
X44030506Y55538430D01*
X43842148Y55460409D01*
X43672630Y55347141D01*
X43528467Y55202978D01*
X43415199Y55033460D01*
X43337178Y54845102D01*
X43297404Y54645143D01*
X735000Y54645143D01*
X735000Y57014333D01*
X1974338Y57014333D01*
X2084510Y56821004D01*
X2330806Y56705505D01*
X2594903Y56640276D01*
X2866651Y56627822D01*
X3135607Y56668623D01*
X3391435Y56761110D01*
X3503490Y56821004D01*
X3613662Y57014333D01*
X2794000Y57833995D01*
X1974338Y57014333D01*
X735000Y57014333D01*
X735000Y57940949D01*
X1408222Y57940949D01*
X1449023Y57671993D01*
X1541510Y57416165D01*
X1601404Y57304110D01*
X1794733Y57193938D01*
X2614395Y58013600D01*
X2973605Y58013600D01*
X3793267Y57193938D01*
X3986596Y57304110D01*
X4102095Y57550406D01*
X4122479Y57632939D01*
X18904000Y57632939D01*
X18904000Y57429061D01*
X18943774Y57229102D01*
X19021795Y57040744D01*
X19135063Y56871226D01*
X19279226Y56727063D01*
X19448744Y56613795D01*
X19637102Y56535774D01*
X19837061Y56496000D01*
X20040939Y56496000D01*
X20240898Y56535774D01*
X20429256Y56613795D01*
X20598774Y56727063D01*
X20742937Y56871226D01*
X20856205Y57040744D01*
X20934226Y57229102D01*
X20974000Y57429061D01*
X20974000Y57632939D01*
X20934226Y57832898D01*
X20856205Y58021256D01*
X20742937Y58190774D01*
X20598774Y58334937D01*
X20429256Y58448205D01*
X20240898Y58526226D01*
X20040939Y58566000D01*
X19837061Y58566000D01*
X19637102Y58526226D01*
X19448744Y58448205D01*
X19279226Y58334937D01*
X19135063Y58190774D01*
X19021795Y58021256D01*
X18943774Y57832898D01*
X18904000Y57632939D01*
X4122479Y57632939D01*
X4167324Y57814503D01*
X4179778Y58086251D01*
X4138977Y58355207D01*
X4046490Y58611035D01*
X3986596Y58723090D01*
X3793267Y58833262D01*
X2973605Y58013600D01*
X2614395Y58013600D01*
X1794733Y58833262D01*
X1601404Y58723090D01*
X1485905Y58476794D01*
X1420676Y58212697D01*
X1408222Y57940949D01*
X735000Y57940949D01*
X735000Y58691544D01*
X724365Y58799524D01*
X682337Y58938072D01*
X642359Y59012867D01*
X1974338Y59012867D01*
X2794000Y58193205D01*
X3613662Y59012867D01*
X3503490Y59206196D01*
X3320021Y59292233D01*
X58969400Y59292233D01*
X58969400Y58970167D01*
X59032232Y58654288D01*
X59155482Y58356737D01*
X59334413Y58088948D01*
X59562148Y57861213D01*
X59829937Y57682282D01*
X60127488Y57559032D01*
X60443367Y57496200D01*
X60765433Y57496200D01*
X61081312Y57559032D01*
X61378863Y57682282D01*
X61646652Y57861213D01*
X61874387Y58088948D01*
X62053318Y58356737D01*
X62176568Y58654288D01*
X62239400Y58970167D01*
X62239400Y59292233D01*
X62176568Y59608112D01*
X62053318Y59905663D01*
X61874387Y60173452D01*
X61646652Y60401187D01*
X61378863Y60580118D01*
X61081312Y60703368D01*
X60765433Y60766200D01*
X60443367Y60766200D01*
X60127488Y60703368D01*
X59829937Y60580118D01*
X59562148Y60401187D01*
X59334413Y60173452D01*
X59155482Y59905663D01*
X59032232Y59608112D01*
X58969400Y59292233D01*
X3320021Y59292233D01*
X3257194Y59321695D01*
X2993097Y59386924D01*
X2721349Y59399378D01*
X2452393Y59358577D01*
X2196565Y59266090D01*
X2084510Y59206196D01*
X1974338Y59012867D01*
X642359Y59012867D01*
X614087Y59065759D01*
X522238Y59177677D01*
X410320Y59269526D01*
X282633Y59337776D01*
X248280Y59348197D01*
X-192192Y59531167D01*
X-559141Y59776426D01*
X-871457Y60088282D01*
X-1117259Y60454872D01*
X-1287172Y60862214D01*
X-1374730Y61294807D01*
X-1376274Y61660264D01*
X-498355Y61660264D01*
X-498355Y61389736D01*
X-445578Y61124407D01*
X-342051Y60874473D01*
X-191754Y60649537D01*
X-463Y60458246D01*
X224473Y60307949D01*
X474407Y60204422D01*
X739736Y60151645D01*
X1010264Y60151645D01*
X1275593Y60204422D01*
X1525527Y60307949D01*
X1750463Y60458246D01*
X1941754Y60649537D01*
X2092051Y60874473D01*
X2195578Y61124407D01*
X2248355Y61389736D01*
X2248355Y61660264D01*
X2195578Y61925593D01*
X2092051Y62175527D01*
X1941754Y62400463D01*
X1750463Y62591754D01*
X1525527Y62742051D01*
X1275593Y62845578D01*
X1010264Y62898355D01*
X739736Y62898355D01*
X474407Y62845578D01*
X224473Y62742051D01*
X-463Y62591754D01*
X-191754Y62400463D01*
X-342051Y62175527D01*
X-445578Y61925593D01*
X-498355Y61660264D01*
X-1376274Y61660264D01*
X-1376595Y61736163D01*
X-1292699Y62169481D01*
X-1126237Y62578245D01*
X-895604Y62928581D01*
X20925000Y62928581D01*
X20925000Y62547419D01*
X20999361Y62173581D01*
X21145225Y61821434D01*
X21356987Y61504509D01*
X21626509Y61234987D01*
X21943434Y61023225D01*
X22295581Y60877361D01*
X22669419Y60803000D01*
X23050581Y60803000D01*
X23424419Y60877361D01*
X23776566Y61023225D01*
X24093491Y61234987D01*
X24363013Y61504509D01*
X24376527Y61524735D01*
X46166340Y61524735D01*
X46312707Y61300681D01*
X46610163Y61155197D01*
X46930286Y61070538D01*
X47260774Y61049959D01*
X47588927Y61094251D01*
X47902134Y61201711D01*
X48087293Y61300681D01*
X48233660Y61524735D01*
X48098131Y61660264D01*
X67751645Y61660264D01*
X67751645Y61389736D01*
X67804422Y61124407D01*
X67907949Y60874473D01*
X68058246Y60649537D01*
X68249537Y60458246D01*
X68474473Y60307949D01*
X68724407Y60204422D01*
X68989736Y60151645D01*
X69260264Y60151645D01*
X69525593Y60204422D01*
X69775527Y60307949D01*
X70000463Y60458246D01*
X70191754Y60649537D01*
X70342051Y60874473D01*
X70445578Y61124407D01*
X70498355Y61389736D01*
X70498355Y61660264D01*
X70445578Y61925593D01*
X70342051Y62175527D01*
X70191754Y62400463D01*
X70000463Y62591754D01*
X69775527Y62742051D01*
X69525593Y62845578D01*
X69260264Y62898355D01*
X68989736Y62898355D01*
X68724407Y62845578D01*
X68474473Y62742051D01*
X68249537Y62591754D01*
X68058246Y62400463D01*
X67907949Y62175527D01*
X67804422Y61925593D01*
X67751645Y61660264D01*
X48098131Y61660264D01*
X47200000Y62558395D01*
X46166340Y61524735D01*
X24376527Y61524735D01*
X24574775Y61821434D01*
X24720639Y62173581D01*
X24795000Y62547419D01*
X24795000Y62677226D01*
X45511959Y62677226D01*
X45556251Y62349073D01*
X45663711Y62035866D01*
X45762681Y61850707D01*
X45986735Y61704340D01*
X47020395Y62738000D01*
X47379605Y62738000D01*
X48413265Y61704340D01*
X48637319Y61850707D01*
X48782803Y62148163D01*
X48867462Y62468286D01*
X48888041Y62798774D01*
X48843749Y63126927D01*
X48736289Y63440134D01*
X48637319Y63625293D01*
X48413265Y63771660D01*
X47379605Y62738000D01*
X47020395Y62738000D01*
X45986735Y63771660D01*
X45762681Y63625293D01*
X45617197Y63327837D01*
X45532538Y63007714D01*
X45511959Y62677226D01*
X24795000Y62677226D01*
X24795000Y62928581D01*
X24720639Y63302419D01*
X24574775Y63654566D01*
X24363013Y63971491D01*
X24093491Y64241013D01*
X23776566Y64452775D01*
X23424419Y64598639D01*
X23050581Y64673000D01*
X22669419Y64673000D01*
X22295581Y64598639D01*
X21943434Y64452775D01*
X21626509Y64241013D01*
X21356987Y63971491D01*
X21145225Y63654566D01*
X20999361Y63302419D01*
X20925000Y62928581D01*
X-895604Y62928581D01*
X-883546Y62946896D01*
X-573873Y63261387D01*
X-209011Y63509740D01*
X228252Y63695727D01*
X282632Y63712223D01*
X410319Y63780473D01*
X522237Y63872322D01*
X614087Y63984240D01*
X682337Y64111927D01*
X724365Y64250475D01*
X735000Y64358455D01*
X735000Y67969854D01*
X789085Y68627715D01*
X2165000Y68627715D01*
X2165000Y67872285D01*
X2312377Y67131372D01*
X2601467Y66433446D01*
X3021161Y65805330D01*
X3555330Y65271161D01*
X4183446Y64851467D01*
X4881372Y64562377D01*
X5622285Y64415000D01*
X6377715Y64415000D01*
X7118628Y64562377D01*
X7816554Y64851467D01*
X8444670Y65271161D01*
X8464290Y65290781D01*
X33015400Y65290781D01*
X33015400Y64909619D01*
X33089761Y64535781D01*
X33235625Y64183634D01*
X33447387Y63866709D01*
X33716909Y63597187D01*
X34033834Y63385425D01*
X34385981Y63239561D01*
X34759819Y63165200D01*
X35140981Y63165200D01*
X35514819Y63239561D01*
X35866966Y63385425D01*
X36183891Y63597187D01*
X36453413Y63866709D01*
X36509911Y63951265D01*
X46166340Y63951265D01*
X47200000Y62917605D01*
X48233660Y63951265D01*
X48087293Y64175319D01*
X47789837Y64320803D01*
X47469714Y64405462D01*
X47139226Y64426041D01*
X46811073Y64381749D01*
X46497866Y64274289D01*
X46312707Y64175319D01*
X46166340Y63951265D01*
X36509911Y63951265D01*
X36665175Y64183634D01*
X36811039Y64535781D01*
X36818926Y64575433D01*
X53686200Y64575433D01*
X53686200Y64253367D01*
X53749032Y63937488D01*
X53872282Y63639937D01*
X54051213Y63372148D01*
X54278948Y63144413D01*
X54546737Y62965482D01*
X54844288Y62842232D01*
X55160167Y62779400D01*
X55482233Y62779400D01*
X55798112Y62842232D01*
X56095663Y62965482D01*
X56363452Y63144413D01*
X56591187Y63372148D01*
X56770118Y63639937D01*
X56893368Y63937488D01*
X56956200Y64253367D01*
X56956200Y64575433D01*
X56893368Y64891312D01*
X56770118Y65188863D01*
X56591187Y65456652D01*
X56363452Y65684387D01*
X56095663Y65863318D01*
X55798112Y65986568D01*
X55482233Y66049400D01*
X55160167Y66049400D01*
X54844288Y65986568D01*
X54546737Y65863318D01*
X54278948Y65684387D01*
X54051213Y65456652D01*
X53872282Y65188863D01*
X53749032Y64891312D01*
X53686200Y64575433D01*
X36818926Y64575433D01*
X36885400Y64909619D01*
X36885400Y65290781D01*
X36811039Y65664619D01*
X36665175Y66016766D01*
X36453413Y66333691D01*
X36183891Y66603213D01*
X35866966Y66814975D01*
X35514819Y66960839D01*
X35140981Y67035200D01*
X34759819Y67035200D01*
X34385981Y66960839D01*
X34033834Y66814975D01*
X33716909Y66603213D01*
X33447387Y66333691D01*
X33235625Y66016766D01*
X33089761Y65664619D01*
X33015400Y65290781D01*
X8464290Y65290781D01*
X8978839Y65805330D01*
X9398533Y66433446D01*
X9687623Y67131372D01*
X9835000Y67872285D01*
X9835000Y68495532D01*
X18007061Y68495532D01*
X18007061Y68004466D01*
X18102863Y67522836D01*
X18290786Y67069150D01*
X18563608Y66660844D01*
X18910844Y66313608D01*
X19319150Y66040786D01*
X19772836Y65852863D01*
X20254466Y65757061D01*
X20745532Y65757061D01*
X21227162Y65852863D01*
X21680848Y66040786D01*
X22089154Y66313608D01*
X22436390Y66660844D01*
X22709212Y67069150D01*
X22897135Y67522836D01*
X22992937Y68004466D01*
X22992937Y68495532D01*
X47007061Y68495532D01*
X47007061Y68004466D01*
X47102863Y67522836D01*
X47290786Y67069150D01*
X47563608Y66660844D01*
X47910844Y66313608D01*
X48319150Y66040786D01*
X48772836Y65852863D01*
X49254466Y65757061D01*
X49745532Y65757061D01*
X50227162Y65852863D01*
X50680848Y66040786D01*
X51089154Y66313608D01*
X51436390Y66660844D01*
X51709212Y67069150D01*
X51897135Y67522836D01*
X51992937Y68004466D01*
X51992937Y68495532D01*
X51966645Y68627715D01*
X60165000Y68627715D01*
X60165000Y67872285D01*
X60312377Y67131372D01*
X60601467Y66433446D01*
X61021161Y65805330D01*
X61555330Y65271161D01*
X62183446Y64851467D01*
X62881372Y64562377D01*
X63622285Y64415000D01*
X64377715Y64415000D01*
X65118628Y64562377D01*
X65816554Y64851467D01*
X66444670Y65271161D01*
X66978839Y65805330D01*
X67398533Y66433446D01*
X67687623Y67131372D01*
X67835000Y67872285D01*
X67835000Y68627715D01*
X67687623Y69368628D01*
X67398533Y70066554D01*
X66978839Y70694670D01*
X66444670Y71228839D01*
X65816554Y71648533D01*
X65118628Y71937623D01*
X64377715Y72085000D01*
X63622285Y72085000D01*
X62881372Y71937623D01*
X62183446Y71648533D01*
X61555330Y71228839D01*
X61021161Y70694670D01*
X60601467Y70066554D01*
X60312377Y69368628D01*
X60165000Y68627715D01*
X51966645Y68627715D01*
X51897135Y68977162D01*
X51709212Y69430848D01*
X51436390Y69839154D01*
X51089154Y70186390D01*
X50680848Y70459212D01*
X50227162Y70647135D01*
X49745532Y70742937D01*
X49254466Y70742937D01*
X48772836Y70647135D01*
X48319150Y70459212D01*
X47910844Y70186390D01*
X47563608Y69839154D01*
X47290786Y69430848D01*
X47102863Y68977162D01*
X47007061Y68495532D01*
X22992937Y68495532D01*
X22897135Y68977162D01*
X22709212Y69430848D01*
X22436390Y69839154D01*
X22089154Y70186390D01*
X21680848Y70459212D01*
X21227162Y70647135D01*
X20745532Y70742937D01*
X20254466Y70742937D01*
X19772836Y70647135D01*
X19319150Y70459212D01*
X18910844Y70186390D01*
X18563608Y69839154D01*
X18290786Y69430848D01*
X18102863Y68977162D01*
X18007061Y68495532D01*
X9835000Y68495532D01*
X9835000Y68627715D01*
X9687623Y69368628D01*
X9398533Y70066554D01*
X8978839Y70694670D01*
X8444670Y71228839D01*
X7816554Y71648533D01*
X7118628Y71937623D01*
X6377715Y72085000D01*
X5622285Y72085000D01*
X4881372Y71937623D01*
X4183446Y71648533D01*
X3555330Y71228839D01*
X3021161Y70694670D01*
X2601467Y70066554D01*
X2312377Y69368628D01*
X2165000Y68627715D01*
X789085Y68627715D01*
X808142Y68859503D01*
X1018237Y69695928D01*
X1362122Y70486809D01*
X1830559Y71210901D01*
X2410972Y71848765D01*
X3087766Y72383264D01*
X3842768Y72800048D01*
X4655712Y73087926D01*
X5517452Y73241426D01*
X6017319Y73264999D01*
X63969854Y73264999D01*
X64859503Y73191857D01*
%TA.AperFunction,Conductor*%
D20*
G36*
X64859503Y73191857D02*
G01*
X65695928Y72981762D01*
X66486804Y72637879D01*
X67210902Y72169440D01*
X67848766Y71589027D01*
X68383265Y70912233D01*
X68800049Y70157231D01*
X69087927Y69344288D01*
X69241427Y68482546D01*
X69265000Y67982679D01*
X69265001Y64358455D01*
X69275636Y64250475D01*
X69317664Y64111927D01*
X69385914Y63984240D01*
X69477763Y63872322D01*
X69589681Y63780473D01*
X69717368Y63712223D01*
X69751744Y63701795D01*
X70192190Y63518835D01*
X70559140Y63273576D01*
X70871462Y62961713D01*
X71117260Y62595130D01*
X71287172Y62187788D01*
X71374731Y61755191D01*
X71376596Y61313836D01*
X71292700Y60880521D01*
X71126235Y60471751D01*
X70883546Y60103103D01*
X70573871Y59788610D01*
X70209011Y59540259D01*
X69771754Y59354274D01*
X69717367Y59337776D01*
X69589680Y59269526D01*
X69477762Y59177676D01*
X69385913Y59065758D01*
X69317663Y58938071D01*
X69296372Y58867884D01*
X69296370Y58867879D01*
X69296369Y58867874D01*
X69275635Y58799523D01*
X69265000Y58691543D01*
X69265001Y15308455D01*
X69275636Y15200475D01*
X69317664Y15061927D01*
X69385914Y14934240D01*
X69477763Y14822322D01*
X69589681Y14730473D01*
X69717368Y14662223D01*
X69751744Y14651795D01*
X70192190Y14468835D01*
X70559140Y14223576D01*
X70871462Y13911713D01*
X71117260Y13545130D01*
X71287172Y13137788D01*
X71374731Y12705191D01*
X71376596Y12263836D01*
X71292700Y11830521D01*
X71126235Y11421751D01*
X70883546Y11053103D01*
X70573871Y10738610D01*
X70209011Y10490259D01*
X69771754Y10304274D01*
X69717367Y10287776D01*
X69589680Y10219526D01*
X69477762Y10127676D01*
X69385913Y10015758D01*
X69317663Y9888071D01*
X69296372Y9817884D01*
X69296370Y9817879D01*
X69296369Y9817874D01*
X69275635Y9749523D01*
X69265000Y9641543D01*
X69265001Y6030180D01*
X69191857Y5140496D01*
X68981761Y4304070D01*
X68637877Y3513191D01*
X68169443Y2789102D01*
X67589030Y2151237D01*
X66912233Y1616735D01*
X66157227Y1199948D01*
X65344287Y912072D01*
X64482547Y758573D01*
X63982680Y735000D01*
X6030167Y735000D01*
X5140495Y808143D01*
X4304069Y1018239D01*
X3513191Y1362123D01*
X2789102Y1830557D01*
X2151235Y2410971D01*
X1616736Y3087763D01*
X1199952Y3842765D01*
X912073Y4655712D01*
X758573Y5517453D01*
X735000Y6017319D01*
X735000Y6127715D01*
X2165000Y6127715D01*
X2165000Y5372285D01*
X2312377Y4631372D01*
X2601467Y3933446D01*
X3021161Y3305330D01*
X3555330Y2771161D01*
X4183446Y2351467D01*
X4881372Y2062377D01*
X5622285Y1915000D01*
X6377715Y1915000D01*
X6628327Y1964850D01*
X11876455Y1964850D01*
X11957796Y1795869D01*
X12163439Y1704197D01*
X12383016Y1654405D01*
X12608087Y1648407D01*
X12830004Y1686434D01*
X13040238Y1767024D01*
X13094204Y1795869D01*
X13175545Y1964850D01*
X12526000Y2614395D01*
X11876455Y1964850D01*
X6628327Y1964850D01*
X7118628Y2062377D01*
X7816554Y2351467D01*
X8355999Y2711913D01*
X11380407Y2711913D01*
X11418434Y2489996D01*
X11499024Y2279762D01*
X11527869Y2225796D01*
X11696850Y2144455D01*
X12346395Y2794000D01*
X12705605Y2794000D01*
X13355150Y2144455D01*
X13524131Y2225796D01*
X13615803Y2431439D01*
X13665595Y2651016D01*
X13671593Y2876087D01*
X13662082Y2931592D01*
X21129000Y2931592D01*
X21129000Y2656408D01*
X21182686Y2386510D01*
X21287995Y2132273D01*
X21440880Y1903465D01*
X21635465Y1708880D01*
X21864273Y1555995D01*
X22118510Y1450686D01*
X22388408Y1397000D01*
X22663592Y1397000D01*
X22933490Y1450686D01*
X23187727Y1555995D01*
X23416535Y1708880D01*
X23611120Y1903465D01*
X23764005Y2132273D01*
X23869314Y2386510D01*
X23889807Y2489539D01*
X41738600Y2489539D01*
X41738600Y2285661D01*
X41778374Y2085702D01*
X41856395Y1897344D01*
X41969663Y1727826D01*
X42113826Y1583663D01*
X42283344Y1470395D01*
X42471702Y1392374D01*
X42671661Y1352600D01*
X42875539Y1352600D01*
X43075498Y1392374D01*
X43263856Y1470395D01*
X43433374Y1583663D01*
X43577537Y1727826D01*
X43690805Y1897344D01*
X43764200Y2074534D01*
X43837595Y1897344D01*
X43950863Y1727826D01*
X44095026Y1583663D01*
X44264544Y1470395D01*
X44452902Y1392374D01*
X44652861Y1352600D01*
X44856739Y1352600D01*
X45056698Y1392374D01*
X45245056Y1470395D01*
X45414574Y1583663D01*
X45558737Y1727826D01*
X45672005Y1897344D01*
X45750026Y2085702D01*
X45789800Y2285661D01*
X45789800Y2489539D01*
X45750026Y2689498D01*
X45672005Y2877856D01*
X45558737Y3047374D01*
X45414574Y3191537D01*
X45245056Y3304805D01*
X45190507Y3327400D01*
X45245056Y3349995D01*
X45414574Y3463263D01*
X45558737Y3607426D01*
X45672005Y3776944D01*
X45750026Y3965302D01*
X45789800Y4165261D01*
X45789800Y4369139D01*
X45750026Y4569098D01*
X45672005Y4757456D01*
X45558737Y4926974D01*
X45414574Y5071137D01*
X45245056Y5184405D01*
X45056698Y5262426D01*
X44856739Y5302200D01*
X44652861Y5302200D01*
X44452902Y5262426D01*
X44264544Y5184405D01*
X44095026Y5071137D01*
X43950863Y4926974D01*
X43837595Y4757456D01*
X43800121Y4666987D01*
X43741605Y4808256D01*
X43628337Y4977774D01*
X43484174Y5121937D01*
X43314656Y5235205D01*
X43126298Y5313226D01*
X42926339Y5353000D01*
X42722461Y5353000D01*
X42522502Y5313226D01*
X42334144Y5235205D01*
X42164626Y5121937D01*
X42020463Y4977774D01*
X41907195Y4808256D01*
X41829174Y4619898D01*
X41789400Y4419939D01*
X41789400Y4216061D01*
X41829174Y4016102D01*
X41907195Y3827744D01*
X42020463Y3658226D01*
X42164626Y3514063D01*
X42334144Y3400795D01*
X42424613Y3363321D01*
X42283344Y3304805D01*
X42113826Y3191537D01*
X41969663Y3047374D01*
X41856395Y2877856D01*
X41778374Y2689498D01*
X41738600Y2489539D01*
X23889807Y2489539D01*
X23923000Y2656408D01*
X23923000Y2931592D01*
X23869314Y3201490D01*
X23764005Y3455727D01*
X23611120Y3684535D01*
X23416535Y3879120D01*
X23187727Y4032005D01*
X22933490Y4137314D01*
X22663592Y4191000D01*
X22388408Y4191000D01*
X22118510Y4137314D01*
X21864273Y4032005D01*
X21635465Y3879120D01*
X21440880Y3684535D01*
X21287995Y3455727D01*
X21182686Y3201490D01*
X21129000Y2931592D01*
X13662082Y2931592D01*
X13633566Y3098004D01*
X13552976Y3308238D01*
X13524131Y3362204D01*
X13355150Y3443545D01*
X12705605Y2794000D01*
X12346395Y2794000D01*
X11696850Y3443545D01*
X11527869Y3362204D01*
X11436197Y3156561D01*
X11386405Y2936984D01*
X11380407Y2711913D01*
X8355999Y2711913D01*
X8444670Y2771161D01*
X8978839Y3305330D01*
X9191199Y3623150D01*
X11876455Y3623150D01*
X12526000Y2973605D01*
X13175545Y3623150D01*
X13094204Y3792131D01*
X12888561Y3883803D01*
X12668984Y3933595D01*
X12443913Y3939593D01*
X12221996Y3901566D01*
X12011762Y3820976D01*
X11957796Y3792131D01*
X11876455Y3623150D01*
X9191199Y3623150D01*
X9398533Y3933446D01*
X9687623Y4631372D01*
X9835000Y5372285D01*
X9835000Y6127715D01*
X9687623Y6868628D01*
X9398533Y7566554D01*
X9269423Y7759781D01*
X10638000Y7759781D01*
X10638000Y7378619D01*
X10712361Y7004781D01*
X10858225Y6652634D01*
X11069987Y6335709D01*
X11339509Y6066187D01*
X11656434Y5854425D01*
X12008581Y5708561D01*
X12382419Y5634200D01*
X12763581Y5634200D01*
X13137419Y5708561D01*
X13489566Y5854425D01*
X13700749Y5995533D01*
X47007061Y5995533D01*
X47007061Y5504467D01*
X47102863Y5022837D01*
X47290786Y4569151D01*
X47563608Y4160845D01*
X47910844Y3813609D01*
X48319150Y3540787D01*
X48772836Y3352864D01*
X49254466Y3257062D01*
X49745532Y3257062D01*
X50227162Y3352864D01*
X50680848Y3540787D01*
X51089154Y3813609D01*
X51436390Y4160845D01*
X51709212Y4569151D01*
X51851197Y4911934D01*
X56064200Y4911934D01*
X56064200Y4708056D01*
X56103974Y4508097D01*
X56181995Y4319739D01*
X56295263Y4150221D01*
X56439426Y4006058D01*
X56608944Y3892790D01*
X56797302Y3814769D01*
X56997261Y3774995D01*
X57201139Y3774995D01*
X57401098Y3814769D01*
X57589456Y3892790D01*
X57758974Y4006058D01*
X57903137Y4150221D01*
X58016405Y4319739D01*
X58094426Y4508097D01*
X58134200Y4708056D01*
X58134200Y4911934D01*
X58094426Y5111893D01*
X58016405Y5300251D01*
X57903137Y5469769D01*
X57758974Y5613932D01*
X57589456Y5727200D01*
X57401098Y5805221D01*
X57201139Y5844995D01*
X56997261Y5844995D01*
X56797302Y5805221D01*
X56608944Y5727200D01*
X56439426Y5613932D01*
X56295263Y5469769D01*
X56181995Y5300251D01*
X56103974Y5111893D01*
X56064200Y4911934D01*
X51851197Y4911934D01*
X51897135Y5022837D01*
X51992937Y5504467D01*
X51992937Y5995533D01*
X51966645Y6127715D01*
X60165000Y6127715D01*
X60165000Y5372285D01*
X60312377Y4631372D01*
X60601467Y3933446D01*
X61021161Y3305330D01*
X61555330Y2771161D01*
X62183446Y2351467D01*
X62881372Y2062377D01*
X63622285Y1915000D01*
X64377715Y1915000D01*
X65118628Y2062377D01*
X65816554Y2351467D01*
X66444670Y2771161D01*
X66978839Y3305330D01*
X67398533Y3933446D01*
X67687623Y4631372D01*
X67835000Y5372285D01*
X67835000Y6127715D01*
X67687623Y6868628D01*
X67398533Y7566554D01*
X66978839Y8194670D01*
X66444670Y8728839D01*
X65816554Y9148533D01*
X65118628Y9437623D01*
X64377715Y9585000D01*
X63622285Y9585000D01*
X62881372Y9437623D01*
X62183446Y9148533D01*
X61555330Y8728839D01*
X61021161Y8194670D01*
X60601467Y7566554D01*
X60312377Y6868628D01*
X60165000Y6127715D01*
X51966645Y6127715D01*
X51897135Y6477163D01*
X51709212Y6930849D01*
X51436390Y7339155D01*
X51089154Y7686391D01*
X50680848Y7959213D01*
X50227162Y8147136D01*
X49745532Y8242938D01*
X49254466Y8242938D01*
X48772836Y8147136D01*
X48319150Y7959213D01*
X47910844Y7686391D01*
X47563608Y7339155D01*
X47290786Y6930849D01*
X47102863Y6477163D01*
X47007061Y5995533D01*
X13700749Y5995533D01*
X13806491Y6066187D01*
X14076013Y6335709D01*
X14287775Y6652634D01*
X14433639Y7004781D01*
X14508000Y7378619D01*
X14508000Y7759781D01*
X14433639Y8133619D01*
X14287775Y8485766D01*
X14076013Y8802691D01*
X13806491Y9072213D01*
X13489566Y9283975D01*
X13137419Y9429839D01*
X12763581Y9504200D01*
X12382419Y9504200D01*
X12008581Y9429839D01*
X11656434Y9283975D01*
X11339509Y9072213D01*
X11069987Y8802691D01*
X10858225Y8485766D01*
X10712361Y8133619D01*
X10638000Y7759781D01*
X9269423Y7759781D01*
X8978839Y8194670D01*
X8444670Y8728839D01*
X7816554Y9148533D01*
X7118628Y9437623D01*
X6377715Y9585000D01*
X5622285Y9585000D01*
X4881372Y9437623D01*
X4183446Y9148533D01*
X3555330Y8728839D01*
X3021161Y8194670D01*
X2601467Y7566554D01*
X2312377Y6868628D01*
X2165000Y6127715D01*
X735000Y6127715D01*
X735000Y9641544D01*
X724365Y9749524D01*
X682337Y9888072D01*
X614087Y10015759D01*
X522238Y10127677D01*
X410320Y10219526D01*
X282633Y10287776D01*
X248280Y10298197D01*
X-192192Y10481167D01*
X-559141Y10726426D01*
X-871457Y11038282D01*
X-1117259Y11404872D01*
X-1287172Y11812214D01*
X-1374730Y12244807D01*
X-1376274Y12610264D01*
X-498355Y12610264D01*
X-498355Y12339736D01*
X-445578Y12074407D01*
X-342051Y11824473D01*
X-191754Y11599537D01*
X-463Y11408246D01*
X224473Y11257949D01*
X474407Y11154422D01*
X739736Y11101645D01*
X1010264Y11101645D01*
X1275593Y11154422D01*
X1525527Y11257949D01*
X1750463Y11408246D01*
X1941754Y11599537D01*
X2092051Y11824473D01*
X2195578Y12074407D01*
X2248355Y12339736D01*
X2248355Y12610264D01*
X67751645Y12610264D01*
X67751645Y12339736D01*
X67804422Y12074407D01*
X67907949Y11824473D01*
X68058246Y11599537D01*
X68249537Y11408246D01*
X68474473Y11257949D01*
X68724407Y11154422D01*
X68989736Y11101645D01*
X69260264Y11101645D01*
X69525593Y11154422D01*
X69775527Y11257949D01*
X70000463Y11408246D01*
X70191754Y11599537D01*
X70342051Y11824473D01*
X70445578Y12074407D01*
X70498355Y12339736D01*
X70498355Y12610264D01*
X70445578Y12875593D01*
X70342051Y13125527D01*
X70191754Y13350463D01*
X70000463Y13541754D01*
X69775527Y13692051D01*
X69525593Y13795578D01*
X69260264Y13848355D01*
X68989736Y13848355D01*
X68724407Y13795578D01*
X68474473Y13692051D01*
X68249537Y13541754D01*
X68058246Y13350463D01*
X67907949Y13125527D01*
X67804422Y12875593D01*
X67751645Y12610264D01*
X2248355Y12610264D01*
X2195578Y12875593D01*
X2092051Y13125527D01*
X1941754Y13350463D01*
X1750463Y13541754D01*
X1525527Y13692051D01*
X1275593Y13795578D01*
X1010264Y13848355D01*
X739736Y13848355D01*
X474407Y13795578D01*
X224473Y13692051D01*
X-463Y13541754D01*
X-191754Y13350463D01*
X-342051Y13125527D01*
X-445578Y12875593D01*
X-498355Y12610264D01*
X-1376274Y12610264D01*
X-1376595Y12686163D01*
X-1292699Y13119481D01*
X-1126237Y13528245D01*
X-883546Y13896896D01*
X-573873Y14211387D01*
X-209011Y14459740D01*
X228252Y14645727D01*
X282632Y14662223D01*
X410319Y14730473D01*
X522237Y14822322D01*
X614087Y14934240D01*
X682337Y15061927D01*
X724365Y15200475D01*
X735000Y15308455D01*
X735000Y16192581D01*
X11273000Y16192581D01*
X11273000Y15811419D01*
X11347361Y15437581D01*
X11493225Y15085434D01*
X11704987Y14768509D01*
X11974509Y14498987D01*
X12291434Y14287225D01*
X12643581Y14141361D01*
X13017419Y14067000D01*
X13398581Y14067000D01*
X13772419Y14141361D01*
X14124566Y14287225D01*
X14441491Y14498987D01*
X14711013Y14768509D01*
X14922775Y15085434D01*
X15068639Y15437581D01*
X15143000Y15811419D01*
X15143000Y16192581D01*
X15068639Y16566419D01*
X14922775Y16918566D01*
X14711013Y17235491D01*
X14674165Y17272339D01*
X36353800Y17272339D01*
X36353800Y17068461D01*
X36393574Y16868502D01*
X36471595Y16680144D01*
X36584863Y16510626D01*
X36729026Y16366463D01*
X36898544Y16253195D01*
X37086902Y16175174D01*
X37286861Y16135400D01*
X37490739Y16135400D01*
X37690698Y16175174D01*
X37879056Y16253195D01*
X38048574Y16366463D01*
X38192737Y16510626D01*
X38306005Y16680144D01*
X38384026Y16868502D01*
X38423800Y17068461D01*
X38423800Y17068881D01*
X52027300Y17068881D01*
X52027300Y16687719D01*
X52101661Y16313881D01*
X52247525Y15961734D01*
X52459287Y15644809D01*
X52728809Y15375287D01*
X53045734Y15163525D01*
X53397881Y15017661D01*
X53771719Y14943300D01*
X54152881Y14943300D01*
X54526719Y15017661D01*
X54878866Y15163525D01*
X55195791Y15375287D01*
X55465313Y15644809D01*
X55677075Y15961734D01*
X55822939Y16313881D01*
X55897300Y16687719D01*
X55897300Y17068881D01*
X55822939Y17442719D01*
X55677075Y17794866D01*
X55465313Y18111791D01*
X55195791Y18381313D01*
X54878866Y18593075D01*
X54526719Y18738939D01*
X54152881Y18813300D01*
X53771719Y18813300D01*
X53397881Y18738939D01*
X53045734Y18593075D01*
X52728809Y18381313D01*
X52459287Y18111791D01*
X52247525Y17794866D01*
X52101661Y17442719D01*
X52027300Y17068881D01*
X38423800Y17068881D01*
X38423800Y17272339D01*
X38384026Y17472298D01*
X38306005Y17660656D01*
X38192737Y17830174D01*
X38048574Y17974337D01*
X37879056Y18087605D01*
X37690698Y18165626D01*
X37490739Y18205400D01*
X37286861Y18205400D01*
X37086902Y18165626D01*
X36898544Y18087605D01*
X36729026Y17974337D01*
X36584863Y17830174D01*
X36471595Y17660656D01*
X36393574Y17472298D01*
X36353800Y17272339D01*
X14674165Y17272339D01*
X14441491Y17505013D01*
X14124566Y17716775D01*
X13772419Y17862639D01*
X13398581Y17937000D01*
X13017419Y17937000D01*
X12643581Y17862639D01*
X12291434Y17716775D01*
X11974509Y17505013D01*
X11704987Y17235491D01*
X11493225Y16918566D01*
X11347361Y16566419D01*
X11273000Y16192581D01*
X735000Y16192581D01*
X735000Y19913939D01*
X32239000Y19913939D01*
X32239000Y19710061D01*
X32278774Y19510102D01*
X32356795Y19321744D01*
X32470063Y19152226D01*
X32614226Y19008063D01*
X32783744Y18894795D01*
X32972102Y18816774D01*
X33172061Y18777000D01*
X33375939Y18777000D01*
X33575898Y18816774D01*
X33764256Y18894795D01*
X33867606Y18963851D01*
X33864600Y18948739D01*
X33864600Y18744861D01*
X33904374Y18544902D01*
X33982395Y18356544D01*
X34095663Y18187026D01*
X34239826Y18042863D01*
X34409344Y17929595D01*
X34597702Y17851574D01*
X34797661Y17811800D01*
X35001539Y17811800D01*
X35201498Y17851574D01*
X35389856Y17929595D01*
X35559374Y18042863D01*
X35703537Y18187026D01*
X35816805Y18356544D01*
X35894826Y18544902D01*
X35934600Y18744861D01*
X35934600Y18948739D01*
X35894826Y19148698D01*
X35819836Y19329739D01*
X36760200Y19329739D01*
X36760200Y19125861D01*
X36799974Y18925902D01*
X36877995Y18737544D01*
X36991263Y18568026D01*
X37135426Y18423863D01*
X37304944Y18310595D01*
X37493302Y18232574D01*
X37693261Y18192800D01*
X37897139Y18192800D01*
X38097098Y18232574D01*
X38285456Y18310595D01*
X38454974Y18423863D01*
X38599137Y18568026D01*
X38712405Y18737544D01*
X38790426Y18925902D01*
X38830200Y19125861D01*
X38830200Y19329739D01*
X38790426Y19529698D01*
X38712405Y19718056D01*
X38599137Y19887574D01*
X38454974Y20031737D01*
X38285456Y20145005D01*
X38097098Y20223026D01*
X37897139Y20262800D01*
X37693261Y20262800D01*
X37493302Y20223026D01*
X37304944Y20145005D01*
X37135426Y20031737D01*
X36991263Y19887574D01*
X36877995Y19718056D01*
X36799974Y19529698D01*
X36760200Y19329739D01*
X35819836Y19329739D01*
X35816805Y19337056D01*
X35703537Y19506574D01*
X35559374Y19650737D01*
X35389856Y19764005D01*
X35201498Y19842026D01*
X35001539Y19881800D01*
X34797661Y19881800D01*
X34597702Y19842026D01*
X34409344Y19764005D01*
X34305994Y19694949D01*
X34309000Y19710061D01*
X34309000Y19913939D01*
X34269226Y20113898D01*
X34191205Y20302256D01*
X34077937Y20471774D01*
X33933774Y20615937D01*
X33764256Y20729205D01*
X33575898Y20807226D01*
X33375939Y20847000D01*
X33172061Y20847000D01*
X32972102Y20807226D01*
X32783744Y20729205D01*
X32614226Y20615937D01*
X32470063Y20471774D01*
X32356795Y20302256D01*
X32278774Y20113898D01*
X32239000Y19913939D01*
X735000Y19913939D01*
X735000Y21539539D01*
X37090400Y21539539D01*
X37090400Y21335661D01*
X37130174Y21135702D01*
X37208195Y20947344D01*
X37321463Y20777826D01*
X37465626Y20633663D01*
X37635144Y20520395D01*
X37823502Y20442374D01*
X38023461Y20402600D01*
X38227339Y20402600D01*
X38427298Y20442374D01*
X38615656Y20520395D01*
X38785174Y20633663D01*
X38929337Y20777826D01*
X39042605Y20947344D01*
X39120626Y21135702D01*
X39160400Y21335661D01*
X39160400Y21539539D01*
X39120626Y21739498D01*
X39087721Y21818939D01*
X43186400Y21818939D01*
X43186400Y21615061D01*
X43226174Y21415102D01*
X43304195Y21226744D01*
X43417463Y21057226D01*
X43561626Y20913063D01*
X43731144Y20799795D01*
X43919502Y20721774D01*
X44119461Y20682000D01*
X44323339Y20682000D01*
X44523298Y20721774D01*
X44711656Y20799795D01*
X44881174Y20913063D01*
X45025337Y21057226D01*
X45138605Y21226744D01*
X45216626Y21415102D01*
X45256400Y21615061D01*
X45256400Y21818939D01*
X45216626Y22018898D01*
X45138605Y22207256D01*
X45025337Y22376774D01*
X44881174Y22520937D01*
X44711656Y22634205D01*
X44523298Y22712226D01*
X44323339Y22752000D01*
X44119461Y22752000D01*
X43919502Y22712226D01*
X43731144Y22634205D01*
X43561626Y22520937D01*
X43417463Y22376774D01*
X43304195Y22207256D01*
X43226174Y22018898D01*
X43186400Y21818939D01*
X39087721Y21818939D01*
X39042605Y21927856D01*
X38929337Y22097374D01*
X38785174Y22241537D01*
X38615656Y22354805D01*
X38427298Y22432826D01*
X38227339Y22472600D01*
X38023461Y22472600D01*
X37823502Y22432826D01*
X37635144Y22354805D01*
X37465626Y22241537D01*
X37321463Y22097374D01*
X37208195Y21927856D01*
X37130174Y21739498D01*
X37090400Y21539539D01*
X735000Y21539539D01*
X735000Y26504981D01*
X1367000Y26504981D01*
X1367000Y26123819D01*
X1441361Y25749981D01*
X1587225Y25397834D01*
X1798987Y25080909D01*
X2068509Y24811387D01*
X2385434Y24599625D01*
X2737581Y24453761D01*
X3111419Y24379400D01*
X3492581Y24379400D01*
X3866419Y24453761D01*
X4218566Y24599625D01*
X4535491Y24811387D01*
X4805013Y25080909D01*
X5016775Y25397834D01*
X5162639Y25749981D01*
X5237000Y26123819D01*
X5237000Y26504981D01*
X5162639Y26878819D01*
X5016775Y27230966D01*
X4805013Y27547891D01*
X4535491Y27817413D01*
X4218566Y28029175D01*
X3866419Y28175039D01*
X3492581Y28249400D01*
X3111419Y28249400D01*
X2737581Y28175039D01*
X2385434Y28029175D01*
X2068509Y27817413D01*
X1798987Y27547891D01*
X1587225Y27230966D01*
X1441361Y26878819D01*
X1367000Y26504981D01*
X735000Y26504981D01*
X735000Y34182260D01*
X8929000Y34182260D01*
X8929000Y33889740D01*
X8986068Y33602842D01*
X9098010Y33332589D01*
X9260525Y33089368D01*
X9467368Y32882525D01*
X9641760Y32766000D01*
X9467368Y32649475D01*
X9260525Y32442632D01*
X9098010Y32199411D01*
X8986068Y31929158D01*
X8929000Y31642260D01*
X8929000Y31349740D01*
X8986068Y31062842D01*
X9098010Y30792589D01*
X9260525Y30549368D01*
X9467368Y30342525D01*
X9641760Y30226000D01*
X9467368Y30109475D01*
X9260525Y29902632D01*
X9098010Y29659411D01*
X8986068Y29389158D01*
X8929000Y29102260D01*
X8929000Y28809740D01*
X8986068Y28522842D01*
X9098010Y28252589D01*
X9260525Y28009368D01*
X9467368Y27802525D01*
X9641760Y27686000D01*
X9467368Y27569475D01*
X9260525Y27362632D01*
X9098010Y27119411D01*
X8986068Y26849158D01*
X8929000Y26562260D01*
X8929000Y26269740D01*
X8986068Y25982842D01*
X9098010Y25712589D01*
X9260525Y25469368D01*
X9467368Y25262525D01*
X9641760Y25146000D01*
X9467368Y25029475D01*
X9260525Y24822632D01*
X9098010Y24579411D01*
X8986068Y24309158D01*
X8929000Y24022260D01*
X8929000Y23729740D01*
X8986068Y23442842D01*
X9098010Y23172589D01*
X9260525Y22929368D01*
X9467368Y22722525D01*
X9710589Y22560010D01*
X9980842Y22448068D01*
X10267740Y22391000D01*
X10560260Y22391000D01*
X10847158Y22448068D01*
X11117411Y22560010D01*
X11360632Y22722525D01*
X11567475Y22929368D01*
X11684000Y23103760D01*
X11800525Y22929368D01*
X12007368Y22722525D01*
X12250589Y22560010D01*
X12520842Y22448068D01*
X12807740Y22391000D01*
X13100260Y22391000D01*
X13387158Y22448068D01*
X13657411Y22560010D01*
X13900632Y22722525D01*
X14107475Y22929368D01*
X14269990Y23172589D01*
X14381932Y23442842D01*
X14439000Y23729740D01*
X14439000Y24022260D01*
X14422555Y24104936D01*
X24364997Y24104936D01*
X24364997Y23901058D01*
X24404771Y23701099D01*
X24482792Y23512741D01*
X24596060Y23343223D01*
X24740223Y23199060D01*
X24909741Y23085792D01*
X25098099Y23007771D01*
X25298058Y22967997D01*
X25501936Y22967997D01*
X25701895Y23007771D01*
X25890253Y23085792D01*
X26059771Y23199060D01*
X26203934Y23343223D01*
X26317202Y23512741D01*
X26395223Y23701099D01*
X26434997Y23901058D01*
X26434997Y24079539D01*
X26651000Y24079539D01*
X26651000Y23875661D01*
X26690774Y23675702D01*
X26768795Y23487344D01*
X26882063Y23317826D01*
X27026226Y23173663D01*
X27195744Y23060395D01*
X27384102Y22982374D01*
X27584061Y22942600D01*
X27787939Y22942600D01*
X27987898Y22982374D01*
X28176256Y23060395D01*
X28345774Y23173663D01*
X28489937Y23317826D01*
X28557631Y23419139D01*
X41611600Y23419139D01*
X41611600Y23215261D01*
X41651374Y23015302D01*
X41729395Y22826944D01*
X41842663Y22657426D01*
X41986826Y22513263D01*
X42156344Y22399995D01*
X42344702Y22321974D01*
X42544661Y22282200D01*
X42748539Y22282200D01*
X42948498Y22321974D01*
X43136856Y22399995D01*
X43306374Y22513263D01*
X43450537Y22657426D01*
X43563805Y22826944D01*
X43641826Y23015302D01*
X43681600Y23215261D01*
X43681600Y23419139D01*
X43641826Y23619098D01*
X43563805Y23807456D01*
X43450537Y23976974D01*
X43306374Y24121137D01*
X43136856Y24234405D01*
X42948498Y24312426D01*
X42748539Y24352200D01*
X42544661Y24352200D01*
X42344702Y24312426D01*
X42156344Y24234405D01*
X41986826Y24121137D01*
X41842663Y23976974D01*
X41729395Y23807456D01*
X41651374Y23619098D01*
X41611600Y23419139D01*
X28557631Y23419139D01*
X28603205Y23487344D01*
X28681226Y23675702D01*
X28721000Y23875661D01*
X28721000Y24079539D01*
X28681226Y24279498D01*
X28603205Y24467856D01*
X28489937Y24637374D01*
X28345774Y24781537D01*
X28176256Y24894805D01*
X27987898Y24972826D01*
X27787939Y25012600D01*
X27584061Y25012600D01*
X27384102Y24972826D01*
X27195744Y24894805D01*
X27026226Y24781537D01*
X26882063Y24637374D01*
X26768795Y24467856D01*
X26690774Y24279498D01*
X26651000Y24079539D01*
X26434997Y24079539D01*
X26434997Y24104936D01*
X26395223Y24304895D01*
X26317202Y24493253D01*
X26203934Y24662771D01*
X26059771Y24806934D01*
X25890253Y24920202D01*
X25701895Y24998223D01*
X25501936Y25037997D01*
X25298058Y25037997D01*
X25098099Y24998223D01*
X24909741Y24920202D01*
X24740223Y24806934D01*
X24596060Y24662771D01*
X24482792Y24493253D01*
X24404771Y24304895D01*
X24364997Y24104936D01*
X14422555Y24104936D01*
X14381932Y24309158D01*
X14269990Y24579411D01*
X14107475Y24822632D01*
X13900632Y25029475D01*
X13726240Y25146000D01*
X13900632Y25262525D01*
X14107475Y25469368D01*
X14269990Y25712589D01*
X14381932Y25982842D01*
X14439000Y26269740D01*
X14439000Y26562260D01*
X14381932Y26849158D01*
X14269990Y27119411D01*
X14107475Y27362632D01*
X13900632Y27569475D01*
X13726240Y27686000D01*
X13900632Y27802525D01*
X14107475Y28009368D01*
X14269990Y28252589D01*
X14381932Y28522842D01*
X14439000Y28809740D01*
X14439000Y29102260D01*
X14381932Y29389158D01*
X14269990Y29659411D01*
X14107475Y29902632D01*
X13900632Y30109475D01*
X13726240Y30226000D01*
X13900632Y30342525D01*
X14107475Y30549368D01*
X14269990Y30792589D01*
X14381932Y31062842D01*
X14439000Y31349740D01*
X14439000Y31642260D01*
X14381932Y31929158D01*
X14269990Y32199411D01*
X14107475Y32442632D01*
X13900632Y32649475D01*
X13726240Y32766000D01*
X13900632Y32882525D01*
X14107475Y33089368D01*
X14269990Y33332589D01*
X14381932Y33602842D01*
X14439000Y33889740D01*
X14439000Y34182260D01*
X14381932Y34469158D01*
X14269990Y34739411D01*
X14107475Y34982632D01*
X13900632Y35189475D01*
X13657411Y35351990D01*
X13430100Y35446145D01*
X13496949Y35471201D01*
X13702052Y35598353D01*
X13878408Y35763076D01*
X14019239Y35959039D01*
X14119134Y36178712D01*
X14143489Y36259020D01*
X14082627Y36449000D01*
X13081000Y36449000D01*
X13081000Y36429000D01*
X12827000Y36429000D01*
X12827000Y36449000D01*
X11825373Y36449000D01*
X11764511Y36259020D01*
X11788866Y36178712D01*
X11888761Y35959039D01*
X12029592Y35763076D01*
X12205948Y35598353D01*
X12411051Y35471201D01*
X12477900Y35446145D01*
X12250589Y35351990D01*
X12007368Y35189475D01*
X11800525Y34982632D01*
X11684000Y34808240D01*
X11567475Y34982632D01*
X11360632Y35189475D01*
X11117411Y35351990D01*
X10890100Y35446145D01*
X10956949Y35471201D01*
X11162052Y35598353D01*
X11338408Y35763076D01*
X11479239Y35959039D01*
X11579134Y36178712D01*
X11603489Y36259020D01*
X11542627Y36449000D01*
X10541000Y36449000D01*
X10541000Y36429000D01*
X10287000Y36429000D01*
X10287000Y36449000D01*
X9285373Y36449000D01*
X9224511Y36259020D01*
X9248866Y36178712D01*
X9348761Y35959039D01*
X9489592Y35763076D01*
X9665948Y35598353D01*
X9871051Y35471201D01*
X9937900Y35446145D01*
X9710589Y35351990D01*
X9467368Y35189475D01*
X9260525Y34982632D01*
X9098010Y34739411D01*
X8986068Y34469158D01*
X8929000Y34182260D01*
X735000Y34182260D01*
X735000Y36892980D01*
X9224511Y36892980D01*
X9285373Y36703000D01*
X10287000Y36703000D01*
X10287000Y37705187D01*
X10541000Y37705187D01*
X10541000Y36703000D01*
X11542627Y36703000D01*
X11603489Y36892980D01*
X11764511Y36892980D01*
X11825373Y36703000D01*
X12827000Y36703000D01*
X12827000Y37705187D01*
X13081000Y37705187D01*
X13081000Y36703000D01*
X14082627Y36703000D01*
X14143489Y36892980D01*
X14119134Y36973288D01*
X14019239Y37192961D01*
X13878408Y37388924D01*
X13702052Y37553647D01*
X13496949Y37680799D01*
X13270981Y37765495D01*
X13081000Y37705187D01*
X12827000Y37705187D01*
X12637019Y37765495D01*
X12411051Y37680799D01*
X12205948Y37553647D01*
X12029592Y37388924D01*
X11888761Y37192961D01*
X11788866Y36973288D01*
X11764511Y36892980D01*
X11603489Y36892980D01*
X11579134Y36973288D01*
X11479239Y37192961D01*
X11338408Y37388924D01*
X11162052Y37553647D01*
X10956949Y37680799D01*
X10730981Y37765495D01*
X10541000Y37705187D01*
X10287000Y37705187D01*
X10097019Y37765495D01*
X9871051Y37680799D01*
X9665948Y37553647D01*
X9489592Y37388924D01*
X9348761Y37192961D01*
X9248866Y36973288D01*
X9224511Y36892980D01*
X735000Y36892980D01*
X735000Y38799020D01*
X9224511Y38799020D01*
X9248866Y38718712D01*
X9348761Y38499039D01*
X9489592Y38303076D01*
X9665948Y38138353D01*
X9871051Y38011201D01*
X10097019Y37926505D01*
X10287000Y37986813D01*
X10287000Y38989000D01*
X10541000Y38989000D01*
X10541000Y37986813D01*
X10730981Y37926505D01*
X10956949Y38011201D01*
X11162052Y38138353D01*
X11338408Y38303076D01*
X11479239Y38499039D01*
X11579134Y38718712D01*
X11603489Y38799020D01*
X11764511Y38799020D01*
X11788866Y38718712D01*
X11888761Y38499039D01*
X12029592Y38303076D01*
X12205948Y38138353D01*
X12411051Y38011201D01*
X12637019Y37926505D01*
X12827000Y37986813D01*
X12827000Y38989000D01*
X13081000Y38989000D01*
X13081000Y37986813D01*
X13270981Y37926505D01*
X13496949Y38011201D01*
X13702052Y38138353D01*
X13878408Y38303076D01*
X14019239Y38499039D01*
X14119134Y38718712D01*
X14143489Y38799020D01*
X14082627Y38989000D01*
X13081000Y38989000D01*
X12827000Y38989000D01*
X11825373Y38989000D01*
X11764511Y38799020D01*
X11603489Y38799020D01*
X11542627Y38989000D01*
X10541000Y38989000D01*
X10287000Y38989000D01*
X9285373Y38989000D01*
X9224511Y38799020D01*
X735000Y38799020D01*
X735000Y48869939D01*
X2394000Y48869939D01*
X2394000Y48666061D01*
X2433774Y48466102D01*
X2511795Y48277744D01*
X2625063Y48108226D01*
X2769226Y47964063D01*
X2938744Y47850795D01*
X3127102Y47772774D01*
X3327061Y47733000D01*
X3530939Y47733000D01*
X3730898Y47772774D01*
X3919256Y47850795D01*
X4088774Y47964063D01*
X4232937Y48108226D01*
X4346205Y48277744D01*
X4424226Y48466102D01*
X4464000Y48666061D01*
X4464000Y48869939D01*
X4424226Y49069898D01*
X4346205Y49258256D01*
X4232937Y49427774D01*
X4088774Y49571937D01*
X3919256Y49685205D01*
X3730898Y49763226D01*
X3530939Y49803000D01*
X3327061Y49803000D01*
X3127102Y49763226D01*
X2938744Y49685205D01*
X2769226Y49571937D01*
X2625063Y49427774D01*
X2511795Y49258256D01*
X2433774Y49069898D01*
X2394000Y48869939D01*
X735000Y48869939D01*
X735000Y52666000D01*
X8925928Y52666000D01*
X8925928Y50966000D01*
X8938188Y50841518D01*
X8974498Y50721820D01*
X9033463Y50611506D01*
X9112815Y50514815D01*
X9209506Y50435463D01*
X9319820Y50376498D01*
X9392380Y50354487D01*
X9260525Y50222632D01*
X9098010Y49979411D01*
X8986068Y49709158D01*
X8929000Y49422260D01*
X8929000Y49129740D01*
X8986068Y48842842D01*
X9098010Y48572589D01*
X9260525Y48329368D01*
X9467368Y48122525D01*
X9641760Y48006000D01*
X9467368Y47889475D01*
X9260525Y47682632D01*
X9098010Y47439411D01*
X8986068Y47169158D01*
X8929000Y46882260D01*
X8929000Y46589740D01*
X8986068Y46302842D01*
X9098010Y46032589D01*
X9260525Y45789368D01*
X9467368Y45582525D01*
X9641760Y45466000D01*
X9467368Y45349475D01*
X9260525Y45142632D01*
X9098010Y44899411D01*
X8986068Y44629158D01*
X8929000Y44342260D01*
X8929000Y44049740D01*
X8986068Y43762842D01*
X9098010Y43492589D01*
X9260525Y43249368D01*
X9467368Y43042525D01*
X9641760Y42926000D01*
X9467368Y42809475D01*
X9260525Y42602632D01*
X9098010Y42359411D01*
X8986068Y42089158D01*
X8929000Y41802260D01*
X8929000Y41509740D01*
X8986068Y41222842D01*
X9098010Y40952589D01*
X9260525Y40709368D01*
X9467368Y40502525D01*
X9710589Y40340010D01*
X9937900Y40245855D01*
X9871051Y40220799D01*
X9665948Y40093647D01*
X9489592Y39928924D01*
X9348761Y39732961D01*
X9248866Y39513288D01*
X9224511Y39432980D01*
X9285373Y39243000D01*
X10287000Y39243000D01*
X10287000Y39263000D01*
X10541000Y39263000D01*
X10541000Y39243000D01*
X11542627Y39243000D01*
X11603489Y39432980D01*
X11579134Y39513288D01*
X11479239Y39732961D01*
X11338408Y39928924D01*
X11162052Y40093647D01*
X10956949Y40220799D01*
X10890100Y40245855D01*
X11117411Y40340010D01*
X11360632Y40502525D01*
X11567475Y40709368D01*
X11684000Y40883760D01*
X11800525Y40709368D01*
X12007368Y40502525D01*
X12250589Y40340010D01*
X12477900Y40245855D01*
X12411051Y40220799D01*
X12205948Y40093647D01*
X12029592Y39928924D01*
X11888761Y39732961D01*
X11788866Y39513288D01*
X11764511Y39432980D01*
X11825373Y39243000D01*
X12827000Y39243000D01*
X12827000Y39263000D01*
X13081000Y39263000D01*
X13081000Y39243000D01*
X14082627Y39243000D01*
X14143489Y39432980D01*
X14119134Y39513288D01*
X14039913Y39687500D01*
X20383500Y39687500D01*
X20383500Y34798000D01*
X20385940Y34773224D01*
X20393167Y34749399D01*
X20404903Y34727443D01*
X20420697Y34708197D01*
X20439943Y34692403D01*
X20461899Y34680667D01*
X20485724Y34673440D01*
X20510500Y34671000D01*
X21082000Y34671000D01*
X21106776Y34673440D01*
X21130601Y34680667D01*
X21152557Y34692403D01*
X21171803Y34708197D01*
X21187597Y34727443D01*
X21199333Y34749399D01*
X21206560Y34773224D01*
X21209000Y34798000D01*
X21209000Y38989000D01*
X27368500Y38989000D01*
X27368500Y34798000D01*
X27370940Y34773224D01*
X27378167Y34749399D01*
X27389903Y34727443D01*
X27405697Y34708197D01*
X27424943Y34692403D01*
X27446899Y34680667D01*
X27470724Y34673440D01*
X27495500Y34671000D01*
X28067000Y34671000D01*
X28067000Y31178500D01*
X28069440Y31153724D01*
X28076667Y31129899D01*
X28088403Y31107943D01*
X28104197Y31088697D01*
X28123443Y31072903D01*
X28145399Y31061167D01*
X28169224Y31053940D01*
X28194000Y31051500D01*
X30607000Y31051500D01*
X30607000Y30353000D01*
X25146000Y30353000D01*
X25121224Y30350560D01*
X25097399Y30343333D01*
X25075443Y30331597D01*
X25056197Y30315803D01*
X25040403Y30296557D01*
X25028667Y30274601D01*
X25021440Y30250776D01*
X25019000Y30226000D01*
X25019000Y30099000D01*
X23622000Y30099000D01*
X23597224Y30096560D01*
X23573399Y30089333D01*
X23551443Y30077597D01*
X23532197Y30061803D01*
X23516403Y30042557D01*
X23504667Y30020601D01*
X23497440Y29996776D01*
X23495000Y29972000D01*
X23495000Y29337000D01*
X21209000Y29337000D01*
X21209000Y33972500D01*
X21206560Y33997276D01*
X21199333Y34021101D01*
X21187597Y34043057D01*
X21171803Y34062303D01*
X21152557Y34078097D01*
X21130601Y34089833D01*
X21106776Y34097060D01*
X21082000Y34099500D01*
X20510500Y34099500D01*
X20485724Y34097060D01*
X20461899Y34089833D01*
X20439943Y34078097D01*
X20420697Y34062303D01*
X20404903Y34043057D01*
X20393167Y34021101D01*
X20385940Y33997276D01*
X20383500Y33972500D01*
X20383500Y28702000D01*
X20385940Y28677224D01*
X20393167Y28653399D01*
X20404903Y28631443D01*
X20420697Y28612197D01*
X20439943Y28596403D01*
X20461899Y28584667D01*
X20485724Y28577440D01*
X20510500Y28575000D01*
X24130000Y28575000D01*
X24154776Y28577440D01*
X24178601Y28584667D01*
X24200557Y28596403D01*
X24219803Y28612197D01*
X24235597Y28631443D01*
X24247333Y28653399D01*
X24254560Y28677224D01*
X24257000Y28702000D01*
X24257000Y29337000D01*
X25463500Y29337000D01*
X25488276Y29339440D01*
X25512101Y29346667D01*
X25534057Y29358403D01*
X25553303Y29374197D01*
X25569097Y29393443D01*
X25580833Y29415399D01*
X25588060Y29439224D01*
X25590500Y29464000D01*
X25590500Y29719403D01*
X27626592Y29742026D01*
X27530795Y29598656D01*
X27452774Y29410298D01*
X27413000Y29210339D01*
X27413000Y29006461D01*
X27452774Y28806502D01*
X27530795Y28618144D01*
X27644063Y28448626D01*
X27788226Y28304463D01*
X27957744Y28191195D01*
X28146102Y28113174D01*
X28346061Y28073400D01*
X28549939Y28073400D01*
X28749898Y28113174D01*
X28938256Y28191195D01*
X29107774Y28304463D01*
X29251937Y28448626D01*
X29365205Y28618144D01*
X29443226Y28806502D01*
X29483000Y29006461D01*
X29483000Y29210339D01*
X29443226Y29410298D01*
X29365205Y29598656D01*
X29257301Y29760146D01*
X31179911Y29781508D01*
X31204659Y29784223D01*
X31228401Y29791715D01*
X31250226Y29803694D01*
X31269295Y29819701D01*
X31284874Y29839120D01*
X31296365Y29861206D01*
X31303327Y29885109D01*
X31305500Y29908500D01*
X31305500Y31192553D01*
X31340795Y31107344D01*
X31454063Y30937826D01*
X31598226Y30793663D01*
X31767744Y30680395D01*
X31883400Y30632488D01*
X31883400Y30608071D01*
X31923174Y30408112D01*
X32001195Y30219754D01*
X32114463Y30050236D01*
X32183626Y29981073D01*
X32053699Y29955229D01*
X31865341Y29877208D01*
X31695823Y29763940D01*
X31551660Y29619777D01*
X31438392Y29450259D01*
X31360371Y29261901D01*
X31320597Y29061942D01*
X31320597Y28858064D01*
X31360371Y28658105D01*
X31438392Y28469747D01*
X31551660Y28300229D01*
X31695823Y28156066D01*
X31745638Y28122781D01*
X31645595Y27973056D01*
X31567574Y27784698D01*
X31527800Y27584739D01*
X31527800Y27380861D01*
X31567574Y27180902D01*
X31645595Y26992544D01*
X31674423Y26949400D01*
X31645595Y26906256D01*
X31567574Y26717898D01*
X31527800Y26517939D01*
X31527800Y26314061D01*
X31567276Y26115600D01*
X31547426Y26102337D01*
X31403263Y25958174D01*
X31289995Y25788656D01*
X31211974Y25600298D01*
X31172200Y25400339D01*
X31172200Y25196461D01*
X31211974Y24996502D01*
X31289995Y24808144D01*
X31403263Y24638626D01*
X31547426Y24494463D01*
X31716944Y24381195D01*
X31905302Y24303174D01*
X32105261Y24263400D01*
X32309139Y24263400D01*
X32509098Y24303174D01*
X32697456Y24381195D01*
X32866974Y24494463D01*
X33011137Y24638626D01*
X33124405Y24808144D01*
X33197284Y24984089D01*
X34117000Y24984089D01*
X34117000Y24799911D01*
X34152932Y24619271D01*
X34223414Y24449111D01*
X34325738Y24295972D01*
X34455972Y24165738D01*
X34609111Y24063414D01*
X34779271Y23992932D01*
X34959911Y23957000D01*
X35144089Y23957000D01*
X35324729Y23992932D01*
X35494889Y24063414D01*
X35648028Y24165738D01*
X35778262Y24295972D01*
X35880586Y24449111D01*
X35951068Y24619271D01*
X35987000Y24799911D01*
X35987000Y24984089D01*
X35961742Y25111070D01*
X36086729Y25135932D01*
X36201162Y25183331D01*
X36226836Y25144907D01*
X36370999Y25000744D01*
X36540517Y24887476D01*
X36728875Y24809455D01*
X36767995Y24801674D01*
X36799974Y24640902D01*
X36877995Y24452544D01*
X36991263Y24283026D01*
X37135426Y24138863D01*
X37304944Y24025595D01*
X37493302Y23947574D01*
X37693261Y23907800D01*
X37897139Y23907800D01*
X38097098Y23947574D01*
X38285456Y24025595D01*
X38454974Y24138863D01*
X38599137Y24283026D01*
X38712405Y24452544D01*
X38790426Y24640902D01*
X38830200Y24840861D01*
X38830200Y25044739D01*
X38790426Y25244698D01*
X38712405Y25433056D01*
X38599137Y25602574D01*
X38454974Y25746737D01*
X38285456Y25860005D01*
X38097098Y25938026D01*
X38057978Y25945807D01*
X38034551Y26063589D01*
X39133500Y26063589D01*
X39133500Y25879411D01*
X39169432Y25698771D01*
X39239914Y25528611D01*
X39296174Y25444411D01*
X39232932Y25291729D01*
X39197000Y25111089D01*
X39197000Y24926911D01*
X39232932Y24746271D01*
X39303414Y24576111D01*
X39405738Y24422972D01*
X39535972Y24292738D01*
X39689111Y24190414D01*
X39859271Y24119932D01*
X40039911Y24084000D01*
X40224089Y24084000D01*
X40404729Y24119932D01*
X40574889Y24190414D01*
X40728028Y24292738D01*
X40858262Y24422972D01*
X40960586Y24576111D01*
X41031068Y24746271D01*
X41067000Y24926911D01*
X41067000Y25111089D01*
X41031068Y25291729D01*
X40960586Y25461889D01*
X40904326Y25546089D01*
X40967568Y25698771D01*
X41003500Y25879411D01*
X41003500Y26063589D01*
X40990869Y26127089D01*
X42181500Y26127089D01*
X42181500Y25942911D01*
X42217432Y25762271D01*
X42287914Y25592111D01*
X42390238Y25438972D01*
X42520472Y25308738D01*
X42673611Y25206414D01*
X42843771Y25135932D01*
X43024411Y25100000D01*
X43208589Y25100000D01*
X43389229Y25135932D01*
X43559389Y25206414D01*
X43712528Y25308738D01*
X43836574Y25432784D01*
X43913411Y25417500D01*
X44097589Y25417500D01*
X44278229Y25453432D01*
X44448389Y25523914D01*
X44601528Y25626238D01*
X44731762Y25756472D01*
X44834086Y25909611D01*
X44904568Y26079771D01*
X44940500Y26260411D01*
X44940500Y26444589D01*
X44904568Y26625229D01*
X44834086Y26795389D01*
X44731762Y26948528D01*
X44601528Y27078762D01*
X44448389Y27181086D01*
X44278229Y27251568D01*
X44097589Y27287500D01*
X43913411Y27287500D01*
X43732771Y27251568D01*
X43562611Y27181086D01*
X43409472Y27078762D01*
X43285426Y26954716D01*
X43208589Y26970000D01*
X43024411Y26970000D01*
X42843771Y26934068D01*
X42673611Y26863586D01*
X42520472Y26761262D01*
X42390238Y26631028D01*
X42287914Y26477889D01*
X42217432Y26307729D01*
X42181500Y26127089D01*
X40990869Y26127089D01*
X40967568Y26244229D01*
X40897086Y26414389D01*
X40794762Y26567528D01*
X40664528Y26697762D01*
X40511389Y26800086D01*
X40341229Y26870568D01*
X40160589Y26906500D01*
X39976411Y26906500D01*
X39795771Y26870568D01*
X39625611Y26800086D01*
X39472472Y26697762D01*
X39342238Y26567528D01*
X39239914Y26414389D01*
X39169432Y26244229D01*
X39133500Y26063589D01*
X38034551Y26063589D01*
X38025999Y26106579D01*
X37947978Y26294937D01*
X37834710Y26464455D01*
X37707438Y26591727D01*
X37837137Y26721426D01*
X37950405Y26890944D01*
X38028426Y27079302D01*
X38068200Y27279261D01*
X38068200Y27483139D01*
X38028426Y27683098D01*
X37950405Y27871456D01*
X37837137Y28040974D01*
X37692974Y28185137D01*
X37596240Y28249772D01*
X37730089Y28305214D01*
X37883228Y28407538D01*
X38013462Y28537772D01*
X38115786Y28690911D01*
X38186268Y28861071D01*
X38222200Y29041711D01*
X38222200Y29225889D01*
X38186268Y29406529D01*
X38115786Y29576689D01*
X38013462Y29729828D01*
X37883228Y29860062D01*
X37730089Y29962386D01*
X37559929Y30032868D01*
X37404548Y30063776D01*
X37398868Y30092329D01*
X37328386Y30262489D01*
X37226062Y30415628D01*
X37095828Y30545862D01*
X36970146Y30629840D01*
X36977600Y30667311D01*
X36977600Y30851489D01*
X36941668Y31032129D01*
X36871186Y31202289D01*
X36768862Y31355428D01*
X36638628Y31485662D01*
X36485489Y31587986D01*
X36315329Y31658468D01*
X36134689Y31694400D01*
X35950511Y31694400D01*
X35769871Y31658468D01*
X35599711Y31587986D01*
X35446572Y31485662D01*
X35316338Y31355428D01*
X35214014Y31202289D01*
X35143532Y31032129D01*
X35107600Y30851489D01*
X35107600Y30667311D01*
X35143532Y30486671D01*
X35214014Y30316511D01*
X35316338Y30163372D01*
X35446572Y30033138D01*
X35572254Y29949160D01*
X35564800Y29911689D01*
X35564800Y29727511D01*
X35600732Y29546871D01*
X35671214Y29376711D01*
X35773538Y29223572D01*
X35903772Y29093338D01*
X36056911Y28991014D01*
X36227071Y28920532D01*
X36382452Y28889624D01*
X36388132Y28861071D01*
X36458614Y28690911D01*
X36560938Y28537772D01*
X36691172Y28407538D01*
X36736259Y28377412D01*
X36731302Y28376426D01*
X36542944Y28298405D01*
X36373426Y28185137D01*
X36229263Y28040974D01*
X36115995Y27871456D01*
X36037974Y27683098D01*
X35998200Y27483139D01*
X35998200Y27279261D01*
X36037974Y27079302D01*
X36100494Y26928366D01*
X36086729Y26934068D01*
X35906089Y26970000D01*
X35721911Y26970000D01*
X35541271Y26934068D01*
X35371111Y26863586D01*
X35217972Y26761262D01*
X35087738Y26631028D01*
X34985414Y26477889D01*
X34914932Y26307729D01*
X34879000Y26127089D01*
X34879000Y25942911D01*
X34904258Y25815930D01*
X34779271Y25791068D01*
X34609111Y25720586D01*
X34455972Y25618262D01*
X34325738Y25488028D01*
X34223414Y25334889D01*
X34152932Y25164729D01*
X34117000Y24984089D01*
X33197284Y24984089D01*
X33202426Y24996502D01*
X33242200Y25196461D01*
X33242200Y25400339D01*
X33202724Y25598800D01*
X33222574Y25612063D01*
X33366737Y25756226D01*
X33480005Y25925744D01*
X33558026Y26114102D01*
X33597800Y26314061D01*
X33597800Y26517939D01*
X33558026Y26717898D01*
X33480005Y26906256D01*
X33451177Y26949400D01*
X33480005Y26992544D01*
X33558026Y27180902D01*
X33597800Y27380861D01*
X33597800Y27584739D01*
X33558026Y27784698D01*
X33480005Y27973056D01*
X33366737Y28142574D01*
X33222574Y28286737D01*
X33172759Y28320022D01*
X33190893Y28347162D01*
X34305073Y28347162D01*
X34305073Y28162984D01*
X34341005Y27982344D01*
X34411487Y27812184D01*
X34513811Y27659045D01*
X34644045Y27528811D01*
X34797184Y27426487D01*
X34967344Y27356005D01*
X35147984Y27320073D01*
X35332162Y27320073D01*
X35512802Y27356005D01*
X35682962Y27426487D01*
X35836101Y27528811D01*
X35966335Y27659045D01*
X36068659Y27812184D01*
X36139141Y27982344D01*
X36175073Y28162984D01*
X36175073Y28347162D01*
X36139141Y28527802D01*
X36068659Y28697962D01*
X35966335Y28851101D01*
X35836101Y28981335D01*
X35682962Y29083659D01*
X35512802Y29154141D01*
X35332162Y29190073D01*
X35147984Y29190073D01*
X34967344Y29154141D01*
X34797184Y29083659D01*
X34644045Y28981335D01*
X34513811Y28851101D01*
X34411487Y28697962D01*
X34341005Y28527802D01*
X34305073Y28347162D01*
X33190893Y28347162D01*
X33272802Y28469747D01*
X33350823Y28658105D01*
X33390597Y28858064D01*
X33390597Y29061942D01*
X33350823Y29261901D01*
X33272802Y29450259D01*
X33159534Y29619777D01*
X33090371Y29688940D01*
X33220298Y29714784D01*
X33408656Y29792805D01*
X33578174Y29906073D01*
X33722337Y30050236D01*
X33835605Y30219754D01*
X33913626Y30408112D01*
X33953400Y30608071D01*
X33953400Y30811949D01*
X33913626Y31011908D01*
X33835605Y31200266D01*
X33722337Y31369784D01*
X33578174Y31513947D01*
X33496330Y31568633D01*
X33628974Y31657263D01*
X33773137Y31801426D01*
X33886405Y31970944D01*
X33964426Y32159302D01*
X34004200Y32359261D01*
X34004200Y32563139D01*
X33964426Y32763098D01*
X33886405Y32951456D01*
X33773137Y33120974D01*
X33628974Y33265137D01*
X33459456Y33378405D01*
X33338310Y33428586D01*
X33303570Y33603236D01*
X33225549Y33791594D01*
X33112281Y33961112D01*
X32968118Y34105275D01*
X32798600Y34218543D01*
X32610242Y34296564D01*
X32410283Y34336338D01*
X32206405Y34336338D01*
X32006446Y34296564D01*
X31818088Y34218543D01*
X31648570Y34105275D01*
X31504407Y33961112D01*
X31391139Y33791594D01*
X31313118Y33603236D01*
X31273344Y33403277D01*
X31273344Y33199399D01*
X31313118Y32999440D01*
X31391139Y32811082D01*
X31504407Y32641564D01*
X31648570Y32497401D01*
X31695134Y32466288D01*
X31598226Y32401537D01*
X31454063Y32257374D01*
X31340795Y32087856D01*
X31262774Y31899498D01*
X31242146Y31795791D01*
X31227101Y31803833D01*
X31203276Y31811060D01*
X31178500Y31813500D01*
X28892500Y31813500D01*
X28892500Y35175423D01*
X44282516Y35175423D01*
X44282516Y34971545D01*
X44322290Y34771586D01*
X44400311Y34583228D01*
X44513579Y34413710D01*
X44657742Y34269547D01*
X44827260Y34156279D01*
X45015618Y34078258D01*
X45215577Y34038484D01*
X45419455Y34038484D01*
X45619414Y34078258D01*
X45807772Y34156279D01*
X45977290Y34269547D01*
X46036182Y34328439D01*
X46717000Y34328439D01*
X46717000Y34124561D01*
X46756774Y33924602D01*
X46834795Y33736244D01*
X46948063Y33566726D01*
X47092226Y33422563D01*
X47261744Y33309295D01*
X47450102Y33231274D01*
X47650061Y33191500D01*
X47853939Y33191500D01*
X48053898Y33231274D01*
X48242256Y33309295D01*
X48411774Y33422563D01*
X48555937Y33566726D01*
X48669205Y33736244D01*
X48747226Y33924602D01*
X48787000Y34124561D01*
X48787000Y34328439D01*
X48747226Y34528398D01*
X48669205Y34716756D01*
X48555937Y34886274D01*
X48411774Y35030437D01*
X48242256Y35143705D01*
X48053898Y35221726D01*
X47853939Y35261500D01*
X47650061Y35261500D01*
X47450102Y35221726D01*
X47261744Y35143705D01*
X47092226Y35030437D01*
X46948063Y34886274D01*
X46834795Y34716756D01*
X46756774Y34528398D01*
X46717000Y34328439D01*
X46036182Y34328439D01*
X46121453Y34413710D01*
X46234721Y34583228D01*
X46312742Y34771586D01*
X46352516Y34971545D01*
X46352516Y35175423D01*
X46312742Y35375382D01*
X46234721Y35563740D01*
X46121453Y35733258D01*
X45977290Y35877421D01*
X45807772Y35990689D01*
X45619414Y36068710D01*
X45419455Y36108484D01*
X45215577Y36108484D01*
X45015618Y36068710D01*
X44827260Y35990689D01*
X44657742Y35877421D01*
X44513579Y35733258D01*
X44400311Y35563740D01*
X44322290Y35375382D01*
X44282516Y35175423D01*
X28892500Y35175423D01*
X28892500Y35369500D01*
X28890060Y35394276D01*
X28882833Y35418101D01*
X28871097Y35440057D01*
X28855303Y35459303D01*
X28836057Y35475097D01*
X28814101Y35486833D01*
X28790276Y35494060D01*
X28765500Y35496500D01*
X28257500Y35496500D01*
X28257500Y36576339D01*
X37268200Y36576339D01*
X37268200Y36372461D01*
X37307974Y36172502D01*
X37385995Y35984144D01*
X37499263Y35814626D01*
X37643426Y35670463D01*
X37812944Y35557195D01*
X38001302Y35479174D01*
X38201261Y35439400D01*
X38405139Y35439400D01*
X38605098Y35479174D01*
X38793456Y35557195D01*
X38962974Y35670463D01*
X39107137Y35814626D01*
X39220405Y35984144D01*
X39298426Y36172502D01*
X39338200Y36372461D01*
X39338200Y36576339D01*
X39298426Y36776298D01*
X39220405Y36964656D01*
X39107137Y37134174D01*
X38962974Y37278337D01*
X38793456Y37391605D01*
X38605098Y37469626D01*
X38405139Y37509400D01*
X38201261Y37509400D01*
X38001302Y37469626D01*
X37812944Y37391605D01*
X37643426Y37278337D01*
X37499263Y37134174D01*
X37385995Y36964656D01*
X37307974Y36776298D01*
X37268200Y36576339D01*
X28257500Y36576339D01*
X28257500Y38836939D01*
X29826000Y38836939D01*
X29826000Y38633061D01*
X29865774Y38433102D01*
X29943795Y38244744D01*
X30057063Y38075226D01*
X30201226Y37931063D01*
X30370744Y37817795D01*
X30559102Y37739774D01*
X30759061Y37700000D01*
X30962939Y37700000D01*
X31162898Y37739774D01*
X31351256Y37817795D01*
X31520774Y37931063D01*
X31664937Y38075226D01*
X31778205Y38244744D01*
X31856226Y38433102D01*
X31896000Y38633061D01*
X31896000Y38836939D01*
X31856226Y39036898D01*
X31778205Y39225256D01*
X31664937Y39394774D01*
X31520774Y39538937D01*
X31351256Y39652205D01*
X31162898Y39730226D01*
X30962939Y39770000D01*
X30759061Y39770000D01*
X30559102Y39730226D01*
X30370744Y39652205D01*
X30201226Y39538937D01*
X30057063Y39394774D01*
X29943795Y39225256D01*
X29865774Y39036898D01*
X29826000Y38836939D01*
X28257500Y38836939D01*
X28257500Y39644111D01*
X28304463Y39573826D01*
X28448626Y39429663D01*
X28618144Y39316395D01*
X28806502Y39238374D01*
X29006461Y39198600D01*
X29210339Y39198600D01*
X29410298Y39238374D01*
X29598656Y39316395D01*
X29768174Y39429663D01*
X29912337Y39573826D01*
X30025605Y39743344D01*
X30103626Y39931702D01*
X30143400Y40131661D01*
X30143400Y40335539D01*
X30103626Y40535498D01*
X30025605Y40723856D01*
X29912337Y40893374D01*
X29768174Y41037537D01*
X29678375Y41097539D01*
X35998200Y41097539D01*
X35998200Y40893661D01*
X36037974Y40693702D01*
X36115995Y40505344D01*
X36229263Y40335826D01*
X36373426Y40191663D01*
X36542944Y40078395D01*
X36731302Y40000374D01*
X36931261Y39960600D01*
X37135139Y39960600D01*
X37335098Y40000374D01*
X37523456Y40078395D01*
X37692974Y40191663D01*
X37837137Y40335826D01*
X37950405Y40505344D01*
X38015473Y40662432D01*
X47507707Y40662432D01*
X47507707Y40458554D01*
X47547481Y40258595D01*
X47625502Y40070237D01*
X47738770Y39900719D01*
X47882933Y39756556D01*
X48052451Y39643288D01*
X48240809Y39565267D01*
X48440768Y39525493D01*
X48644646Y39525493D01*
X48844605Y39565267D01*
X49032963Y39643288D01*
X49202481Y39756556D01*
X49346644Y39900719D01*
X49459912Y40070237D01*
X49537933Y40258595D01*
X49577707Y40458554D01*
X49577707Y40662432D01*
X49537933Y40862391D01*
X49459912Y41050749D01*
X49346644Y41220267D01*
X49202481Y41364430D01*
X49032963Y41477698D01*
X48844605Y41555719D01*
X48644646Y41595493D01*
X48440768Y41595493D01*
X48240809Y41555719D01*
X48052451Y41477698D01*
X47882933Y41364430D01*
X47738770Y41220267D01*
X47625502Y41050749D01*
X47547481Y40862391D01*
X47507707Y40662432D01*
X38015473Y40662432D01*
X38028426Y40693702D01*
X38068200Y40893661D01*
X38068200Y41097539D01*
X38028426Y41297498D01*
X37950405Y41485856D01*
X37837137Y41655374D01*
X37692974Y41799537D01*
X37523456Y41912805D01*
X37335098Y41990826D01*
X37135139Y42030600D01*
X36931261Y42030600D01*
X36731302Y41990826D01*
X36542944Y41912805D01*
X36373426Y41799537D01*
X36229263Y41655374D01*
X36115995Y41485856D01*
X36037974Y41297498D01*
X35998200Y41097539D01*
X29678375Y41097539D01*
X29598656Y41150805D01*
X29410298Y41228826D01*
X29210339Y41268600D01*
X29006461Y41268600D01*
X28806502Y41228826D01*
X28618144Y41150805D01*
X28448626Y41037537D01*
X28304463Y40893374D01*
X28191195Y40723856D01*
X28113174Y40535498D01*
X28073400Y40335539D01*
X28073400Y40131661D01*
X28113174Y39931702D01*
X28163803Y39809473D01*
X28155276Y39812060D01*
X28130500Y39814500D01*
X20510500Y39814500D01*
X20485724Y39812060D01*
X20461899Y39804833D01*
X20439943Y39793097D01*
X20420697Y39777303D01*
X20404903Y39758057D01*
X20393167Y39736101D01*
X20385940Y39712276D01*
X20383500Y39687500D01*
X14039913Y39687500D01*
X14019239Y39732961D01*
X13878408Y39928924D01*
X13702052Y40093647D01*
X13496949Y40220799D01*
X13430100Y40245855D01*
X13657411Y40340010D01*
X13900632Y40502525D01*
X14107475Y40709368D01*
X14269990Y40952589D01*
X14381932Y41222842D01*
X14439000Y41509740D01*
X14439000Y41605539D01*
X24161800Y41605539D01*
X24161800Y41401661D01*
X24201574Y41201702D01*
X24279595Y41013344D01*
X24392863Y40843826D01*
X24537026Y40699663D01*
X24706544Y40586395D01*
X24894902Y40508374D01*
X25094861Y40468600D01*
X25298739Y40468600D01*
X25498698Y40508374D01*
X25687056Y40586395D01*
X25856574Y40699663D01*
X26000737Y40843826D01*
X26114005Y41013344D01*
X26192026Y41201702D01*
X26231800Y41401661D01*
X26231800Y41605539D01*
X26192026Y41805498D01*
X26114005Y41993856D01*
X26000737Y42163374D01*
X25856574Y42307537D01*
X25687056Y42420805D01*
X25498698Y42498826D01*
X25298739Y42538600D01*
X25094861Y42538600D01*
X24894902Y42498826D01*
X24706544Y42420805D01*
X24537026Y42307537D01*
X24392863Y42163374D01*
X24279595Y41993856D01*
X24201574Y41805498D01*
X24161800Y41605539D01*
X14439000Y41605539D01*
X14439000Y41802260D01*
X14381932Y42089158D01*
X14269990Y42359411D01*
X14107475Y42602632D01*
X13900632Y42809475D01*
X13726240Y42926000D01*
X13900632Y43042525D01*
X14107475Y43249368D01*
X14269990Y43492589D01*
X14381932Y43762842D01*
X14439000Y44049740D01*
X14439000Y44342260D01*
X14381932Y44629158D01*
X14269990Y44899411D01*
X14107475Y45142632D01*
X13900632Y45349475D01*
X13726240Y45466000D01*
X13900632Y45582525D01*
X14107475Y45789368D01*
X14269990Y46032589D01*
X14381932Y46302842D01*
X14439000Y46589740D01*
X14439000Y46882260D01*
X14381932Y47169158D01*
X14269990Y47439411D01*
X14107475Y47682632D01*
X13900632Y47889475D01*
X13726240Y48006000D01*
X13900632Y48122525D01*
X14107475Y48329368D01*
X14269990Y48572589D01*
X14340550Y48742939D01*
X30715000Y48742939D01*
X30715000Y48539061D01*
X30754774Y48339102D01*
X30832795Y48150744D01*
X30946063Y47981226D01*
X30984789Y47942500D01*
X30946063Y47903774D01*
X30832795Y47734256D01*
X30754774Y47545898D01*
X30715000Y47345939D01*
X30715000Y47142061D01*
X30754774Y46942102D01*
X30832795Y46753744D01*
X30946063Y46584226D01*
X31090226Y46440063D01*
X31259744Y46326795D01*
X31448102Y46248774D01*
X31648061Y46209000D01*
X31851939Y46209000D01*
X32051898Y46248774D01*
X32240256Y46326795D01*
X32409774Y46440063D01*
X32512000Y46542289D01*
X32614226Y46440063D01*
X32783744Y46326795D01*
X32972102Y46248774D01*
X33172061Y46209000D01*
X33375939Y46209000D01*
X33575898Y46248774D01*
X33764256Y46326795D01*
X33933774Y46440063D01*
X34077937Y46584226D01*
X34099500Y46616497D01*
X34104510Y46609000D01*
X34007795Y46464256D01*
X33929774Y46275898D01*
X33890000Y46075939D01*
X33890000Y45872061D01*
X33929774Y45672102D01*
X34007795Y45483744D01*
X34104510Y45339000D01*
X34007795Y45194256D01*
X33929774Y45005898D01*
X33890000Y44805939D01*
X33890000Y44602061D01*
X33929774Y44402102D01*
X34007795Y44213744D01*
X34121063Y44044226D01*
X34265226Y43900063D01*
X34434744Y43786795D01*
X34623102Y43708774D01*
X34823061Y43669000D01*
X35026939Y43669000D01*
X35226898Y43708774D01*
X35415256Y43786795D01*
X35584774Y43900063D01*
X35687000Y44002289D01*
X35789226Y43900063D01*
X35958744Y43786795D01*
X36147102Y43708774D01*
X36347061Y43669000D01*
X36550939Y43669000D01*
X36750898Y43708774D01*
X36939256Y43786795D01*
X37108774Y43900063D01*
X37252937Y44044226D01*
X37366205Y44213744D01*
X37444226Y44402102D01*
X37484000Y44602061D01*
X37484000Y44805939D01*
X37444226Y45005898D01*
X37366205Y45194256D01*
X37269490Y45339000D01*
X37366205Y45483744D01*
X37444226Y45672102D01*
X37484000Y45872061D01*
X37484000Y46075939D01*
X37444226Y46275898D01*
X37366205Y46464256D01*
X37269490Y46609000D01*
X37366205Y46753744D01*
X37444226Y46942102D01*
X37484000Y47142061D01*
X37484000Y47345939D01*
X37444226Y47545898D01*
X37366205Y47734256D01*
X37252937Y47903774D01*
X37214211Y47942500D01*
X37252937Y47981226D01*
X37366205Y48150744D01*
X37444226Y48339102D01*
X37458873Y48412739D01*
X41433800Y48412739D01*
X41433800Y48208861D01*
X41473574Y48008902D01*
X41551595Y47820544D01*
X41664863Y47651026D01*
X41809026Y47506863D01*
X41978544Y47393595D01*
X42166902Y47315574D01*
X42366861Y47275800D01*
X42570739Y47275800D01*
X42770698Y47315574D01*
X42959056Y47393595D01*
X43128574Y47506863D01*
X43272737Y47651026D01*
X43386005Y47820544D01*
X43464026Y48008902D01*
X43503800Y48208861D01*
X43503800Y48412739D01*
X43464026Y48612698D01*
X43386005Y48801056D01*
X43272737Y48970574D01*
X43129311Y49114000D01*
X51851928Y49114000D01*
X51851928Y47914000D01*
X51868992Y47740746D01*
X51919528Y47574150D01*
X52001595Y47420614D01*
X52112038Y47286038D01*
X52246614Y47175595D01*
X52373608Y47107715D01*
X52186525Y46920632D01*
X52024010Y46677411D01*
X51912068Y46407158D01*
X51855000Y46120260D01*
X51855000Y45827740D01*
X51912068Y45540842D01*
X52024010Y45270589D01*
X52186525Y45027368D01*
X52393368Y44820525D01*
X52567760Y44704000D01*
X52393368Y44587475D01*
X52186525Y44380632D01*
X52024010Y44137411D01*
X51912068Y43867158D01*
X51855000Y43580260D01*
X51855000Y43287740D01*
X51912068Y43000842D01*
X52024010Y42730589D01*
X52186525Y42487368D01*
X52393368Y42280525D01*
X52567760Y42164000D01*
X52393368Y42047475D01*
X52186525Y41840632D01*
X52024010Y41597411D01*
X51912068Y41327158D01*
X51855000Y41040260D01*
X51855000Y40747740D01*
X51912068Y40460842D01*
X52024010Y40190589D01*
X52186525Y39947368D01*
X52393368Y39740525D01*
X52567760Y39624000D01*
X52393368Y39507475D01*
X52186525Y39300632D01*
X52024010Y39057411D01*
X51912068Y38787158D01*
X51855000Y38500260D01*
X51855000Y38207740D01*
X51912068Y37920842D01*
X52024010Y37650589D01*
X52186525Y37407368D01*
X52393368Y37200525D01*
X52567760Y37084000D01*
X52393368Y36967475D01*
X52186525Y36760632D01*
X52024010Y36517411D01*
X51912068Y36247158D01*
X51855000Y35960260D01*
X51855000Y35667740D01*
X51912068Y35380842D01*
X52024010Y35110589D01*
X52186525Y34867368D01*
X52393368Y34660525D01*
X52567760Y34544000D01*
X52393368Y34427475D01*
X52186525Y34220632D01*
X52024010Y33977411D01*
X51912068Y33707158D01*
X51855000Y33420260D01*
X51855000Y33127740D01*
X51912068Y32840842D01*
X52024010Y32570589D01*
X52186525Y32327368D01*
X52393368Y32120525D01*
X52567760Y32004000D01*
X52393368Y31887475D01*
X52186525Y31680632D01*
X52024010Y31437411D01*
X51912068Y31167158D01*
X51855000Y30880260D01*
X51855000Y30587740D01*
X51912068Y30300842D01*
X52024010Y30030589D01*
X52186525Y29787368D01*
X52393368Y29580525D01*
X52567760Y29464000D01*
X52393368Y29347475D01*
X52186525Y29140632D01*
X52024010Y28897411D01*
X51912068Y28627158D01*
X51855000Y28340260D01*
X51855000Y28047740D01*
X51912068Y27760842D01*
X52024010Y27490589D01*
X52186525Y27247368D01*
X52393368Y27040525D01*
X52567760Y26924000D01*
X52393368Y26807475D01*
X52186525Y26600632D01*
X52024010Y26357411D01*
X51912068Y26087158D01*
X51855000Y25800260D01*
X51855000Y25507740D01*
X51912068Y25220842D01*
X52024010Y24950589D01*
X52186525Y24707368D01*
X52393368Y24500525D01*
X52636589Y24338010D01*
X52906842Y24226068D01*
X53193740Y24169000D01*
X53486260Y24169000D01*
X53773158Y24226068D01*
X54043411Y24338010D01*
X54286632Y24500525D01*
X54493475Y24707368D01*
X54529912Y24761900D01*
X55167505Y24761900D01*
X55259523Y24583922D01*
X55480207Y24483434D01*
X55716255Y24427931D01*
X55958596Y24419544D01*
X56197917Y24458598D01*
X56425020Y24543589D01*
X56500477Y24583922D01*
X56592495Y24761900D01*
X55880000Y25474395D01*
X55167505Y24761900D01*
X54529912Y24761900D01*
X54655990Y24950589D01*
X54746810Y25169848D01*
X54769589Y25108980D01*
X54809922Y25033523D01*
X54987900Y24941505D01*
X55700395Y25654000D01*
X56059605Y25654000D01*
X56772100Y24941505D01*
X56950078Y25033523D01*
X57050566Y25254207D01*
X57106069Y25490255D01*
X57114456Y25732596D01*
X57075402Y25971917D01*
X56990411Y26199020D01*
X56950078Y26274477D01*
X56772100Y26366495D01*
X56059605Y25654000D01*
X55700395Y25654000D01*
X54987900Y26366495D01*
X54809922Y26274477D01*
X54747304Y26136959D01*
X54655990Y26357411D01*
X54529913Y26546100D01*
X55167505Y26546100D01*
X55880000Y25833605D01*
X56592495Y26546100D01*
X56500477Y26724078D01*
X56279793Y26824566D01*
X56043745Y26880069D01*
X55801404Y26888456D01*
X55562083Y26849402D01*
X55334980Y26764411D01*
X55259523Y26724078D01*
X55167505Y26546100D01*
X54529913Y26546100D01*
X54493475Y26600632D01*
X54286632Y26807475D01*
X54112240Y26924000D01*
X54286632Y27040525D01*
X54493475Y27247368D01*
X54529912Y27301900D01*
X55167505Y27301900D01*
X55259523Y27123922D01*
X55480207Y27023434D01*
X55716255Y26967931D01*
X55958596Y26959544D01*
X56197917Y26998598D01*
X56406716Y27076739D01*
X57435800Y27076739D01*
X57435800Y26872861D01*
X57475574Y26672902D01*
X57553595Y26484544D01*
X57666863Y26315026D01*
X57811026Y26170863D01*
X57980544Y26057595D01*
X58168902Y25979574D01*
X58368861Y25939800D01*
X58572739Y25939800D01*
X58772698Y25979574D01*
X58961056Y26057595D01*
X59130574Y26170863D01*
X59274737Y26315026D01*
X59388005Y26484544D01*
X59466026Y26672902D01*
X59505800Y26872861D01*
X59505800Y27076739D01*
X59466026Y27276698D01*
X59388005Y27465056D01*
X59274737Y27634574D01*
X59130574Y27778737D01*
X58961056Y27892005D01*
X58772698Y27970026D01*
X58572739Y28009800D01*
X58368861Y28009800D01*
X58168902Y27970026D01*
X57980544Y27892005D01*
X57811026Y27778737D01*
X57666863Y27634574D01*
X57553595Y27465056D01*
X57475574Y27276698D01*
X57435800Y27076739D01*
X56406716Y27076739D01*
X56425020Y27083589D01*
X56500477Y27123922D01*
X56592495Y27301900D01*
X55880000Y28014395D01*
X55167505Y27301900D01*
X54529912Y27301900D01*
X54655990Y27490589D01*
X54746810Y27709848D01*
X54769589Y27648980D01*
X54809922Y27573523D01*
X54987900Y27481505D01*
X55700395Y28194000D01*
X56059605Y28194000D01*
X56772100Y27481505D01*
X56950078Y27573523D01*
X57050566Y27794207D01*
X57106069Y28030255D01*
X57114456Y28272596D01*
X57075402Y28511917D01*
X56990411Y28739020D01*
X56950078Y28814477D01*
X56772100Y28906495D01*
X56059605Y28194000D01*
X55700395Y28194000D01*
X54987900Y28906495D01*
X54809922Y28814477D01*
X54747304Y28676959D01*
X54655990Y28897411D01*
X54529913Y29086100D01*
X55167505Y29086100D01*
X55880000Y28373605D01*
X56592495Y29086100D01*
X56500477Y29264078D01*
X56279793Y29364566D01*
X56043745Y29420069D01*
X55801404Y29428456D01*
X55562083Y29389402D01*
X55334980Y29304411D01*
X55259523Y29264078D01*
X55167505Y29086100D01*
X54529913Y29086100D01*
X54493475Y29140632D01*
X54286632Y29347475D01*
X54112240Y29464000D01*
X54286632Y29580525D01*
X54493475Y29787368D01*
X54529912Y29841900D01*
X55167505Y29841900D01*
X55259523Y29663922D01*
X55480207Y29563434D01*
X55716255Y29507931D01*
X55958596Y29499544D01*
X56197917Y29538598D01*
X56425020Y29623589D01*
X56500477Y29663922D01*
X56592495Y29841900D01*
X55880000Y30554395D01*
X55167505Y29841900D01*
X54529912Y29841900D01*
X54655990Y30030589D01*
X54746810Y30249848D01*
X54769589Y30188980D01*
X54809922Y30113523D01*
X54987900Y30021505D01*
X55700395Y30734000D01*
X56059605Y30734000D01*
X56772100Y30021505D01*
X56950078Y30113523D01*
X57050566Y30334207D01*
X57106069Y30570255D01*
X57114456Y30812596D01*
X57075402Y31051917D01*
X56990411Y31279020D01*
X56950078Y31354477D01*
X56772100Y31446495D01*
X56059605Y30734000D01*
X55700395Y30734000D01*
X54987900Y31446495D01*
X54809922Y31354477D01*
X54747304Y31216959D01*
X54655990Y31437411D01*
X54529913Y31626100D01*
X55167505Y31626100D01*
X55880000Y30913605D01*
X56592495Y31626100D01*
X56500477Y31804078D01*
X56279793Y31904566D01*
X56043745Y31960069D01*
X55801404Y31968456D01*
X55562083Y31929402D01*
X55334980Y31844411D01*
X55259523Y31804078D01*
X55167505Y31626100D01*
X54529913Y31626100D01*
X54493475Y31680632D01*
X54286632Y31887475D01*
X54112240Y32004000D01*
X54286632Y32120525D01*
X54493475Y32327368D01*
X54529912Y32381900D01*
X55167505Y32381900D01*
X55259523Y32203922D01*
X55480207Y32103434D01*
X55716255Y32047931D01*
X55958596Y32039544D01*
X56197917Y32078598D01*
X56270974Y32105939D01*
X57537400Y32105939D01*
X57537400Y31902061D01*
X57577174Y31702102D01*
X57655195Y31513744D01*
X57768463Y31344226D01*
X57912626Y31200063D01*
X58082144Y31086795D01*
X58270502Y31008774D01*
X58470461Y30969000D01*
X58674339Y30969000D01*
X58874298Y31008774D01*
X59062656Y31086795D01*
X59232174Y31200063D01*
X59376337Y31344226D01*
X59489605Y31513744D01*
X59567626Y31702102D01*
X59607400Y31902061D01*
X59607400Y32105939D01*
X59567626Y32305898D01*
X59489605Y32494256D01*
X59376337Y32663774D01*
X59232174Y32807937D01*
X59062656Y32921205D01*
X58874298Y32999226D01*
X58674339Y33039000D01*
X58470461Y33039000D01*
X58270502Y32999226D01*
X58082144Y32921205D01*
X57912626Y32807937D01*
X57768463Y32663774D01*
X57655195Y32494256D01*
X57577174Y32305898D01*
X57537400Y32105939D01*
X56270974Y32105939D01*
X56425020Y32163589D01*
X56500477Y32203922D01*
X56592495Y32381900D01*
X55880000Y33094395D01*
X55167505Y32381900D01*
X54529912Y32381900D01*
X54655990Y32570589D01*
X54746810Y32789848D01*
X54769589Y32728980D01*
X54809922Y32653523D01*
X54987900Y32561505D01*
X55700395Y33274000D01*
X56059605Y33274000D01*
X56772100Y32561505D01*
X56950078Y32653523D01*
X57050566Y32874207D01*
X57106069Y33110255D01*
X57114456Y33352596D01*
X57075402Y33591917D01*
X56990411Y33819020D01*
X56950078Y33894477D01*
X56772100Y33986495D01*
X56059605Y33274000D01*
X55700395Y33274000D01*
X54987900Y33986495D01*
X54809922Y33894477D01*
X54747304Y33756959D01*
X54655990Y33977411D01*
X54529913Y34166100D01*
X55167505Y34166100D01*
X55880000Y33453605D01*
X56592495Y34166100D01*
X56500477Y34344078D01*
X56279793Y34444566D01*
X56043745Y34500069D01*
X55801404Y34508456D01*
X55562083Y34469402D01*
X55334980Y34384411D01*
X55259523Y34344078D01*
X55167505Y34166100D01*
X54529913Y34166100D01*
X54493475Y34220632D01*
X54286632Y34427475D01*
X54112240Y34544000D01*
X54286632Y34660525D01*
X54493475Y34867368D01*
X54529912Y34921900D01*
X55167505Y34921900D01*
X55259523Y34743922D01*
X55480207Y34643434D01*
X55716255Y34587931D01*
X55958596Y34579544D01*
X56197917Y34618598D01*
X56425020Y34703589D01*
X56500477Y34743922D01*
X56592495Y34921900D01*
X55880000Y35634395D01*
X55167505Y34921900D01*
X54529912Y34921900D01*
X54655990Y35110589D01*
X54746810Y35329848D01*
X54769589Y35268980D01*
X54809922Y35193523D01*
X54987900Y35101505D01*
X55700395Y35814000D01*
X56059605Y35814000D01*
X56772100Y35101505D01*
X56950078Y35193523D01*
X57050566Y35414207D01*
X57096871Y35611139D01*
X61398200Y35611139D01*
X61398200Y35407261D01*
X61437974Y35207302D01*
X61515995Y35018944D01*
X61629263Y34849426D01*
X61773426Y34705263D01*
X61942944Y34591995D01*
X62131302Y34513974D01*
X62331261Y34474200D01*
X62535139Y34474200D01*
X62735098Y34513974D01*
X62923456Y34591995D01*
X63092974Y34705263D01*
X63237137Y34849426D01*
X63350405Y35018944D01*
X63428426Y35207302D01*
X63468200Y35407261D01*
X63468200Y35611139D01*
X63428426Y35811098D01*
X63350405Y35999456D01*
X63237137Y36168974D01*
X63092974Y36313137D01*
X62923456Y36426405D01*
X62735098Y36504426D01*
X62535139Y36544200D01*
X62331261Y36544200D01*
X62131302Y36504426D01*
X61942944Y36426405D01*
X61773426Y36313137D01*
X61629263Y36168974D01*
X61515995Y35999456D01*
X61437974Y35811098D01*
X61398200Y35611139D01*
X57096871Y35611139D01*
X57106069Y35650255D01*
X57114456Y35892596D01*
X57075402Y36131917D01*
X56990411Y36359020D01*
X56950078Y36434477D01*
X56772100Y36526495D01*
X56059605Y35814000D01*
X55700395Y35814000D01*
X54987900Y36526495D01*
X54809922Y36434477D01*
X54747304Y36296959D01*
X54655990Y36517411D01*
X54529913Y36706100D01*
X55167505Y36706100D01*
X55880000Y35993605D01*
X56592495Y36706100D01*
X56500477Y36884078D01*
X56279793Y36984566D01*
X56043745Y37040069D01*
X55801404Y37048456D01*
X55562083Y37009402D01*
X55334980Y36924411D01*
X55259523Y36884078D01*
X55167505Y36706100D01*
X54529913Y36706100D01*
X54493475Y36760632D01*
X54286632Y36967475D01*
X54112240Y37084000D01*
X54286632Y37200525D01*
X54493475Y37407368D01*
X54529912Y37461900D01*
X55167505Y37461900D01*
X55259523Y37283922D01*
X55480207Y37183434D01*
X55716255Y37127931D01*
X55958596Y37119544D01*
X56197917Y37158598D01*
X56425020Y37243589D01*
X56500477Y37283922D01*
X56592495Y37461900D01*
X55880000Y38174395D01*
X55167505Y37461900D01*
X54529912Y37461900D01*
X54655990Y37650589D01*
X54746810Y37869848D01*
X54769589Y37808980D01*
X54809922Y37733523D01*
X54987900Y37641505D01*
X55700395Y38354000D01*
X56059605Y38354000D01*
X56772100Y37641505D01*
X56950078Y37733523D01*
X57050566Y37954207D01*
X57106069Y38190255D01*
X57114456Y38432596D01*
X57075402Y38671917D01*
X56990411Y38899020D01*
X56950078Y38974477D01*
X56772100Y39066495D01*
X56059605Y38354000D01*
X55700395Y38354000D01*
X54987900Y39066495D01*
X54809922Y38974477D01*
X54747304Y38836959D01*
X54655990Y39057411D01*
X54529913Y39246100D01*
X55167505Y39246100D01*
X55880000Y38533605D01*
X56592495Y39246100D01*
X56500477Y39424078D01*
X56279793Y39524566D01*
X56043745Y39580069D01*
X55801404Y39588456D01*
X55562083Y39549402D01*
X55334980Y39464411D01*
X55259523Y39424078D01*
X55167505Y39246100D01*
X54529913Y39246100D01*
X54493475Y39300632D01*
X54286632Y39507475D01*
X54112240Y39624000D01*
X54286632Y39740525D01*
X54493475Y39947368D01*
X54529912Y40001900D01*
X55167505Y40001900D01*
X55259523Y39823922D01*
X55480207Y39723434D01*
X55716255Y39667931D01*
X55958596Y39659544D01*
X56197917Y39698598D01*
X56425020Y39783589D01*
X56500477Y39823922D01*
X56592495Y40001900D01*
X55880000Y40714395D01*
X55167505Y40001900D01*
X54529912Y40001900D01*
X54655990Y40190589D01*
X54746810Y40409848D01*
X54769589Y40348980D01*
X54809922Y40273523D01*
X54987900Y40181505D01*
X55700395Y40894000D01*
X56059605Y40894000D01*
X56772100Y40181505D01*
X56950078Y40273523D01*
X57050566Y40494207D01*
X57106069Y40730255D01*
X57114456Y40972596D01*
X57075402Y41211917D01*
X56990411Y41439020D01*
X56950078Y41514477D01*
X56773950Y41605539D01*
X61347400Y41605539D01*
X61347400Y41401661D01*
X61387174Y41201702D01*
X61465195Y41013344D01*
X61578463Y40843826D01*
X61722626Y40699663D01*
X61892144Y40586395D01*
X62080502Y40508374D01*
X62280461Y40468600D01*
X62484339Y40468600D01*
X62684298Y40508374D01*
X62872656Y40586395D01*
X63042174Y40699663D01*
X63186337Y40843826D01*
X63299605Y41013344D01*
X63377626Y41201702D01*
X63417400Y41401661D01*
X63417400Y41605539D01*
X63377626Y41805498D01*
X63299605Y41993856D01*
X63186337Y42163374D01*
X63042174Y42307537D01*
X62872656Y42420805D01*
X62684298Y42498826D01*
X62484339Y42538600D01*
X62280461Y42538600D01*
X62080502Y42498826D01*
X61892144Y42420805D01*
X61722626Y42307537D01*
X61578463Y42163374D01*
X61465195Y41993856D01*
X61387174Y41805498D01*
X61347400Y41605539D01*
X56773950Y41605539D01*
X56772100Y41606495D01*
X56059605Y40894000D01*
X55700395Y40894000D01*
X54987900Y41606495D01*
X54809922Y41514477D01*
X54747304Y41376959D01*
X54655990Y41597411D01*
X54529913Y41786100D01*
X55167505Y41786100D01*
X55880000Y41073605D01*
X56592495Y41786100D01*
X56500477Y41964078D01*
X56279793Y42064566D01*
X56043745Y42120069D01*
X55801404Y42128456D01*
X55562083Y42089402D01*
X55334980Y42004411D01*
X55259523Y41964078D01*
X55167505Y41786100D01*
X54529913Y41786100D01*
X54493475Y41840632D01*
X54286632Y42047475D01*
X54112240Y42164000D01*
X54286632Y42280525D01*
X54493475Y42487368D01*
X54529912Y42541900D01*
X55167505Y42541900D01*
X55259523Y42363922D01*
X55480207Y42263434D01*
X55716255Y42207931D01*
X55958596Y42199544D01*
X56197917Y42238598D01*
X56425020Y42323589D01*
X56500477Y42363922D01*
X56592495Y42541900D01*
X55880000Y43254395D01*
X55167505Y42541900D01*
X54529912Y42541900D01*
X54655990Y42730589D01*
X54746810Y42949848D01*
X54769589Y42888980D01*
X54809922Y42813523D01*
X54987900Y42721505D01*
X55700395Y43434000D01*
X56059605Y43434000D01*
X56772100Y42721505D01*
X56950078Y42813523D01*
X57050566Y43034207D01*
X57106069Y43270255D01*
X57114456Y43512596D01*
X57075402Y43751917D01*
X56990411Y43979020D01*
X56950078Y44054477D01*
X56772100Y44146495D01*
X56059605Y43434000D01*
X55700395Y43434000D01*
X54987900Y44146495D01*
X54809922Y44054477D01*
X54747304Y43916959D01*
X54655990Y44137411D01*
X54529913Y44326100D01*
X55167505Y44326100D01*
X55880000Y43613605D01*
X56592495Y44326100D01*
X56500477Y44504078D01*
X56279793Y44604566D01*
X56043745Y44660069D01*
X55801404Y44668456D01*
X55562083Y44629402D01*
X55334980Y44544411D01*
X55259523Y44504078D01*
X55167505Y44326100D01*
X54529913Y44326100D01*
X54493475Y44380632D01*
X54286632Y44587475D01*
X54112240Y44704000D01*
X54286632Y44820525D01*
X54493475Y45027368D01*
X54529912Y45081900D01*
X55167505Y45081900D01*
X55259523Y44903922D01*
X55480207Y44803434D01*
X55716255Y44747931D01*
X55958596Y44739544D01*
X56197917Y44778598D01*
X56425020Y44863589D01*
X56500477Y44903922D01*
X56592495Y45081900D01*
X55880000Y45794395D01*
X55167505Y45081900D01*
X54529912Y45081900D01*
X54655990Y45270589D01*
X54746810Y45489848D01*
X54769589Y45428980D01*
X54809922Y45353523D01*
X54987900Y45261505D01*
X55700395Y45974000D01*
X56059605Y45974000D01*
X56772100Y45261505D01*
X56950078Y45353523D01*
X57050566Y45574207D01*
X57106069Y45810255D01*
X57114456Y46052596D01*
X57075402Y46291917D01*
X56990411Y46519020D01*
X56950078Y46594477D01*
X56772100Y46686495D01*
X56059605Y45974000D01*
X55700395Y45974000D01*
X54987900Y46686495D01*
X54809922Y46594477D01*
X54747304Y46456959D01*
X54655990Y46677411D01*
X54493475Y46920632D01*
X54306392Y47107715D01*
X54433386Y47175595D01*
X54567962Y47286038D01*
X54678405Y47420614D01*
X54746285Y47547608D01*
X54933368Y47360525D01*
X55176589Y47198010D01*
X55395848Y47107190D01*
X55334980Y47084411D01*
X55259523Y47044078D01*
X55167505Y46866100D01*
X55880000Y46153605D01*
X56592495Y46866100D01*
X56500477Y47044078D01*
X56362959Y47106696D01*
X56583411Y47198010D01*
X56826632Y47360525D01*
X57033475Y47567368D01*
X57195990Y47810589D01*
X57307932Y48080842D01*
X57365000Y48367740D01*
X57365000Y48660260D01*
X57307932Y48947158D01*
X57276792Y49022339D01*
X64039800Y49022339D01*
X64039800Y48818461D01*
X64079574Y48618502D01*
X64157595Y48430144D01*
X64270863Y48260626D01*
X64415026Y48116463D01*
X64584544Y48003195D01*
X64772902Y47925174D01*
X64972861Y47885400D01*
X65176739Y47885400D01*
X65376698Y47925174D01*
X65565056Y48003195D01*
X65734574Y48116463D01*
X65878737Y48260626D01*
X65992005Y48430144D01*
X66070026Y48618502D01*
X66109800Y48818461D01*
X66109800Y49022339D01*
X66070026Y49222298D01*
X65992005Y49410656D01*
X65878737Y49580174D01*
X65734574Y49724337D01*
X65565056Y49837605D01*
X65376698Y49915626D01*
X65176739Y49955400D01*
X64972861Y49955400D01*
X64772902Y49915626D01*
X64584544Y49837605D01*
X64415026Y49724337D01*
X64270863Y49580174D01*
X64157595Y49410656D01*
X64079574Y49222298D01*
X64039800Y49022339D01*
X57276792Y49022339D01*
X57195990Y49217411D01*
X57033475Y49460632D01*
X56826632Y49667475D01*
X56583411Y49829990D01*
X56313158Y49941932D01*
X56026260Y49999000D01*
X55733740Y49999000D01*
X55446842Y49941932D01*
X55176589Y49829990D01*
X54933368Y49667475D01*
X54746285Y49480392D01*
X54678405Y49607386D01*
X54567962Y49741962D01*
X54433386Y49852405D01*
X54279850Y49934472D01*
X54113254Y49985008D01*
X53940000Y50002072D01*
X52740000Y50002072D01*
X52566746Y49985008D01*
X52400150Y49934472D01*
X52246614Y49852405D01*
X52112038Y49741962D01*
X52001595Y49607386D01*
X51919528Y49453850D01*
X51868992Y49287254D01*
X51851928Y49114000D01*
X43129311Y49114000D01*
X43128574Y49114737D01*
X42959056Y49228005D01*
X42770698Y49306026D01*
X42570739Y49345800D01*
X42366861Y49345800D01*
X42166902Y49306026D01*
X41978544Y49228005D01*
X41809026Y49114737D01*
X41664863Y48970574D01*
X41551595Y48801056D01*
X41473574Y48612698D01*
X41433800Y48412739D01*
X37458873Y48412739D01*
X37484000Y48539061D01*
X37484000Y48742939D01*
X37444226Y48942898D01*
X37366205Y49131256D01*
X37252937Y49300774D01*
X37108774Y49444937D01*
X36939256Y49558205D01*
X36750898Y49636226D01*
X36550939Y49676000D01*
X36347061Y49676000D01*
X36147102Y49636226D01*
X35958744Y49558205D01*
X35789226Y49444937D01*
X35687000Y49342711D01*
X35584774Y49444937D01*
X35415256Y49558205D01*
X35226898Y49636226D01*
X35026939Y49676000D01*
X34823061Y49676000D01*
X34623102Y49636226D01*
X34434744Y49558205D01*
X34265226Y49444937D01*
X34121063Y49300774D01*
X34099500Y49268503D01*
X34077937Y49300774D01*
X33933774Y49444937D01*
X33764256Y49558205D01*
X33575898Y49636226D01*
X33375939Y49676000D01*
X33172061Y49676000D01*
X32972102Y49636226D01*
X32783744Y49558205D01*
X32614226Y49444937D01*
X32512000Y49342711D01*
X32409774Y49444937D01*
X32240256Y49558205D01*
X32051898Y49636226D01*
X31851939Y49676000D01*
X31648061Y49676000D01*
X31448102Y49636226D01*
X31259744Y49558205D01*
X31090226Y49444937D01*
X30946063Y49300774D01*
X30832795Y49131256D01*
X30754774Y48942898D01*
X30715000Y48742939D01*
X14340550Y48742939D01*
X14381932Y48842842D01*
X14439000Y49129740D01*
X14439000Y49422260D01*
X14381932Y49709158D01*
X14269990Y49979411D01*
X14107475Y50222632D01*
X13900632Y50429475D01*
X13726240Y50546000D01*
X13900632Y50662525D01*
X14107475Y50869368D01*
X14269990Y51112589D01*
X14381932Y51382842D01*
X14439000Y51669740D01*
X14439000Y51962260D01*
X14381932Y52249158D01*
X14269990Y52519411D01*
X14107475Y52762632D01*
X13900632Y52969475D01*
X13657411Y53131990D01*
X13387158Y53243932D01*
X13100260Y53301000D01*
X12807740Y53301000D01*
X12520842Y53243932D01*
X12250589Y53131990D01*
X12007368Y52969475D01*
X11875513Y52837620D01*
X11853502Y52910180D01*
X11794537Y53020494D01*
X11715185Y53117185D01*
X11618494Y53196537D01*
X11508180Y53255502D01*
X11388482Y53291812D01*
X11264000Y53304072D01*
X9564000Y53304072D01*
X9439518Y53291812D01*
X9319820Y53255502D01*
X9209506Y53196537D01*
X9112815Y53117185D01*
X9033463Y53020494D01*
X8974498Y52910180D01*
X8938188Y52790482D01*
X8925928Y52666000D01*
X735000Y52666000D01*
X735000Y54645143D01*
X43297404Y54645143D01*
X43297404Y54441265D01*
X43337178Y54241306D01*
X43415199Y54052948D01*
X43528467Y53883430D01*
X43672630Y53739267D01*
X43842148Y53625999D01*
X44030506Y53547978D01*
X44070499Y53540023D01*
X44062510Y53538434D01*
X43874152Y53460413D01*
X43704634Y53347145D01*
X43560471Y53202982D01*
X43447203Y53033464D01*
X43369182Y52845106D01*
X43329408Y52645147D01*
X43329408Y52441269D01*
X43369182Y52241310D01*
X43447203Y52052952D01*
X43560471Y51883434D01*
X43704634Y51739271D01*
X43874152Y51626003D01*
X44062510Y51547982D01*
X44262469Y51508208D01*
X44466347Y51508208D01*
X44666306Y51547982D01*
X44854664Y51626003D01*
X45024182Y51739271D01*
X45168345Y51883434D01*
X45281613Y52052952D01*
X45359634Y52241310D01*
X45399408Y52441269D01*
X45399408Y52645147D01*
X45359634Y52845106D01*
X45340445Y52891433D01*
X63592200Y52891433D01*
X63592200Y52569367D01*
X63655032Y52253488D01*
X63778282Y51955937D01*
X63957213Y51688148D01*
X64184948Y51460413D01*
X64452737Y51281482D01*
X64750288Y51158232D01*
X65066167Y51095400D01*
X65388233Y51095400D01*
X65704112Y51158232D01*
X66001663Y51281482D01*
X66269452Y51460413D01*
X66497187Y51688148D01*
X66676118Y51955937D01*
X66799368Y52253488D01*
X66862200Y52569367D01*
X66862200Y52891433D01*
X66799368Y53207312D01*
X66676118Y53504863D01*
X66497187Y53772652D01*
X66269452Y54000387D01*
X66001663Y54179318D01*
X65704112Y54302568D01*
X65388233Y54365400D01*
X65066167Y54365400D01*
X64750288Y54302568D01*
X64452737Y54179318D01*
X64184948Y54000387D01*
X63957213Y53772652D01*
X63778282Y53504863D01*
X63655032Y53207312D01*
X63592200Y52891433D01*
X45340445Y52891433D01*
X45281613Y53033464D01*
X45168345Y53202982D01*
X45024182Y53347145D01*
X44854664Y53460413D01*
X44666306Y53538434D01*
X44626313Y53546389D01*
X44634302Y53547978D01*
X44822660Y53625999D01*
X44992178Y53739267D01*
X45136341Y53883430D01*
X45249609Y54052948D01*
X45327630Y54241306D01*
X45367404Y54441265D01*
X45367404Y54645143D01*
X45327630Y54845102D01*
X45249609Y55033460D01*
X45136341Y55202978D01*
X45119380Y55219939D01*
X48545800Y55219939D01*
X48545800Y55016061D01*
X48585574Y54816102D01*
X48663595Y54627744D01*
X48776863Y54458226D01*
X48921026Y54314063D01*
X49090544Y54200795D01*
X49278902Y54122774D01*
X49478861Y54083000D01*
X49682739Y54083000D01*
X49882698Y54122774D01*
X50071056Y54200795D01*
X50240574Y54314063D01*
X50384737Y54458226D01*
X50498005Y54627744D01*
X50576026Y54816102D01*
X50615800Y55016061D01*
X50615800Y55219939D01*
X50576026Y55419898D01*
X50498005Y55608256D01*
X50384737Y55777774D01*
X50240574Y55921937D01*
X50071056Y56035205D01*
X49882698Y56113226D01*
X49682739Y56153000D01*
X49478861Y56153000D01*
X49278902Y56113226D01*
X49090544Y56035205D01*
X48921026Y55921937D01*
X48776863Y55777774D01*
X48663595Y55608256D01*
X48585574Y55419898D01*
X48545800Y55219939D01*
X45119380Y55219939D01*
X44992178Y55347141D01*
X44822660Y55460409D01*
X44634302Y55538430D01*
X44434343Y55578204D01*
X44230465Y55578204D01*
X44030506Y55538430D01*
X43842148Y55460409D01*
X43672630Y55347141D01*
X43528467Y55202978D01*
X43415199Y55033460D01*
X43337178Y54845102D01*
X43297404Y54645143D01*
X735000Y54645143D01*
X735000Y57014333D01*
X1974338Y57014333D01*
X2084510Y56821004D01*
X2330806Y56705505D01*
X2594903Y56640276D01*
X2866651Y56627822D01*
X3135607Y56668623D01*
X3391435Y56761110D01*
X3503490Y56821004D01*
X3613662Y57014333D01*
X2794000Y57833995D01*
X1974338Y57014333D01*
X735000Y57014333D01*
X735000Y57940949D01*
X1408222Y57940949D01*
X1449023Y57671993D01*
X1541510Y57416165D01*
X1601404Y57304110D01*
X1794733Y57193938D01*
X2614395Y58013600D01*
X2973605Y58013600D01*
X3793267Y57193938D01*
X3986596Y57304110D01*
X4102095Y57550406D01*
X4122479Y57632939D01*
X18904000Y57632939D01*
X18904000Y57429061D01*
X18943774Y57229102D01*
X19021795Y57040744D01*
X19135063Y56871226D01*
X19279226Y56727063D01*
X19448744Y56613795D01*
X19637102Y56535774D01*
X19837061Y56496000D01*
X20040939Y56496000D01*
X20240898Y56535774D01*
X20429256Y56613795D01*
X20598774Y56727063D01*
X20742937Y56871226D01*
X20856205Y57040744D01*
X20934226Y57229102D01*
X20974000Y57429061D01*
X20974000Y57632939D01*
X20934226Y57832898D01*
X20856205Y58021256D01*
X20742937Y58190774D01*
X20598774Y58334937D01*
X20429256Y58448205D01*
X20240898Y58526226D01*
X20040939Y58566000D01*
X19837061Y58566000D01*
X19637102Y58526226D01*
X19448744Y58448205D01*
X19279226Y58334937D01*
X19135063Y58190774D01*
X19021795Y58021256D01*
X18943774Y57832898D01*
X18904000Y57632939D01*
X4122479Y57632939D01*
X4167324Y57814503D01*
X4179778Y58086251D01*
X4138977Y58355207D01*
X4046490Y58611035D01*
X3986596Y58723090D01*
X3793267Y58833262D01*
X2973605Y58013600D01*
X2614395Y58013600D01*
X1794733Y58833262D01*
X1601404Y58723090D01*
X1485905Y58476794D01*
X1420676Y58212697D01*
X1408222Y57940949D01*
X735000Y57940949D01*
X735000Y58691544D01*
X724365Y58799524D01*
X682337Y58938072D01*
X642359Y59012867D01*
X1974338Y59012867D01*
X2794000Y58193205D01*
X3613662Y59012867D01*
X3503490Y59206196D01*
X3320021Y59292233D01*
X58969400Y59292233D01*
X58969400Y58970167D01*
X59032232Y58654288D01*
X59155482Y58356737D01*
X59334413Y58088948D01*
X59562148Y57861213D01*
X59829937Y57682282D01*
X60127488Y57559032D01*
X60443367Y57496200D01*
X60765433Y57496200D01*
X61081312Y57559032D01*
X61378863Y57682282D01*
X61646652Y57861213D01*
X61874387Y58088948D01*
X62053318Y58356737D01*
X62176568Y58654288D01*
X62239400Y58970167D01*
X62239400Y59292233D01*
X62176568Y59608112D01*
X62053318Y59905663D01*
X61874387Y60173452D01*
X61646652Y60401187D01*
X61378863Y60580118D01*
X61081312Y60703368D01*
X60765433Y60766200D01*
X60443367Y60766200D01*
X60127488Y60703368D01*
X59829937Y60580118D01*
X59562148Y60401187D01*
X59334413Y60173452D01*
X59155482Y59905663D01*
X59032232Y59608112D01*
X58969400Y59292233D01*
X3320021Y59292233D01*
X3257194Y59321695D01*
X2993097Y59386924D01*
X2721349Y59399378D01*
X2452393Y59358577D01*
X2196565Y59266090D01*
X2084510Y59206196D01*
X1974338Y59012867D01*
X642359Y59012867D01*
X614087Y59065759D01*
X522238Y59177677D01*
X410320Y59269526D01*
X282633Y59337776D01*
X248280Y59348197D01*
X-192192Y59531167D01*
X-559141Y59776426D01*
X-871457Y60088282D01*
X-1117259Y60454872D01*
X-1287172Y60862214D01*
X-1374730Y61294807D01*
X-1376274Y61660264D01*
X-498355Y61660264D01*
X-498355Y61389736D01*
X-445578Y61124407D01*
X-342051Y60874473D01*
X-191754Y60649537D01*
X-463Y60458246D01*
X224473Y60307949D01*
X474407Y60204422D01*
X739736Y60151645D01*
X1010264Y60151645D01*
X1275593Y60204422D01*
X1525527Y60307949D01*
X1750463Y60458246D01*
X1941754Y60649537D01*
X2092051Y60874473D01*
X2195578Y61124407D01*
X2248355Y61389736D01*
X2248355Y61660264D01*
X2195578Y61925593D01*
X2092051Y62175527D01*
X1941754Y62400463D01*
X1750463Y62591754D01*
X1525527Y62742051D01*
X1275593Y62845578D01*
X1010264Y62898355D01*
X739736Y62898355D01*
X474407Y62845578D01*
X224473Y62742051D01*
X-463Y62591754D01*
X-191754Y62400463D01*
X-342051Y62175527D01*
X-445578Y61925593D01*
X-498355Y61660264D01*
X-1376274Y61660264D01*
X-1376595Y61736163D01*
X-1292699Y62169481D01*
X-1126237Y62578245D01*
X-895604Y62928581D01*
X20925000Y62928581D01*
X20925000Y62547419D01*
X20999361Y62173581D01*
X21145225Y61821434D01*
X21356987Y61504509D01*
X21626509Y61234987D01*
X21943434Y61023225D01*
X22295581Y60877361D01*
X22669419Y60803000D01*
X23050581Y60803000D01*
X23424419Y60877361D01*
X23776566Y61023225D01*
X24093491Y61234987D01*
X24363013Y61504509D01*
X24376527Y61524735D01*
X46166340Y61524735D01*
X46312707Y61300681D01*
X46610163Y61155197D01*
X46930286Y61070538D01*
X47260774Y61049959D01*
X47588927Y61094251D01*
X47902134Y61201711D01*
X48087293Y61300681D01*
X48233660Y61524735D01*
X48098131Y61660264D01*
X67751645Y61660264D01*
X67751645Y61389736D01*
X67804422Y61124407D01*
X67907949Y60874473D01*
X68058246Y60649537D01*
X68249537Y60458246D01*
X68474473Y60307949D01*
X68724407Y60204422D01*
X68989736Y60151645D01*
X69260264Y60151645D01*
X69525593Y60204422D01*
X69775527Y60307949D01*
X70000463Y60458246D01*
X70191754Y60649537D01*
X70342051Y60874473D01*
X70445578Y61124407D01*
X70498355Y61389736D01*
X70498355Y61660264D01*
X70445578Y61925593D01*
X70342051Y62175527D01*
X70191754Y62400463D01*
X70000463Y62591754D01*
X69775527Y62742051D01*
X69525593Y62845578D01*
X69260264Y62898355D01*
X68989736Y62898355D01*
X68724407Y62845578D01*
X68474473Y62742051D01*
X68249537Y62591754D01*
X68058246Y62400463D01*
X67907949Y62175527D01*
X67804422Y61925593D01*
X67751645Y61660264D01*
X48098131Y61660264D01*
X47200000Y62558395D01*
X46166340Y61524735D01*
X24376527Y61524735D01*
X24574775Y61821434D01*
X24720639Y62173581D01*
X24795000Y62547419D01*
X24795000Y62677226D01*
X45511959Y62677226D01*
X45556251Y62349073D01*
X45663711Y62035866D01*
X45762681Y61850707D01*
X45986735Y61704340D01*
X47020395Y62738000D01*
X47379605Y62738000D01*
X48413265Y61704340D01*
X48637319Y61850707D01*
X48782803Y62148163D01*
X48867462Y62468286D01*
X48888041Y62798774D01*
X48843749Y63126927D01*
X48736289Y63440134D01*
X48637319Y63625293D01*
X48413265Y63771660D01*
X47379605Y62738000D01*
X47020395Y62738000D01*
X45986735Y63771660D01*
X45762681Y63625293D01*
X45617197Y63327837D01*
X45532538Y63007714D01*
X45511959Y62677226D01*
X24795000Y62677226D01*
X24795000Y62928581D01*
X24720639Y63302419D01*
X24574775Y63654566D01*
X24363013Y63971491D01*
X24093491Y64241013D01*
X23776566Y64452775D01*
X23424419Y64598639D01*
X23050581Y64673000D01*
X22669419Y64673000D01*
X22295581Y64598639D01*
X21943434Y64452775D01*
X21626509Y64241013D01*
X21356987Y63971491D01*
X21145225Y63654566D01*
X20999361Y63302419D01*
X20925000Y62928581D01*
X-895604Y62928581D01*
X-883546Y62946896D01*
X-573873Y63261387D01*
X-209011Y63509740D01*
X228252Y63695727D01*
X282632Y63712223D01*
X410319Y63780473D01*
X522237Y63872322D01*
X614087Y63984240D01*
X682337Y64111927D01*
X724365Y64250475D01*
X735000Y64358455D01*
X735000Y67969854D01*
X789085Y68627715D01*
X2165000Y68627715D01*
X2165000Y67872285D01*
X2312377Y67131372D01*
X2601467Y66433446D01*
X3021161Y65805330D01*
X3555330Y65271161D01*
X4183446Y64851467D01*
X4881372Y64562377D01*
X5622285Y64415000D01*
X6377715Y64415000D01*
X7118628Y64562377D01*
X7816554Y64851467D01*
X8444670Y65271161D01*
X8464290Y65290781D01*
X33015400Y65290781D01*
X33015400Y64909619D01*
X33089761Y64535781D01*
X33235625Y64183634D01*
X33447387Y63866709D01*
X33716909Y63597187D01*
X34033834Y63385425D01*
X34385981Y63239561D01*
X34759819Y63165200D01*
X35140981Y63165200D01*
X35514819Y63239561D01*
X35866966Y63385425D01*
X36183891Y63597187D01*
X36453413Y63866709D01*
X36509911Y63951265D01*
X46166340Y63951265D01*
X47200000Y62917605D01*
X48233660Y63951265D01*
X48087293Y64175319D01*
X47789837Y64320803D01*
X47469714Y64405462D01*
X47139226Y64426041D01*
X46811073Y64381749D01*
X46497866Y64274289D01*
X46312707Y64175319D01*
X46166340Y63951265D01*
X36509911Y63951265D01*
X36665175Y64183634D01*
X36811039Y64535781D01*
X36818926Y64575433D01*
X53686200Y64575433D01*
X53686200Y64253367D01*
X53749032Y63937488D01*
X53872282Y63639937D01*
X54051213Y63372148D01*
X54278948Y63144413D01*
X54546737Y62965482D01*
X54844288Y62842232D01*
X55160167Y62779400D01*
X55482233Y62779400D01*
X55798112Y62842232D01*
X56095663Y62965482D01*
X56363452Y63144413D01*
X56591187Y63372148D01*
X56770118Y63639937D01*
X56893368Y63937488D01*
X56956200Y64253367D01*
X56956200Y64575433D01*
X56893368Y64891312D01*
X56770118Y65188863D01*
X56591187Y65456652D01*
X56363452Y65684387D01*
X56095663Y65863318D01*
X55798112Y65986568D01*
X55482233Y66049400D01*
X55160167Y66049400D01*
X54844288Y65986568D01*
X54546737Y65863318D01*
X54278948Y65684387D01*
X54051213Y65456652D01*
X53872282Y65188863D01*
X53749032Y64891312D01*
X53686200Y64575433D01*
X36818926Y64575433D01*
X36885400Y64909619D01*
X36885400Y65290781D01*
X36811039Y65664619D01*
X36665175Y66016766D01*
X36453413Y66333691D01*
X36183891Y66603213D01*
X35866966Y66814975D01*
X35514819Y66960839D01*
X35140981Y67035200D01*
X34759819Y67035200D01*
X34385981Y66960839D01*
X34033834Y66814975D01*
X33716909Y66603213D01*
X33447387Y66333691D01*
X33235625Y66016766D01*
X33089761Y65664619D01*
X33015400Y65290781D01*
X8464290Y65290781D01*
X8978839Y65805330D01*
X9398533Y66433446D01*
X9687623Y67131372D01*
X9835000Y67872285D01*
X9835000Y68495532D01*
X18007061Y68495532D01*
X18007061Y68004466D01*
X18102863Y67522836D01*
X18290786Y67069150D01*
X18563608Y66660844D01*
X18910844Y66313608D01*
X19319150Y66040786D01*
X19772836Y65852863D01*
X20254466Y65757061D01*
X20745532Y65757061D01*
X21227162Y65852863D01*
X21680848Y66040786D01*
X22089154Y66313608D01*
X22436390Y66660844D01*
X22709212Y67069150D01*
X22897135Y67522836D01*
X22992937Y68004466D01*
X22992937Y68495532D01*
X47007061Y68495532D01*
X47007061Y68004466D01*
X47102863Y67522836D01*
X47290786Y67069150D01*
X47563608Y66660844D01*
X47910844Y66313608D01*
X48319150Y66040786D01*
X48772836Y65852863D01*
X49254466Y65757061D01*
X49745532Y65757061D01*
X50227162Y65852863D01*
X50680848Y66040786D01*
X51089154Y66313608D01*
X51436390Y66660844D01*
X51709212Y67069150D01*
X51897135Y67522836D01*
X51992937Y68004466D01*
X51992937Y68495532D01*
X51966645Y68627715D01*
X60165000Y68627715D01*
X60165000Y67872285D01*
X60312377Y67131372D01*
X60601467Y66433446D01*
X61021161Y65805330D01*
X61555330Y65271161D01*
X62183446Y64851467D01*
X62881372Y64562377D01*
X63622285Y64415000D01*
X64377715Y64415000D01*
X65118628Y64562377D01*
X65816554Y64851467D01*
X66444670Y65271161D01*
X66978839Y65805330D01*
X67398533Y66433446D01*
X67687623Y67131372D01*
X67835000Y67872285D01*
X67835000Y68627715D01*
X67687623Y69368628D01*
X67398533Y70066554D01*
X66978839Y70694670D01*
X66444670Y71228839D01*
X65816554Y71648533D01*
X65118628Y71937623D01*
X64377715Y72085000D01*
X63622285Y72085000D01*
X62881372Y71937623D01*
X62183446Y71648533D01*
X61555330Y71228839D01*
X61021161Y70694670D01*
X60601467Y70066554D01*
X60312377Y69368628D01*
X60165000Y68627715D01*
X51966645Y68627715D01*
X51897135Y68977162D01*
X51709212Y69430848D01*
X51436390Y69839154D01*
X51089154Y70186390D01*
X50680848Y70459212D01*
X50227162Y70647135D01*
X49745532Y70742937D01*
X49254466Y70742937D01*
X48772836Y70647135D01*
X48319150Y70459212D01*
X47910844Y70186390D01*
X47563608Y69839154D01*
X47290786Y69430848D01*
X47102863Y68977162D01*
X47007061Y68495532D01*
X22992937Y68495532D01*
X22897135Y68977162D01*
X22709212Y69430848D01*
X22436390Y69839154D01*
X22089154Y70186390D01*
X21680848Y70459212D01*
X21227162Y70647135D01*
X20745532Y70742937D01*
X20254466Y70742937D01*
X19772836Y70647135D01*
X19319150Y70459212D01*
X18910844Y70186390D01*
X18563608Y69839154D01*
X18290786Y69430848D01*
X18102863Y68977162D01*
X18007061Y68495532D01*
X9835000Y68495532D01*
X9835000Y68627715D01*
X9687623Y69368628D01*
X9398533Y70066554D01*
X8978839Y70694670D01*
X8444670Y71228839D01*
X7816554Y71648533D01*
X7118628Y71937623D01*
X6377715Y72085000D01*
X5622285Y72085000D01*
X4881372Y71937623D01*
X4183446Y71648533D01*
X3555330Y71228839D01*
X3021161Y70694670D01*
X2601467Y70066554D01*
X2312377Y69368628D01*
X2165000Y68627715D01*
X789085Y68627715D01*
X808142Y68859503D01*
X1018237Y69695928D01*
X1362122Y70486809D01*
X1830559Y71210901D01*
X2410972Y71848765D01*
X3087766Y72383264D01*
X3842768Y72800048D01*
X4655712Y73087926D01*
X5517452Y73241426D01*
X6017319Y73264999D01*
X63969854Y73264999D01*
X64859503Y73191857D01*
G37*
%TD.AperFunction*%
%TD*%
M02*
