%TF.GenerationSoftware,KiCad,Pcbnew,(5.1.10)-1*%
%TF.CreationDate,2021-12-17T12:10:03-05:00*%
%TF.ProjectId,Chess-Timer-RevA,43686573-732d-4546-996d-65722d526576,rev?*%
%TF.SameCoordinates,Original*%
%TF.FileFunction,Legend,Top*%
%TF.FilePolarity,Positive*%
%FSLAX46Y46*%
G04 Gerber Fmt 4.6, Leading zero omitted, Abs format (unit mm)*
G04 Created by KiCad (PCBNEW (5.1.10)-1) date 2021-12-17 12:10:03*
%MOMM*%
%LPD*%
G01*
G04 APERTURE LIST*
%ADD10C,0.150000*%
%ADD11C,0.300000*%
%ADD12C,0.100000*%
%ADD13C,0.500000*%
%ADD14C,0.120000*%
G04 APERTURE END LIST*
D10*
X65339980Y17453552D02*
X66054266Y17453552D01*
X66197123Y17405933D01*
X66292361Y17310695D01*
X66339980Y17167838D01*
X66339980Y17072600D01*
X66339980Y18405933D02*
X66339980Y17929742D01*
X65339980Y17929742D01*
X66244742Y19310695D02*
X66292361Y19263076D01*
X66339980Y19120219D01*
X66339980Y19024980D01*
X66292361Y18882123D01*
X66197123Y18786885D01*
X66101885Y18739266D01*
X65911409Y18691647D01*
X65768552Y18691647D01*
X65578076Y18739266D01*
X65482838Y18786885D01*
X65387600Y18882123D01*
X65339980Y19024980D01*
X65339980Y19120219D01*
X65387600Y19263076D01*
X65435219Y19310695D01*
X65339980Y20024980D02*
X66054266Y20024980D01*
X66197123Y19977361D01*
X66292361Y19882123D01*
X66339980Y19739266D01*
X66339980Y19644028D01*
X66339980Y20977361D02*
X66339980Y20501171D01*
X65339980Y20501171D01*
X66244742Y21882123D02*
X66292361Y21834504D01*
X66339980Y21691647D01*
X66339980Y21596409D01*
X66292361Y21453552D01*
X66197123Y21358314D01*
X66101885Y21310695D01*
X65911409Y21263076D01*
X65768552Y21263076D01*
X65578076Y21310695D01*
X65482838Y21358314D01*
X65387600Y21453552D01*
X65339980Y21596409D01*
X65339980Y21691647D01*
X65387600Y21834504D01*
X65435219Y21882123D01*
X65339980Y22596409D02*
X66054266Y22596409D01*
X66197123Y22548790D01*
X66292361Y22453552D01*
X66339980Y22310695D01*
X66339980Y22215457D01*
X66339980Y23548790D02*
X66339980Y23072600D01*
X65339980Y23072600D01*
X66244742Y24453552D02*
X66292361Y24405933D01*
X66339980Y24263076D01*
X66339980Y24167838D01*
X66292361Y24024980D01*
X66197123Y23929742D01*
X66101885Y23882123D01*
X65911409Y23834504D01*
X65768552Y23834504D01*
X65578076Y23882123D01*
X65482838Y23929742D01*
X65387600Y24024980D01*
X65339980Y24167838D01*
X65339980Y24263076D01*
X65387600Y24405933D01*
X65435219Y24453552D01*
X65339980Y25167838D02*
X66054266Y25167838D01*
X66197123Y25120219D01*
X66292361Y25024980D01*
X66339980Y24882123D01*
X66339980Y24786885D01*
X66339980Y26120219D02*
X66339980Y25644028D01*
X65339980Y25644028D01*
X66244742Y27024980D02*
X66292361Y26977361D01*
X66339980Y26834504D01*
X66339980Y26739266D01*
X66292361Y26596409D01*
X66197123Y26501171D01*
X66101885Y26453552D01*
X65911409Y26405933D01*
X65768552Y26405933D01*
X65578076Y26453552D01*
X65482838Y26501171D01*
X65387600Y26596409D01*
X65339980Y26739266D01*
X65339980Y26834504D01*
X65387600Y26977361D01*
X65435219Y27024980D01*
D11*
X18372799Y71028038D02*
X18372799Y73028038D01*
X20182323Y71028038D02*
X20182323Y72075657D01*
X20087085Y72266133D01*
X19896609Y72361371D01*
X19515657Y72361371D01*
X19325180Y72266133D01*
X20182323Y71123276D02*
X19991847Y71028038D01*
X19515657Y71028038D01*
X19325180Y71123276D01*
X19229942Y71313752D01*
X19229942Y71504228D01*
X19325180Y71694704D01*
X19515657Y71789942D01*
X19991847Y71789942D01*
X20182323Y71885180D01*
X21134704Y72361371D02*
X21134704Y71028038D01*
X21134704Y72170895D02*
X21229942Y72266133D01*
X21420419Y72361371D01*
X21706133Y72361371D01*
X21896609Y72266133D01*
X21991847Y72075657D01*
X21991847Y71028038D01*
X25610895Y71028038D02*
X24944228Y71980419D01*
X24468038Y71028038D02*
X24468038Y73028038D01*
X25229942Y73028038D01*
X25420419Y72932800D01*
X25515657Y72837561D01*
X25610895Y72647085D01*
X25610895Y72361371D01*
X25515657Y72170895D01*
X25420419Y72075657D01*
X25229942Y71980419D01*
X24468038Y71980419D01*
X27229942Y71123276D02*
X27039466Y71028038D01*
X26658514Y71028038D01*
X26468038Y71123276D01*
X26372799Y71313752D01*
X26372799Y72075657D01*
X26468038Y72266133D01*
X26658514Y72361371D01*
X27039466Y72361371D01*
X27229942Y72266133D01*
X27325180Y72075657D01*
X27325180Y71885180D01*
X26372799Y71694704D01*
X28087085Y71123276D02*
X28277561Y71028038D01*
X28658514Y71028038D01*
X28848990Y71123276D01*
X28944228Y71313752D01*
X28944228Y71408990D01*
X28848990Y71599466D01*
X28658514Y71694704D01*
X28372799Y71694704D01*
X28182323Y71789942D01*
X28087085Y71980419D01*
X28087085Y72075657D01*
X28182323Y72266133D01*
X28372799Y72361371D01*
X28658514Y72361371D01*
X28848990Y72266133D01*
X29706133Y71123276D02*
X29896609Y71028038D01*
X30277561Y71028038D01*
X30468038Y71123276D01*
X30563276Y71313752D01*
X30563276Y71408990D01*
X30468038Y71599466D01*
X30277561Y71694704D01*
X29991847Y71694704D01*
X29801371Y71789942D01*
X29706133Y71980419D01*
X29706133Y72075657D01*
X29801371Y72266133D01*
X29991847Y72361371D01*
X30277561Y72361371D01*
X30468038Y72266133D01*
X32944228Y71789942D02*
X34468038Y71789942D01*
X38087085Y71218514D02*
X37991847Y71123276D01*
X37706133Y71028038D01*
X37515657Y71028038D01*
X37229942Y71123276D01*
X37039466Y71313752D01*
X36944228Y71504228D01*
X36848990Y71885180D01*
X36848990Y72170895D01*
X36944228Y72551847D01*
X37039466Y72742323D01*
X37229942Y72932800D01*
X37515657Y73028038D01*
X37706133Y73028038D01*
X37991847Y72932800D01*
X38087085Y72837561D01*
X38944228Y71028038D02*
X38944228Y73028038D01*
X39801371Y71028038D02*
X39801371Y72075657D01*
X39706133Y72266133D01*
X39515657Y72361371D01*
X39229942Y72361371D01*
X39039466Y72266133D01*
X38944228Y72170895D01*
X41515657Y71123276D02*
X41325180Y71028038D01*
X40944228Y71028038D01*
X40753752Y71123276D01*
X40658514Y71313752D01*
X40658514Y72075657D01*
X40753752Y72266133D01*
X40944228Y72361371D01*
X41325180Y72361371D01*
X41515657Y72266133D01*
X41610895Y72075657D01*
X41610895Y71885180D01*
X40658514Y71694704D01*
X42372799Y71123276D02*
X42563276Y71028038D01*
X42944228Y71028038D01*
X43134704Y71123276D01*
X43229942Y71313752D01*
X43229942Y71408990D01*
X43134704Y71599466D01*
X42944228Y71694704D01*
X42658514Y71694704D01*
X42468038Y71789942D01*
X42372799Y71980419D01*
X42372799Y72075657D01*
X42468038Y72266133D01*
X42658514Y72361371D01*
X42944228Y72361371D01*
X43134704Y72266133D01*
X43991847Y71123276D02*
X44182323Y71028038D01*
X44563276Y71028038D01*
X44753752Y71123276D01*
X44848990Y71313752D01*
X44848990Y71408990D01*
X44753752Y71599466D01*
X44563276Y71694704D01*
X44277561Y71694704D01*
X44087085Y71789942D01*
X43991847Y71980419D01*
X43991847Y72075657D01*
X44087085Y72266133D01*
X44277561Y72361371D01*
X44563276Y72361371D01*
X44753752Y72266133D01*
X46944228Y73028038D02*
X48087085Y73028038D01*
X47515657Y71028038D02*
X47515657Y73028038D01*
X48753752Y71028038D02*
X48753752Y72361371D01*
X48753752Y73028038D02*
X48658514Y72932800D01*
X48753752Y72837561D01*
X48848990Y72932800D01*
X48753752Y73028038D01*
X48753752Y72837561D01*
X49706133Y71028038D02*
X49706133Y72361371D01*
X49706133Y72170895D02*
X49801371Y72266133D01*
X49991847Y72361371D01*
X50277561Y72361371D01*
X50468038Y72266133D01*
X50563276Y72075657D01*
X50563276Y71028038D01*
X50563276Y72075657D02*
X50658514Y72266133D01*
X50848990Y72361371D01*
X51134704Y72361371D01*
X51325180Y72266133D01*
X51420419Y72075657D01*
X51420419Y71028038D01*
X53134704Y71123276D02*
X52944228Y71028038D01*
X52563276Y71028038D01*
X52372799Y71123276D01*
X52277561Y71313752D01*
X52277561Y72075657D01*
X52372799Y72266133D01*
X52563276Y72361371D01*
X52944228Y72361371D01*
X53134704Y72266133D01*
X53229942Y72075657D01*
X53229942Y71885180D01*
X52277561Y71694704D01*
X54087085Y71028038D02*
X54087085Y72361371D01*
X54087085Y71980419D02*
X54182323Y72170895D01*
X54277561Y72266133D01*
X54468038Y72361371D01*
X54658514Y72361371D01*
X28979000Y33655000D02*
G75*
G03*
X28979000Y33655000I-150000J0D01*
G01*
D10*
X24384047Y13771571D02*
X25145952Y13771571D01*
X24384047Y15676571D02*
X25145952Y15676571D01*
X24765000Y15295619D02*
X24765000Y16057523D01*
X746238Y38203238D02*
X889095Y38155619D01*
X1127190Y38155619D01*
X1222428Y38203238D01*
X1270047Y38250857D01*
X1317666Y38346095D01*
X1317666Y38441333D01*
X1270047Y38536571D01*
X1222428Y38584190D01*
X1127190Y38631809D01*
X936714Y38679428D01*
X841476Y38727047D01*
X793857Y38774666D01*
X746238Y38869904D01*
X746238Y38965142D01*
X793857Y39060380D01*
X841476Y39108000D01*
X936714Y39155619D01*
X1174809Y39155619D01*
X1317666Y39108000D01*
X1746238Y38536571D02*
X2508142Y38536571D01*
X873238Y41124238D02*
X1016095Y41076619D01*
X1254190Y41076619D01*
X1349428Y41124238D01*
X1397047Y41171857D01*
X1444666Y41267095D01*
X1444666Y41362333D01*
X1397047Y41457571D01*
X1349428Y41505190D01*
X1254190Y41552809D01*
X1063714Y41600428D01*
X968476Y41648047D01*
X920857Y41695666D01*
X873238Y41790904D01*
X873238Y41886142D01*
X920857Y41981380D01*
X968476Y42029000D01*
X1063714Y42076619D01*
X1301809Y42076619D01*
X1444666Y42029000D01*
X1873238Y41457571D02*
X2635142Y41457571D01*
X2254190Y41076619D02*
X2254190Y41838523D01*
X67421238Y38203238D02*
X67564095Y38155619D01*
X67802190Y38155619D01*
X67897428Y38203238D01*
X67945047Y38250857D01*
X67992666Y38346095D01*
X67992666Y38441333D01*
X67945047Y38536571D01*
X67897428Y38584190D01*
X67802190Y38631809D01*
X67611714Y38679428D01*
X67516476Y38727047D01*
X67468857Y38774666D01*
X67421238Y38869904D01*
X67421238Y38965142D01*
X67468857Y39060380D01*
X67516476Y39108000D01*
X67611714Y39155619D01*
X67849809Y39155619D01*
X67992666Y39108000D01*
X68421238Y38536571D02*
X69183142Y38536571D01*
X67421238Y40997238D02*
X67564095Y40949619D01*
X67802190Y40949619D01*
X67897428Y40997238D01*
X67945047Y41044857D01*
X67992666Y41140095D01*
X67992666Y41235333D01*
X67945047Y41330571D01*
X67897428Y41378190D01*
X67802190Y41425809D01*
X67611714Y41473428D01*
X67516476Y41521047D01*
X67468857Y41568666D01*
X67421238Y41663904D01*
X67421238Y41759142D01*
X67468857Y41854380D01*
X67516476Y41902000D01*
X67611714Y41949619D01*
X67849809Y41949619D01*
X67992666Y41902000D01*
X68421238Y41330571D02*
X69183142Y41330571D01*
X68802190Y40949619D02*
X68802190Y41711523D01*
X1524000Y33909000D02*
X1524000Y33274000D01*
X1524000Y34925000D02*
X1524000Y35814000D01*
X1016000Y33909000D02*
X2032000Y33909000D01*
D12*
G36*
X1524000Y33909000D02*
G01*
X1016000Y34925000D01*
X2032000Y34925000D01*
X1524000Y33909000D01*
G37*
X1524000Y33909000D02*
X1016000Y34925000D01*
X2032000Y34925000D01*
X1524000Y33909000D01*
D10*
X68199000Y33401000D02*
X68199000Y32766000D01*
X68199000Y34417000D02*
X68199000Y35306000D01*
X67691000Y33401000D02*
X68707000Y33401000D01*
D12*
G36*
X68199000Y33401000D02*
G01*
X67691000Y34417000D01*
X68707000Y34417000D01*
X68199000Y33401000D01*
G37*
X68199000Y33401000D02*
X67691000Y34417000D01*
X68707000Y34417000D01*
X68199000Y33401000D01*
D10*
X11835238Y64571619D02*
X11501904Y65047809D01*
X11263809Y64571619D02*
X11263809Y65571619D01*
X11644761Y65571619D01*
X11740000Y65524000D01*
X11787619Y65476380D01*
X11835238Y65381142D01*
X11835238Y65238285D01*
X11787619Y65143047D01*
X11740000Y65095428D01*
X11644761Y65047809D01*
X11263809Y65047809D01*
X12263809Y65095428D02*
X12597142Y65095428D01*
X12740000Y64571619D02*
X12263809Y64571619D01*
X12263809Y65571619D01*
X12740000Y65571619D01*
X13692380Y65524000D02*
X13597142Y65571619D01*
X13454285Y65571619D01*
X13311428Y65524000D01*
X13216190Y65428761D01*
X13168571Y65333523D01*
X13120952Y65143047D01*
X13120952Y65000190D01*
X13168571Y64809714D01*
X13216190Y64714476D01*
X13311428Y64619238D01*
X13454285Y64571619D01*
X13549523Y64571619D01*
X13692380Y64619238D01*
X13740000Y64666857D01*
X13740000Y65000190D01*
X13549523Y65000190D01*
X14168571Y65571619D02*
X14168571Y64762095D01*
X14216190Y64666857D01*
X14263809Y64619238D01*
X14359047Y64571619D01*
X14549523Y64571619D01*
X14644761Y64619238D01*
X14692380Y64666857D01*
X14740000Y64762095D01*
X14740000Y65571619D01*
X15692380Y64571619D02*
X15216190Y64571619D01*
X15216190Y65571619D01*
X15978095Y64857333D02*
X16454285Y64857333D01*
X15882857Y64571619D02*
X16216190Y65571619D01*
X16549523Y64571619D01*
X16740000Y65571619D02*
X17311428Y65571619D01*
X17025714Y64571619D02*
X17025714Y65571619D01*
X17835238Y65571619D02*
X18025714Y65571619D01*
X18120952Y65524000D01*
X18216190Y65428761D01*
X18263809Y65238285D01*
X18263809Y64904952D01*
X18216190Y64714476D01*
X18120952Y64619238D01*
X18025714Y64571619D01*
X17835238Y64571619D01*
X17740000Y64619238D01*
X17644761Y64714476D01*
X17597142Y64904952D01*
X17597142Y65238285D01*
X17644761Y65428761D01*
X17740000Y65524000D01*
X17835238Y65571619D01*
X19263809Y64571619D02*
X18930476Y65047809D01*
X18692380Y64571619D02*
X18692380Y65571619D01*
X19073333Y65571619D01*
X19168571Y65524000D01*
X19216190Y65476380D01*
X19263809Y65381142D01*
X19263809Y65238285D01*
X19216190Y65143047D01*
X19168571Y65095428D01*
X19073333Y65047809D01*
X18692380Y65047809D01*
X39155857Y50807928D02*
X39298714Y50760309D01*
X39346333Y50712690D01*
X39393952Y50617452D01*
X39393952Y50474595D01*
X39346333Y50379357D01*
X39298714Y50331738D01*
X39203476Y50284119D01*
X38822523Y50284119D01*
X38822523Y51284119D01*
X39155857Y51284119D01*
X39251095Y51236500D01*
X39298714Y51188880D01*
X39346333Y51093642D01*
X39346333Y50998404D01*
X39298714Y50903166D01*
X39251095Y50855547D01*
X39155857Y50807928D01*
X38822523Y50807928D01*
X40013000Y51284119D02*
X40203476Y51284119D01*
X40298714Y51236500D01*
X40393952Y51141261D01*
X40441571Y50950785D01*
X40441571Y50617452D01*
X40393952Y50426976D01*
X40298714Y50331738D01*
X40203476Y50284119D01*
X40013000Y50284119D01*
X39917761Y50331738D01*
X39822523Y50426976D01*
X39774904Y50617452D01*
X39774904Y50950785D01*
X39822523Y51141261D01*
X39917761Y51236500D01*
X40013000Y51284119D01*
X41060619Y51284119D02*
X41251095Y51284119D01*
X41346333Y51236500D01*
X41441571Y51141261D01*
X41489190Y50950785D01*
X41489190Y50617452D01*
X41441571Y50426976D01*
X41346333Y50331738D01*
X41251095Y50284119D01*
X41060619Y50284119D01*
X40965380Y50331738D01*
X40870142Y50426976D01*
X40822523Y50617452D01*
X40822523Y50950785D01*
X40870142Y51141261D01*
X40965380Y51236500D01*
X41060619Y51284119D01*
X41774904Y51284119D02*
X42346333Y51284119D01*
X42060619Y50284119D02*
X42060619Y51284119D01*
X44553380Y49903119D02*
X44553380Y50903119D01*
X44553380Y50426928D02*
X45124809Y50426928D01*
X45124809Y49903119D02*
X45124809Y50903119D01*
X45601000Y49903119D02*
X45601000Y50903119D01*
X46601000Y50855500D02*
X46505761Y50903119D01*
X46362904Y50903119D01*
X46220047Y50855500D01*
X46124809Y50760261D01*
X46077190Y50665023D01*
X46029571Y50474547D01*
X46029571Y50331690D01*
X46077190Y50141214D01*
X46124809Y50045976D01*
X46220047Y49950738D01*
X46362904Y49903119D01*
X46458142Y49903119D01*
X46601000Y49950738D01*
X46648619Y49998357D01*
X46648619Y50331690D01*
X46458142Y50331690D01*
X47077190Y49903119D02*
X47077190Y50903119D01*
X47077190Y50426928D02*
X47648619Y50426928D01*
X47648619Y49903119D02*
X47648619Y50903119D01*
X45124785Y44823119D02*
X44648595Y44823119D01*
X44648595Y45823119D01*
X45648595Y45823119D02*
X45839071Y45823119D01*
X45934309Y45775500D01*
X46029547Y45680261D01*
X46077166Y45489785D01*
X46077166Y45156452D01*
X46029547Y44965976D01*
X45934309Y44870738D01*
X45839071Y44823119D01*
X45648595Y44823119D01*
X45553357Y44870738D01*
X45458119Y44965976D01*
X45410500Y45156452D01*
X45410500Y45489785D01*
X45458119Y45680261D01*
X45553357Y45775500D01*
X45648595Y45823119D01*
X46410500Y45823119D02*
X46648595Y44823119D01*
X46839071Y45537404D01*
X47029547Y44823119D01*
X47267642Y45823119D01*
X40195547Y42092571D02*
X40957452Y42092571D01*
X38163547Y42092571D02*
X38925452Y42092571D01*
X38544500Y41711619D02*
X38544500Y42473523D01*
X49169795Y64784219D02*
X49741223Y64784219D01*
X49455509Y63784219D02*
X49455509Y64784219D01*
X50074557Y63784219D02*
X50074557Y64784219D01*
X50455509Y64784219D01*
X50550747Y64736600D01*
X50598366Y64688980D01*
X50645985Y64593742D01*
X50645985Y64450885D01*
X50598366Y64355647D01*
X50550747Y64308028D01*
X50455509Y64260409D01*
X50074557Y64260409D01*
X51026938Y64688980D02*
X51074557Y64736600D01*
X51169795Y64784219D01*
X51407890Y64784219D01*
X51503128Y64736600D01*
X51550747Y64688980D01*
X51598366Y64593742D01*
X51598366Y64498504D01*
X51550747Y64355647D01*
X50979319Y63784219D01*
X51598366Y63784219D01*
X49182495Y61761619D02*
X49753923Y61761619D01*
X49468209Y60761619D02*
X49468209Y61761619D01*
X50087257Y60761619D02*
X50087257Y61761619D01*
X50468209Y61761619D01*
X50563447Y61714000D01*
X50611066Y61666380D01*
X50658685Y61571142D01*
X50658685Y61428285D01*
X50611066Y61333047D01*
X50563447Y61285428D01*
X50468209Y61237809D01*
X50087257Y61237809D01*
X51230114Y61333047D02*
X51134876Y61380666D01*
X51087257Y61428285D01*
X51039638Y61523523D01*
X51039638Y61571142D01*
X51087257Y61666380D01*
X51134876Y61714000D01*
X51230114Y61761619D01*
X51420590Y61761619D01*
X51515828Y61714000D01*
X51563447Y61666380D01*
X51611066Y61571142D01*
X51611066Y61523523D01*
X51563447Y61428285D01*
X51515828Y61380666D01*
X51420590Y61333047D01*
X51230114Y61333047D01*
X51134876Y61285428D01*
X51087257Y61237809D01*
X51039638Y61142571D01*
X51039638Y60952095D01*
X51087257Y60856857D01*
X51134876Y60809238D01*
X51230114Y60761619D01*
X51420590Y60761619D01*
X51515828Y60809238D01*
X51563447Y60856857D01*
X51611066Y60952095D01*
X51611066Y61142571D01*
X51563447Y61237809D01*
X51515828Y61285428D01*
X51420590Y61333047D01*
X7937619Y56173619D02*
X8128095Y56173619D01*
X8223333Y56126000D01*
X8318571Y56030761D01*
X8366190Y55840285D01*
X8366190Y55506952D01*
X8318571Y55316476D01*
X8223333Y55221238D01*
X8128095Y55173619D01*
X7937619Y55173619D01*
X7842380Y55221238D01*
X7747142Y55316476D01*
X7699523Y55506952D01*
X7699523Y55840285D01*
X7747142Y56030761D01*
X7842380Y56126000D01*
X7937619Y56173619D01*
X9128095Y55697428D02*
X8794761Y55697428D01*
X8794761Y55173619D02*
X8794761Y56173619D01*
X9270952Y56173619D01*
X9985238Y55697428D02*
X9651904Y55697428D01*
X9651904Y55173619D02*
X9651904Y56173619D01*
X10128095Y56173619D01*
X8270952Y64301619D02*
X8461428Y64301619D01*
X8556666Y64254000D01*
X8651904Y64158761D01*
X8699523Y63968285D01*
X8699523Y63634952D01*
X8651904Y63444476D01*
X8556666Y63349238D01*
X8461428Y63301619D01*
X8270952Y63301619D01*
X8175714Y63349238D01*
X8080476Y63444476D01*
X8032857Y63634952D01*
X8032857Y63968285D01*
X8080476Y64158761D01*
X8175714Y64254000D01*
X8270952Y64301619D01*
X9128095Y63301619D02*
X9128095Y64301619D01*
X9699523Y63301619D01*
X9699523Y64301619D01*
X38984466Y10479019D02*
X39317800Y9479019D01*
X39651133Y10479019D01*
X39984466Y10479019D02*
X39984466Y9669495D01*
X40032085Y9574257D01*
X40079704Y9526638D01*
X40174942Y9479019D01*
X40365419Y9479019D01*
X40460657Y9526638D01*
X40508276Y9574257D01*
X40555895Y9669495D01*
X40555895Y10479019D01*
X40984466Y9526638D02*
X41127323Y9479019D01*
X41365419Y9479019D01*
X41460657Y9526638D01*
X41508276Y9574257D01*
X41555895Y9669495D01*
X41555895Y9764733D01*
X41508276Y9859971D01*
X41460657Y9907590D01*
X41365419Y9955209D01*
X41174942Y10002828D01*
X41079704Y10050447D01*
X41032085Y10098066D01*
X40984466Y10193304D01*
X40984466Y10288542D01*
X41032085Y10383780D01*
X41079704Y10431400D01*
X41174942Y10479019D01*
X41413038Y10479019D01*
X41555895Y10431400D01*
X42317800Y10002828D02*
X42460657Y9955209D01*
X42508276Y9907590D01*
X42555895Y9812352D01*
X42555895Y9669495D01*
X42508276Y9574257D01*
X42460657Y9526638D01*
X42365419Y9479019D01*
X41984466Y9479019D01*
X41984466Y10479019D01*
X42317800Y10479019D01*
X42413038Y10431400D01*
X42460657Y10383780D01*
X42508276Y10288542D01*
X42508276Y10193304D01*
X42460657Y10098066D01*
X42413038Y10050447D01*
X42317800Y10002828D01*
X41984466Y10002828D01*
X38919447Y15432019D02*
X39252780Y14432019D01*
X39586114Y15432019D01*
X40205161Y15432019D02*
X40205161Y14717733D01*
X40157542Y14574876D01*
X40062304Y14479638D01*
X39919447Y14432019D01*
X39824209Y14432019D01*
X41157542Y14432019D02*
X40681352Y14432019D01*
X40681352Y15432019D01*
X41490876Y14432019D02*
X41490876Y15432019D01*
X41967066Y14432019D02*
X41967066Y15432019D01*
X42538495Y14432019D01*
X42538495Y15432019D01*
X43014685Y14432019D02*
X43014685Y15432019D01*
X43586114Y14432019D02*
X43157542Y15003447D01*
X43586114Y15432019D02*
X43014685Y14860590D01*
D13*
%TO.C,U2*%
X27786000Y46736000D02*
G75*
G03*
X27786000Y46736000I-100000J0D01*
G01*
D14*
%TO.C,C15*%
X25407252Y31523000D02*
X24884748Y31523000D01*
X25407252Y32993000D02*
X24884748Y32993000D01*
%TO.C,C14*%
X25428752Y34825000D02*
X24906248Y34825000D01*
X25428752Y36295000D02*
X24906248Y36295000D01*
%TO.C,D1*%
X55803800Y11430000D02*
X55803800Y10414000D01*
D12*
G36*
X55803800Y10922000D02*
G01*
X54787800Y10414000D01*
X54787800Y11430000D01*
X55803800Y10922000D01*
G37*
X55803800Y10922000D02*
X54787800Y10414000D01*
X54787800Y11430000D01*
X55803800Y10922000D01*
D14*
%TO.C,TP9*%
X14808000Y16002000D02*
G75*
G03*
X14808000Y16002000I-1600000J0D01*
G01*
%TO.C,H7*%
X3994000Y58013600D02*
G75*
G03*
X3994000Y58013600I-1200000J0D01*
G01*
%TO.C,H3*%
X66427200Y52730400D02*
G75*
G03*
X66427200Y52730400I-1200000J0D01*
G01*
%TO.C,H2*%
X61804400Y59131200D02*
G75*
G03*
X61804400Y59131200I-1200000J0D01*
G01*
%TO.C,H1*%
X56521200Y64414400D02*
G75*
G03*
X56521200Y64414400I-1200000J0D01*
G01*
%TO.C,C8*%
X32519252Y22007500D02*
X31996748Y22007500D01*
X32519252Y20537500D02*
X31996748Y20537500D01*
%TO.C,C1*%
X28729000Y8628748D02*
X28729000Y9151252D01*
X30199000Y8628748D02*
X30199000Y9151252D01*
%TO.C,C2*%
X19585000Y8882748D02*
X19585000Y9405252D01*
X21055000Y8882748D02*
X21055000Y9405252D01*
%TO.C,C3*%
X19839000Y43187252D02*
X19839000Y42664748D01*
X21309000Y43187252D02*
X21309000Y42664748D01*
%TO.C,C4*%
X29872000Y44584252D02*
X29872000Y44061748D01*
X31342000Y44584252D02*
X31342000Y44061748D01*
%TO.C,C5*%
X33882000Y44584252D02*
X33882000Y44061748D01*
X32412000Y44584252D02*
X32412000Y44061748D01*
%TO.C,C6*%
X42184610Y20770457D02*
X41815143Y20400990D01*
X43224057Y19731010D02*
X42854590Y19361543D01*
%TO.C,C7*%
X31615748Y37946000D02*
X32138252Y37946000D01*
X31615748Y36476000D02*
X32138252Y36476000D01*
%TO.C,C9*%
X41674657Y21255010D02*
X41305190Y20885543D01*
X40635210Y22294457D02*
X40265743Y21924990D01*
%TO.C,C10*%
X43080000Y34297252D02*
X43080000Y33774748D01*
X44550000Y34297252D02*
X44550000Y33774748D01*
%TO.C,C11*%
X26135000Y26078548D02*
X26135000Y26601052D01*
X24665000Y26078548D02*
X24665000Y26601052D01*
%TO.C,C12*%
X26951000Y26078548D02*
X26951000Y26601052D01*
X28421000Y26078548D02*
X28421000Y26601052D01*
%TO.C,C13*%
X23849000Y26601052D02*
X23849000Y26078548D01*
X22379000Y26601052D02*
X22379000Y26078548D01*
%TO.C,J2*%
X50050000Y53724000D02*
X59170000Y53724000D01*
X59170000Y53724000D02*
X59170000Y20444000D01*
X59170000Y20444000D02*
X50050000Y20444000D01*
X50050000Y20444000D02*
X50050000Y53724000D01*
X50050000Y39134000D02*
X51360000Y39134000D01*
X51360000Y39134000D02*
X51360000Y52424000D01*
X51360000Y52424000D02*
X57860000Y52424000D01*
X57860000Y52424000D02*
X57860000Y21744000D01*
X57860000Y21744000D02*
X51360000Y21744000D01*
X51360000Y21744000D02*
X51360000Y35034000D01*
X51360000Y35034000D02*
X51360000Y35034000D01*
X51360000Y35034000D02*
X50050000Y35034000D01*
X49660000Y48514000D02*
X48660000Y49014000D01*
X48660000Y49014000D02*
X48660000Y48014000D01*
X48660000Y48014000D02*
X49660000Y48514000D01*
%TO.C,J4*%
X9084000Y22546000D02*
X14284000Y22546000D01*
X9084000Y50546000D02*
X9084000Y22546000D01*
X14284000Y53146000D02*
X14284000Y22546000D01*
X9084000Y50546000D02*
X11684000Y50546000D01*
X11684000Y50546000D02*
X11684000Y53146000D01*
X11684000Y53146000D02*
X14284000Y53146000D01*
X9084000Y51816000D02*
X9084000Y53146000D01*
X9084000Y53146000D02*
X10414000Y53146000D01*
%TO.C,LED1*%
X22154000Y15986000D02*
X22154000Y13126000D01*
X22154000Y13126000D02*
X24074000Y13126000D01*
X24074000Y13126000D02*
X24074000Y15986000D01*
%TO.C,LED2*%
X41420500Y41473000D02*
X38560500Y41473000D01*
X41420500Y39553000D02*
X41420500Y41473000D01*
X38560500Y39553000D02*
X41420500Y39553000D01*
%TO.C,R1*%
X46445500Y39787564D02*
X46445500Y39333436D01*
X47915500Y39787564D02*
X47915500Y39333436D01*
%TO.C,R2*%
X45820000Y39787564D02*
X45820000Y39333436D01*
X44350000Y39787564D02*
X44350000Y39333436D01*
%TO.C,R3*%
X27659064Y15267000D02*
X27204936Y15267000D01*
X27659064Y16737000D02*
X27204936Y16737000D01*
%TO.C,R4*%
X27659064Y14451000D02*
X27204936Y14451000D01*
X27659064Y12981000D02*
X27204936Y12981000D01*
%TO.C,R5*%
X33300936Y17499000D02*
X33755064Y17499000D01*
X33300936Y16029000D02*
X33755064Y16029000D01*
%TO.C,R6*%
X43661000Y7339064D02*
X43661000Y6884936D01*
X42191000Y7339064D02*
X42191000Y6884936D01*
%TO.C,R7*%
X6577064Y16000400D02*
X6122936Y16000400D01*
X6577064Y14530400D02*
X6122936Y14530400D01*
%TO.C,R8*%
X23648936Y57123000D02*
X24103064Y57123000D01*
X23648936Y55653000D02*
X24103064Y55653000D01*
%TO.C,R9*%
X19150064Y60425000D02*
X18695936Y60425000D01*
X19150064Y58955000D02*
X18695936Y58955000D01*
%TO.C,R10*%
X20547000Y14758936D02*
X20547000Y15213064D01*
X19077000Y14758936D02*
X19077000Y15213064D01*
%TO.C,R11*%
X54891000Y4037064D02*
X54891000Y3582936D01*
X56361000Y4037064D02*
X56361000Y3582936D01*
%TO.C,R12*%
X52859000Y3582936D02*
X52859000Y4037064D01*
X54329000Y3582936D02*
X54329000Y4037064D01*
%TO.C,R13*%
X35990200Y40006536D02*
X35990200Y40460664D01*
X34520200Y40006536D02*
X34520200Y40460664D01*
%TO.C,R14*%
X45086600Y53316136D02*
X45086600Y53770264D01*
X46556600Y53316136D02*
X46556600Y53770264D01*
%TO.C,R15*%
X48588600Y53316136D02*
X48588600Y53770264D01*
X47118600Y53316136D02*
X47118600Y53770264D01*
%TO.C,R17*%
X5611800Y46759864D02*
X5611800Y46305736D01*
X4141800Y46759864D02*
X4141800Y46305736D01*
%TO.C,R18*%
X64339800Y46759864D02*
X64339800Y46305736D01*
X65809800Y46759864D02*
X65809800Y46305736D01*
%TO.C,R19*%
X39333436Y39152500D02*
X39787564Y39152500D01*
X39333436Y37682500D02*
X39787564Y37682500D01*
%TO.C,R20*%
X17753000Y15213064D02*
X17753000Y14758936D01*
X16283000Y15213064D02*
X16283000Y14758936D01*
%TO.C,S1*%
X37846000Y13716000D02*
X37846000Y11684000D01*
X38354000Y11176000D02*
X38354000Y16510000D01*
X37846000Y11176000D02*
X38354000Y11176000D01*
X37338000Y11176000D02*
X36322000Y11176000D01*
X36830000Y13716000D02*
X37846000Y13716000D01*
X37338000Y11176000D02*
X37846000Y11176000D01*
X37338000Y16510000D02*
X37846000Y16510000D01*
X36322000Y16510000D02*
X37338000Y16510000D01*
X37846000Y16510000D02*
X38354000Y16510000D01*
X36322000Y11176000D02*
X36322000Y16510000D01*
X36830000Y13716000D02*
X36830000Y11684000D01*
X36830000Y11684000D02*
X37846000Y11684000D01*
%TO.C,S2*%
X11176000Y59944000D02*
X11176000Y61976000D01*
X10668000Y62484000D02*
X10668000Y57150000D01*
X11176000Y62484000D02*
X10668000Y62484000D01*
X11684000Y62484000D02*
X12700000Y62484000D01*
X12192000Y59944000D02*
X11176000Y59944000D01*
X11684000Y62484000D02*
X11176000Y62484000D01*
X11684000Y57150000D02*
X11176000Y57150000D01*
X12700000Y57150000D02*
X11684000Y57150000D01*
X11176000Y57150000D02*
X10668000Y57150000D01*
X12700000Y62484000D02*
X12700000Y57150000D01*
X12192000Y59944000D02*
X12192000Y61976000D01*
X12192000Y61976000D02*
X11176000Y61976000D01*
%TO.C,S3*%
X41783000Y44132500D02*
X42799000Y44132500D01*
X41783000Y46164500D02*
X41783000Y44132500D01*
X41275000Y43624500D02*
X41275000Y48958500D01*
X42799000Y48958500D02*
X43307000Y48958500D01*
X41275000Y48958500D02*
X42291000Y48958500D01*
X42291000Y48958500D02*
X42799000Y48958500D01*
X42291000Y43624500D02*
X42799000Y43624500D01*
X41783000Y46164500D02*
X42799000Y46164500D01*
X42291000Y43624500D02*
X41275000Y43624500D01*
X42799000Y43624500D02*
X43307000Y43624500D01*
X43307000Y43624500D02*
X43307000Y48958500D01*
X42799000Y46164500D02*
X42799000Y44132500D01*
%TO.C,S4*%
X17631210Y24130000D02*
G75*
G03*
X17631210Y24130000I-359210J0D01*
G01*
X19663210Y24130000D02*
G75*
G03*
X19663210Y24130000I-359210J0D01*
G01*
X17780000Y25908000D02*
X18796000Y25908000D01*
X18288000Y24892000D02*
X18288000Y25908000D01*
X17272000Y24892000D02*
X19304000Y24892000D01*
%TO.C,TP1*%
X55562300Y16878300D02*
G75*
G03*
X55562300Y16878300I-1600000J0D01*
G01*
%TO.C,TP3*%
X4838500Y26314400D02*
G75*
G03*
X4838500Y26314400I-1600000J0D01*
G01*
%TO.C,TP4*%
X14173000Y7569200D02*
G75*
G03*
X14173000Y7569200I-1600000J0D01*
G01*
%TO.C,TP5*%
X24460000Y62738000D02*
G75*
G03*
X24460000Y62738000I-1600000J0D01*
G01*
%TO.C,TP6*%
X48800000Y62738000D02*
G75*
G03*
X48800000Y62738000I-1600000J0D01*
G01*
%TO.C,TP7*%
X36550400Y65100200D02*
G75*
G03*
X36550400Y65100200I-1600000J0D01*
G01*
%TO.C,U3*%
X39974000Y24100000D02*
X40924000Y24100000D01*
X40924000Y24100000D02*
X40924000Y25050000D01*
X31654000Y24100000D02*
X30704000Y24100000D01*
X30704000Y24100000D02*
X30704000Y25050000D01*
X39974000Y34320000D02*
X40924000Y34320000D01*
X40924000Y34320000D02*
X40924000Y33370000D01*
X31654000Y34320000D02*
X30704000Y34320000D01*
X30704000Y34320000D02*
X30704000Y33370000D01*
X30704000Y33370000D02*
X29364000Y33370000D01*
%TO.C,BT1*%
X24026000Y1294000D02*
X24026000Y4294000D01*
X24026000Y4294000D02*
X11026000Y4294000D01*
X11026000Y4294000D02*
X11026000Y1294000D01*
X11026000Y1294000D02*
X24026000Y1294000D01*
X21336000Y2794000D02*
X20320000Y2794000D01*
X20828000Y2286000D02*
X20828000Y3302000D01*
X14732000Y2794000D02*
X13970000Y2794000D01*
%TO.C,S8*%
X27888000Y53594000D02*
X42112000Y53594000D01*
X27888000Y59690000D02*
X27888000Y53594000D01*
X42112000Y59690000D02*
X27888000Y59690000D01*
X42112000Y53594000D02*
X42112000Y59690000D01*
D13*
%TO.C,U1*%
X22427000Y9906000D02*
G75*
G03*
X22427000Y9906000I-75000J0D01*
G01*
D14*
%TO.C,S6*%
X2968000Y42842000D02*
X2968000Y31158000D01*
X7032000Y42842000D02*
X7032000Y31158000D01*
X2968000Y42842000D02*
X7032000Y42842000D01*
X2968000Y31158000D02*
X7032000Y31158000D01*
%TO.C,S7*%
X62968000Y42842000D02*
X67032000Y42842000D01*
X62968000Y42842000D02*
X62968000Y31158000D01*
X62968000Y31158000D02*
X67032000Y31158000D01*
X67032000Y42842000D02*
X67032000Y31158000D01*
%TO.C,U2*%
D10*
X27228895Y42381419D02*
X27228895Y41571895D01*
X27276514Y41476657D01*
X27324133Y41429038D01*
X27419371Y41381419D01*
X27609847Y41381419D01*
X27705085Y41429038D01*
X27752704Y41476657D01*
X27800323Y41571895D01*
X27800323Y42381419D01*
X28228895Y42286180D02*
X28276514Y42333800D01*
X28371752Y42381419D01*
X28609847Y42381419D01*
X28705085Y42333800D01*
X28752704Y42286180D01*
X28800323Y42190942D01*
X28800323Y42095704D01*
X28752704Y41952847D01*
X28181276Y41381419D01*
X28800323Y41381419D01*
%TO.C,J1*%
X34667866Y7354819D02*
X34667866Y6640533D01*
X34620247Y6497676D01*
X34525009Y6402438D01*
X34382152Y6354819D01*
X34286914Y6354819D01*
X35667866Y6354819D02*
X35096438Y6354819D01*
X35382152Y6354819D02*
X35382152Y7354819D01*
X35286914Y7211961D01*
X35191676Y7116723D01*
X35096438Y7069104D01*
%TO.C,XTAL1*%
X20026380Y31758190D02*
X21026380Y32424857D01*
X20026380Y32424857D02*
X21026380Y31758190D01*
X20026380Y32662952D02*
X20026380Y33234380D01*
X21026380Y32948666D02*
X20026380Y32948666D01*
X20740666Y33520095D02*
X20740666Y33996285D01*
X21026380Y33424857D02*
X20026380Y33758190D01*
X21026380Y34091523D01*
X21026380Y34901047D02*
X21026380Y34424857D01*
X20026380Y34424857D01*
X21026380Y35758190D02*
X21026380Y35186761D01*
X21026380Y35472476D02*
X20026380Y35472476D01*
X20169238Y35377238D01*
X20264476Y35282000D01*
X20312095Y35186761D01*
%TO.C,C15*%
X25646142Y30122857D02*
X25598523Y30075238D01*
X25455666Y30027619D01*
X25360428Y30027619D01*
X25217571Y30075238D01*
X25122333Y30170476D01*
X25074714Y30265714D01*
X25027095Y30456190D01*
X25027095Y30599047D01*
X25074714Y30789523D01*
X25122333Y30884761D01*
X25217571Y30980000D01*
X25360428Y31027619D01*
X25455666Y31027619D01*
X25598523Y30980000D01*
X25646142Y30932380D01*
X26598523Y30027619D02*
X26027095Y30027619D01*
X26312809Y30027619D02*
X26312809Y31027619D01*
X26217571Y30884761D01*
X26122333Y30789523D01*
X26027095Y30741904D01*
X27503285Y31027619D02*
X27027095Y31027619D01*
X26979476Y30551428D01*
X27027095Y30599047D01*
X27122333Y30646666D01*
X27360428Y30646666D01*
X27455666Y30599047D01*
X27503285Y30551428D01*
X27550904Y30456190D01*
X27550904Y30218095D01*
X27503285Y30122857D01*
X27455666Y30075238D01*
X27360428Y30027619D01*
X27122333Y30027619D01*
X27027095Y30075238D01*
X26979476Y30122857D01*
%TO.C,C14*%
X27932142Y35202857D02*
X27884523Y35155238D01*
X27741666Y35107619D01*
X27646428Y35107619D01*
X27503571Y35155238D01*
X27408333Y35250476D01*
X27360714Y35345714D01*
X27313095Y35536190D01*
X27313095Y35679047D01*
X27360714Y35869523D01*
X27408333Y35964761D01*
X27503571Y36060000D01*
X27646428Y36107619D01*
X27741666Y36107619D01*
X27884523Y36060000D01*
X27932142Y36012380D01*
X28884523Y35107619D02*
X28313095Y35107619D01*
X28598809Y35107619D02*
X28598809Y36107619D01*
X28503571Y35964761D01*
X28408333Y35869523D01*
X28313095Y35821904D01*
X29741666Y35774285D02*
X29741666Y35107619D01*
X29503571Y36155238D02*
X29265476Y35440952D01*
X29884523Y35440952D01*
%TO.C,*%
%TO.C,D1*%
X54557704Y12755619D02*
X54557704Y13755619D01*
X54795800Y13755619D01*
X54938657Y13708000D01*
X55033895Y13612761D01*
X55081514Y13517523D01*
X55129133Y13327047D01*
X55129133Y13184190D01*
X55081514Y12993714D01*
X55033895Y12898476D01*
X54938657Y12803238D01*
X54795800Y12755619D01*
X54557704Y12755619D01*
X56081514Y12755619D02*
X55510085Y12755619D01*
X55795800Y12755619D02*
X55795800Y13755619D01*
X55700561Y13612761D01*
X55605323Y13517523D01*
X55510085Y13469904D01*
%TO.C,TP9*%
X12009595Y18962619D02*
X12581023Y18962619D01*
X12295309Y17962619D02*
X12295309Y18962619D01*
X12914357Y17962619D02*
X12914357Y18962619D01*
X13295309Y18962619D01*
X13390547Y18915000D01*
X13438166Y18867380D01*
X13485785Y18772142D01*
X13485785Y18629285D01*
X13438166Y18534047D01*
X13390547Y18486428D01*
X13295309Y18438809D01*
X12914357Y18438809D01*
X13961976Y17962619D02*
X14152452Y17962619D01*
X14247690Y18010238D01*
X14295309Y18057857D01*
X14390547Y18200714D01*
X14438166Y18391190D01*
X14438166Y18772142D01*
X14390547Y18867380D01*
X14342928Y18915000D01*
X14247690Y18962619D01*
X14057214Y18962619D01*
X13961976Y18915000D01*
X13914357Y18867380D01*
X13866738Y18772142D01*
X13866738Y18534047D01*
X13914357Y18438809D01*
X13961976Y18391190D01*
X14057214Y18343571D01*
X14247690Y18343571D01*
X14342928Y18391190D01*
X14390547Y18438809D01*
X14438166Y18534047D01*
%TO.C,H7*%
X2032095Y59559219D02*
X2032095Y60559219D01*
X2032095Y60083028D02*
X2603523Y60083028D01*
X2603523Y59559219D02*
X2603523Y60559219D01*
X2984476Y60559219D02*
X3651142Y60559219D01*
X3222571Y59559219D01*
%TO.C,H3*%
X62936714Y54741819D02*
X62936714Y55741819D01*
X62936714Y55265628D02*
X63508142Y55265628D01*
X63508142Y54741819D02*
X63508142Y55741819D01*
X63936714Y54789438D02*
X64079571Y54741819D01*
X64317666Y54741819D01*
X64412904Y54789438D01*
X64460523Y54837057D01*
X64508142Y54932295D01*
X64508142Y55027533D01*
X64460523Y55122771D01*
X64412904Y55170390D01*
X64317666Y55218009D01*
X64127190Y55265628D01*
X64031952Y55313247D01*
X63984333Y55360866D01*
X63936714Y55456104D01*
X63936714Y55551342D01*
X63984333Y55646580D01*
X64031952Y55694200D01*
X64127190Y55741819D01*
X64365285Y55741819D01*
X64508142Y55694200D01*
X65127190Y55218009D02*
X65127190Y54741819D01*
X64793857Y55741819D02*
X65127190Y55218009D01*
X65460523Y55741819D01*
X65793857Y54741819D02*
X65793857Y55741819D01*
X66365285Y54741819D01*
X66365285Y55741819D01*
X67412904Y54837057D02*
X67365285Y54789438D01*
X67222428Y54741819D01*
X67127190Y54741819D01*
X66984333Y54789438D01*
X66889095Y54884676D01*
X66841476Y54979914D01*
X66793857Y55170390D01*
X66793857Y55313247D01*
X66841476Y55503723D01*
X66889095Y55598961D01*
X66984333Y55694200D01*
X67127190Y55741819D01*
X67222428Y55741819D01*
X67365285Y55694200D01*
X67412904Y55646580D01*
%TO.C,H2*%
X58367895Y62091819D02*
X58701228Y61091819D01*
X59034561Y62091819D01*
X59320276Y61139438D02*
X59463133Y61091819D01*
X59701228Y61091819D01*
X59796466Y61139438D01*
X59844085Y61187057D01*
X59891704Y61282295D01*
X59891704Y61377533D01*
X59844085Y61472771D01*
X59796466Y61520390D01*
X59701228Y61568009D01*
X59510752Y61615628D01*
X59415514Y61663247D01*
X59367895Y61710866D01*
X59320276Y61806104D01*
X59320276Y61901342D01*
X59367895Y61996580D01*
X59415514Y62044200D01*
X59510752Y62091819D01*
X59748847Y62091819D01*
X59891704Y62044200D01*
X60510752Y61568009D02*
X60510752Y61091819D01*
X60177419Y62091819D02*
X60510752Y61568009D01*
X60844085Y62091819D01*
X61177419Y61091819D02*
X61177419Y62091819D01*
X61748847Y61091819D01*
X61748847Y62091819D01*
X62796466Y61187057D02*
X62748847Y61139438D01*
X62605990Y61091819D01*
X62510752Y61091819D01*
X62367895Y61139438D01*
X62272657Y61234676D01*
X62225038Y61329914D01*
X62177419Y61520390D01*
X62177419Y61663247D01*
X62225038Y61853723D01*
X62272657Y61948961D01*
X62367895Y62044200D01*
X62510752Y62091819D01*
X62605990Y62091819D01*
X62748847Y62044200D01*
X62796466Y61996580D01*
%TO.C,H1*%
X54530714Y66197219D02*
X54530714Y67197219D01*
X54768809Y67197219D01*
X54911666Y67149600D01*
X55006904Y67054361D01*
X55054523Y66959123D01*
X55102142Y66768647D01*
X55102142Y66625790D01*
X55054523Y66435314D01*
X55006904Y66340076D01*
X54911666Y66244838D01*
X54768809Y66197219D01*
X54530714Y66197219D01*
X55530714Y66721028D02*
X55864047Y66721028D01*
X56006904Y66197219D02*
X55530714Y66197219D01*
X55530714Y67197219D01*
X56006904Y67197219D01*
%TO.C,C8*%
X35012333Y20851857D02*
X34964714Y20804238D01*
X34821857Y20756619D01*
X34726619Y20756619D01*
X34583761Y20804238D01*
X34488523Y20899476D01*
X34440904Y20994714D01*
X34393285Y21185190D01*
X34393285Y21328047D01*
X34440904Y21518523D01*
X34488523Y21613761D01*
X34583761Y21709000D01*
X34726619Y21756619D01*
X34821857Y21756619D01*
X34964714Y21709000D01*
X35012333Y21661380D01*
X35583761Y21328047D02*
X35488523Y21375666D01*
X35440904Y21423285D01*
X35393285Y21518523D01*
X35393285Y21566142D01*
X35440904Y21661380D01*
X35488523Y21709000D01*
X35583761Y21756619D01*
X35774238Y21756619D01*
X35869476Y21709000D01*
X35917095Y21661380D01*
X35964714Y21566142D01*
X35964714Y21518523D01*
X35917095Y21423285D01*
X35869476Y21375666D01*
X35774238Y21328047D01*
X35583761Y21328047D01*
X35488523Y21280428D01*
X35440904Y21232809D01*
X35393285Y21137571D01*
X35393285Y20947095D01*
X35440904Y20851857D01*
X35488523Y20804238D01*
X35583761Y20756619D01*
X35774238Y20756619D01*
X35869476Y20804238D01*
X35917095Y20851857D01*
X35964714Y20947095D01*
X35964714Y21137571D01*
X35917095Y21232809D01*
X35869476Y21280428D01*
X35774238Y21328047D01*
%TO.C,C1*%
X31599142Y8723333D02*
X31646761Y8675714D01*
X31694380Y8532857D01*
X31694380Y8437619D01*
X31646761Y8294761D01*
X31551523Y8199523D01*
X31456285Y8151904D01*
X31265809Y8104285D01*
X31122952Y8104285D01*
X30932476Y8151904D01*
X30837238Y8199523D01*
X30742000Y8294761D01*
X30694380Y8437619D01*
X30694380Y8532857D01*
X30742000Y8675714D01*
X30789619Y8723333D01*
X31694380Y9675714D02*
X31694380Y9104285D01*
X31694380Y9390000D02*
X30694380Y9390000D01*
X30837238Y9294761D01*
X30932476Y9199523D01*
X30980095Y9104285D01*
%TO.C,C2*%
X18997142Y8977333D02*
X19044761Y8929714D01*
X19092380Y8786857D01*
X19092380Y8691619D01*
X19044761Y8548761D01*
X18949523Y8453523D01*
X18854285Y8405904D01*
X18663809Y8358285D01*
X18520952Y8358285D01*
X18330476Y8405904D01*
X18235238Y8453523D01*
X18140000Y8548761D01*
X18092380Y8691619D01*
X18092380Y8786857D01*
X18140000Y8929714D01*
X18187619Y8977333D01*
X18187619Y9358285D02*
X18140000Y9405904D01*
X18092380Y9501142D01*
X18092380Y9739238D01*
X18140000Y9834476D01*
X18187619Y9882095D01*
X18282857Y9929714D01*
X18378095Y9929714D01*
X18520952Y9882095D01*
X19092380Y9310666D01*
X19092380Y9929714D01*
%TO.C,C3*%
X20407333Y45108857D02*
X20359714Y45061238D01*
X20216857Y45013619D01*
X20121619Y45013619D01*
X19978761Y45061238D01*
X19883523Y45156476D01*
X19835904Y45251714D01*
X19788285Y45442190D01*
X19788285Y45585047D01*
X19835904Y45775523D01*
X19883523Y45870761D01*
X19978761Y45966000D01*
X20121619Y46013619D01*
X20216857Y46013619D01*
X20359714Y45966000D01*
X20407333Y45918380D01*
X20740666Y46013619D02*
X21359714Y46013619D01*
X21026380Y45632666D01*
X21169238Y45632666D01*
X21264476Y45585047D01*
X21312095Y45537428D01*
X21359714Y45442190D01*
X21359714Y45204095D01*
X21312095Y45108857D01*
X21264476Y45061238D01*
X21169238Y45013619D01*
X20883523Y45013619D01*
X20788285Y45061238D01*
X20740666Y45108857D01*
%TO.C,C4*%
X30964142Y40346333D02*
X31011761Y40298714D01*
X31059380Y40155857D01*
X31059380Y40060619D01*
X31011761Y39917761D01*
X30916523Y39822523D01*
X30821285Y39774904D01*
X30630809Y39727285D01*
X30487952Y39727285D01*
X30297476Y39774904D01*
X30202238Y39822523D01*
X30107000Y39917761D01*
X30059380Y40060619D01*
X30059380Y40155857D01*
X30107000Y40298714D01*
X30154619Y40346333D01*
X30392714Y41203476D02*
X31059380Y41203476D01*
X30011761Y40965380D02*
X30726047Y40727285D01*
X30726047Y41346333D01*
%TO.C,C5*%
X33504142Y40346333D02*
X33551761Y40298714D01*
X33599380Y40155857D01*
X33599380Y40060619D01*
X33551761Y39917761D01*
X33456523Y39822523D01*
X33361285Y39774904D01*
X33170809Y39727285D01*
X33027952Y39727285D01*
X32837476Y39774904D01*
X32742238Y39822523D01*
X32647000Y39917761D01*
X32599380Y40060619D01*
X32599380Y40155857D01*
X32647000Y40298714D01*
X32694619Y40346333D01*
X32599380Y41251095D02*
X32599380Y40774904D01*
X33075571Y40727285D01*
X33027952Y40774904D01*
X32980333Y40870142D01*
X32980333Y41108238D01*
X33027952Y41203476D01*
X33075571Y41251095D01*
X33170809Y41298714D01*
X33408904Y41298714D01*
X33504142Y41251095D01*
X33551761Y41203476D01*
X33599380Y41108238D01*
X33599380Y40870142D01*
X33551761Y40774904D01*
X33504142Y40727285D01*
%TO.C,C6*%
X45651487Y22337210D02*
X45651487Y22269867D01*
X45584143Y22135180D01*
X45516800Y22067836D01*
X45382112Y22000493D01*
X45247425Y22000493D01*
X45146410Y22034164D01*
X44978051Y22135180D01*
X44877036Y22236195D01*
X44776021Y22404554D01*
X44742349Y22505569D01*
X44742349Y22640256D01*
X44809693Y22774943D01*
X44877036Y22842287D01*
X45011723Y22909630D01*
X45079067Y22909630D01*
X45617815Y23583065D02*
X45483128Y23448378D01*
X45449456Y23347363D01*
X45449456Y23280019D01*
X45483128Y23111661D01*
X45584143Y22943302D01*
X45853517Y22673928D01*
X45954532Y22640256D01*
X46021876Y22640256D01*
X46122891Y22673928D01*
X46257578Y22808615D01*
X46291250Y22909630D01*
X46291250Y22976974D01*
X46257578Y23077989D01*
X46089219Y23246348D01*
X45988204Y23280019D01*
X45920861Y23280019D01*
X45819845Y23246348D01*
X45685158Y23111661D01*
X45651487Y23010645D01*
X45651487Y22943302D01*
X45685158Y22842287D01*
%TO.C,C7*%
X28789333Y36853857D02*
X28741714Y36806238D01*
X28598857Y36758619D01*
X28503619Y36758619D01*
X28360761Y36806238D01*
X28265523Y36901476D01*
X28217904Y36996714D01*
X28170285Y37187190D01*
X28170285Y37330047D01*
X28217904Y37520523D01*
X28265523Y37615761D01*
X28360761Y37711000D01*
X28503619Y37758619D01*
X28598857Y37758619D01*
X28741714Y37711000D01*
X28789333Y37663380D01*
X29122666Y37758619D02*
X29789333Y37758619D01*
X29360761Y36758619D01*
%TO.C,C9*%
X43898887Y23988210D02*
X43898887Y23920867D01*
X43831543Y23786180D01*
X43764200Y23718836D01*
X43629512Y23651493D01*
X43494825Y23651493D01*
X43393810Y23685164D01*
X43225451Y23786180D01*
X43124436Y23887195D01*
X43023421Y24055554D01*
X42989749Y24156569D01*
X42989749Y24291256D01*
X43057093Y24425943D01*
X43124436Y24493287D01*
X43259123Y24560630D01*
X43326467Y24560630D01*
X44302948Y24257584D02*
X44437635Y24392271D01*
X44471306Y24493287D01*
X44471306Y24560630D01*
X44437635Y24728989D01*
X44336619Y24897348D01*
X44067245Y25166722D01*
X43966230Y25200393D01*
X43898887Y25200393D01*
X43797871Y25166722D01*
X43663184Y25032035D01*
X43629512Y24931019D01*
X43629512Y24863676D01*
X43663184Y24762661D01*
X43831543Y24594302D01*
X43932558Y24560630D01*
X43999902Y24560630D01*
X44100917Y24594302D01*
X44235604Y24728989D01*
X44269276Y24830004D01*
X44269276Y24897348D01*
X44235604Y24998363D01*
%TO.C,C10*%
X44172142Y29964142D02*
X44219761Y29916523D01*
X44267380Y29773666D01*
X44267380Y29678428D01*
X44219761Y29535571D01*
X44124523Y29440333D01*
X44029285Y29392714D01*
X43838809Y29345095D01*
X43695952Y29345095D01*
X43505476Y29392714D01*
X43410238Y29440333D01*
X43315000Y29535571D01*
X43267380Y29678428D01*
X43267380Y29773666D01*
X43315000Y29916523D01*
X43362619Y29964142D01*
X44267380Y30916523D02*
X44267380Y30345095D01*
X44267380Y30630809D02*
X43267380Y30630809D01*
X43410238Y30535571D01*
X43505476Y30440333D01*
X43553095Y30345095D01*
X43267380Y31535571D02*
X43267380Y31630809D01*
X43315000Y31726047D01*
X43362619Y31773666D01*
X43457857Y31821285D01*
X43648333Y31868904D01*
X43886428Y31868904D01*
X44076904Y31821285D01*
X44172142Y31773666D01*
X44219761Y31726047D01*
X44267380Y31630809D01*
X44267380Y31535571D01*
X44219761Y31440333D01*
X44172142Y31392714D01*
X44076904Y31345095D01*
X43886428Y31297476D01*
X43648333Y31297476D01*
X43457857Y31345095D01*
X43362619Y31392714D01*
X43315000Y31440333D01*
X43267380Y31535571D01*
%TO.C,C11*%
X25782542Y21556742D02*
X25830161Y21509123D01*
X25877780Y21366266D01*
X25877780Y21271028D01*
X25830161Y21128171D01*
X25734923Y21032933D01*
X25639685Y20985314D01*
X25449209Y20937695D01*
X25306352Y20937695D01*
X25115876Y20985314D01*
X25020638Y21032933D01*
X24925400Y21128171D01*
X24877780Y21271028D01*
X24877780Y21366266D01*
X24925400Y21509123D01*
X24973019Y21556742D01*
X25877780Y22509123D02*
X25877780Y21937695D01*
X25877780Y22223409D02*
X24877780Y22223409D01*
X25020638Y22128171D01*
X25115876Y22032933D01*
X25163495Y21937695D01*
X25877780Y23461504D02*
X25877780Y22890076D01*
X25877780Y23175790D02*
X24877780Y23175790D01*
X25020638Y23080552D01*
X25115876Y22985314D01*
X25163495Y22890076D01*
%TO.C,C12*%
X28017742Y21505942D02*
X28065361Y21458323D01*
X28112980Y21315466D01*
X28112980Y21220228D01*
X28065361Y21077371D01*
X27970123Y20982133D01*
X27874885Y20934514D01*
X27684409Y20886895D01*
X27541552Y20886895D01*
X27351076Y20934514D01*
X27255838Y20982133D01*
X27160600Y21077371D01*
X27112980Y21220228D01*
X27112980Y21315466D01*
X27160600Y21458323D01*
X27208219Y21505942D01*
X28112980Y22458323D02*
X28112980Y21886895D01*
X28112980Y22172609D02*
X27112980Y22172609D01*
X27255838Y22077371D01*
X27351076Y21982133D01*
X27398695Y21886895D01*
X27208219Y22839276D02*
X27160600Y22886895D01*
X27112980Y22982133D01*
X27112980Y23220228D01*
X27160600Y23315466D01*
X27208219Y23363085D01*
X27303457Y23410704D01*
X27398695Y23410704D01*
X27541552Y23363085D01*
X28112980Y22791657D01*
X28112980Y23410704D01*
%TO.C,C13*%
X23471142Y22140942D02*
X23518761Y22093323D01*
X23566380Y21950466D01*
X23566380Y21855228D01*
X23518761Y21712371D01*
X23423523Y21617133D01*
X23328285Y21569514D01*
X23137809Y21521895D01*
X22994952Y21521895D01*
X22804476Y21569514D01*
X22709238Y21617133D01*
X22614000Y21712371D01*
X22566380Y21855228D01*
X22566380Y21950466D01*
X22614000Y22093323D01*
X22661619Y22140942D01*
X23566380Y23093323D02*
X23566380Y22521895D01*
X23566380Y22807609D02*
X22566380Y22807609D01*
X22709238Y22712371D01*
X22804476Y22617133D01*
X22852095Y22521895D01*
X22566380Y23426657D02*
X22566380Y24045704D01*
X22947333Y23712371D01*
X22947333Y23855228D01*
X22994952Y23950466D01*
X23042571Y23998085D01*
X23137809Y24045704D01*
X23375904Y24045704D01*
X23471142Y23998085D01*
X23518761Y23950466D01*
X23566380Y23855228D01*
X23566380Y23569514D01*
X23518761Y23474276D01*
X23471142Y23426657D01*
%TO.C,J2*%
X54276666Y55161619D02*
X54276666Y54447333D01*
X54229047Y54304476D01*
X54133809Y54209238D01*
X53990952Y54161619D01*
X53895714Y54161619D01*
X54705238Y55066380D02*
X54752857Y55114000D01*
X54848095Y55161619D01*
X55086190Y55161619D01*
X55181428Y55114000D01*
X55229047Y55066380D01*
X55276666Y54971142D01*
X55276666Y54875904D01*
X55229047Y54733047D01*
X54657619Y54161619D01*
X55276666Y54161619D01*
%TO.C,J4*%
X11350666Y54693619D02*
X11350666Y53979333D01*
X11303047Y53836476D01*
X11207809Y53741238D01*
X11064952Y53693619D01*
X10969714Y53693619D01*
X12255428Y54360285D02*
X12255428Y53693619D01*
X12017333Y54741238D02*
X11779238Y54026952D01*
X12398285Y54026952D01*
%TO.C,L1*%
X25995333Y52836819D02*
X25519142Y52836819D01*
X25519142Y53836819D01*
X26852476Y52836819D02*
X26281047Y52836819D01*
X26566761Y52836819D02*
X26566761Y53836819D01*
X26471523Y53693961D01*
X26376285Y53598723D01*
X26281047Y53551104D01*
%TO.C,LED1*%
X23566380Y17549952D02*
X23566380Y17073761D01*
X22566380Y17073761D01*
X23042571Y17883285D02*
X23042571Y18216619D01*
X23566380Y18359476D02*
X23566380Y17883285D01*
X22566380Y17883285D01*
X22566380Y18359476D01*
X23566380Y18788047D02*
X22566380Y18788047D01*
X22566380Y19026142D01*
X22614000Y19169000D01*
X22709238Y19264238D01*
X22804476Y19311857D01*
X22994952Y19359476D01*
X23137809Y19359476D01*
X23328285Y19311857D01*
X23423523Y19264238D01*
X23518761Y19169000D01*
X23566380Y19026142D01*
X23566380Y18788047D01*
X23566380Y20311857D02*
X23566380Y19740428D01*
X23566380Y20026142D02*
X22566380Y20026142D01*
X22709238Y19930904D01*
X22804476Y19835666D01*
X22852095Y19740428D01*
%TO.C,LED2*%
X38377952Y42791119D02*
X37901761Y42791119D01*
X37901761Y43791119D01*
X38711285Y43314928D02*
X39044619Y43314928D01*
X39187476Y42791119D02*
X38711285Y42791119D01*
X38711285Y43791119D01*
X39187476Y43791119D01*
X39616047Y42791119D02*
X39616047Y43791119D01*
X39854142Y43791119D01*
X39997000Y43743500D01*
X40092238Y43648261D01*
X40139857Y43553023D01*
X40187476Y43362547D01*
X40187476Y43219690D01*
X40139857Y43029214D01*
X40092238Y42933976D01*
X39997000Y42838738D01*
X39854142Y42791119D01*
X39616047Y42791119D01*
X40568428Y43695880D02*
X40616047Y43743500D01*
X40711285Y43791119D01*
X40949380Y43791119D01*
X41044619Y43743500D01*
X41092238Y43695880D01*
X41139857Y43600642D01*
X41139857Y43505404D01*
X41092238Y43362547D01*
X40520809Y42791119D01*
X41139857Y42791119D01*
%TO.C,Q1*%
X45878761Y16470380D02*
X45783523Y16518000D01*
X45688285Y16613238D01*
X45545428Y16756095D01*
X45450190Y16803714D01*
X45354952Y16803714D01*
X45402571Y16565619D02*
X45307333Y16613238D01*
X45212095Y16708476D01*
X45164476Y16898952D01*
X45164476Y17232285D01*
X45212095Y17422761D01*
X45307333Y17518000D01*
X45402571Y17565619D01*
X45593047Y17565619D01*
X45688285Y17518000D01*
X45783523Y17422761D01*
X45831142Y17232285D01*
X45831142Y16898952D01*
X45783523Y16708476D01*
X45688285Y16613238D01*
X45593047Y16565619D01*
X45402571Y16565619D01*
X46783523Y16565619D02*
X46212095Y16565619D01*
X46497809Y16565619D02*
X46497809Y17565619D01*
X46402571Y17422761D01*
X46307333Y17327523D01*
X46212095Y17279904D01*
%TO.C,R1*%
X47077333Y41711619D02*
X46744000Y42187809D01*
X46505904Y41711619D02*
X46505904Y42711619D01*
X46886857Y42711619D01*
X46982095Y42664000D01*
X47029714Y42616380D01*
X47077333Y42521142D01*
X47077333Y42378285D01*
X47029714Y42283047D01*
X46982095Y42235428D01*
X46886857Y42187809D01*
X46505904Y42187809D01*
X48029714Y41711619D02*
X47458285Y41711619D01*
X47744000Y41711619D02*
X47744000Y42711619D01*
X47648761Y42568761D01*
X47553523Y42473523D01*
X47458285Y42425904D01*
%TO.C,R2*%
X44918333Y41711619D02*
X44585000Y42187809D01*
X44346904Y41711619D02*
X44346904Y42711619D01*
X44727857Y42711619D01*
X44823095Y42664000D01*
X44870714Y42616380D01*
X44918333Y42521142D01*
X44918333Y42378285D01*
X44870714Y42283047D01*
X44823095Y42235428D01*
X44727857Y42187809D01*
X44346904Y42187809D01*
X45299285Y42616380D02*
X45346904Y42664000D01*
X45442142Y42711619D01*
X45680238Y42711619D01*
X45775476Y42664000D01*
X45823095Y42616380D01*
X45870714Y42521142D01*
X45870714Y42425904D01*
X45823095Y42283047D01*
X45251666Y41711619D01*
X45870714Y41711619D01*
%TO.C,R3*%
X27265333Y17200619D02*
X26932000Y17676809D01*
X26693904Y17200619D02*
X26693904Y18200619D01*
X27074857Y18200619D01*
X27170095Y18153000D01*
X27217714Y18105380D01*
X27265333Y18010142D01*
X27265333Y17867285D01*
X27217714Y17772047D01*
X27170095Y17724428D01*
X27074857Y17676809D01*
X26693904Y17676809D01*
X27598666Y18200619D02*
X28217714Y18200619D01*
X27884380Y17819666D01*
X28027238Y17819666D01*
X28122476Y17772047D01*
X28170095Y17724428D01*
X28217714Y17629190D01*
X28217714Y17391095D01*
X28170095Y17295857D01*
X28122476Y17248238D01*
X28027238Y17200619D01*
X27741523Y17200619D01*
X27646285Y17248238D01*
X27598666Y17295857D01*
%TO.C,R4*%
X26503333Y11485619D02*
X26170000Y11961809D01*
X25931904Y11485619D02*
X25931904Y12485619D01*
X26312857Y12485619D01*
X26408095Y12438000D01*
X26455714Y12390380D01*
X26503333Y12295142D01*
X26503333Y12152285D01*
X26455714Y12057047D01*
X26408095Y12009428D01*
X26312857Y11961809D01*
X25931904Y11961809D01*
X27360476Y12152285D02*
X27360476Y11485619D01*
X27122380Y12533238D02*
X26884285Y11818952D01*
X27503333Y11818952D01*
%TO.C,R5*%
X33361333Y17835619D02*
X33028000Y18311809D01*
X32789904Y17835619D02*
X32789904Y18835619D01*
X33170857Y18835619D01*
X33266095Y18788000D01*
X33313714Y18740380D01*
X33361333Y18645142D01*
X33361333Y18502285D01*
X33313714Y18407047D01*
X33266095Y18359428D01*
X33170857Y18311809D01*
X32789904Y18311809D01*
X34266095Y18835619D02*
X33789904Y18835619D01*
X33742285Y18359428D01*
X33789904Y18407047D01*
X33885142Y18454666D01*
X34123238Y18454666D01*
X34218476Y18407047D01*
X34266095Y18359428D01*
X34313714Y18264190D01*
X34313714Y18026095D01*
X34266095Y17930857D01*
X34218476Y17883238D01*
X34123238Y17835619D01*
X33885142Y17835619D01*
X33789904Y17883238D01*
X33742285Y17930857D01*
%TO.C,R6*%
X45130980Y6894533D02*
X44654790Y6561200D01*
X45130980Y6323104D02*
X44130980Y6323104D01*
X44130980Y6704057D01*
X44178600Y6799295D01*
X44226219Y6846914D01*
X44321457Y6894533D01*
X44464314Y6894533D01*
X44559552Y6846914D01*
X44607171Y6799295D01*
X44654790Y6704057D01*
X44654790Y6323104D01*
X44130980Y7751676D02*
X44130980Y7561200D01*
X44178600Y7465961D01*
X44226219Y7418342D01*
X44369076Y7323104D01*
X44559552Y7275485D01*
X44940504Y7275485D01*
X45035742Y7323104D01*
X45083361Y7370723D01*
X45130980Y7465961D01*
X45130980Y7656438D01*
X45083361Y7751676D01*
X45035742Y7799295D01*
X44940504Y7846914D01*
X44702409Y7846914D01*
X44607171Y7799295D01*
X44559552Y7751676D01*
X44511933Y7656438D01*
X44511933Y7465961D01*
X44559552Y7370723D01*
X44607171Y7323104D01*
X44702409Y7275485D01*
%TO.C,R7*%
X6132533Y16514819D02*
X5799200Y16991009D01*
X5561104Y16514819D02*
X5561104Y17514819D01*
X5942057Y17514819D01*
X6037295Y17467200D01*
X6084914Y17419580D01*
X6132533Y17324342D01*
X6132533Y17181485D01*
X6084914Y17086247D01*
X6037295Y17038628D01*
X5942057Y16991009D01*
X5561104Y16991009D01*
X6465866Y17514819D02*
X7132533Y17514819D01*
X6703961Y16514819D01*
%TO.C,R8*%
X23709333Y57967619D02*
X23376000Y58443809D01*
X23137904Y57967619D02*
X23137904Y58967619D01*
X23518857Y58967619D01*
X23614095Y58920000D01*
X23661714Y58872380D01*
X23709333Y58777142D01*
X23709333Y58634285D01*
X23661714Y58539047D01*
X23614095Y58491428D01*
X23518857Y58443809D01*
X23137904Y58443809D01*
X24280761Y58539047D02*
X24185523Y58586666D01*
X24137904Y58634285D01*
X24090285Y58729523D01*
X24090285Y58777142D01*
X24137904Y58872380D01*
X24185523Y58920000D01*
X24280761Y58967619D01*
X24471238Y58967619D01*
X24566476Y58920000D01*
X24614095Y58872380D01*
X24661714Y58777142D01*
X24661714Y58729523D01*
X24614095Y58634285D01*
X24566476Y58586666D01*
X24471238Y58539047D01*
X24280761Y58539047D01*
X24185523Y58491428D01*
X24137904Y58443809D01*
X24090285Y58348571D01*
X24090285Y58158095D01*
X24137904Y58062857D01*
X24185523Y58015238D01*
X24280761Y57967619D01*
X24471238Y57967619D01*
X24566476Y58015238D01*
X24614095Y58062857D01*
X24661714Y58158095D01*
X24661714Y58348571D01*
X24614095Y58443809D01*
X24566476Y58491428D01*
X24471238Y58539047D01*
%TO.C,R9*%
X18756333Y61015619D02*
X18423000Y61491809D01*
X18184904Y61015619D02*
X18184904Y62015619D01*
X18565857Y62015619D01*
X18661095Y61968000D01*
X18708714Y61920380D01*
X18756333Y61825142D01*
X18756333Y61682285D01*
X18708714Y61587047D01*
X18661095Y61539428D01*
X18565857Y61491809D01*
X18184904Y61491809D01*
X19232523Y61015619D02*
X19423000Y61015619D01*
X19518238Y61063238D01*
X19565857Y61110857D01*
X19661095Y61253714D01*
X19708714Y61444190D01*
X19708714Y61825142D01*
X19661095Y61920380D01*
X19613476Y61968000D01*
X19518238Y62015619D01*
X19327761Y62015619D01*
X19232523Y61968000D01*
X19184904Y61920380D01*
X19137285Y61825142D01*
X19137285Y61587047D01*
X19184904Y61491809D01*
X19232523Y61444190D01*
X19327761Y61396571D01*
X19518238Y61396571D01*
X19613476Y61444190D01*
X19661095Y61491809D01*
X19708714Y61587047D01*
%TO.C,R10*%
X20264380Y17657842D02*
X19788190Y17324509D01*
X20264380Y17086414D02*
X19264380Y17086414D01*
X19264380Y17467366D01*
X19312000Y17562604D01*
X19359619Y17610223D01*
X19454857Y17657842D01*
X19597714Y17657842D01*
X19692952Y17610223D01*
X19740571Y17562604D01*
X19788190Y17467366D01*
X19788190Y17086414D01*
X20264380Y18610223D02*
X20264380Y18038795D01*
X20264380Y18324509D02*
X19264380Y18324509D01*
X19407238Y18229271D01*
X19502476Y18134033D01*
X19550095Y18038795D01*
X19264380Y19229271D02*
X19264380Y19324509D01*
X19312000Y19419747D01*
X19359619Y19467366D01*
X19454857Y19514985D01*
X19645333Y19562604D01*
X19883428Y19562604D01*
X20073904Y19514985D01*
X20169142Y19467366D01*
X20216761Y19419747D01*
X20264380Y19324509D01*
X20264380Y19229271D01*
X20216761Y19134033D01*
X20169142Y19086414D01*
X20073904Y19038795D01*
X19883428Y18991176D01*
X19645333Y18991176D01*
X19454857Y19038795D01*
X19359619Y19086414D01*
X19312000Y19134033D01*
X19264380Y19229271D01*
%TO.C,R11*%
X56075379Y6469142D02*
X55599189Y6135809D01*
X56075379Y5897714D02*
X55075379Y5897714D01*
X55075379Y6278666D01*
X55122999Y6373904D01*
X55170618Y6421523D01*
X55265856Y6469142D01*
X55408713Y6469142D01*
X55503951Y6421523D01*
X55551570Y6373904D01*
X55599189Y6278666D01*
X55599189Y5897714D01*
X56075379Y7421523D02*
X56075379Y6850095D01*
X56075379Y7135809D02*
X55075379Y7135809D01*
X55218237Y7040571D01*
X55313475Y6945333D01*
X55361094Y6850095D01*
X56075379Y8373904D02*
X56075379Y7802476D01*
X56075379Y8088190D02*
X55075379Y8088190D01*
X55218237Y7992952D01*
X55313475Y7897714D01*
X55361094Y7802476D01*
%TO.C,R12*%
X54046380Y6469142D02*
X53570190Y6135809D01*
X54046380Y5897714D02*
X53046380Y5897714D01*
X53046380Y6278666D01*
X53094000Y6373904D01*
X53141619Y6421523D01*
X53236857Y6469142D01*
X53379714Y6469142D01*
X53474952Y6421523D01*
X53522571Y6373904D01*
X53570190Y6278666D01*
X53570190Y5897714D01*
X54046380Y7421523D02*
X54046380Y6850095D01*
X54046380Y7135809D02*
X53046380Y7135809D01*
X53189238Y7040571D01*
X53284476Y6945333D01*
X53332095Y6850095D01*
X53141619Y7802476D02*
X53094000Y7850095D01*
X53046380Y7945333D01*
X53046380Y8183428D01*
X53094000Y8278666D01*
X53141619Y8326285D01*
X53236857Y8373904D01*
X53332095Y8373904D01*
X53474952Y8326285D01*
X54046380Y7754857D01*
X54046380Y8373904D01*
%TO.C,R13*%
X37409380Y38092142D02*
X36933190Y37758809D01*
X37409380Y37520714D02*
X36409380Y37520714D01*
X36409380Y37901666D01*
X36457000Y37996904D01*
X36504619Y38044523D01*
X36599857Y38092142D01*
X36742714Y38092142D01*
X36837952Y38044523D01*
X36885571Y37996904D01*
X36933190Y37901666D01*
X36933190Y37520714D01*
X37409380Y39044523D02*
X37409380Y38473095D01*
X37409380Y38758809D02*
X36409380Y38758809D01*
X36552238Y38663571D01*
X36647476Y38568333D01*
X36695095Y38473095D01*
X36409380Y39377857D02*
X36409380Y39996904D01*
X36790333Y39663571D01*
X36790333Y39806428D01*
X36837952Y39901666D01*
X36885571Y39949285D01*
X36980809Y39996904D01*
X37218904Y39996904D01*
X37314142Y39949285D01*
X37361761Y39901666D01*
X37409380Y39806428D01*
X37409380Y39520714D01*
X37361761Y39425476D01*
X37314142Y39377857D01*
%TO.C,R14*%
X44315142Y55884819D02*
X43981809Y56361009D01*
X43743714Y55884819D02*
X43743714Y56884819D01*
X44124666Y56884819D01*
X44219904Y56837200D01*
X44267523Y56789580D01*
X44315142Y56694342D01*
X44315142Y56551485D01*
X44267523Y56456247D01*
X44219904Y56408628D01*
X44124666Y56361009D01*
X43743714Y56361009D01*
X45267523Y55884819D02*
X44696095Y55884819D01*
X44981809Y55884819D02*
X44981809Y56884819D01*
X44886571Y56741961D01*
X44791333Y56646723D01*
X44696095Y56599104D01*
X46124666Y56551485D02*
X46124666Y55884819D01*
X45886571Y56932438D02*
X45648476Y56218152D01*
X46267523Y56218152D01*
%TO.C,R15*%
X47769542Y55884819D02*
X47436209Y56361009D01*
X47198114Y55884819D02*
X47198114Y56884819D01*
X47579066Y56884819D01*
X47674304Y56837200D01*
X47721923Y56789580D01*
X47769542Y56694342D01*
X47769542Y56551485D01*
X47721923Y56456247D01*
X47674304Y56408628D01*
X47579066Y56361009D01*
X47198114Y56361009D01*
X48721923Y55884819D02*
X48150495Y55884819D01*
X48436209Y55884819D02*
X48436209Y56884819D01*
X48340971Y56741961D01*
X48245733Y56646723D01*
X48150495Y56599104D01*
X49626685Y56884819D02*
X49150495Y56884819D01*
X49102876Y56408628D01*
X49150495Y56456247D01*
X49245733Y56503866D01*
X49483828Y56503866D01*
X49579066Y56456247D01*
X49626685Y56408628D01*
X49674304Y56313390D01*
X49674304Y56075295D01*
X49626685Y55980057D01*
X49579066Y55932438D01*
X49483828Y55884819D01*
X49245733Y55884819D01*
X49150495Y55932438D01*
X49102876Y55980057D01*
%TO.C,R17*%
X3551180Y45889942D02*
X3074990Y45556609D01*
X3551180Y45318514D02*
X2551180Y45318514D01*
X2551180Y45699466D01*
X2598800Y45794704D01*
X2646419Y45842323D01*
X2741657Y45889942D01*
X2884514Y45889942D01*
X2979752Y45842323D01*
X3027371Y45794704D01*
X3074990Y45699466D01*
X3074990Y45318514D01*
X3551180Y46842323D02*
X3551180Y46270895D01*
X3551180Y46556609D02*
X2551180Y46556609D01*
X2694038Y46461371D01*
X2789276Y46366133D01*
X2836895Y46270895D01*
X2551180Y47175657D02*
X2551180Y47842323D01*
X3551180Y47413752D01*
%TO.C,R18*%
X67177180Y45889942D02*
X66700990Y45556609D01*
X67177180Y45318514D02*
X66177180Y45318514D01*
X66177180Y45699466D01*
X66224800Y45794704D01*
X66272419Y45842323D01*
X66367657Y45889942D01*
X66510514Y45889942D01*
X66605752Y45842323D01*
X66653371Y45794704D01*
X66700990Y45699466D01*
X66700990Y45318514D01*
X67177180Y46842323D02*
X67177180Y46270895D01*
X67177180Y46556609D02*
X66177180Y46556609D01*
X66320038Y46461371D01*
X66415276Y46366133D01*
X66462895Y46270895D01*
X66605752Y47413752D02*
X66558133Y47318514D01*
X66510514Y47270895D01*
X66415276Y47223276D01*
X66367657Y47223276D01*
X66272419Y47270895D01*
X66224800Y47318514D01*
X66177180Y47413752D01*
X66177180Y47604228D01*
X66224800Y47699466D01*
X66272419Y47747085D01*
X66367657Y47794704D01*
X66415276Y47794704D01*
X66510514Y47747085D01*
X66558133Y47699466D01*
X66605752Y47604228D01*
X66605752Y47413752D01*
X66653371Y47318514D01*
X66700990Y47270895D01*
X66796228Y47223276D01*
X66986704Y47223276D01*
X67081942Y47270895D01*
X67129561Y47318514D01*
X67177180Y47413752D01*
X67177180Y47604228D01*
X67129561Y47699466D01*
X67081942Y47747085D01*
X66986704Y47794704D01*
X66796228Y47794704D01*
X66700990Y47747085D01*
X66653371Y47699466D01*
X66605752Y47604228D01*
%TO.C,R19*%
X39743142Y36250619D02*
X39409809Y36726809D01*
X39171714Y36250619D02*
X39171714Y37250619D01*
X39552666Y37250619D01*
X39647904Y37203000D01*
X39695523Y37155380D01*
X39743142Y37060142D01*
X39743142Y36917285D01*
X39695523Y36822047D01*
X39647904Y36774428D01*
X39552666Y36726809D01*
X39171714Y36726809D01*
X40695523Y36250619D02*
X40124095Y36250619D01*
X40409809Y36250619D02*
X40409809Y37250619D01*
X40314571Y37107761D01*
X40219333Y37012523D01*
X40124095Y36964904D01*
X41171714Y36250619D02*
X41362190Y36250619D01*
X41457428Y36298238D01*
X41505047Y36345857D01*
X41600285Y36488714D01*
X41647904Y36679190D01*
X41647904Y37060142D01*
X41600285Y37155380D01*
X41552666Y37203000D01*
X41457428Y37250619D01*
X41266952Y37250619D01*
X41171714Y37203000D01*
X41124095Y37155380D01*
X41076476Y37060142D01*
X41076476Y36822047D01*
X41124095Y36726809D01*
X41171714Y36679190D01*
X41266952Y36631571D01*
X41457428Y36631571D01*
X41552666Y36679190D01*
X41600285Y36726809D01*
X41647904Y36822047D01*
%TO.C,R20*%
X17457680Y17721342D02*
X16981490Y17388009D01*
X17457680Y17149914D02*
X16457680Y17149914D01*
X16457680Y17530866D01*
X16505300Y17626104D01*
X16552919Y17673723D01*
X16648157Y17721342D01*
X16791014Y17721342D01*
X16886252Y17673723D01*
X16933871Y17626104D01*
X16981490Y17530866D01*
X16981490Y17149914D01*
X16552919Y18102295D02*
X16505300Y18149914D01*
X16457680Y18245152D01*
X16457680Y18483247D01*
X16505300Y18578485D01*
X16552919Y18626104D01*
X16648157Y18673723D01*
X16743395Y18673723D01*
X16886252Y18626104D01*
X17457680Y18054676D01*
X17457680Y18673723D01*
X16457680Y19292771D02*
X16457680Y19388009D01*
X16505300Y19483247D01*
X16552919Y19530866D01*
X16648157Y19578485D01*
X16838633Y19626104D01*
X17076728Y19626104D01*
X17267204Y19578485D01*
X17362442Y19530866D01*
X17410061Y19483247D01*
X17457680Y19388009D01*
X17457680Y19292771D01*
X17410061Y19197533D01*
X17362442Y19149914D01*
X17267204Y19102295D01*
X17076728Y19054676D01*
X16838633Y19054676D01*
X16648157Y19102295D01*
X16552919Y19149914D01*
X16505300Y19197533D01*
X16457680Y19292771D01*
%TO.C,S1*%
X34290095Y11939638D02*
X34432952Y11892019D01*
X34671047Y11892019D01*
X34766285Y11939638D01*
X34813904Y11987257D01*
X34861523Y12082495D01*
X34861523Y12177733D01*
X34813904Y12272971D01*
X34766285Y12320590D01*
X34671047Y12368209D01*
X34480571Y12415828D01*
X34385333Y12463447D01*
X34337714Y12511066D01*
X34290095Y12606304D01*
X34290095Y12701542D01*
X34337714Y12796780D01*
X34385333Y12844400D01*
X34480571Y12892019D01*
X34718666Y12892019D01*
X34861523Y12844400D01*
X35813904Y11892019D02*
X35242476Y11892019D01*
X35528190Y11892019D02*
X35528190Y12892019D01*
X35432952Y12749161D01*
X35337714Y12653923D01*
X35242476Y12606304D01*
%TO.C,S2*%
X11176095Y63222238D02*
X11318952Y63174619D01*
X11557047Y63174619D01*
X11652285Y63222238D01*
X11699904Y63269857D01*
X11747523Y63365095D01*
X11747523Y63460333D01*
X11699904Y63555571D01*
X11652285Y63603190D01*
X11557047Y63650809D01*
X11366571Y63698428D01*
X11271333Y63746047D01*
X11223714Y63793666D01*
X11176095Y63888904D01*
X11176095Y63984142D01*
X11223714Y64079380D01*
X11271333Y64127000D01*
X11366571Y64174619D01*
X11604666Y64174619D01*
X11747523Y64127000D01*
X12128476Y64079380D02*
X12176095Y64127000D01*
X12271333Y64174619D01*
X12509428Y64174619D01*
X12604666Y64127000D01*
X12652285Y64079380D01*
X12699904Y63984142D01*
X12699904Y63888904D01*
X12652285Y63746047D01*
X12080857Y63174619D01*
X12699904Y63174619D01*
%TO.C,S3*%
X38798595Y48807738D02*
X38941452Y48760119D01*
X39179547Y48760119D01*
X39274785Y48807738D01*
X39322404Y48855357D01*
X39370023Y48950595D01*
X39370023Y49045833D01*
X39322404Y49141071D01*
X39274785Y49188690D01*
X39179547Y49236309D01*
X38989071Y49283928D01*
X38893833Y49331547D01*
X38846214Y49379166D01*
X38798595Y49474404D01*
X38798595Y49569642D01*
X38846214Y49664880D01*
X38893833Y49712500D01*
X38989071Y49760119D01*
X39227166Y49760119D01*
X39370023Y49712500D01*
X39703357Y49760119D02*
X40322404Y49760119D01*
X39989071Y49379166D01*
X40131928Y49379166D01*
X40227166Y49331547D01*
X40274785Y49283928D01*
X40322404Y49188690D01*
X40322404Y48950595D01*
X40274785Y48855357D01*
X40227166Y48807738D01*
X40131928Y48760119D01*
X39846214Y48760119D01*
X39750976Y48807738D01*
X39703357Y48855357D01*
%TO.C,S4*%
X17526095Y28551238D02*
X17668952Y28503619D01*
X17907047Y28503619D01*
X18002285Y28551238D01*
X18049904Y28598857D01*
X18097523Y28694095D01*
X18097523Y28789333D01*
X18049904Y28884571D01*
X18002285Y28932190D01*
X17907047Y28979809D01*
X17716571Y29027428D01*
X17621333Y29075047D01*
X17573714Y29122666D01*
X17526095Y29217904D01*
X17526095Y29313142D01*
X17573714Y29408380D01*
X17621333Y29456000D01*
X17716571Y29503619D01*
X17954666Y29503619D01*
X18097523Y29456000D01*
X18954666Y29170285D02*
X18954666Y28503619D01*
X18716571Y29551238D02*
X18478476Y28836952D01*
X19097523Y28836952D01*
%TO.C,TP1*%
X55888095Y17438619D02*
X56459523Y17438619D01*
X56173809Y16438619D02*
X56173809Y17438619D01*
X56792857Y16438619D02*
X56792857Y17438619D01*
X57173809Y17438619D01*
X57269047Y17391000D01*
X57316666Y17343380D01*
X57364285Y17248142D01*
X57364285Y17105285D01*
X57316666Y17010047D01*
X57269047Y16962428D01*
X57173809Y16914809D01*
X56792857Y16914809D01*
X58316666Y16438619D02*
X57745238Y16438619D01*
X58030952Y16438619D02*
X58030952Y17438619D01*
X57935714Y17295761D01*
X57840476Y17200523D01*
X57745238Y17152904D01*
%TO.C,TP3*%
X1976595Y29440119D02*
X2548023Y29440119D01*
X2262309Y28440119D02*
X2262309Y29440119D01*
X2881357Y28440119D02*
X2881357Y29440119D01*
X3262309Y29440119D01*
X3357547Y29392500D01*
X3405166Y29344880D01*
X3452785Y29249642D01*
X3452785Y29106785D01*
X3405166Y29011547D01*
X3357547Y28963928D01*
X3262309Y28916309D01*
X2881357Y28916309D01*
X3786119Y29440119D02*
X4405166Y29440119D01*
X4071833Y29059166D01*
X4214690Y29059166D01*
X4309928Y29011547D01*
X4357547Y28963928D01*
X4405166Y28868690D01*
X4405166Y28630595D01*
X4357547Y28535357D01*
X4309928Y28487738D01*
X4214690Y28440119D01*
X3928976Y28440119D01*
X3833738Y28487738D01*
X3786119Y28535357D01*
%TO.C,TP4*%
X11311095Y10656819D02*
X11882523Y10656819D01*
X11596809Y9656819D02*
X11596809Y10656819D01*
X12215857Y9656819D02*
X12215857Y10656819D01*
X12596809Y10656819D01*
X12692047Y10609200D01*
X12739666Y10561580D01*
X12787285Y10466342D01*
X12787285Y10323485D01*
X12739666Y10228247D01*
X12692047Y10180628D01*
X12596809Y10133009D01*
X12215857Y10133009D01*
X13644428Y10323485D02*
X13644428Y9656819D01*
X13406333Y10704438D02*
X13168238Y9990152D01*
X13787285Y9990152D01*
%TO.C,TP5*%
X21598095Y65825619D02*
X22169523Y65825619D01*
X21883809Y64825619D02*
X21883809Y65825619D01*
X22502857Y64825619D02*
X22502857Y65825619D01*
X22883809Y65825619D01*
X22979047Y65778000D01*
X23026666Y65730380D01*
X23074285Y65635142D01*
X23074285Y65492285D01*
X23026666Y65397047D01*
X22979047Y65349428D01*
X22883809Y65301809D01*
X22502857Y65301809D01*
X23979047Y65825619D02*
X23502857Y65825619D01*
X23455238Y65349428D01*
X23502857Y65397047D01*
X23598095Y65444666D01*
X23836190Y65444666D01*
X23931428Y65397047D01*
X23979047Y65349428D01*
X24026666Y65254190D01*
X24026666Y65016095D01*
X23979047Y64920857D01*
X23931428Y64873238D01*
X23836190Y64825619D01*
X23598095Y64825619D01*
X23502857Y64873238D01*
X23455238Y64920857D01*
%TO.C,TP6*%
X49182495Y63285619D02*
X49753923Y63285619D01*
X49468209Y62285619D02*
X49468209Y63285619D01*
X50087257Y62285619D02*
X50087257Y63285619D01*
X50468209Y63285619D01*
X50563447Y63238000D01*
X50611066Y63190380D01*
X50658685Y63095142D01*
X50658685Y62952285D01*
X50611066Y62857047D01*
X50563447Y62809428D01*
X50468209Y62761809D01*
X50087257Y62761809D01*
X51515828Y63285619D02*
X51325352Y63285619D01*
X51230114Y63238000D01*
X51182495Y63190380D01*
X51087257Y63047523D01*
X51039638Y62857047D01*
X51039638Y62476095D01*
X51087257Y62380857D01*
X51134876Y62333238D01*
X51230114Y62285619D01*
X51420590Y62285619D01*
X51515828Y62333238D01*
X51563447Y62380857D01*
X51611066Y62476095D01*
X51611066Y62714190D01*
X51563447Y62809428D01*
X51515828Y62857047D01*
X51420590Y62904666D01*
X51230114Y62904666D01*
X51134876Y62857047D01*
X51087257Y62809428D01*
X51039638Y62714190D01*
%TO.C,TP7*%
X33688495Y68187819D02*
X34259923Y68187819D01*
X33974209Y67187819D02*
X33974209Y68187819D01*
X34593257Y67187819D02*
X34593257Y68187819D01*
X34974209Y68187819D01*
X35069447Y68140200D01*
X35117066Y68092580D01*
X35164685Y67997342D01*
X35164685Y67854485D01*
X35117066Y67759247D01*
X35069447Y67711628D01*
X34974209Y67664009D01*
X34593257Y67664009D01*
X35498019Y68187819D02*
X36164685Y68187819D01*
X35736114Y67187819D01*
%TO.C,U3*%
X33553495Y29833819D02*
X33553495Y29024295D01*
X33601114Y28929057D01*
X33648733Y28881438D01*
X33743971Y28833819D01*
X33934447Y28833819D01*
X34029685Y28881438D01*
X34077304Y28929057D01*
X34124923Y29024295D01*
X34124923Y29833819D01*
X34505876Y29833819D02*
X35124923Y29833819D01*
X34791590Y29452866D01*
X34934447Y29452866D01*
X35029685Y29405247D01*
X35077304Y29357628D01*
X35124923Y29262390D01*
X35124923Y29024295D01*
X35077304Y28929057D01*
X35029685Y28881438D01*
X34934447Y28833819D01*
X34648733Y28833819D01*
X34553495Y28881438D01*
X34505876Y28929057D01*
%TO.C,BT1*%
X16740285Y2103428D02*
X16883142Y2055809D01*
X16930761Y2008190D01*
X16978380Y1912952D01*
X16978380Y1770095D01*
X16930761Y1674857D01*
X16883142Y1627238D01*
X16787904Y1579619D01*
X16406952Y1579619D01*
X16406952Y2579619D01*
X16740285Y2579619D01*
X16835523Y2532000D01*
X16883142Y2484380D01*
X16930761Y2389142D01*
X16930761Y2293904D01*
X16883142Y2198666D01*
X16835523Y2151047D01*
X16740285Y2103428D01*
X16406952Y2103428D01*
X17264095Y2579619D02*
X17835523Y2579619D01*
X17549809Y1579619D02*
X17549809Y2579619D01*
X18692666Y1579619D02*
X18121238Y1579619D01*
X18406952Y1579619D02*
X18406952Y2579619D01*
X18311714Y2436761D01*
X18216476Y2341523D01*
X18121238Y2293904D01*
%TO.C,S8*%
X34186095Y56491238D02*
X34328952Y56443619D01*
X34567047Y56443619D01*
X34662285Y56491238D01*
X34709904Y56538857D01*
X34757523Y56634095D01*
X34757523Y56729333D01*
X34709904Y56824571D01*
X34662285Y56872190D01*
X34567047Y56919809D01*
X34376571Y56967428D01*
X34281333Y57015047D01*
X34233714Y57062666D01*
X34186095Y57157904D01*
X34186095Y57253142D01*
X34233714Y57348380D01*
X34281333Y57396000D01*
X34376571Y57443619D01*
X34614666Y57443619D01*
X34757523Y57396000D01*
X35328952Y57015047D02*
X35233714Y57062666D01*
X35186095Y57110285D01*
X35138476Y57205523D01*
X35138476Y57253142D01*
X35186095Y57348380D01*
X35233714Y57396000D01*
X35328952Y57443619D01*
X35519428Y57443619D01*
X35614666Y57396000D01*
X35662285Y57348380D01*
X35709904Y57253142D01*
X35709904Y57205523D01*
X35662285Y57110285D01*
X35614666Y57062666D01*
X35519428Y57015047D01*
X35328952Y57015047D01*
X35233714Y56967428D01*
X35186095Y56919809D01*
X35138476Y56824571D01*
X35138476Y56634095D01*
X35186095Y56538857D01*
X35233714Y56491238D01*
X35328952Y56443619D01*
X35519428Y56443619D01*
X35614666Y56491238D01*
X35662285Y56538857D01*
X35709904Y56634095D01*
X35709904Y56824571D01*
X35662285Y56919809D01*
X35614666Y56967428D01*
X35519428Y57015047D01*
%TO.C,U1*%
X24130095Y6897619D02*
X24130095Y6088095D01*
X24177714Y5992857D01*
X24225333Y5945238D01*
X24320571Y5897619D01*
X24511047Y5897619D01*
X24606285Y5945238D01*
X24653904Y5992857D01*
X24701523Y6088095D01*
X24701523Y6897619D01*
X25701523Y5897619D02*
X25130095Y5897619D01*
X25415809Y5897619D02*
X25415809Y6897619D01*
X25320571Y6754761D01*
X25225333Y6659523D01*
X25130095Y6611904D01*
%TO.C,S6*%
X4238095Y43199238D02*
X4380952Y43151619D01*
X4619047Y43151619D01*
X4714285Y43199238D01*
X4761904Y43246857D01*
X4809523Y43342095D01*
X4809523Y43437333D01*
X4761904Y43532571D01*
X4714285Y43580190D01*
X4619047Y43627809D01*
X4428571Y43675428D01*
X4333333Y43723047D01*
X4285714Y43770666D01*
X4238095Y43865904D01*
X4238095Y43961142D01*
X4285714Y44056380D01*
X4333333Y44104000D01*
X4428571Y44151619D01*
X4666666Y44151619D01*
X4809523Y44104000D01*
X5666666Y44151619D02*
X5476190Y44151619D01*
X5380952Y44104000D01*
X5333333Y44056380D01*
X5238095Y43913523D01*
X5190476Y43723047D01*
X5190476Y43342095D01*
X5238095Y43246857D01*
X5285714Y43199238D01*
X5380952Y43151619D01*
X5571428Y43151619D01*
X5666666Y43199238D01*
X5714285Y43246857D01*
X5761904Y43342095D01*
X5761904Y43580190D01*
X5714285Y43675428D01*
X5666666Y43723047D01*
X5571428Y43770666D01*
X5380952Y43770666D01*
X5285714Y43723047D01*
X5238095Y43675428D01*
X5190476Y43580190D01*
%TO.C,S7*%
X64238095Y43199238D02*
X64380952Y43151619D01*
X64619047Y43151619D01*
X64714285Y43199238D01*
X64761904Y43246857D01*
X64809523Y43342095D01*
X64809523Y43437333D01*
X64761904Y43532571D01*
X64714285Y43580190D01*
X64619047Y43627809D01*
X64428571Y43675428D01*
X64333333Y43723047D01*
X64285714Y43770666D01*
X64238095Y43865904D01*
X64238095Y43961142D01*
X64285714Y44056380D01*
X64333333Y44104000D01*
X64428571Y44151619D01*
X64666666Y44151619D01*
X64809523Y44104000D01*
X65142857Y44151619D02*
X65809523Y44151619D01*
X65380952Y43151619D01*
%TD*%
M02*
