%TF.GenerationSoftware,KiCad,Pcbnew,(5.1.10)-1*%
%TF.CreationDate,2021-12-17T12:10:03-05:00*%
%TF.ProjectId,Chess-Timer-RevA,43686573-732d-4546-996d-65722d526576,rev?*%
%TF.SameCoordinates,Original*%
%TF.FileFunction,Soldermask,Bot*%
%TF.FilePolarity,Negative*%
%FSLAX46Y46*%
G04 Gerber Fmt 4.6, Leading zero omitted, Abs format (unit mm)*
G04 Created by KiCad (PCBNEW (5.1.10)-1) date 2021-12-17 12:10:03*
%MOMM*%
%LPD*%
G01*
G04 APERTURE LIST*
%ADD10C,2.600000*%
%ADD11C,6.400000*%
%ADD12C,2.000000*%
%ADD13C,1.700000*%
%ADD14R,1.700000X1.700000*%
%ADD15O,1.700000X1.700000*%
%ADD16C,1.524000*%
G04 APERTURE END LIST*
%TO.C,U4*%
G36*
G01*
X44500000Y27050000D02*
X39500000Y27050000D01*
G75*
G02*
X39450000Y27100000I0J50000D01*
G01*
X39450000Y27400000D01*
G75*
G02*
X39500000Y27450000I50000J0D01*
G01*
X44500000Y27450000D01*
G75*
G02*
X44550000Y27400000I0J-50000D01*
G01*
X44550000Y27100000D01*
G75*
G02*
X44500000Y27050000I-50000J0D01*
G01*
G37*
G36*
G01*
X44500000Y27550000D02*
X39500000Y27550000D01*
G75*
G02*
X39450000Y27600000I0J50000D01*
G01*
X39450000Y27900000D01*
G75*
G02*
X39500000Y27950000I50000J0D01*
G01*
X44500000Y27950000D01*
G75*
G02*
X44550000Y27900000I0J-50000D01*
G01*
X44550000Y27600000D01*
G75*
G02*
X44500000Y27550000I-50000J0D01*
G01*
G37*
G36*
G01*
X44500000Y28050000D02*
X39500000Y28050000D01*
G75*
G02*
X39450000Y28100000I0J50000D01*
G01*
X39450000Y28400000D01*
G75*
G02*
X39500000Y28450000I50000J0D01*
G01*
X44500000Y28450000D01*
G75*
G02*
X44550000Y28400000I0J-50000D01*
G01*
X44550000Y28100000D01*
G75*
G02*
X44500000Y28050000I-50000J0D01*
G01*
G37*
G36*
G01*
X44500000Y28550000D02*
X39500000Y28550000D01*
G75*
G02*
X39450000Y28600000I0J50000D01*
G01*
X39450000Y28900000D01*
G75*
G02*
X39500000Y28950000I50000J0D01*
G01*
X44500000Y28950000D01*
G75*
G02*
X44550000Y28900000I0J-50000D01*
G01*
X44550000Y28600000D01*
G75*
G02*
X44500000Y28550000I-50000J0D01*
G01*
G37*
G36*
G01*
X44500000Y29050000D02*
X39500000Y29050000D01*
G75*
G02*
X39450000Y29100000I0J50000D01*
G01*
X39450000Y29400000D01*
G75*
G02*
X39500000Y29450000I50000J0D01*
G01*
X44500000Y29450000D01*
G75*
G02*
X44550000Y29400000I0J-50000D01*
G01*
X44550000Y29100000D01*
G75*
G02*
X44500000Y29050000I-50000J0D01*
G01*
G37*
G36*
G01*
X44500000Y29550000D02*
X39500000Y29550000D01*
G75*
G02*
X39450000Y29600000I0J50000D01*
G01*
X39450000Y29900000D01*
G75*
G02*
X39500000Y29950000I50000J0D01*
G01*
X44500000Y29950000D01*
G75*
G02*
X44550000Y29900000I0J-50000D01*
G01*
X44550000Y29600000D01*
G75*
G02*
X44500000Y29550000I-50000J0D01*
G01*
G37*
G36*
G01*
X44500000Y30050000D02*
X39500000Y30050000D01*
G75*
G02*
X39450000Y30100000I0J50000D01*
G01*
X39450000Y30400000D01*
G75*
G02*
X39500000Y30450000I50000J0D01*
G01*
X44500000Y30450000D01*
G75*
G02*
X44550000Y30400000I0J-50000D01*
G01*
X44550000Y30100000D01*
G75*
G02*
X44500000Y30050000I-50000J0D01*
G01*
G37*
G36*
G01*
X44500000Y30550000D02*
X39500000Y30550000D01*
G75*
G02*
X39450000Y30600000I0J50000D01*
G01*
X39450000Y30900000D01*
G75*
G02*
X39500000Y30950000I50000J0D01*
G01*
X44500000Y30950000D01*
G75*
G02*
X44550000Y30900000I0J-50000D01*
G01*
X44550000Y30600000D01*
G75*
G02*
X44500000Y30550000I-50000J0D01*
G01*
G37*
G36*
G01*
X44500000Y31050000D02*
X39500000Y31050000D01*
G75*
G02*
X39450000Y31100000I0J50000D01*
G01*
X39450000Y31400000D01*
G75*
G02*
X39500000Y31450000I50000J0D01*
G01*
X44500000Y31450000D01*
G75*
G02*
X44550000Y31400000I0J-50000D01*
G01*
X44550000Y31100000D01*
G75*
G02*
X44500000Y31050000I-50000J0D01*
G01*
G37*
G36*
G01*
X44500000Y31550000D02*
X39500000Y31550000D01*
G75*
G02*
X39450000Y31600000I0J50000D01*
G01*
X39450000Y31900000D01*
G75*
G02*
X39500000Y31950000I50000J0D01*
G01*
X44500000Y31950000D01*
G75*
G02*
X44550000Y31900000I0J-50000D01*
G01*
X44550000Y31600000D01*
G75*
G02*
X44500000Y31550000I-50000J0D01*
G01*
G37*
G36*
G01*
X44500000Y32050000D02*
X39500000Y32050000D01*
G75*
G02*
X39450000Y32100000I0J50000D01*
G01*
X39450000Y32400000D01*
G75*
G02*
X39500000Y32450000I50000J0D01*
G01*
X44500000Y32450000D01*
G75*
G02*
X44550000Y32400000I0J-50000D01*
G01*
X44550000Y32100000D01*
G75*
G02*
X44500000Y32050000I-50000J0D01*
G01*
G37*
G36*
G01*
X44500000Y32550000D02*
X39500000Y32550000D01*
G75*
G02*
X39450000Y32600000I0J50000D01*
G01*
X39450000Y32900000D01*
G75*
G02*
X39500000Y32950000I50000J0D01*
G01*
X44500000Y32950000D01*
G75*
G02*
X44550000Y32900000I0J-50000D01*
G01*
X44550000Y32600000D01*
G75*
G02*
X44500000Y32550000I-50000J0D01*
G01*
G37*
G36*
G01*
X44500000Y33050000D02*
X39500000Y33050000D01*
G75*
G02*
X39450000Y33100000I0J50000D01*
G01*
X39450000Y33400000D01*
G75*
G02*
X39500000Y33450000I50000J0D01*
G01*
X44500000Y33450000D01*
G75*
G02*
X44550000Y33400000I0J-50000D01*
G01*
X44550000Y33100000D01*
G75*
G02*
X44500000Y33050000I-50000J0D01*
G01*
G37*
G36*
G01*
X44500000Y33550000D02*
X39500000Y33550000D01*
G75*
G02*
X39450000Y33600000I0J50000D01*
G01*
X39450000Y33900000D01*
G75*
G02*
X39500000Y33950000I50000J0D01*
G01*
X44500000Y33950000D01*
G75*
G02*
X44550000Y33900000I0J-50000D01*
G01*
X44550000Y33600000D01*
G75*
G02*
X44500000Y33550000I-50000J0D01*
G01*
G37*
G36*
G01*
X44500000Y34050000D02*
X39500000Y34050000D01*
G75*
G02*
X39450000Y34100000I0J50000D01*
G01*
X39450000Y34400000D01*
G75*
G02*
X39500000Y34450000I50000J0D01*
G01*
X44500000Y34450000D01*
G75*
G02*
X44550000Y34400000I0J-50000D01*
G01*
X44550000Y34100000D01*
G75*
G02*
X44500000Y34050000I-50000J0D01*
G01*
G37*
G36*
G01*
X44500000Y34550000D02*
X39500000Y34550000D01*
G75*
G02*
X39450000Y34600000I0J50000D01*
G01*
X39450000Y34900000D01*
G75*
G02*
X39500000Y34950000I50000J0D01*
G01*
X44500000Y34950000D01*
G75*
G02*
X44550000Y34900000I0J-50000D01*
G01*
X44550000Y34600000D01*
G75*
G02*
X44500000Y34550000I-50000J0D01*
G01*
G37*
G36*
G01*
X44500000Y35050000D02*
X39500000Y35050000D01*
G75*
G02*
X39450000Y35100000I0J50000D01*
G01*
X39450000Y35400000D01*
G75*
G02*
X39500000Y35450000I50000J0D01*
G01*
X44500000Y35450000D01*
G75*
G02*
X44550000Y35400000I0J-50000D01*
G01*
X44550000Y35100000D01*
G75*
G02*
X44500000Y35050000I-50000J0D01*
G01*
G37*
G36*
G01*
X44500000Y35550000D02*
X39500000Y35550000D01*
G75*
G02*
X39450000Y35600000I0J50000D01*
G01*
X39450000Y35900000D01*
G75*
G02*
X39500000Y35950000I50000J0D01*
G01*
X44500000Y35950000D01*
G75*
G02*
X44550000Y35900000I0J-50000D01*
G01*
X44550000Y35600000D01*
G75*
G02*
X44500000Y35550000I-50000J0D01*
G01*
G37*
G36*
G01*
X44500000Y36050000D02*
X39500000Y36050000D01*
G75*
G02*
X39450000Y36100000I0J50000D01*
G01*
X39450000Y36400000D01*
G75*
G02*
X39500000Y36450000I50000J0D01*
G01*
X44500000Y36450000D01*
G75*
G02*
X44550000Y36400000I0J-50000D01*
G01*
X44550000Y36100000D01*
G75*
G02*
X44500000Y36050000I-50000J0D01*
G01*
G37*
G36*
G01*
X44500000Y36550000D02*
X39500000Y36550000D01*
G75*
G02*
X39450000Y36600000I0J50000D01*
G01*
X39450000Y36900000D01*
G75*
G02*
X39500000Y36950000I50000J0D01*
G01*
X44500000Y36950000D01*
G75*
G02*
X44550000Y36900000I0J-50000D01*
G01*
X44550000Y36600000D01*
G75*
G02*
X44500000Y36550000I-50000J0D01*
G01*
G37*
G36*
G01*
X44500000Y46550000D02*
X39500000Y46550000D01*
G75*
G02*
X39450000Y46600000I0J50000D01*
G01*
X39450000Y46900000D01*
G75*
G02*
X39500000Y46950000I50000J0D01*
G01*
X44500000Y46950000D01*
G75*
G02*
X44550000Y46900000I0J-50000D01*
G01*
X44550000Y46600000D01*
G75*
G02*
X44500000Y46550000I-50000J0D01*
G01*
G37*
G36*
G01*
X44500000Y46050000D02*
X39500000Y46050000D01*
G75*
G02*
X39450000Y46100000I0J50000D01*
G01*
X39450000Y46400000D01*
G75*
G02*
X39500000Y46450000I50000J0D01*
G01*
X44500000Y46450000D01*
G75*
G02*
X44550000Y46400000I0J-50000D01*
G01*
X44550000Y46100000D01*
G75*
G02*
X44500000Y46050000I-50000J0D01*
G01*
G37*
G36*
G01*
X44500000Y45550000D02*
X39500000Y45550000D01*
G75*
G02*
X39450000Y45600000I0J50000D01*
G01*
X39450000Y45900000D01*
G75*
G02*
X39500000Y45950000I50000J0D01*
G01*
X44500000Y45950000D01*
G75*
G02*
X44550000Y45900000I0J-50000D01*
G01*
X44550000Y45600000D01*
G75*
G02*
X44500000Y45550000I-50000J0D01*
G01*
G37*
G36*
G01*
X44500000Y45050000D02*
X39500000Y45050000D01*
G75*
G02*
X39450000Y45100000I0J50000D01*
G01*
X39450000Y45400000D01*
G75*
G02*
X39500000Y45450000I50000J0D01*
G01*
X44500000Y45450000D01*
G75*
G02*
X44550000Y45400000I0J-50000D01*
G01*
X44550000Y45100000D01*
G75*
G02*
X44500000Y45050000I-50000J0D01*
G01*
G37*
G36*
G01*
X44500000Y44550000D02*
X39500000Y44550000D01*
G75*
G02*
X39450000Y44600000I0J50000D01*
G01*
X39450000Y44900000D01*
G75*
G02*
X39500000Y44950000I50000J0D01*
G01*
X44500000Y44950000D01*
G75*
G02*
X44550000Y44900000I0J-50000D01*
G01*
X44550000Y44600000D01*
G75*
G02*
X44500000Y44550000I-50000J0D01*
G01*
G37*
G36*
G01*
X44500000Y44050000D02*
X39500000Y44050000D01*
G75*
G02*
X39450000Y44100000I0J50000D01*
G01*
X39450000Y44400000D01*
G75*
G02*
X39500000Y44450000I50000J0D01*
G01*
X44500000Y44450000D01*
G75*
G02*
X44550000Y44400000I0J-50000D01*
G01*
X44550000Y44100000D01*
G75*
G02*
X44500000Y44050000I-50000J0D01*
G01*
G37*
G36*
G01*
X44500000Y43550000D02*
X39500000Y43550000D01*
G75*
G02*
X39450000Y43600000I0J50000D01*
G01*
X39450000Y43900000D01*
G75*
G02*
X39500000Y43950000I50000J0D01*
G01*
X44500000Y43950000D01*
G75*
G02*
X44550000Y43900000I0J-50000D01*
G01*
X44550000Y43600000D01*
G75*
G02*
X44500000Y43550000I-50000J0D01*
G01*
G37*
G36*
G01*
X44500000Y43050000D02*
X39500000Y43050000D01*
G75*
G02*
X39450000Y43100000I0J50000D01*
G01*
X39450000Y43400000D01*
G75*
G02*
X39500000Y43450000I50000J0D01*
G01*
X44500000Y43450000D01*
G75*
G02*
X44550000Y43400000I0J-50000D01*
G01*
X44550000Y43100000D01*
G75*
G02*
X44500000Y43050000I-50000J0D01*
G01*
G37*
G36*
G01*
X44500000Y42550000D02*
X39500000Y42550000D01*
G75*
G02*
X39450000Y42600000I0J50000D01*
G01*
X39450000Y42900000D01*
G75*
G02*
X39500000Y42950000I50000J0D01*
G01*
X44500000Y42950000D01*
G75*
G02*
X44550000Y42900000I0J-50000D01*
G01*
X44550000Y42600000D01*
G75*
G02*
X44500000Y42550000I-50000J0D01*
G01*
G37*
G36*
G01*
X44500000Y42050000D02*
X39500000Y42050000D01*
G75*
G02*
X39450000Y42100000I0J50000D01*
G01*
X39450000Y42400000D01*
G75*
G02*
X39500000Y42450000I50000J0D01*
G01*
X44500000Y42450000D01*
G75*
G02*
X44550000Y42400000I0J-50000D01*
G01*
X44550000Y42100000D01*
G75*
G02*
X44500000Y42050000I-50000J0D01*
G01*
G37*
G36*
G01*
X44500000Y41550000D02*
X39500000Y41550000D01*
G75*
G02*
X39450000Y41600000I0J50000D01*
G01*
X39450000Y41900000D01*
G75*
G02*
X39500000Y41950000I50000J0D01*
G01*
X44500000Y41950000D01*
G75*
G02*
X44550000Y41900000I0J-50000D01*
G01*
X44550000Y41600000D01*
G75*
G02*
X44500000Y41550000I-50000J0D01*
G01*
G37*
G36*
G01*
X44500000Y41050000D02*
X39500000Y41050000D01*
G75*
G02*
X39450000Y41100000I0J50000D01*
G01*
X39450000Y41400000D01*
G75*
G02*
X39500000Y41450000I50000J0D01*
G01*
X44500000Y41450000D01*
G75*
G02*
X44550000Y41400000I0J-50000D01*
G01*
X44550000Y41100000D01*
G75*
G02*
X44500000Y41050000I-50000J0D01*
G01*
G37*
G36*
G01*
X44500000Y40550000D02*
X39500000Y40550000D01*
G75*
G02*
X39450000Y40600000I0J50000D01*
G01*
X39450000Y40900000D01*
G75*
G02*
X39500000Y40950000I50000J0D01*
G01*
X44500000Y40950000D01*
G75*
G02*
X44550000Y40900000I0J-50000D01*
G01*
X44550000Y40600000D01*
G75*
G02*
X44500000Y40550000I-50000J0D01*
G01*
G37*
G36*
G01*
X44500000Y40050000D02*
X39500000Y40050000D01*
G75*
G02*
X39450000Y40100000I0J50000D01*
G01*
X39450000Y40400000D01*
G75*
G02*
X39500000Y40450000I50000J0D01*
G01*
X44500000Y40450000D01*
G75*
G02*
X44550000Y40400000I0J-50000D01*
G01*
X44550000Y40100000D01*
G75*
G02*
X44500000Y40050000I-50000J0D01*
G01*
G37*
G36*
G01*
X44500000Y39550000D02*
X39500000Y39550000D01*
G75*
G02*
X39450000Y39600000I0J50000D01*
G01*
X39450000Y39900000D01*
G75*
G02*
X39500000Y39950000I50000J0D01*
G01*
X44500000Y39950000D01*
G75*
G02*
X44550000Y39900000I0J-50000D01*
G01*
X44550000Y39600000D01*
G75*
G02*
X44500000Y39550000I-50000J0D01*
G01*
G37*
G36*
G01*
X44500000Y39050000D02*
X39500000Y39050000D01*
G75*
G02*
X39450000Y39100000I0J50000D01*
G01*
X39450000Y39400000D01*
G75*
G02*
X39500000Y39450000I50000J0D01*
G01*
X44500000Y39450000D01*
G75*
G02*
X44550000Y39400000I0J-50000D01*
G01*
X44550000Y39100000D01*
G75*
G02*
X44500000Y39050000I-50000J0D01*
G01*
G37*
G36*
G01*
X44500000Y38550000D02*
X39500000Y38550000D01*
G75*
G02*
X39450000Y38600000I0J50000D01*
G01*
X39450000Y38900000D01*
G75*
G02*
X39500000Y38950000I50000J0D01*
G01*
X44500000Y38950000D01*
G75*
G02*
X44550000Y38900000I0J-50000D01*
G01*
X44550000Y38600000D01*
G75*
G02*
X44500000Y38550000I-50000J0D01*
G01*
G37*
G36*
G01*
X44500000Y38050000D02*
X39500000Y38050000D01*
G75*
G02*
X39450000Y38100000I0J50000D01*
G01*
X39450000Y38400000D01*
G75*
G02*
X39500000Y38450000I50000J0D01*
G01*
X44500000Y38450000D01*
G75*
G02*
X44550000Y38400000I0J-50000D01*
G01*
X44550000Y38100000D01*
G75*
G02*
X44500000Y38050000I-50000J0D01*
G01*
G37*
G36*
G01*
X44500000Y37550000D02*
X39500000Y37550000D01*
G75*
G02*
X39450000Y37600000I0J50000D01*
G01*
X39450000Y37900000D01*
G75*
G02*
X39500000Y37950000I50000J0D01*
G01*
X44500000Y37950000D01*
G75*
G02*
X44550000Y37900000I0J-50000D01*
G01*
X44550000Y37600000D01*
G75*
G02*
X44500000Y37550000I-50000J0D01*
G01*
G37*
G36*
G01*
X44500000Y37050000D02*
X39500000Y37050000D01*
G75*
G02*
X39450000Y37100000I0J50000D01*
G01*
X39450000Y37400000D01*
G75*
G02*
X39500000Y37450000I50000J0D01*
G01*
X44500000Y37450000D01*
G75*
G02*
X44550000Y37400000I0J-50000D01*
G01*
X44550000Y37100000D01*
G75*
G02*
X44500000Y37050000I-50000J0D01*
G01*
G37*
%TD*%
D10*
%TO.C,TP9*%
X13208000Y16002000D03*
%TD*%
D11*
%TO.C,MT3*%
X64000000Y68250000D03*
%TD*%
%TO.C,MT4*%
X64000000Y5750000D03*
%TD*%
%TO.C,MT1*%
X6000000Y5750000D03*
%TD*%
%TO.C,MT2*%
X6000000Y68250000D03*
%TD*%
D12*
%TO.C,H7*%
X2794000Y58013600D03*
%TD*%
%TO.C,H3*%
X65227200Y52730400D03*
%TD*%
%TO.C,H2*%
X60604400Y59131200D03*
%TD*%
%TO.C,H1*%
X55321200Y64414400D03*
%TD*%
%TO.C,J2*%
G36*
G01*
X52490000Y47914000D02*
X52490000Y49114000D01*
G75*
G02*
X52740000Y49364000I250000J0D01*
G01*
X53940000Y49364000D01*
G75*
G02*
X54190000Y49114000I0J-250000D01*
G01*
X54190000Y47914000D01*
G75*
G02*
X53940000Y47664000I-250000J0D01*
G01*
X52740000Y47664000D01*
G75*
G02*
X52490000Y47914000I0J250000D01*
G01*
G37*
D13*
X53340000Y45974000D03*
X53340000Y43434000D03*
X53340000Y40894000D03*
X53340000Y38354000D03*
X53340000Y35814000D03*
X53340000Y33274000D03*
X53340000Y30734000D03*
X53340000Y28194000D03*
X53340000Y25654000D03*
X55880000Y48514000D03*
X55880000Y45974000D03*
X55880000Y43434000D03*
X55880000Y40894000D03*
X55880000Y38354000D03*
X55880000Y35814000D03*
X55880000Y33274000D03*
X55880000Y30734000D03*
X55880000Y28194000D03*
X55880000Y25654000D03*
%TD*%
D14*
%TO.C,J4*%
X10414000Y51816000D03*
D15*
X12954000Y51816000D03*
X10414000Y49276000D03*
X12954000Y49276000D03*
X10414000Y46736000D03*
X12954000Y46736000D03*
X10414000Y44196000D03*
X12954000Y44196000D03*
X10414000Y41656000D03*
X12954000Y41656000D03*
X10414000Y39116000D03*
X12954000Y39116000D03*
X10414000Y36576000D03*
X12954000Y36576000D03*
X10414000Y34036000D03*
X12954000Y34036000D03*
X10414000Y31496000D03*
X12954000Y31496000D03*
X10414000Y28956000D03*
X12954000Y28956000D03*
X10414000Y26416000D03*
X12954000Y26416000D03*
X10414000Y23876000D03*
X12954000Y23876000D03*
%TD*%
D10*
%TO.C,TP1*%
X53962300Y16878300D03*
%TD*%
%TO.C,TP3*%
X3302000Y26314400D03*
%TD*%
%TO.C,TP4*%
X12573000Y7569200D03*
%TD*%
%TO.C,TP5*%
X22860000Y62738000D03*
%TD*%
%TO.C,TP6*%
X47200000Y62738000D03*
%TD*%
%TO.C,TP7*%
X34950400Y65100200D03*
%TD*%
D16*
%TO.C,BT1*%
X22526000Y2794000D03*
X12526000Y2794000D03*
%TD*%
M02*
