%TF.GenerationSoftware,KiCad,Pcbnew,(5.1.10)-1*%
%TF.CreationDate,2021-12-17T12:10:03-05:00*%
%TF.ProjectId,Chess-Timer-RevA,43686573-732d-4546-996d-65722d526576,rev?*%
%TF.SameCoordinates,Original*%
%TF.FileFunction,Paste,Bot*%
%TF.FilePolarity,Positive*%
%FSLAX46Y46*%
G04 Gerber Fmt 4.6, Leading zero omitted, Abs format (unit mm)*
G04 Created by KiCad (PCBNEW (5.1.10)-1) date 2021-12-17 12:10:03*
%MOMM*%
%LPD*%
G01*
G04 APERTURE LIST*
%ADD10R,5.000000X0.300000*%
G04 APERTURE END LIST*
D10*
%TO.C,U4*%
X42000000Y27250000D03*
X42000000Y27750000D03*
X42000000Y28250000D03*
X42000000Y28750000D03*
X42000000Y29250000D03*
X42000000Y29750000D03*
X42000000Y30250000D03*
X42000000Y30750000D03*
X42000000Y31250000D03*
X42000000Y31750000D03*
X42000000Y32250000D03*
X42000000Y32750000D03*
X42000000Y33250000D03*
X42000000Y33750000D03*
X42000000Y34250000D03*
X42000000Y34750000D03*
X42000000Y35250000D03*
X42000000Y35750000D03*
X42000000Y36250000D03*
X42000000Y36750000D03*
X42000000Y46750000D03*
X42000000Y46250000D03*
X42000000Y45750000D03*
X42000000Y45250000D03*
X42000000Y44750000D03*
X42000000Y44250000D03*
X42000000Y43750000D03*
X42000000Y43250000D03*
X42000000Y42750000D03*
X42000000Y42250000D03*
X42000000Y41750000D03*
X42000000Y41250000D03*
X42000000Y40750000D03*
X42000000Y40250000D03*
X42000000Y39750000D03*
X42000000Y39250000D03*
X42000000Y38750000D03*
X42000000Y38250000D03*
X42000000Y37750000D03*
X42000000Y37250000D03*
%TD*%
M02*
