%TF.GenerationSoftware,KiCad,Pcbnew,(5.1.10)-1*%
%TF.CreationDate,2021-12-17T12:10:02-05:00*%
%TF.ProjectId,Chess-Timer-RevA,43686573-732d-4546-996d-65722d526576,rev?*%
%TF.SameCoordinates,Original*%
%TF.FileFunction,Copper,L3,Inr*%
%TF.FilePolarity,Positive*%
%FSLAX46Y46*%
G04 Gerber Fmt 4.6, Leading zero omitted, Abs format (unit mm)*
G04 Created by KiCad (PCBNEW (5.1.10)-1) date 2021-12-17 12:10:02*
%MOMM*%
%LPD*%
G01*
G04 APERTURE LIST*
%TA.AperFunction,ComponentPad*%
%ADD10C,2.600000*%
%TD*%
%TA.AperFunction,ComponentPad*%
%ADD11C,6.400000*%
%TD*%
%TA.AperFunction,ComponentPad*%
%ADD12C,2.000000*%
%TD*%
%TA.AperFunction,ComponentPad*%
%ADD13C,1.700000*%
%TD*%
%TA.AperFunction,ComponentPad*%
%ADD14R,1.700000X1.700000*%
%TD*%
%TA.AperFunction,ComponentPad*%
%ADD15O,1.700000X1.700000*%
%TD*%
%TA.AperFunction,ComponentPad*%
%ADD16C,1.524000*%
%TD*%
%TA.AperFunction,ViaPad*%
%ADD17C,0.800000*%
%TD*%
%TA.AperFunction,ViaPad*%
%ADD18C,0.600000*%
%TD*%
%TA.AperFunction,Conductor*%
%ADD19C,0.254000*%
%TD*%
%TA.AperFunction,Conductor*%
%ADD20C,0.100000*%
%TD*%
G04 APERTURE END LIST*
D10*
%TO.N,CHARGE_STAT*%
%TO.C,TP9*%
X13208000Y16002000D03*
%TD*%
D11*
%TO.N,N/C*%
%TO.C,MT3*%
X64000000Y68250000D03*
%TD*%
%TO.N,N/C*%
%TO.C,MT4*%
X64000000Y5750000D03*
%TD*%
%TO.N,N/C*%
%TO.C,MT1*%
X6000000Y5750000D03*
%TD*%
%TO.N,N/C*%
%TO.C,MT2*%
X6000000Y68250000D03*
%TD*%
D12*
%TO.N,GND*%
%TO.C,H7*%
X2794000Y58013600D03*
%TD*%
%TO.N,HSYNC*%
%TO.C,H3*%
X65227200Y52730400D03*
%TD*%
%TO.N,VSYNC*%
%TO.C,H2*%
X60604400Y59131200D03*
%TD*%
%TO.N,DE*%
%TO.C,H1*%
X55321200Y64414400D03*
%TD*%
%TO.N,+3V3*%
%TO.C,J2*%
%TA.AperFunction,ComponentPad*%
G36*
G01*
X52490000Y47914000D02*
X52490000Y49114000D01*
G75*
G02*
X52740000Y49364000I250000J0D01*
G01*
X53940000Y49364000D01*
G75*
G02*
X54190000Y49114000I0J-250000D01*
G01*
X54190000Y47914000D01*
G75*
G02*
X53940000Y47664000I-250000J0D01*
G01*
X52740000Y47664000D01*
G75*
G02*
X52490000Y47914000I0J250000D01*
G01*
G37*
%TD.AperFunction*%
D13*
%TO.N,Net-(J2-Pad3)*%
X53340000Y45974000D03*
%TO.N,Net-(J2-Pad5)*%
X53340000Y43434000D03*
%TO.N,SWDIO*%
X53340000Y40894000D03*
%TO.N,SWCLK*%
X53340000Y38354000D03*
%TO.N,Net-(J2-Pad11)*%
X53340000Y35814000D03*
%TO.N,SWO*%
X53340000Y33274000D03*
%TO.N,NRST*%
X53340000Y30734000D03*
%TO.N,Net-(J2-Pad17)*%
X53340000Y28194000D03*
%TO.N,+5V*%
X53340000Y25654000D03*
%TO.N,Net-(J2-Pad2)*%
X55880000Y48514000D03*
%TO.N,GND*%
X55880000Y45974000D03*
X55880000Y43434000D03*
X55880000Y40894000D03*
X55880000Y38354000D03*
X55880000Y35814000D03*
X55880000Y33274000D03*
X55880000Y30734000D03*
X55880000Y28194000D03*
X55880000Y25654000D03*
%TD*%
D14*
%TO.N,+3V3*%
%TO.C,J4*%
X10414000Y51816000D03*
D15*
X12954000Y51816000D03*
X10414000Y49276000D03*
X12954000Y49276000D03*
%TO.N,Net-(J4-Pad5)*%
X10414000Y46736000D03*
%TO.N,PB4*%
X12954000Y46736000D03*
%TO.N,PB8*%
X10414000Y44196000D03*
%TO.N,PB9*%
X12954000Y44196000D03*
%TO.N,PB6*%
X10414000Y41656000D03*
%TO.N,PB7*%
X12954000Y41656000D03*
%TO.N,GND*%
X10414000Y39116000D03*
X12954000Y39116000D03*
X10414000Y36576000D03*
X12954000Y36576000D03*
%TO.N,PC1*%
X10414000Y34036000D03*
%TO.N,PC0*%
X12954000Y34036000D03*
%TO.N,PC3*%
X10414000Y31496000D03*
%TO.N,PC2*%
X12954000Y31496000D03*
%TO.N,PB11*%
X10414000Y28956000D03*
%TO.N,PA0*%
X12954000Y28956000D03*
%TO.N,PC5*%
X10414000Y26416000D03*
%TO.N,PB10*%
X12954000Y26416000D03*
%TO.N,PB1*%
X10414000Y23876000D03*
%TO.N,PB2*%
X12954000Y23876000D03*
%TD*%
D10*
%TO.N,Net-(C1-Pad1)*%
%TO.C,TP1*%
X53962300Y16878300D03*
%TD*%
%TO.N,Net-(R7-Pad2)*%
%TO.C,TP3*%
X3302000Y26314400D03*
%TD*%
%TO.N,GND*%
%TO.C,TP4*%
X12573000Y7569200D03*
%TD*%
%TO.N,Net-(C3-Pad1)*%
%TO.C,TP5*%
X22860000Y62738000D03*
%TD*%
%TO.N,GND*%
%TO.C,TP6*%
X47200000Y62738000D03*
%TD*%
%TO.N,+3V3*%
%TO.C,TP7*%
X34950400Y65100200D03*
%TD*%
D16*
%TO.N,+BATT*%
%TO.C,BT1*%
X22526000Y2794000D03*
%TO.N,GND*%
X12526000Y2794000D03*
%TD*%
D17*
%TO.N,GND*%
X17627600Y20955000D03*
X26720800Y44792900D03*
X25908000Y44119800D03*
X19304000Y11938000D03*
X20574000Y11938000D03*
X21844000Y11938000D03*
X21844000Y10668000D03*
X30226000Y13716000D03*
X30226000Y12446000D03*
X30226000Y11176000D03*
X28448000Y12446000D03*
X28448000Y11176000D03*
X32867600Y15392400D03*
X30607000Y42037000D03*
X33147000Y42037000D03*
X25044400Y44767500D03*
X6263000Y57190000D03*
X23723600Y30734000D03*
X23876000Y36931600D03*
X37363400Y7924800D03*
X38557200Y7061200D03*
X39751000Y7874000D03*
X20574000Y40640000D03*
X31242000Y19812000D03*
X32893000Y38658800D03*
X25400000Y28702000D03*
X26974800Y28752800D03*
X45402500Y33401000D03*
X46990000Y43942000D03*
X38354000Y32664400D03*
X37185600Y31851600D03*
X35864800Y32715200D03*
X47599600Y46786800D03*
X48006000Y45364400D03*
X67614800Y37084000D03*
X65024000Y30734000D03*
X2438400Y32512000D03*
X2413000Y37338000D03*
X57099200Y2794000D03*
X21695493Y25302293D03*
X39268400Y19913600D03*
X40817800Y18389600D03*
X25908000Y46812200D03*
%TO.N,+BATT*%
X42824400Y4318000D03*
X44754800Y4267200D03*
X42773600Y2387600D03*
X44754800Y2387600D03*
%TO.N,NRST*%
X37033200Y27381200D03*
%TO.N,SWDIO*%
X47752000Y34226500D03*
D18*
%TO.N,RS*%
X37287200Y29133800D03*
%TO.N,WR*%
X36499800Y29819600D03*
%TO.N,RD*%
X36042600Y30759400D03*
D17*
%TO.N,PC0*%
X28448000Y29108400D03*
%TO.N,PC1*%
X32355597Y28960003D03*
%TO.N,PC2*%
X32562800Y27482800D03*
%TO.N,PC3*%
X32562800Y26416000D03*
%TO.N,PB2*%
X38125400Y21437600D03*
%TO.N,PC5*%
X34899600Y18846800D03*
%TO.N,PB4*%
X29108400Y40233600D03*
%TO.N,PB6*%
X32918400Y30710010D03*
%TO.N,PB7*%
X32258000Y31597600D03*
%TO.N,PB8*%
X32969200Y32461200D03*
%TO.N,PB9*%
X32308344Y33301338D03*
%TO.N,Net-(R9-Pad1)*%
X25196800Y41503600D03*
X19939000Y57531000D03*
%TO.N,ADC_IN8*%
X37388800Y17170400D03*
X57099200Y4809995D03*
%TO.N,Net-(R14-Pad1)*%
X44364408Y52543208D03*
D18*
%TO.N,SPI_CS*%
X35240073Y28255073D03*
%TO.N,SPI_SCLK*%
X35814000Y26035000D03*
%TO.N,SPI_MOSI*%
X35052000Y24892000D03*
%TO.N,ADC_IN18*%
X40132000Y25019000D03*
%TO.N,ADC_IN19*%
X40068500Y25971500D03*
%TO.N,ADC_IN20*%
X43116500Y26035000D03*
%TO.N,ADC_IN21*%
X44005500Y26352500D03*
D17*
%TO.N,LCD_RESET*%
X38303200Y36474400D03*
%TO.N,+3V3*%
X44221400Y21717000D03*
X42646600Y23317200D03*
X65074800Y48920400D03*
X37033200Y40995600D03*
X31750000Y48641000D03*
X33274000Y48641000D03*
X34925000Y48641000D03*
X36449000Y48641000D03*
X34925000Y47244000D03*
X36449000Y47244000D03*
X34925000Y45974000D03*
X36449000Y45974000D03*
X34925000Y44704000D03*
X36449000Y44704000D03*
X33274000Y47244000D03*
X31750000Y47244000D03*
X30861000Y38735000D03*
X45317516Y35073484D03*
X42468800Y48310800D03*
X33274000Y19812000D03*
X27686000Y23977600D03*
X25399997Y24002997D03*
X48542707Y40560493D03*
X49580800Y55118000D03*
X44332404Y54543204D03*
X3429000Y48768000D03*
%TO.N,PA12*%
X58572400Y32004000D03*
X62382400Y41503600D03*
%TO.N,TIM3_CH1*%
X62433200Y35509200D03*
X58470800Y26974800D03*
%TO.N,PB1*%
X37795200Y19227800D03*
%TO.N,PB10*%
X37795200Y24942800D03*
%TO.N,PB11*%
X37030773Y25804681D03*
%TO.N,PA0*%
X32207200Y25298400D03*
%TD*%
D19*
%TO.N,+3V3*%
X64859503Y73191857D02*
X65695928Y72981762D01*
X66486804Y72637879D01*
X67210902Y72169440D01*
X67848766Y71589027D01*
X68383265Y70912233D01*
X68800049Y70157231D01*
X69087927Y69344288D01*
X69241427Y68482546D01*
X69265000Y67982679D01*
X69265001Y64358455D01*
X69275636Y64250475D01*
X69317664Y64111927D01*
X69385914Y63984240D01*
X69477763Y63872322D01*
X69589681Y63780473D01*
X69717368Y63712223D01*
X69751744Y63701795D01*
X70192190Y63518835D01*
X70559140Y63273576D01*
X70871462Y62961713D01*
X71117260Y62595130D01*
X71287172Y62187788D01*
X71374731Y61755191D01*
X71376596Y61313836D01*
X71292700Y60880521D01*
X71126235Y60471751D01*
X70883546Y60103103D01*
X70573871Y59788610D01*
X70209011Y59540259D01*
X69771754Y59354274D01*
X69717367Y59337776D01*
X69589680Y59269526D01*
X69477762Y59177676D01*
X69385913Y59065758D01*
X69317663Y58938071D01*
X69296372Y58867884D01*
X69296370Y58867879D01*
X69296369Y58867874D01*
X69275635Y58799523D01*
X69265000Y58691543D01*
X69265001Y15308455D01*
X69275636Y15200475D01*
X69317664Y15061927D01*
X69385914Y14934240D01*
X69477763Y14822322D01*
X69589681Y14730473D01*
X69717368Y14662223D01*
X69751744Y14651795D01*
X70192190Y14468835D01*
X70559140Y14223576D01*
X70871462Y13911713D01*
X71117260Y13545130D01*
X71287172Y13137788D01*
X71374731Y12705191D01*
X71376596Y12263836D01*
X71292700Y11830521D01*
X71126235Y11421751D01*
X70883546Y11053103D01*
X70573871Y10738610D01*
X70209011Y10490259D01*
X69771754Y10304274D01*
X69717367Y10287776D01*
X69589680Y10219526D01*
X69477762Y10127676D01*
X69385913Y10015758D01*
X69317663Y9888071D01*
X69296372Y9817884D01*
X69296370Y9817879D01*
X69296369Y9817874D01*
X69275635Y9749523D01*
X69265000Y9641543D01*
X69265001Y6030180D01*
X69191857Y5140496D01*
X68981761Y4304070D01*
X68637877Y3513191D01*
X68169443Y2789102D01*
X67589030Y2151237D01*
X66912233Y1616735D01*
X66157227Y1199948D01*
X65344287Y912072D01*
X64482547Y758573D01*
X63982680Y735000D01*
X6030167Y735000D01*
X5140495Y808143D01*
X4304069Y1018239D01*
X3513191Y1362123D01*
X2789102Y1830557D01*
X2151235Y2410971D01*
X1616736Y3087763D01*
X1199952Y3842765D01*
X912073Y4655712D01*
X758573Y5517453D01*
X735000Y6017319D01*
X735000Y6127715D01*
X2165000Y6127715D01*
X2165000Y5372285D01*
X2312377Y4631372D01*
X2601467Y3933446D01*
X3021161Y3305330D01*
X3555330Y2771161D01*
X4183446Y2351467D01*
X4881372Y2062377D01*
X5622285Y1915000D01*
X6377715Y1915000D01*
X7118628Y2062377D01*
X7816554Y2351467D01*
X8444670Y2771161D01*
X8605101Y2931592D01*
X11129000Y2931592D01*
X11129000Y2656408D01*
X11182686Y2386510D01*
X11287995Y2132273D01*
X11440880Y1903465D01*
X11635465Y1708880D01*
X11864273Y1555995D01*
X12118510Y1450686D01*
X12388408Y1397000D01*
X12663592Y1397000D01*
X12933490Y1450686D01*
X13187727Y1555995D01*
X13416535Y1708880D01*
X13611120Y1903465D01*
X13764005Y2132273D01*
X13869314Y2386510D01*
X13923000Y2656408D01*
X13923000Y2931592D01*
X21129000Y2931592D01*
X21129000Y2656408D01*
X21182686Y2386510D01*
X21287995Y2132273D01*
X21440880Y1903465D01*
X21635465Y1708880D01*
X21864273Y1555995D01*
X22118510Y1450686D01*
X22388408Y1397000D01*
X22663592Y1397000D01*
X22933490Y1450686D01*
X23187727Y1555995D01*
X23416535Y1708880D01*
X23611120Y1903465D01*
X23764005Y2132273D01*
X23869314Y2386510D01*
X23889807Y2489539D01*
X41738600Y2489539D01*
X41738600Y2285661D01*
X41778374Y2085702D01*
X41856395Y1897344D01*
X41969663Y1727826D01*
X42113826Y1583663D01*
X42283344Y1470395D01*
X42471702Y1392374D01*
X42671661Y1352600D01*
X42875539Y1352600D01*
X43075498Y1392374D01*
X43263856Y1470395D01*
X43433374Y1583663D01*
X43577537Y1727826D01*
X43690805Y1897344D01*
X43764200Y2074534D01*
X43837595Y1897344D01*
X43950863Y1727826D01*
X44095026Y1583663D01*
X44264544Y1470395D01*
X44452902Y1392374D01*
X44652861Y1352600D01*
X44856739Y1352600D01*
X45056698Y1392374D01*
X45245056Y1470395D01*
X45414574Y1583663D01*
X45558737Y1727826D01*
X45672005Y1897344D01*
X45750026Y2085702D01*
X45789800Y2285661D01*
X45789800Y2489539D01*
X45750026Y2689498D01*
X45672005Y2877856D01*
X45558737Y3047374D01*
X45414574Y3191537D01*
X45245056Y3304805D01*
X45190507Y3327400D01*
X45245056Y3349995D01*
X45414574Y3463263D01*
X45558737Y3607426D01*
X45672005Y3776944D01*
X45750026Y3965302D01*
X45789800Y4165261D01*
X45789800Y4369139D01*
X45750026Y4569098D01*
X45672005Y4757456D01*
X45558737Y4926974D01*
X45414574Y5071137D01*
X45245056Y5184405D01*
X45056698Y5262426D01*
X44856739Y5302200D01*
X44652861Y5302200D01*
X44452902Y5262426D01*
X44264544Y5184405D01*
X44095026Y5071137D01*
X43950863Y4926974D01*
X43837595Y4757456D01*
X43800121Y4666987D01*
X43741605Y4808256D01*
X43628337Y4977774D01*
X43484174Y5121937D01*
X43314656Y5235205D01*
X43126298Y5313226D01*
X42926339Y5353000D01*
X42722461Y5353000D01*
X42522502Y5313226D01*
X42334144Y5235205D01*
X42164626Y5121937D01*
X42020463Y4977774D01*
X41907195Y4808256D01*
X41829174Y4619898D01*
X41789400Y4419939D01*
X41789400Y4216061D01*
X41829174Y4016102D01*
X41907195Y3827744D01*
X42020463Y3658226D01*
X42164626Y3514063D01*
X42334144Y3400795D01*
X42424613Y3363321D01*
X42283344Y3304805D01*
X42113826Y3191537D01*
X41969663Y3047374D01*
X41856395Y2877856D01*
X41778374Y2689498D01*
X41738600Y2489539D01*
X23889807Y2489539D01*
X23923000Y2656408D01*
X23923000Y2931592D01*
X23869314Y3201490D01*
X23764005Y3455727D01*
X23611120Y3684535D01*
X23416535Y3879120D01*
X23187727Y4032005D01*
X22933490Y4137314D01*
X22663592Y4191000D01*
X22388408Y4191000D01*
X22118510Y4137314D01*
X21864273Y4032005D01*
X21635465Y3879120D01*
X21440880Y3684535D01*
X21287995Y3455727D01*
X21182686Y3201490D01*
X21129000Y2931592D01*
X13923000Y2931592D01*
X13869314Y3201490D01*
X13764005Y3455727D01*
X13611120Y3684535D01*
X13416535Y3879120D01*
X13187727Y4032005D01*
X12933490Y4137314D01*
X12663592Y4191000D01*
X12388408Y4191000D01*
X12118510Y4137314D01*
X11864273Y4032005D01*
X11635465Y3879120D01*
X11440880Y3684535D01*
X11287995Y3455727D01*
X11182686Y3201490D01*
X11129000Y2931592D01*
X8605101Y2931592D01*
X8978839Y3305330D01*
X9398533Y3933446D01*
X9687623Y4631372D01*
X9835000Y5372285D01*
X9835000Y6127715D01*
X9687623Y6868628D01*
X9398533Y7566554D01*
X9269423Y7759781D01*
X10638000Y7759781D01*
X10638000Y7378619D01*
X10712361Y7004781D01*
X10858225Y6652634D01*
X11069987Y6335709D01*
X11339509Y6066187D01*
X11656434Y5854425D01*
X12008581Y5708561D01*
X12382419Y5634200D01*
X12763581Y5634200D01*
X13137419Y5708561D01*
X13489566Y5854425D01*
X13700749Y5995533D01*
X47007061Y5995533D01*
X47007061Y5504467D01*
X47102863Y5022837D01*
X47290786Y4569151D01*
X47563608Y4160845D01*
X47910844Y3813609D01*
X48319150Y3540787D01*
X48772836Y3352864D01*
X49254466Y3257062D01*
X49745532Y3257062D01*
X50227162Y3352864D01*
X50680848Y3540787D01*
X51089154Y3813609D01*
X51436390Y4160845D01*
X51709212Y4569151D01*
X51851197Y4911934D01*
X56064200Y4911934D01*
X56064200Y4708056D01*
X56103974Y4508097D01*
X56181995Y4319739D01*
X56295263Y4150221D01*
X56439426Y4006058D01*
X56608944Y3892790D01*
X56797302Y3814769D01*
X56861509Y3801998D01*
X56797302Y3789226D01*
X56608944Y3711205D01*
X56439426Y3597937D01*
X56295263Y3453774D01*
X56181995Y3284256D01*
X56103974Y3095898D01*
X56064200Y2895939D01*
X56064200Y2692061D01*
X56103974Y2492102D01*
X56181995Y2303744D01*
X56295263Y2134226D01*
X56439426Y1990063D01*
X56608944Y1876795D01*
X56797302Y1798774D01*
X56997261Y1759000D01*
X57201139Y1759000D01*
X57401098Y1798774D01*
X57589456Y1876795D01*
X57758974Y1990063D01*
X57903137Y2134226D01*
X58016405Y2303744D01*
X58094426Y2492102D01*
X58134200Y2692061D01*
X58134200Y2895939D01*
X58094426Y3095898D01*
X58016405Y3284256D01*
X57903137Y3453774D01*
X57758974Y3597937D01*
X57589456Y3711205D01*
X57401098Y3789226D01*
X57336891Y3801998D01*
X57401098Y3814769D01*
X57589456Y3892790D01*
X57758974Y4006058D01*
X57903137Y4150221D01*
X58016405Y4319739D01*
X58094426Y4508097D01*
X58134200Y4708056D01*
X58134200Y4911934D01*
X58094426Y5111893D01*
X58016405Y5300251D01*
X57903137Y5469769D01*
X57758974Y5613932D01*
X57589456Y5727200D01*
X57401098Y5805221D01*
X57201139Y5844995D01*
X56997261Y5844995D01*
X56797302Y5805221D01*
X56608944Y5727200D01*
X56439426Y5613932D01*
X56295263Y5469769D01*
X56181995Y5300251D01*
X56103974Y5111893D01*
X56064200Y4911934D01*
X51851197Y4911934D01*
X51897135Y5022837D01*
X51992937Y5504467D01*
X51992937Y5995533D01*
X51966645Y6127715D01*
X60165000Y6127715D01*
X60165000Y5372285D01*
X60312377Y4631372D01*
X60601467Y3933446D01*
X61021161Y3305330D01*
X61555330Y2771161D01*
X62183446Y2351467D01*
X62881372Y2062377D01*
X63622285Y1915000D01*
X64377715Y1915000D01*
X65118628Y2062377D01*
X65816554Y2351467D01*
X66444670Y2771161D01*
X66978839Y3305330D01*
X67398533Y3933446D01*
X67687623Y4631372D01*
X67835000Y5372285D01*
X67835000Y6127715D01*
X67687623Y6868628D01*
X67398533Y7566554D01*
X66978839Y8194670D01*
X66444670Y8728839D01*
X65816554Y9148533D01*
X65118628Y9437623D01*
X64377715Y9585000D01*
X63622285Y9585000D01*
X62881372Y9437623D01*
X62183446Y9148533D01*
X61555330Y8728839D01*
X61021161Y8194670D01*
X60601467Y7566554D01*
X60312377Y6868628D01*
X60165000Y6127715D01*
X51966645Y6127715D01*
X51897135Y6477163D01*
X51709212Y6930849D01*
X51436390Y7339155D01*
X51089154Y7686391D01*
X50680848Y7959213D01*
X50227162Y8147136D01*
X49745532Y8242938D01*
X49254466Y8242938D01*
X48772836Y8147136D01*
X48319150Y7959213D01*
X47910844Y7686391D01*
X47563608Y7339155D01*
X47290786Y6930849D01*
X47102863Y6477163D01*
X47007061Y5995533D01*
X13700749Y5995533D01*
X13806491Y6066187D01*
X14076013Y6335709D01*
X14287775Y6652634D01*
X14433639Y7004781D01*
X14508000Y7378619D01*
X14508000Y7759781D01*
X14454899Y8026739D01*
X36328400Y8026739D01*
X36328400Y7822861D01*
X36368174Y7622902D01*
X36446195Y7434544D01*
X36559463Y7265026D01*
X36703626Y7120863D01*
X36873144Y7007595D01*
X37061502Y6929574D01*
X37261461Y6889800D01*
X37465339Y6889800D01*
X37533327Y6903323D01*
X37561974Y6759302D01*
X37639995Y6570944D01*
X37753263Y6401426D01*
X37897426Y6257263D01*
X38066944Y6143995D01*
X38255302Y6065974D01*
X38455261Y6026200D01*
X38659139Y6026200D01*
X38859098Y6065974D01*
X39047456Y6143995D01*
X39216974Y6257263D01*
X39361137Y6401426D01*
X39474405Y6570944D01*
X39552426Y6759302D01*
X39571353Y6854457D01*
X39649061Y6839000D01*
X39852939Y6839000D01*
X40052898Y6878774D01*
X40241256Y6956795D01*
X40410774Y7070063D01*
X40554937Y7214226D01*
X40668205Y7383744D01*
X40746226Y7572102D01*
X40786000Y7772061D01*
X40786000Y7975939D01*
X40746226Y8175898D01*
X40668205Y8364256D01*
X40554937Y8533774D01*
X40410774Y8677937D01*
X40241256Y8791205D01*
X40052898Y8869226D01*
X39852939Y8909000D01*
X39649061Y8909000D01*
X39449102Y8869226D01*
X39260744Y8791205D01*
X39091226Y8677937D01*
X38947063Y8533774D01*
X38833795Y8364256D01*
X38755774Y8175898D01*
X38736847Y8080743D01*
X38659139Y8096200D01*
X38455261Y8096200D01*
X38387273Y8082677D01*
X38358626Y8226698D01*
X38280605Y8415056D01*
X38167337Y8584574D01*
X38023174Y8728737D01*
X37853656Y8842005D01*
X37665298Y8920026D01*
X37465339Y8959800D01*
X37261461Y8959800D01*
X37061502Y8920026D01*
X36873144Y8842005D01*
X36703626Y8728737D01*
X36559463Y8584574D01*
X36446195Y8415056D01*
X36368174Y8226698D01*
X36328400Y8026739D01*
X14454899Y8026739D01*
X14433639Y8133619D01*
X14287775Y8485766D01*
X14076013Y8802691D01*
X13806491Y9072213D01*
X13489566Y9283975D01*
X13137419Y9429839D01*
X12763581Y9504200D01*
X12382419Y9504200D01*
X12008581Y9429839D01*
X11656434Y9283975D01*
X11339509Y9072213D01*
X11069987Y8802691D01*
X10858225Y8485766D01*
X10712361Y8133619D01*
X10638000Y7759781D01*
X9269423Y7759781D01*
X8978839Y8194670D01*
X8444670Y8728839D01*
X7816554Y9148533D01*
X7118628Y9437623D01*
X6377715Y9585000D01*
X5622285Y9585000D01*
X4881372Y9437623D01*
X4183446Y9148533D01*
X3555330Y8728839D01*
X3021161Y8194670D01*
X2601467Y7566554D01*
X2312377Y6868628D01*
X2165000Y6127715D01*
X735000Y6127715D01*
X735000Y9641544D01*
X724365Y9749524D01*
X682337Y9888072D01*
X614087Y10015759D01*
X522238Y10127677D01*
X410320Y10219526D01*
X282633Y10287776D01*
X248280Y10298197D01*
X-192192Y10481167D01*
X-559141Y10726426D01*
X-871457Y11038282D01*
X-1117259Y11404872D01*
X-1287172Y11812214D01*
X-1374730Y12244807D01*
X-1376274Y12610264D01*
X-498355Y12610264D01*
X-498355Y12339736D01*
X-445578Y12074407D01*
X-342051Y11824473D01*
X-191754Y11599537D01*
X-463Y11408246D01*
X224473Y11257949D01*
X474407Y11154422D01*
X739736Y11101645D01*
X1010264Y11101645D01*
X1275593Y11154422D01*
X1525527Y11257949D01*
X1750463Y11408246D01*
X1941754Y11599537D01*
X2092051Y11824473D01*
X2181300Y12039939D01*
X18269000Y12039939D01*
X18269000Y11836061D01*
X18308774Y11636102D01*
X18386795Y11447744D01*
X18500063Y11278226D01*
X18644226Y11134063D01*
X18813744Y11020795D01*
X19002102Y10942774D01*
X19202061Y10903000D01*
X19405939Y10903000D01*
X19605898Y10942774D01*
X19794256Y11020795D01*
X19939000Y11117510D01*
X20083744Y11020795D01*
X20272102Y10942774D01*
X20472061Y10903000D01*
X20675939Y10903000D01*
X20842039Y10936039D01*
X20809000Y10769939D01*
X20809000Y10566061D01*
X20848774Y10366102D01*
X20926795Y10177744D01*
X21040063Y10008226D01*
X21184226Y9864063D01*
X21353744Y9750795D01*
X21542102Y9672774D01*
X21742061Y9633000D01*
X21945939Y9633000D01*
X22145898Y9672774D01*
X22334256Y9750795D01*
X22503774Y9864063D01*
X22647937Y10008226D01*
X22761205Y10177744D01*
X22839226Y10366102D01*
X22879000Y10566061D01*
X22879000Y10769939D01*
X22839226Y10969898D01*
X22761205Y11158256D01*
X22664490Y11303000D01*
X22761205Y11447744D01*
X22839226Y11636102D01*
X22879000Y11836061D01*
X22879000Y12039939D01*
X22839226Y12239898D01*
X22761205Y12428256D01*
X22681236Y12547939D01*
X27413000Y12547939D01*
X27413000Y12344061D01*
X27452774Y12144102D01*
X27530795Y11955744D01*
X27627510Y11811000D01*
X27530795Y11666256D01*
X27452774Y11477898D01*
X27413000Y11277939D01*
X27413000Y11074061D01*
X27452774Y10874102D01*
X27530795Y10685744D01*
X27644063Y10516226D01*
X27788226Y10372063D01*
X27957744Y10258795D01*
X28146102Y10180774D01*
X28346061Y10141000D01*
X28549939Y10141000D01*
X28749898Y10180774D01*
X28938256Y10258795D01*
X29107774Y10372063D01*
X29251937Y10516226D01*
X29337000Y10643532D01*
X29422063Y10516226D01*
X29566226Y10372063D01*
X29735744Y10258795D01*
X29924102Y10180774D01*
X30124061Y10141000D01*
X30327939Y10141000D01*
X30527898Y10180774D01*
X30716256Y10258795D01*
X30885774Y10372063D01*
X31029937Y10516226D01*
X31143205Y10685744D01*
X31221226Y10874102D01*
X31261000Y11074061D01*
X31261000Y11277939D01*
X31221226Y11477898D01*
X31143205Y11666256D01*
X31046490Y11811000D01*
X31143205Y11955744D01*
X31221226Y12144102D01*
X31261000Y12344061D01*
X31261000Y12547939D01*
X31248603Y12610264D01*
X67751645Y12610264D01*
X67751645Y12339736D01*
X67804422Y12074407D01*
X67907949Y11824473D01*
X68058246Y11599537D01*
X68249537Y11408246D01*
X68474473Y11257949D01*
X68724407Y11154422D01*
X68989736Y11101645D01*
X69260264Y11101645D01*
X69525593Y11154422D01*
X69775527Y11257949D01*
X70000463Y11408246D01*
X70191754Y11599537D01*
X70342051Y11824473D01*
X70445578Y12074407D01*
X70498355Y12339736D01*
X70498355Y12610264D01*
X70445578Y12875593D01*
X70342051Y13125527D01*
X70191754Y13350463D01*
X70000463Y13541754D01*
X69775527Y13692051D01*
X69525593Y13795578D01*
X69260264Y13848355D01*
X68989736Y13848355D01*
X68724407Y13795578D01*
X68474473Y13692051D01*
X68249537Y13541754D01*
X68058246Y13350463D01*
X67907949Y13125527D01*
X67804422Y12875593D01*
X67751645Y12610264D01*
X31248603Y12610264D01*
X31221226Y12747898D01*
X31143205Y12936256D01*
X31046490Y13081000D01*
X31143205Y13225744D01*
X31221226Y13414102D01*
X31261000Y13614061D01*
X31261000Y13817939D01*
X31221226Y14017898D01*
X31143205Y14206256D01*
X31029937Y14375774D01*
X30885774Y14519937D01*
X30716256Y14633205D01*
X30527898Y14711226D01*
X30327939Y14751000D01*
X30124061Y14751000D01*
X29924102Y14711226D01*
X29735744Y14633205D01*
X29566226Y14519937D01*
X29422063Y14375774D01*
X29308795Y14206256D01*
X29230774Y14017898D01*
X29191000Y13817939D01*
X29191000Y13614061D01*
X29230774Y13414102D01*
X29308795Y13225744D01*
X29405510Y13081000D01*
X29337000Y12978468D01*
X29251937Y13105774D01*
X29107774Y13249937D01*
X28938256Y13363205D01*
X28749898Y13441226D01*
X28549939Y13481000D01*
X28346061Y13481000D01*
X28146102Y13441226D01*
X27957744Y13363205D01*
X27788226Y13249937D01*
X27644063Y13105774D01*
X27530795Y12936256D01*
X27452774Y12747898D01*
X27413000Y12547939D01*
X22681236Y12547939D01*
X22647937Y12597774D01*
X22503774Y12741937D01*
X22334256Y12855205D01*
X22145898Y12933226D01*
X21945939Y12973000D01*
X21742061Y12973000D01*
X21542102Y12933226D01*
X21353744Y12855205D01*
X21209000Y12758490D01*
X21064256Y12855205D01*
X20875898Y12933226D01*
X20675939Y12973000D01*
X20472061Y12973000D01*
X20272102Y12933226D01*
X20083744Y12855205D01*
X19939000Y12758490D01*
X19794256Y12855205D01*
X19605898Y12933226D01*
X19405939Y12973000D01*
X19202061Y12973000D01*
X19002102Y12933226D01*
X18813744Y12855205D01*
X18644226Y12741937D01*
X18500063Y12597774D01*
X18386795Y12428256D01*
X18308774Y12239898D01*
X18269000Y12039939D01*
X2181300Y12039939D01*
X2195578Y12074407D01*
X2248355Y12339736D01*
X2248355Y12610264D01*
X2195578Y12875593D01*
X2092051Y13125527D01*
X1941754Y13350463D01*
X1750463Y13541754D01*
X1525527Y13692051D01*
X1275593Y13795578D01*
X1010264Y13848355D01*
X739736Y13848355D01*
X474407Y13795578D01*
X224473Y13692051D01*
X-463Y13541754D01*
X-191754Y13350463D01*
X-342051Y13125527D01*
X-445578Y12875593D01*
X-498355Y12610264D01*
X-1376274Y12610264D01*
X-1376595Y12686163D01*
X-1292699Y13119481D01*
X-1126237Y13528245D01*
X-883546Y13896896D01*
X-573873Y14211387D01*
X-209011Y14459740D01*
X228252Y14645727D01*
X282632Y14662223D01*
X410319Y14730473D01*
X522237Y14822322D01*
X614087Y14934240D01*
X682337Y15061927D01*
X724365Y15200475D01*
X735000Y15308455D01*
X735000Y16192581D01*
X11273000Y16192581D01*
X11273000Y15811419D01*
X11347361Y15437581D01*
X11493225Y15085434D01*
X11704987Y14768509D01*
X11974509Y14498987D01*
X12291434Y14287225D01*
X12643581Y14141361D01*
X13017419Y14067000D01*
X13398581Y14067000D01*
X13772419Y14141361D01*
X14124566Y14287225D01*
X14441491Y14498987D01*
X14711013Y14768509D01*
X14922775Y15085434D01*
X15068639Y15437581D01*
X15079928Y15494339D01*
X31832600Y15494339D01*
X31832600Y15290461D01*
X31872374Y15090502D01*
X31950395Y14902144D01*
X32063663Y14732626D01*
X32207826Y14588463D01*
X32377344Y14475195D01*
X32565702Y14397174D01*
X32765661Y14357400D01*
X32969539Y14357400D01*
X33169498Y14397174D01*
X33357856Y14475195D01*
X33527374Y14588463D01*
X33671537Y14732626D01*
X33784805Y14902144D01*
X33862826Y15090502D01*
X33902600Y15290461D01*
X33902600Y15494339D01*
X33862826Y15694298D01*
X33784805Y15882656D01*
X33671537Y16052174D01*
X33527374Y16196337D01*
X33357856Y16309605D01*
X33169498Y16387626D01*
X32969539Y16427400D01*
X32765661Y16427400D01*
X32565702Y16387626D01*
X32377344Y16309605D01*
X32207826Y16196337D01*
X32063663Y16052174D01*
X31950395Y15882656D01*
X31872374Y15694298D01*
X31832600Y15494339D01*
X15079928Y15494339D01*
X15143000Y15811419D01*
X15143000Y16192581D01*
X15068639Y16566419D01*
X14922775Y16918566D01*
X14711013Y17235491D01*
X14674165Y17272339D01*
X36353800Y17272339D01*
X36353800Y17068461D01*
X36393574Y16868502D01*
X36471595Y16680144D01*
X36584863Y16510626D01*
X36729026Y16366463D01*
X36898544Y16253195D01*
X37086902Y16175174D01*
X37286861Y16135400D01*
X37490739Y16135400D01*
X37690698Y16175174D01*
X37879056Y16253195D01*
X38048574Y16366463D01*
X38192737Y16510626D01*
X38306005Y16680144D01*
X38384026Y16868502D01*
X38423800Y17068461D01*
X38423800Y17068881D01*
X52027300Y17068881D01*
X52027300Y16687719D01*
X52101661Y16313881D01*
X52247525Y15961734D01*
X52459287Y15644809D01*
X52728809Y15375287D01*
X53045734Y15163525D01*
X53397881Y15017661D01*
X53771719Y14943300D01*
X54152881Y14943300D01*
X54526719Y15017661D01*
X54878866Y15163525D01*
X55195791Y15375287D01*
X55465313Y15644809D01*
X55677075Y15961734D01*
X55822939Y16313881D01*
X55897300Y16687719D01*
X55897300Y17068881D01*
X55822939Y17442719D01*
X55677075Y17794866D01*
X55465313Y18111791D01*
X55195791Y18381313D01*
X54878866Y18593075D01*
X54526719Y18738939D01*
X54152881Y18813300D01*
X53771719Y18813300D01*
X53397881Y18738939D01*
X53045734Y18593075D01*
X52728809Y18381313D01*
X52459287Y18111791D01*
X52247525Y17794866D01*
X52101661Y17442719D01*
X52027300Y17068881D01*
X38423800Y17068881D01*
X38423800Y17272339D01*
X38384026Y17472298D01*
X38306005Y17660656D01*
X38192737Y17830174D01*
X38048574Y17974337D01*
X37879056Y18087605D01*
X37690698Y18165626D01*
X37490739Y18205400D01*
X37286861Y18205400D01*
X37086902Y18165626D01*
X36898544Y18087605D01*
X36729026Y17974337D01*
X36584863Y17830174D01*
X36471595Y17660656D01*
X36393574Y17472298D01*
X36353800Y17272339D01*
X14674165Y17272339D01*
X14441491Y17505013D01*
X14124566Y17716775D01*
X13772419Y17862639D01*
X13398581Y17937000D01*
X13017419Y17937000D01*
X12643581Y17862639D01*
X12291434Y17716775D01*
X11974509Y17505013D01*
X11704987Y17235491D01*
X11493225Y16918566D01*
X11347361Y16566419D01*
X11273000Y16192581D01*
X735000Y16192581D01*
X735000Y19913939D01*
X30207000Y19913939D01*
X30207000Y19710061D01*
X30246774Y19510102D01*
X30324795Y19321744D01*
X30438063Y19152226D01*
X30582226Y19008063D01*
X30751744Y18894795D01*
X30940102Y18816774D01*
X31140061Y18777000D01*
X31343939Y18777000D01*
X31543898Y18816774D01*
X31732256Y18894795D01*
X31812989Y18948739D01*
X33864600Y18948739D01*
X33864600Y18744861D01*
X33904374Y18544902D01*
X33982395Y18356544D01*
X34095663Y18187026D01*
X34239826Y18042863D01*
X34409344Y17929595D01*
X34597702Y17851574D01*
X34797661Y17811800D01*
X35001539Y17811800D01*
X35201498Y17851574D01*
X35389856Y17929595D01*
X35559374Y18042863D01*
X35703537Y18187026D01*
X35816805Y18356544D01*
X35894826Y18544902D01*
X35934600Y18744861D01*
X35934600Y18948739D01*
X35894826Y19148698D01*
X35819836Y19329739D01*
X36760200Y19329739D01*
X36760200Y19125861D01*
X36799974Y18925902D01*
X36877995Y18737544D01*
X36991263Y18568026D01*
X37135426Y18423863D01*
X37304944Y18310595D01*
X37493302Y18232574D01*
X37693261Y18192800D01*
X37897139Y18192800D01*
X38097098Y18232574D01*
X38285456Y18310595D01*
X38454974Y18423863D01*
X38522650Y18491539D01*
X39782800Y18491539D01*
X39782800Y18287661D01*
X39822574Y18087702D01*
X39900595Y17899344D01*
X40013863Y17729826D01*
X40158026Y17585663D01*
X40327544Y17472395D01*
X40515902Y17394374D01*
X40715861Y17354600D01*
X40919739Y17354600D01*
X41119698Y17394374D01*
X41308056Y17472395D01*
X41477574Y17585663D01*
X41621737Y17729826D01*
X41735005Y17899344D01*
X41813026Y18087702D01*
X41852800Y18287661D01*
X41852800Y18491539D01*
X41813026Y18691498D01*
X41735005Y18879856D01*
X41621737Y19049374D01*
X41477574Y19193537D01*
X41308056Y19306805D01*
X41119698Y19384826D01*
X40919739Y19424600D01*
X40715861Y19424600D01*
X40515902Y19384826D01*
X40327544Y19306805D01*
X40158026Y19193537D01*
X40013863Y19049374D01*
X39900595Y18879856D01*
X39822574Y18691498D01*
X39782800Y18491539D01*
X38522650Y18491539D01*
X38599137Y18568026D01*
X38712405Y18737544D01*
X38790426Y18925902D01*
X38802446Y18986329D01*
X38966502Y18918374D01*
X39166461Y18878600D01*
X39370339Y18878600D01*
X39570298Y18918374D01*
X39758656Y18996395D01*
X39928174Y19109663D01*
X40072337Y19253826D01*
X40185605Y19423344D01*
X40263626Y19611702D01*
X40303400Y19811661D01*
X40303400Y20015539D01*
X40263626Y20215498D01*
X40185605Y20403856D01*
X40072337Y20573374D01*
X39928174Y20717537D01*
X39758656Y20830805D01*
X39570298Y20908826D01*
X39370339Y20948600D01*
X39166461Y20948600D01*
X39024588Y20920380D01*
X39042605Y20947344D01*
X39120626Y21135702D01*
X39160400Y21335661D01*
X39160400Y21539539D01*
X39120626Y21739498D01*
X39042605Y21927856D01*
X38929337Y22097374D01*
X38785174Y22241537D01*
X38615656Y22354805D01*
X38427298Y22432826D01*
X38227339Y22472600D01*
X38023461Y22472600D01*
X37823502Y22432826D01*
X37635144Y22354805D01*
X37465626Y22241537D01*
X37321463Y22097374D01*
X37208195Y21927856D01*
X37130174Y21739498D01*
X37090400Y21539539D01*
X37090400Y21335661D01*
X37130174Y21135702D01*
X37208195Y20947344D01*
X37321463Y20777826D01*
X37465626Y20633663D01*
X37635144Y20520395D01*
X37823502Y20442374D01*
X38023461Y20402600D01*
X38227339Y20402600D01*
X38369212Y20430820D01*
X38351195Y20403856D01*
X38273174Y20215498D01*
X38261154Y20155071D01*
X38097098Y20223026D01*
X37897139Y20262800D01*
X37693261Y20262800D01*
X37493302Y20223026D01*
X37304944Y20145005D01*
X37135426Y20031737D01*
X36991263Y19887574D01*
X36877995Y19718056D01*
X36799974Y19529698D01*
X36760200Y19329739D01*
X35819836Y19329739D01*
X35816805Y19337056D01*
X35703537Y19506574D01*
X35559374Y19650737D01*
X35389856Y19764005D01*
X35201498Y19842026D01*
X35001539Y19881800D01*
X34797661Y19881800D01*
X34597702Y19842026D01*
X34409344Y19764005D01*
X34239826Y19650737D01*
X34095663Y19506574D01*
X33982395Y19337056D01*
X33904374Y19148698D01*
X33864600Y18948739D01*
X31812989Y18948739D01*
X31901774Y19008063D01*
X32045937Y19152226D01*
X32159205Y19321744D01*
X32237226Y19510102D01*
X32277000Y19710061D01*
X32277000Y19913939D01*
X32237226Y20113898D01*
X32159205Y20302256D01*
X32045937Y20471774D01*
X31901774Y20615937D01*
X31732256Y20729205D01*
X31543898Y20807226D01*
X31343939Y20847000D01*
X31140061Y20847000D01*
X30940102Y20807226D01*
X30751744Y20729205D01*
X30582226Y20615937D01*
X30438063Y20471774D01*
X30324795Y20302256D01*
X30246774Y20113898D01*
X30207000Y19913939D01*
X735000Y19913939D01*
X735000Y21056939D01*
X16592600Y21056939D01*
X16592600Y20853061D01*
X16632374Y20653102D01*
X16710395Y20464744D01*
X16823663Y20295226D01*
X16967826Y20151063D01*
X17137344Y20037795D01*
X17325702Y19959774D01*
X17525661Y19920000D01*
X17729539Y19920000D01*
X17929498Y19959774D01*
X18117856Y20037795D01*
X18287374Y20151063D01*
X18431537Y20295226D01*
X18544805Y20464744D01*
X18622826Y20653102D01*
X18662600Y20853061D01*
X18662600Y21056939D01*
X18622826Y21256898D01*
X18544805Y21445256D01*
X18431537Y21614774D01*
X18287374Y21758937D01*
X18117856Y21872205D01*
X17929498Y21950226D01*
X17729539Y21990000D01*
X17525661Y21990000D01*
X17325702Y21950226D01*
X17137344Y21872205D01*
X16967826Y21758937D01*
X16823663Y21614774D01*
X16710395Y21445256D01*
X16632374Y21256898D01*
X16592600Y21056939D01*
X735000Y21056939D01*
X735000Y26504981D01*
X1367000Y26504981D01*
X1367000Y26123819D01*
X1441361Y25749981D01*
X1587225Y25397834D01*
X1798987Y25080909D01*
X2068509Y24811387D01*
X2385434Y24599625D01*
X2737581Y24453761D01*
X3111419Y24379400D01*
X3492581Y24379400D01*
X3866419Y24453761D01*
X4218566Y24599625D01*
X4535491Y24811387D01*
X4805013Y25080909D01*
X5016775Y25397834D01*
X5162639Y25749981D01*
X5237000Y26123819D01*
X5237000Y26504981D01*
X5162639Y26878819D01*
X5016775Y27230966D01*
X4805013Y27547891D01*
X4535491Y27817413D01*
X4218566Y28029175D01*
X3866419Y28175039D01*
X3492581Y28249400D01*
X3111419Y28249400D01*
X2737581Y28175039D01*
X2385434Y28029175D01*
X2068509Y27817413D01*
X1798987Y27547891D01*
X1587225Y27230966D01*
X1441361Y26878819D01*
X1367000Y26504981D01*
X735000Y26504981D01*
X735000Y32613939D01*
X1403400Y32613939D01*
X1403400Y32410061D01*
X1443174Y32210102D01*
X1521195Y32021744D01*
X1634463Y31852226D01*
X1778626Y31708063D01*
X1948144Y31594795D01*
X2136502Y31516774D01*
X2336461Y31477000D01*
X2540339Y31477000D01*
X2740298Y31516774D01*
X2928656Y31594795D01*
X3098174Y31708063D01*
X3242337Y31852226D01*
X3355605Y32021744D01*
X3433626Y32210102D01*
X3473400Y32410061D01*
X3473400Y32613939D01*
X3433626Y32813898D01*
X3355605Y33002256D01*
X3242337Y33171774D01*
X3098174Y33315937D01*
X2928656Y33429205D01*
X2740298Y33507226D01*
X2540339Y33547000D01*
X2336461Y33547000D01*
X2136502Y33507226D01*
X1948144Y33429205D01*
X1778626Y33315937D01*
X1634463Y33171774D01*
X1521195Y33002256D01*
X1443174Y32813898D01*
X1403400Y32613939D01*
X735000Y32613939D01*
X735000Y37439939D01*
X1378000Y37439939D01*
X1378000Y37236061D01*
X1417774Y37036102D01*
X1495795Y36847744D01*
X1609063Y36678226D01*
X1753226Y36534063D01*
X1922744Y36420795D01*
X2111102Y36342774D01*
X2311061Y36303000D01*
X2514939Y36303000D01*
X2714898Y36342774D01*
X2903256Y36420795D01*
X3072774Y36534063D01*
X3216937Y36678226D01*
X3330205Y36847744D01*
X3408226Y37036102D01*
X3448000Y37236061D01*
X3448000Y37439939D01*
X3408226Y37639898D01*
X3330205Y37828256D01*
X3216937Y37997774D01*
X3072774Y38141937D01*
X2903256Y38255205D01*
X2714898Y38333226D01*
X2514939Y38373000D01*
X2311061Y38373000D01*
X2111102Y38333226D01*
X1922744Y38255205D01*
X1753226Y38141937D01*
X1609063Y37997774D01*
X1495795Y37828256D01*
X1417774Y37639898D01*
X1378000Y37439939D01*
X735000Y37439939D01*
X735000Y46882260D01*
X8929000Y46882260D01*
X8929000Y46589740D01*
X8986068Y46302842D01*
X9098010Y46032589D01*
X9260525Y45789368D01*
X9467368Y45582525D01*
X9641760Y45466000D01*
X9467368Y45349475D01*
X9260525Y45142632D01*
X9098010Y44899411D01*
X8986068Y44629158D01*
X8929000Y44342260D01*
X8929000Y44049740D01*
X8986068Y43762842D01*
X9098010Y43492589D01*
X9260525Y43249368D01*
X9467368Y43042525D01*
X9641760Y42926000D01*
X9467368Y42809475D01*
X9260525Y42602632D01*
X9098010Y42359411D01*
X8986068Y42089158D01*
X8929000Y41802260D01*
X8929000Y41509740D01*
X8986068Y41222842D01*
X9098010Y40952589D01*
X9260525Y40709368D01*
X9467368Y40502525D01*
X9641760Y40386000D01*
X9467368Y40269475D01*
X9260525Y40062632D01*
X9098010Y39819411D01*
X8986068Y39549158D01*
X8929000Y39262260D01*
X8929000Y38969740D01*
X8986068Y38682842D01*
X9098010Y38412589D01*
X9260525Y38169368D01*
X9467368Y37962525D01*
X9641760Y37846000D01*
X9467368Y37729475D01*
X9260525Y37522632D01*
X9098010Y37279411D01*
X8986068Y37009158D01*
X8929000Y36722260D01*
X8929000Y36429740D01*
X8986068Y36142842D01*
X9098010Y35872589D01*
X9260525Y35629368D01*
X9467368Y35422525D01*
X9641760Y35306000D01*
X9467368Y35189475D01*
X9260525Y34982632D01*
X9098010Y34739411D01*
X8986068Y34469158D01*
X8929000Y34182260D01*
X8929000Y33889740D01*
X8986068Y33602842D01*
X9098010Y33332589D01*
X9260525Y33089368D01*
X9467368Y32882525D01*
X9641760Y32766000D01*
X9467368Y32649475D01*
X9260525Y32442632D01*
X9098010Y32199411D01*
X8986068Y31929158D01*
X8929000Y31642260D01*
X8929000Y31349740D01*
X8986068Y31062842D01*
X9098010Y30792589D01*
X9260525Y30549368D01*
X9467368Y30342525D01*
X9641760Y30226000D01*
X9467368Y30109475D01*
X9260525Y29902632D01*
X9098010Y29659411D01*
X8986068Y29389158D01*
X8929000Y29102260D01*
X8929000Y28809740D01*
X8986068Y28522842D01*
X9098010Y28252589D01*
X9260525Y28009368D01*
X9467368Y27802525D01*
X9641760Y27686000D01*
X9467368Y27569475D01*
X9260525Y27362632D01*
X9098010Y27119411D01*
X8986068Y26849158D01*
X8929000Y26562260D01*
X8929000Y26269740D01*
X8986068Y25982842D01*
X9098010Y25712589D01*
X9260525Y25469368D01*
X9467368Y25262525D01*
X9641760Y25146000D01*
X9467368Y25029475D01*
X9260525Y24822632D01*
X9098010Y24579411D01*
X8986068Y24309158D01*
X8929000Y24022260D01*
X8929000Y23729740D01*
X8986068Y23442842D01*
X9098010Y23172589D01*
X9260525Y22929368D01*
X9467368Y22722525D01*
X9710589Y22560010D01*
X9980842Y22448068D01*
X10267740Y22391000D01*
X10560260Y22391000D01*
X10847158Y22448068D01*
X11117411Y22560010D01*
X11360632Y22722525D01*
X11567475Y22929368D01*
X11684000Y23103760D01*
X11800525Y22929368D01*
X12007368Y22722525D01*
X12250589Y22560010D01*
X12520842Y22448068D01*
X12807740Y22391000D01*
X13100260Y22391000D01*
X13387158Y22448068D01*
X13657411Y22560010D01*
X13900632Y22722525D01*
X14107475Y22929368D01*
X14269990Y23172589D01*
X14381932Y23442842D01*
X14439000Y23729740D01*
X14439000Y24022260D01*
X14381932Y24309158D01*
X14269990Y24579411D01*
X14107475Y24822632D01*
X13900632Y25029475D01*
X13726240Y25146000D01*
X13900632Y25262525D01*
X14042339Y25404232D01*
X20660493Y25404232D01*
X20660493Y25200354D01*
X20700267Y25000395D01*
X20778288Y24812037D01*
X20891556Y24642519D01*
X21035719Y24498356D01*
X21205237Y24385088D01*
X21393595Y24307067D01*
X21593554Y24267293D01*
X21797432Y24267293D01*
X21997391Y24307067D01*
X22185749Y24385088D01*
X22355267Y24498356D01*
X22499430Y24642519D01*
X22612698Y24812037D01*
X22690719Y25000395D01*
X22730493Y25200354D01*
X22730493Y25400339D01*
X31172200Y25400339D01*
X31172200Y25196461D01*
X31211974Y24996502D01*
X31289995Y24808144D01*
X31403263Y24638626D01*
X31547426Y24494463D01*
X31716944Y24381195D01*
X31905302Y24303174D01*
X32105261Y24263400D01*
X32309139Y24263400D01*
X32509098Y24303174D01*
X32697456Y24381195D01*
X32866974Y24494463D01*
X33011137Y24638626D01*
X33124405Y24808144D01*
X33197284Y24984089D01*
X34117000Y24984089D01*
X34117000Y24799911D01*
X34152932Y24619271D01*
X34223414Y24449111D01*
X34325738Y24295972D01*
X34455972Y24165738D01*
X34609111Y24063414D01*
X34779271Y23992932D01*
X34959911Y23957000D01*
X35144089Y23957000D01*
X35324729Y23992932D01*
X35494889Y24063414D01*
X35648028Y24165738D01*
X35778262Y24295972D01*
X35880586Y24449111D01*
X35951068Y24619271D01*
X35987000Y24799911D01*
X35987000Y24984089D01*
X35961742Y25111070D01*
X36086729Y25135932D01*
X36201162Y25183331D01*
X36226836Y25144907D01*
X36370999Y25000744D01*
X36540517Y24887476D01*
X36728875Y24809455D01*
X36767995Y24801674D01*
X36799974Y24640902D01*
X36877995Y24452544D01*
X36991263Y24283026D01*
X37135426Y24138863D01*
X37304944Y24025595D01*
X37493302Y23947574D01*
X37693261Y23907800D01*
X37897139Y23907800D01*
X38097098Y23947574D01*
X38285456Y24025595D01*
X38454974Y24138863D01*
X38599137Y24283026D01*
X38712405Y24452544D01*
X38790426Y24640902D01*
X38830200Y24840861D01*
X38830200Y25044739D01*
X38790426Y25244698D01*
X38712405Y25433056D01*
X38599137Y25602574D01*
X38454974Y25746737D01*
X38285456Y25860005D01*
X38097098Y25938026D01*
X38057978Y25945807D01*
X38034551Y26063589D01*
X39133500Y26063589D01*
X39133500Y25879411D01*
X39169432Y25698771D01*
X39239914Y25528611D01*
X39296174Y25444411D01*
X39232932Y25291729D01*
X39197000Y25111089D01*
X39197000Y24926911D01*
X39232932Y24746271D01*
X39303414Y24576111D01*
X39405738Y24422972D01*
X39535972Y24292738D01*
X39689111Y24190414D01*
X39859271Y24119932D01*
X40039911Y24084000D01*
X40224089Y24084000D01*
X40404729Y24119932D01*
X40574889Y24190414D01*
X40728028Y24292738D01*
X40858262Y24422972D01*
X40960586Y24576111D01*
X41031068Y24746271D01*
X41067000Y24926911D01*
X41067000Y25111089D01*
X41031068Y25291729D01*
X40960586Y25461889D01*
X40904326Y25546089D01*
X40967568Y25698771D01*
X41003500Y25879411D01*
X41003500Y26063589D01*
X40990869Y26127089D01*
X42181500Y26127089D01*
X42181500Y25942911D01*
X42217432Y25762271D01*
X42287914Y25592111D01*
X42390238Y25438972D01*
X42520472Y25308738D01*
X42673611Y25206414D01*
X42843771Y25135932D01*
X43024411Y25100000D01*
X43208589Y25100000D01*
X43389229Y25135932D01*
X43559389Y25206414D01*
X43712528Y25308738D01*
X43836574Y25432784D01*
X43913411Y25417500D01*
X44097589Y25417500D01*
X44278229Y25453432D01*
X44448389Y25523914D01*
X44601528Y25626238D01*
X44731762Y25756472D01*
X44834086Y25909611D01*
X44904568Y26079771D01*
X44940500Y26260411D01*
X44940500Y26444589D01*
X44904568Y26625229D01*
X44834086Y26795389D01*
X44731762Y26948528D01*
X44601528Y27078762D01*
X44448389Y27181086D01*
X44278229Y27251568D01*
X44097589Y27287500D01*
X43913411Y27287500D01*
X43732771Y27251568D01*
X43562611Y27181086D01*
X43409472Y27078762D01*
X43285426Y26954716D01*
X43208589Y26970000D01*
X43024411Y26970000D01*
X42843771Y26934068D01*
X42673611Y26863586D01*
X42520472Y26761262D01*
X42390238Y26631028D01*
X42287914Y26477889D01*
X42217432Y26307729D01*
X42181500Y26127089D01*
X40990869Y26127089D01*
X40967568Y26244229D01*
X40897086Y26414389D01*
X40794762Y26567528D01*
X40664528Y26697762D01*
X40511389Y26800086D01*
X40341229Y26870568D01*
X40160589Y26906500D01*
X39976411Y26906500D01*
X39795771Y26870568D01*
X39625611Y26800086D01*
X39472472Y26697762D01*
X39342238Y26567528D01*
X39239914Y26414389D01*
X39169432Y26244229D01*
X39133500Y26063589D01*
X38034551Y26063589D01*
X38025999Y26106579D01*
X37947978Y26294937D01*
X37834710Y26464455D01*
X37707438Y26591727D01*
X37837137Y26721426D01*
X37950405Y26890944D01*
X38028426Y27079302D01*
X38068200Y27279261D01*
X38068200Y27483139D01*
X38028426Y27683098D01*
X37950405Y27871456D01*
X37837137Y28040974D01*
X37692974Y28185137D01*
X37596240Y28249772D01*
X37730089Y28305214D01*
X37883228Y28407538D01*
X38013462Y28537772D01*
X38115786Y28690911D01*
X38186268Y28861071D01*
X38222200Y29041711D01*
X38222200Y29225889D01*
X38186268Y29406529D01*
X38115786Y29576689D01*
X38013462Y29729828D01*
X37883228Y29860062D01*
X37730089Y29962386D01*
X37559929Y30032868D01*
X37404548Y30063776D01*
X37398868Y30092329D01*
X37328386Y30262489D01*
X37226062Y30415628D01*
X37095828Y30545862D01*
X36970146Y30629840D01*
X36977600Y30667311D01*
X36977600Y30837697D01*
X37083661Y30816600D01*
X37287539Y30816600D01*
X37487498Y30856374D01*
X37675856Y30934395D01*
X37845374Y31047663D01*
X37989537Y31191826D01*
X38102805Y31361344D01*
X38180826Y31549702D01*
X38198787Y31639997D01*
X38252061Y31629400D01*
X38455939Y31629400D01*
X38655898Y31669174D01*
X38844256Y31747195D01*
X39013774Y31860463D01*
X39157937Y32004626D01*
X39271205Y32174144D01*
X39349226Y32362502D01*
X39389000Y32562461D01*
X39389000Y32766339D01*
X39349226Y32966298D01*
X39271205Y33154656D01*
X39157937Y33324174D01*
X39013774Y33468337D01*
X38961989Y33502939D01*
X44367500Y33502939D01*
X44367500Y33299061D01*
X44407274Y33099102D01*
X44485295Y32910744D01*
X44598563Y32741226D01*
X44742726Y32597063D01*
X44912244Y32483795D01*
X45100602Y32405774D01*
X45300561Y32366000D01*
X45504439Y32366000D01*
X45704398Y32405774D01*
X45892756Y32483795D01*
X46062274Y32597063D01*
X46206437Y32741226D01*
X46319705Y32910744D01*
X46397726Y33099102D01*
X46437500Y33299061D01*
X46437500Y33502939D01*
X46397726Y33702898D01*
X46319705Y33891256D01*
X46206437Y34060774D01*
X46062274Y34204937D01*
X45892756Y34318205D01*
X45868050Y34328439D01*
X46717000Y34328439D01*
X46717000Y34124561D01*
X46756774Y33924602D01*
X46834795Y33736244D01*
X46948063Y33566726D01*
X47092226Y33422563D01*
X47261744Y33309295D01*
X47450102Y33231274D01*
X47650061Y33191500D01*
X47853939Y33191500D01*
X48053898Y33231274D01*
X48242256Y33309295D01*
X48411774Y33422563D01*
X48555937Y33566726D01*
X48669205Y33736244D01*
X48747226Y33924602D01*
X48787000Y34124561D01*
X48787000Y34328439D01*
X48747226Y34528398D01*
X48669205Y34716756D01*
X48555937Y34886274D01*
X48411774Y35030437D01*
X48242256Y35143705D01*
X48053898Y35221726D01*
X47853939Y35261500D01*
X47650061Y35261500D01*
X47450102Y35221726D01*
X47261744Y35143705D01*
X47092226Y35030437D01*
X46948063Y34886274D01*
X46834795Y34716756D01*
X46756774Y34528398D01*
X46717000Y34328439D01*
X45868050Y34328439D01*
X45704398Y34396226D01*
X45504439Y34436000D01*
X45300561Y34436000D01*
X45100602Y34396226D01*
X44912244Y34318205D01*
X44742726Y34204937D01*
X44598563Y34060774D01*
X44485295Y33891256D01*
X44407274Y33702898D01*
X44367500Y33502939D01*
X38961989Y33502939D01*
X38844256Y33581605D01*
X38655898Y33659626D01*
X38455939Y33699400D01*
X38252061Y33699400D01*
X38052102Y33659626D01*
X37863744Y33581605D01*
X37694226Y33468337D01*
X37550063Y33324174D01*
X37436795Y33154656D01*
X37358774Y32966298D01*
X37340813Y32876003D01*
X37287539Y32886600D01*
X37083661Y32886600D01*
X36893507Y32848776D01*
X36860026Y33017098D01*
X36782005Y33205456D01*
X36668737Y33374974D01*
X36524574Y33519137D01*
X36355056Y33632405D01*
X36166698Y33710426D01*
X35966739Y33750200D01*
X35762861Y33750200D01*
X35562902Y33710426D01*
X35374544Y33632405D01*
X35205026Y33519137D01*
X35060863Y33374974D01*
X34947595Y33205456D01*
X34869574Y33017098D01*
X34829800Y32817139D01*
X34829800Y32613261D01*
X34869574Y32413302D01*
X34947595Y32224944D01*
X35060863Y32055426D01*
X35205026Y31911263D01*
X35374544Y31797995D01*
X35562902Y31719974D01*
X35762861Y31680200D01*
X35879124Y31680200D01*
X35769871Y31658468D01*
X35599711Y31587986D01*
X35446572Y31485662D01*
X35316338Y31355428D01*
X35214014Y31202289D01*
X35143532Y31032129D01*
X35107600Y30851489D01*
X35107600Y30667311D01*
X35143532Y30486671D01*
X35214014Y30316511D01*
X35316338Y30163372D01*
X35446572Y30033138D01*
X35572254Y29949160D01*
X35564800Y29911689D01*
X35564800Y29727511D01*
X35600732Y29546871D01*
X35671214Y29376711D01*
X35773538Y29223572D01*
X35903772Y29093338D01*
X36056911Y28991014D01*
X36227071Y28920532D01*
X36382452Y28889624D01*
X36388132Y28861071D01*
X36458614Y28690911D01*
X36560938Y28537772D01*
X36691172Y28407538D01*
X36736259Y28377412D01*
X36731302Y28376426D01*
X36542944Y28298405D01*
X36373426Y28185137D01*
X36229263Y28040974D01*
X36115995Y27871456D01*
X36037974Y27683098D01*
X35998200Y27483139D01*
X35998200Y27279261D01*
X36037974Y27079302D01*
X36100494Y26928366D01*
X36086729Y26934068D01*
X35906089Y26970000D01*
X35721911Y26970000D01*
X35541271Y26934068D01*
X35371111Y26863586D01*
X35217972Y26761262D01*
X35087738Y26631028D01*
X34985414Y26477889D01*
X34914932Y26307729D01*
X34879000Y26127089D01*
X34879000Y25942911D01*
X34904258Y25815930D01*
X34779271Y25791068D01*
X34609111Y25720586D01*
X34455972Y25618262D01*
X34325738Y25488028D01*
X34223414Y25334889D01*
X34152932Y25164729D01*
X34117000Y24984089D01*
X33197284Y24984089D01*
X33202426Y24996502D01*
X33242200Y25196461D01*
X33242200Y25400339D01*
X33202724Y25598800D01*
X33222574Y25612063D01*
X33366737Y25756226D01*
X33480005Y25925744D01*
X33558026Y26114102D01*
X33597800Y26314061D01*
X33597800Y26517939D01*
X33558026Y26717898D01*
X33480005Y26906256D01*
X33451177Y26949400D01*
X33480005Y26992544D01*
X33558026Y27180902D01*
X33597800Y27380861D01*
X33597800Y27584739D01*
X33558026Y27784698D01*
X33480005Y27973056D01*
X33366737Y28142574D01*
X33222574Y28286737D01*
X33172759Y28320022D01*
X33190893Y28347162D01*
X34305073Y28347162D01*
X34305073Y28162984D01*
X34341005Y27982344D01*
X34411487Y27812184D01*
X34513811Y27659045D01*
X34644045Y27528811D01*
X34797184Y27426487D01*
X34967344Y27356005D01*
X35147984Y27320073D01*
X35332162Y27320073D01*
X35512802Y27356005D01*
X35682962Y27426487D01*
X35836101Y27528811D01*
X35966335Y27659045D01*
X36068659Y27812184D01*
X36139141Y27982344D01*
X36175073Y28162984D01*
X36175073Y28347162D01*
X36139141Y28527802D01*
X36068659Y28697962D01*
X35966335Y28851101D01*
X35836101Y28981335D01*
X35682962Y29083659D01*
X35512802Y29154141D01*
X35332162Y29190073D01*
X35147984Y29190073D01*
X34967344Y29154141D01*
X34797184Y29083659D01*
X34644045Y28981335D01*
X34513811Y28851101D01*
X34411487Y28697962D01*
X34341005Y28527802D01*
X34305073Y28347162D01*
X33190893Y28347162D01*
X33272802Y28469747D01*
X33350823Y28658105D01*
X33390597Y28858064D01*
X33390597Y29061942D01*
X33350823Y29261901D01*
X33272802Y29450259D01*
X33159534Y29619777D01*
X33090371Y29688940D01*
X33220298Y29714784D01*
X33408656Y29792805D01*
X33578174Y29906073D01*
X33722337Y30050236D01*
X33835605Y30219754D01*
X33913626Y30408112D01*
X33953400Y30608071D01*
X33953400Y30811949D01*
X33913626Y31011908D01*
X33835605Y31200266D01*
X33722337Y31369784D01*
X33578174Y31513947D01*
X33496330Y31568633D01*
X33628974Y31657263D01*
X33773137Y31801426D01*
X33886405Y31970944D01*
X33964426Y32159302D01*
X34004200Y32359261D01*
X34004200Y32563139D01*
X33964426Y32763098D01*
X33886405Y32951456D01*
X33773137Y33120974D01*
X33628974Y33265137D01*
X33459456Y33378405D01*
X33338310Y33428586D01*
X33303570Y33603236D01*
X33225549Y33791594D01*
X33112281Y33961112D01*
X32968118Y34105275D01*
X32798600Y34218543D01*
X32610242Y34296564D01*
X32410283Y34336338D01*
X32206405Y34336338D01*
X32006446Y34296564D01*
X31818088Y34218543D01*
X31648570Y34105275D01*
X31504407Y33961112D01*
X31391139Y33791594D01*
X31313118Y33603236D01*
X31273344Y33403277D01*
X31273344Y33199399D01*
X31313118Y32999440D01*
X31391139Y32811082D01*
X31504407Y32641564D01*
X31648570Y32497401D01*
X31695134Y32466288D01*
X31598226Y32401537D01*
X31454063Y32257374D01*
X31340795Y32087856D01*
X31262774Y31899498D01*
X31223000Y31699539D01*
X31223000Y31495661D01*
X31262774Y31295702D01*
X31340795Y31107344D01*
X31454063Y30937826D01*
X31598226Y30793663D01*
X31767744Y30680395D01*
X31883400Y30632488D01*
X31883400Y30608071D01*
X31923174Y30408112D01*
X32001195Y30219754D01*
X32114463Y30050236D01*
X32183626Y29981073D01*
X32053699Y29955229D01*
X31865341Y29877208D01*
X31695823Y29763940D01*
X31551660Y29619777D01*
X31438392Y29450259D01*
X31360371Y29261901D01*
X31320597Y29061942D01*
X31320597Y28858064D01*
X31360371Y28658105D01*
X31438392Y28469747D01*
X31551660Y28300229D01*
X31695823Y28156066D01*
X31745638Y28122781D01*
X31645595Y27973056D01*
X31567574Y27784698D01*
X31527800Y27584739D01*
X31527800Y27380861D01*
X31567574Y27180902D01*
X31645595Y26992544D01*
X31674423Y26949400D01*
X31645595Y26906256D01*
X31567574Y26717898D01*
X31527800Y26517939D01*
X31527800Y26314061D01*
X31567276Y26115600D01*
X31547426Y26102337D01*
X31403263Y25958174D01*
X31289995Y25788656D01*
X31211974Y25600298D01*
X31172200Y25400339D01*
X22730493Y25400339D01*
X22730493Y25404232D01*
X22690719Y25604191D01*
X22612698Y25792549D01*
X22499430Y25962067D01*
X22355267Y26106230D01*
X22185749Y26219498D01*
X21997391Y26297519D01*
X21797432Y26337293D01*
X21593554Y26337293D01*
X21393595Y26297519D01*
X21205237Y26219498D01*
X21035719Y26106230D01*
X20891556Y25962067D01*
X20778288Y25792549D01*
X20700267Y25604191D01*
X20660493Y25404232D01*
X14042339Y25404232D01*
X14107475Y25469368D01*
X14269990Y25712589D01*
X14381932Y25982842D01*
X14439000Y26269740D01*
X14439000Y26562260D01*
X14381932Y26849158D01*
X14269990Y27119411D01*
X14107475Y27362632D01*
X13900632Y27569475D01*
X13726240Y27686000D01*
X13900632Y27802525D01*
X14107475Y28009368D01*
X14269990Y28252589D01*
X14381932Y28522842D01*
X14437846Y28803939D01*
X24365000Y28803939D01*
X24365000Y28600061D01*
X24404774Y28400102D01*
X24482795Y28211744D01*
X24596063Y28042226D01*
X24740226Y27898063D01*
X24909744Y27784795D01*
X25098102Y27706774D01*
X25298061Y27667000D01*
X25501939Y27667000D01*
X25701898Y27706774D01*
X25890256Y27784795D01*
X26059774Y27898063D01*
X26203937Y28042226D01*
X26211037Y28052852D01*
X26315026Y27948863D01*
X26484544Y27835595D01*
X26672902Y27757574D01*
X26872861Y27717800D01*
X27076739Y27717800D01*
X27276698Y27757574D01*
X27465056Y27835595D01*
X27634574Y27948863D01*
X27778737Y28093026D01*
X27879337Y28243585D01*
X27957744Y28191195D01*
X28146102Y28113174D01*
X28346061Y28073400D01*
X28549939Y28073400D01*
X28749898Y28113174D01*
X28938256Y28191195D01*
X29107774Y28304463D01*
X29251937Y28448626D01*
X29365205Y28618144D01*
X29443226Y28806502D01*
X29483000Y29006461D01*
X29483000Y29210339D01*
X29443226Y29410298D01*
X29365205Y29598656D01*
X29251937Y29768174D01*
X29107774Y29912337D01*
X28938256Y30025605D01*
X28749898Y30103626D01*
X28549939Y30143400D01*
X28346061Y30143400D01*
X28146102Y30103626D01*
X27957744Y30025605D01*
X27788226Y29912337D01*
X27644063Y29768174D01*
X27543463Y29617615D01*
X27465056Y29670005D01*
X27276698Y29748026D01*
X27076739Y29787800D01*
X26872861Y29787800D01*
X26672902Y29748026D01*
X26484544Y29670005D01*
X26315026Y29556737D01*
X26170863Y29412574D01*
X26163763Y29401948D01*
X26059774Y29505937D01*
X25890256Y29619205D01*
X25701898Y29697226D01*
X25501939Y29737000D01*
X25298061Y29737000D01*
X25098102Y29697226D01*
X24909744Y29619205D01*
X24740226Y29505937D01*
X24596063Y29361774D01*
X24482795Y29192256D01*
X24404774Y29003898D01*
X24365000Y28803939D01*
X14437846Y28803939D01*
X14439000Y28809740D01*
X14439000Y29102260D01*
X14381932Y29389158D01*
X14269990Y29659411D01*
X14107475Y29902632D01*
X13900632Y30109475D01*
X13726240Y30226000D01*
X13900632Y30342525D01*
X14107475Y30549368D01*
X14269990Y30792589D01*
X14287946Y30835939D01*
X22688600Y30835939D01*
X22688600Y30632061D01*
X22728374Y30432102D01*
X22806395Y30243744D01*
X22919663Y30074226D01*
X23063826Y29930063D01*
X23233344Y29816795D01*
X23421702Y29738774D01*
X23621661Y29699000D01*
X23825539Y29699000D01*
X24025498Y29738774D01*
X24213856Y29816795D01*
X24383374Y29930063D01*
X24527537Y30074226D01*
X24640805Y30243744D01*
X24718826Y30432102D01*
X24758600Y30632061D01*
X24758600Y30835939D01*
X24718826Y31035898D01*
X24640805Y31224256D01*
X24527537Y31393774D01*
X24383374Y31537937D01*
X24213856Y31651205D01*
X24025498Y31729226D01*
X23825539Y31769000D01*
X23621661Y31769000D01*
X23421702Y31729226D01*
X23233344Y31651205D01*
X23063826Y31537937D01*
X22919663Y31393774D01*
X22806395Y31224256D01*
X22728374Y31035898D01*
X22688600Y30835939D01*
X14287946Y30835939D01*
X14381932Y31062842D01*
X14439000Y31349740D01*
X14439000Y31642260D01*
X14381932Y31929158D01*
X14269990Y32199411D01*
X14107475Y32442632D01*
X13900632Y32649475D01*
X13726240Y32766000D01*
X13900632Y32882525D01*
X14107475Y33089368D01*
X14269990Y33332589D01*
X14381932Y33602842D01*
X14439000Y33889740D01*
X14439000Y34182260D01*
X14381932Y34469158D01*
X14269990Y34739411D01*
X14107475Y34982632D01*
X13900632Y35189475D01*
X13726240Y35306000D01*
X13900632Y35422525D01*
X14107475Y35629368D01*
X14269990Y35872589D01*
X14381932Y36142842D01*
X14439000Y36429740D01*
X14439000Y36722260D01*
X14381932Y37009158D01*
X14371834Y37033539D01*
X22841000Y37033539D01*
X22841000Y36829661D01*
X22880774Y36629702D01*
X22958795Y36441344D01*
X23072063Y36271826D01*
X23216226Y36127663D01*
X23385744Y36014395D01*
X23574102Y35936374D01*
X23774061Y35896600D01*
X23977939Y35896600D01*
X24177898Y35936374D01*
X24366256Y36014395D01*
X24535774Y36127663D01*
X24679937Y36271826D01*
X24793205Y36441344D01*
X24849122Y36576339D01*
X37268200Y36576339D01*
X37268200Y36372461D01*
X37307974Y36172502D01*
X37385995Y35984144D01*
X37499263Y35814626D01*
X37643426Y35670463D01*
X37812944Y35557195D01*
X38001302Y35479174D01*
X38201261Y35439400D01*
X38405139Y35439400D01*
X38605098Y35479174D01*
X38793456Y35557195D01*
X38962974Y35670463D01*
X39107137Y35814626D01*
X39220405Y35984144D01*
X39298426Y36172502D01*
X39338200Y36372461D01*
X39338200Y36576339D01*
X39298426Y36776298D01*
X39220405Y36964656D01*
X39107137Y37134174D01*
X38962974Y37278337D01*
X38793456Y37391605D01*
X38605098Y37469626D01*
X38405139Y37509400D01*
X38201261Y37509400D01*
X38001302Y37469626D01*
X37812944Y37391605D01*
X37643426Y37278337D01*
X37499263Y37134174D01*
X37385995Y36964656D01*
X37307974Y36776298D01*
X37268200Y36576339D01*
X24849122Y36576339D01*
X24871226Y36629702D01*
X24911000Y36829661D01*
X24911000Y37033539D01*
X24871226Y37233498D01*
X24793205Y37421856D01*
X24679937Y37591374D01*
X24535774Y37735537D01*
X24366256Y37848805D01*
X24177898Y37926826D01*
X23977939Y37966600D01*
X23774061Y37966600D01*
X23574102Y37926826D01*
X23385744Y37848805D01*
X23216226Y37735537D01*
X23072063Y37591374D01*
X22958795Y37421856D01*
X22880774Y37233498D01*
X22841000Y37033539D01*
X14371834Y37033539D01*
X14269990Y37279411D01*
X14107475Y37522632D01*
X13900632Y37729475D01*
X13726240Y37846000D01*
X13900632Y37962525D01*
X14107475Y38169368D01*
X14269990Y38412589D01*
X14381932Y38682842D01*
X14397426Y38760739D01*
X31858000Y38760739D01*
X31858000Y38556861D01*
X31897774Y38356902D01*
X31975795Y38168544D01*
X32089063Y37999026D01*
X32233226Y37854863D01*
X32402744Y37741595D01*
X32591102Y37663574D01*
X32791061Y37623800D01*
X32994939Y37623800D01*
X33194898Y37663574D01*
X33383256Y37741595D01*
X33552774Y37854863D01*
X33696937Y37999026D01*
X33810205Y38168544D01*
X33888226Y38356902D01*
X33928000Y38556861D01*
X33928000Y38760739D01*
X33888226Y38960698D01*
X33810205Y39149056D01*
X33696937Y39318574D01*
X33552774Y39462737D01*
X33383256Y39576005D01*
X33194898Y39654026D01*
X32994939Y39693800D01*
X32791061Y39693800D01*
X32591102Y39654026D01*
X32402744Y39576005D01*
X32233226Y39462737D01*
X32089063Y39318574D01*
X31975795Y39149056D01*
X31897774Y38960698D01*
X31858000Y38760739D01*
X14397426Y38760739D01*
X14439000Y38969740D01*
X14439000Y39262260D01*
X14381932Y39549158D01*
X14269990Y39819411D01*
X14107475Y40062632D01*
X13900632Y40269475D01*
X13726240Y40386000D01*
X13900632Y40502525D01*
X14107475Y40709368D01*
X14129238Y40741939D01*
X19539000Y40741939D01*
X19539000Y40538061D01*
X19578774Y40338102D01*
X19656795Y40149744D01*
X19770063Y39980226D01*
X19914226Y39836063D01*
X20083744Y39722795D01*
X20272102Y39644774D01*
X20472061Y39605000D01*
X20675939Y39605000D01*
X20875898Y39644774D01*
X21064256Y39722795D01*
X21233774Y39836063D01*
X21377937Y39980226D01*
X21491205Y40149744D01*
X21568164Y40335539D01*
X28073400Y40335539D01*
X28073400Y40131661D01*
X28113174Y39931702D01*
X28191195Y39743344D01*
X28304463Y39573826D01*
X28448626Y39429663D01*
X28618144Y39316395D01*
X28806502Y39238374D01*
X29006461Y39198600D01*
X29210339Y39198600D01*
X29410298Y39238374D01*
X29598656Y39316395D01*
X29768174Y39429663D01*
X29912337Y39573826D01*
X30025605Y39743344D01*
X30103626Y39931702D01*
X30143400Y40131661D01*
X30143400Y40335539D01*
X30103626Y40535498D01*
X30025605Y40723856D01*
X29912337Y40893374D01*
X29768174Y41037537D01*
X29598656Y41150805D01*
X29410298Y41228826D01*
X29210339Y41268600D01*
X29006461Y41268600D01*
X28806502Y41228826D01*
X28618144Y41150805D01*
X28448626Y41037537D01*
X28304463Y40893374D01*
X28191195Y40723856D01*
X28113174Y40535498D01*
X28073400Y40335539D01*
X21568164Y40335539D01*
X21569226Y40338102D01*
X21609000Y40538061D01*
X21609000Y40741939D01*
X21569226Y40941898D01*
X21491205Y41130256D01*
X21377937Y41299774D01*
X21233774Y41443937D01*
X21064256Y41557205D01*
X20947569Y41605539D01*
X24161800Y41605539D01*
X24161800Y41401661D01*
X24201574Y41201702D01*
X24279595Y41013344D01*
X24392863Y40843826D01*
X24537026Y40699663D01*
X24706544Y40586395D01*
X24894902Y40508374D01*
X25094861Y40468600D01*
X25298739Y40468600D01*
X25498698Y40508374D01*
X25687056Y40586395D01*
X25856574Y40699663D01*
X26000737Y40843826D01*
X26114005Y41013344D01*
X26192026Y41201702D01*
X26231800Y41401661D01*
X26231800Y41605539D01*
X26192026Y41805498D01*
X26114005Y41993856D01*
X26017064Y42138939D01*
X29572000Y42138939D01*
X29572000Y41935061D01*
X29611774Y41735102D01*
X29689795Y41546744D01*
X29803063Y41377226D01*
X29947226Y41233063D01*
X30116744Y41119795D01*
X30305102Y41041774D01*
X30505061Y41002000D01*
X30708939Y41002000D01*
X30908898Y41041774D01*
X31097256Y41119795D01*
X31266774Y41233063D01*
X31410937Y41377226D01*
X31524205Y41546744D01*
X31602226Y41735102D01*
X31642000Y41935061D01*
X31642000Y42138939D01*
X32112000Y42138939D01*
X32112000Y41935061D01*
X32151774Y41735102D01*
X32229795Y41546744D01*
X32343063Y41377226D01*
X32487226Y41233063D01*
X32656744Y41119795D01*
X32845102Y41041774D01*
X33045061Y41002000D01*
X33248939Y41002000D01*
X33448898Y41041774D01*
X33637256Y41119795D01*
X33806774Y41233063D01*
X33950937Y41377226D01*
X34064205Y41546744D01*
X34142226Y41735102D01*
X34182000Y41935061D01*
X34182000Y42138939D01*
X34142226Y42338898D01*
X34064205Y42527256D01*
X33950937Y42696774D01*
X33806774Y42840937D01*
X33637256Y42954205D01*
X33448898Y43032226D01*
X33248939Y43072000D01*
X33045061Y43072000D01*
X32845102Y43032226D01*
X32656744Y42954205D01*
X32487226Y42840937D01*
X32343063Y42696774D01*
X32229795Y42527256D01*
X32151774Y42338898D01*
X32112000Y42138939D01*
X31642000Y42138939D01*
X31602226Y42338898D01*
X31524205Y42527256D01*
X31410937Y42696774D01*
X31266774Y42840937D01*
X31097256Y42954205D01*
X30908898Y43032226D01*
X30708939Y43072000D01*
X30505061Y43072000D01*
X30305102Y43032226D01*
X30116744Y42954205D01*
X29947226Y42840937D01*
X29803063Y42696774D01*
X29689795Y42527256D01*
X29611774Y42338898D01*
X29572000Y42138939D01*
X26017064Y42138939D01*
X26000737Y42163374D01*
X25856574Y42307537D01*
X25687056Y42420805D01*
X25498698Y42498826D01*
X25298739Y42538600D01*
X25094861Y42538600D01*
X24894902Y42498826D01*
X24706544Y42420805D01*
X24537026Y42307537D01*
X24392863Y42163374D01*
X24279595Y41993856D01*
X24201574Y41805498D01*
X24161800Y41605539D01*
X20947569Y41605539D01*
X20875898Y41635226D01*
X20675939Y41675000D01*
X20472061Y41675000D01*
X20272102Y41635226D01*
X20083744Y41557205D01*
X19914226Y41443937D01*
X19770063Y41299774D01*
X19656795Y41130256D01*
X19578774Y40941898D01*
X19539000Y40741939D01*
X14129238Y40741939D01*
X14269990Y40952589D01*
X14381932Y41222842D01*
X14439000Y41509740D01*
X14439000Y41802260D01*
X14381932Y42089158D01*
X14269990Y42359411D01*
X14107475Y42602632D01*
X13900632Y42809475D01*
X13726240Y42926000D01*
X13900632Y43042525D01*
X14107475Y43249368D01*
X14269990Y43492589D01*
X14381932Y43762842D01*
X14439000Y44049740D01*
X14439000Y44342260D01*
X14381932Y44629158D01*
X14282405Y44869439D01*
X24009400Y44869439D01*
X24009400Y44665561D01*
X24049174Y44465602D01*
X24127195Y44277244D01*
X24240463Y44107726D01*
X24384626Y43963563D01*
X24554144Y43850295D01*
X24742502Y43772274D01*
X24942461Y43732500D01*
X24948149Y43732500D01*
X24990795Y43629544D01*
X25104063Y43460026D01*
X25248226Y43315863D01*
X25417744Y43202595D01*
X25606102Y43124574D01*
X25806061Y43084800D01*
X26009939Y43084800D01*
X26209898Y43124574D01*
X26398256Y43202595D01*
X26567774Y43315863D01*
X26711937Y43460026D01*
X26825205Y43629544D01*
X26883367Y43769960D01*
X27022698Y43797674D01*
X27211056Y43875695D01*
X27380574Y43988963D01*
X27435550Y44043939D01*
X45955000Y44043939D01*
X45955000Y43840061D01*
X45994774Y43640102D01*
X46072795Y43451744D01*
X46186063Y43282226D01*
X46330226Y43138063D01*
X46499744Y43024795D01*
X46688102Y42946774D01*
X46888061Y42907000D01*
X47091939Y42907000D01*
X47291898Y42946774D01*
X47480256Y43024795D01*
X47649774Y43138063D01*
X47793937Y43282226D01*
X47907205Y43451744D01*
X47985226Y43640102D01*
X48025000Y43840061D01*
X48025000Y44043939D01*
X47985226Y44243898D01*
X47949810Y44329400D01*
X48107939Y44329400D01*
X48307898Y44369174D01*
X48496256Y44447195D01*
X48665774Y44560463D01*
X48809937Y44704626D01*
X48923205Y44874144D01*
X49001226Y45062502D01*
X49041000Y45262461D01*
X49041000Y45466339D01*
X49001226Y45666298D01*
X48923205Y45854656D01*
X48809937Y46024174D01*
X48713851Y46120260D01*
X51855000Y46120260D01*
X51855000Y45827740D01*
X51912068Y45540842D01*
X52024010Y45270589D01*
X52186525Y45027368D01*
X52393368Y44820525D01*
X52567760Y44704000D01*
X52393368Y44587475D01*
X52186525Y44380632D01*
X52024010Y44137411D01*
X51912068Y43867158D01*
X51855000Y43580260D01*
X51855000Y43287740D01*
X51912068Y43000842D01*
X52024010Y42730589D01*
X52186525Y42487368D01*
X52393368Y42280525D01*
X52567760Y42164000D01*
X52393368Y42047475D01*
X52186525Y41840632D01*
X52024010Y41597411D01*
X51912068Y41327158D01*
X51855000Y41040260D01*
X51855000Y40747740D01*
X51912068Y40460842D01*
X52024010Y40190589D01*
X52186525Y39947368D01*
X52393368Y39740525D01*
X52567760Y39624000D01*
X52393368Y39507475D01*
X52186525Y39300632D01*
X52024010Y39057411D01*
X51912068Y38787158D01*
X51855000Y38500260D01*
X51855000Y38207740D01*
X51912068Y37920842D01*
X52024010Y37650589D01*
X52186525Y37407368D01*
X52393368Y37200525D01*
X52567760Y37084000D01*
X52393368Y36967475D01*
X52186525Y36760632D01*
X52024010Y36517411D01*
X51912068Y36247158D01*
X51855000Y35960260D01*
X51855000Y35667740D01*
X51912068Y35380842D01*
X52024010Y35110589D01*
X52186525Y34867368D01*
X52393368Y34660525D01*
X52567760Y34544000D01*
X52393368Y34427475D01*
X52186525Y34220632D01*
X52024010Y33977411D01*
X51912068Y33707158D01*
X51855000Y33420260D01*
X51855000Y33127740D01*
X51912068Y32840842D01*
X52024010Y32570589D01*
X52186525Y32327368D01*
X52393368Y32120525D01*
X52567760Y32004000D01*
X52393368Y31887475D01*
X52186525Y31680632D01*
X52024010Y31437411D01*
X51912068Y31167158D01*
X51855000Y30880260D01*
X51855000Y30587740D01*
X51912068Y30300842D01*
X52024010Y30030589D01*
X52186525Y29787368D01*
X52393368Y29580525D01*
X52567760Y29464000D01*
X52393368Y29347475D01*
X52186525Y29140632D01*
X52024010Y28897411D01*
X51912068Y28627158D01*
X51855000Y28340260D01*
X51855000Y28047740D01*
X51912068Y27760842D01*
X52024010Y27490589D01*
X52186525Y27247368D01*
X52393368Y27040525D01*
X52567760Y26924000D01*
X52393368Y26807475D01*
X52186525Y26600632D01*
X52024010Y26357411D01*
X51912068Y26087158D01*
X51855000Y25800260D01*
X51855000Y25507740D01*
X51912068Y25220842D01*
X52024010Y24950589D01*
X52186525Y24707368D01*
X52393368Y24500525D01*
X52636589Y24338010D01*
X52906842Y24226068D01*
X53193740Y24169000D01*
X53486260Y24169000D01*
X53773158Y24226068D01*
X54043411Y24338010D01*
X54286632Y24500525D01*
X54493475Y24707368D01*
X54610000Y24881760D01*
X54726525Y24707368D01*
X54933368Y24500525D01*
X55176589Y24338010D01*
X55446842Y24226068D01*
X55733740Y24169000D01*
X56026260Y24169000D01*
X56313158Y24226068D01*
X56583411Y24338010D01*
X56826632Y24500525D01*
X57033475Y24707368D01*
X57195990Y24950589D01*
X57307932Y25220842D01*
X57365000Y25507740D01*
X57365000Y25800260D01*
X57307932Y26087158D01*
X57195990Y26357411D01*
X57033475Y26600632D01*
X56826632Y26807475D01*
X56652240Y26924000D01*
X56826632Y27040525D01*
X56862846Y27076739D01*
X57435800Y27076739D01*
X57435800Y26872861D01*
X57475574Y26672902D01*
X57553595Y26484544D01*
X57666863Y26315026D01*
X57811026Y26170863D01*
X57980544Y26057595D01*
X58168902Y25979574D01*
X58368861Y25939800D01*
X58572739Y25939800D01*
X58772698Y25979574D01*
X58961056Y26057595D01*
X59130574Y26170863D01*
X59274737Y26315026D01*
X59388005Y26484544D01*
X59466026Y26672902D01*
X59505800Y26872861D01*
X59505800Y27076739D01*
X59466026Y27276698D01*
X59388005Y27465056D01*
X59274737Y27634574D01*
X59130574Y27778737D01*
X58961056Y27892005D01*
X58772698Y27970026D01*
X58572739Y28009800D01*
X58368861Y28009800D01*
X58168902Y27970026D01*
X57980544Y27892005D01*
X57811026Y27778737D01*
X57666863Y27634574D01*
X57553595Y27465056D01*
X57475574Y27276698D01*
X57435800Y27076739D01*
X56862846Y27076739D01*
X57033475Y27247368D01*
X57195990Y27490589D01*
X57307932Y27760842D01*
X57365000Y28047740D01*
X57365000Y28340260D01*
X57307932Y28627158D01*
X57195990Y28897411D01*
X57033475Y29140632D01*
X56826632Y29347475D01*
X56652240Y29464000D01*
X56826632Y29580525D01*
X57033475Y29787368D01*
X57195990Y30030589D01*
X57307932Y30300842D01*
X57365000Y30587740D01*
X57365000Y30835939D01*
X63989000Y30835939D01*
X63989000Y30632061D01*
X64028774Y30432102D01*
X64106795Y30243744D01*
X64220063Y30074226D01*
X64364226Y29930063D01*
X64533744Y29816795D01*
X64722102Y29738774D01*
X64922061Y29699000D01*
X65125939Y29699000D01*
X65325898Y29738774D01*
X65514256Y29816795D01*
X65683774Y29930063D01*
X65827937Y30074226D01*
X65941205Y30243744D01*
X66019226Y30432102D01*
X66059000Y30632061D01*
X66059000Y30835939D01*
X66019226Y31035898D01*
X65941205Y31224256D01*
X65827937Y31393774D01*
X65683774Y31537937D01*
X65514256Y31651205D01*
X65325898Y31729226D01*
X65125939Y31769000D01*
X64922061Y31769000D01*
X64722102Y31729226D01*
X64533744Y31651205D01*
X64364226Y31537937D01*
X64220063Y31393774D01*
X64106795Y31224256D01*
X64028774Y31035898D01*
X63989000Y30835939D01*
X57365000Y30835939D01*
X57365000Y30880260D01*
X57307932Y31167158D01*
X57195990Y31437411D01*
X57033475Y31680632D01*
X56826632Y31887475D01*
X56652240Y32004000D01*
X56804802Y32105939D01*
X57537400Y32105939D01*
X57537400Y31902061D01*
X57577174Y31702102D01*
X57655195Y31513744D01*
X57768463Y31344226D01*
X57912626Y31200063D01*
X58082144Y31086795D01*
X58270502Y31008774D01*
X58470461Y30969000D01*
X58674339Y30969000D01*
X58874298Y31008774D01*
X59062656Y31086795D01*
X59232174Y31200063D01*
X59376337Y31344226D01*
X59489605Y31513744D01*
X59567626Y31702102D01*
X59607400Y31902061D01*
X59607400Y32105939D01*
X59567626Y32305898D01*
X59489605Y32494256D01*
X59376337Y32663774D01*
X59232174Y32807937D01*
X59062656Y32921205D01*
X58874298Y32999226D01*
X58674339Y33039000D01*
X58470461Y33039000D01*
X58270502Y32999226D01*
X58082144Y32921205D01*
X57912626Y32807937D01*
X57768463Y32663774D01*
X57655195Y32494256D01*
X57577174Y32305898D01*
X57537400Y32105939D01*
X56804802Y32105939D01*
X56826632Y32120525D01*
X57033475Y32327368D01*
X57195990Y32570589D01*
X57307932Y32840842D01*
X57365000Y33127740D01*
X57365000Y33420260D01*
X57307932Y33707158D01*
X57195990Y33977411D01*
X57033475Y34220632D01*
X56826632Y34427475D01*
X56652240Y34544000D01*
X56826632Y34660525D01*
X57033475Y34867368D01*
X57195990Y35110589D01*
X57307932Y35380842D01*
X57353741Y35611139D01*
X61398200Y35611139D01*
X61398200Y35407261D01*
X61437974Y35207302D01*
X61515995Y35018944D01*
X61629263Y34849426D01*
X61773426Y34705263D01*
X61942944Y34591995D01*
X62131302Y34513974D01*
X62331261Y34474200D01*
X62535139Y34474200D01*
X62735098Y34513974D01*
X62923456Y34591995D01*
X63092974Y34705263D01*
X63237137Y34849426D01*
X63350405Y35018944D01*
X63428426Y35207302D01*
X63468200Y35407261D01*
X63468200Y35611139D01*
X63428426Y35811098D01*
X63350405Y35999456D01*
X63237137Y36168974D01*
X63092974Y36313137D01*
X62923456Y36426405D01*
X62735098Y36504426D01*
X62535139Y36544200D01*
X62331261Y36544200D01*
X62131302Y36504426D01*
X61942944Y36426405D01*
X61773426Y36313137D01*
X61629263Y36168974D01*
X61515995Y35999456D01*
X61437974Y35811098D01*
X61398200Y35611139D01*
X57353741Y35611139D01*
X57365000Y35667740D01*
X57365000Y35960260D01*
X57307932Y36247158D01*
X57195990Y36517411D01*
X57033475Y36760632D01*
X56826632Y36967475D01*
X56652240Y37084000D01*
X56804802Y37185939D01*
X66579800Y37185939D01*
X66579800Y36982061D01*
X66619574Y36782102D01*
X66697595Y36593744D01*
X66810863Y36424226D01*
X66955026Y36280063D01*
X67124544Y36166795D01*
X67312902Y36088774D01*
X67512861Y36049000D01*
X67716739Y36049000D01*
X67916698Y36088774D01*
X68105056Y36166795D01*
X68274574Y36280063D01*
X68418737Y36424226D01*
X68532005Y36593744D01*
X68610026Y36782102D01*
X68649800Y36982061D01*
X68649800Y37185939D01*
X68610026Y37385898D01*
X68532005Y37574256D01*
X68418737Y37743774D01*
X68274574Y37887937D01*
X68105056Y38001205D01*
X67916698Y38079226D01*
X67716739Y38119000D01*
X67512861Y38119000D01*
X67312902Y38079226D01*
X67124544Y38001205D01*
X66955026Y37887937D01*
X66810863Y37743774D01*
X66697595Y37574256D01*
X66619574Y37385898D01*
X66579800Y37185939D01*
X56804802Y37185939D01*
X56826632Y37200525D01*
X57033475Y37407368D01*
X57195990Y37650589D01*
X57307932Y37920842D01*
X57365000Y38207740D01*
X57365000Y38500260D01*
X57307932Y38787158D01*
X57195990Y39057411D01*
X57033475Y39300632D01*
X56826632Y39507475D01*
X56652240Y39624000D01*
X56826632Y39740525D01*
X57033475Y39947368D01*
X57195990Y40190589D01*
X57307932Y40460842D01*
X57365000Y40747740D01*
X57365000Y41040260D01*
X57307932Y41327158D01*
X57195990Y41597411D01*
X57190560Y41605539D01*
X61347400Y41605539D01*
X61347400Y41401661D01*
X61387174Y41201702D01*
X61465195Y41013344D01*
X61578463Y40843826D01*
X61722626Y40699663D01*
X61892144Y40586395D01*
X62080502Y40508374D01*
X62280461Y40468600D01*
X62484339Y40468600D01*
X62684298Y40508374D01*
X62872656Y40586395D01*
X63042174Y40699663D01*
X63186337Y40843826D01*
X63299605Y41013344D01*
X63377626Y41201702D01*
X63417400Y41401661D01*
X63417400Y41605539D01*
X63377626Y41805498D01*
X63299605Y41993856D01*
X63186337Y42163374D01*
X63042174Y42307537D01*
X62872656Y42420805D01*
X62684298Y42498826D01*
X62484339Y42538600D01*
X62280461Y42538600D01*
X62080502Y42498826D01*
X61892144Y42420805D01*
X61722626Y42307537D01*
X61578463Y42163374D01*
X61465195Y41993856D01*
X61387174Y41805498D01*
X61347400Y41605539D01*
X57190560Y41605539D01*
X57033475Y41840632D01*
X56826632Y42047475D01*
X56652240Y42164000D01*
X56826632Y42280525D01*
X57033475Y42487368D01*
X57195990Y42730589D01*
X57307932Y43000842D01*
X57365000Y43287740D01*
X57365000Y43580260D01*
X57307932Y43867158D01*
X57195990Y44137411D01*
X57033475Y44380632D01*
X56826632Y44587475D01*
X56652240Y44704000D01*
X56826632Y44820525D01*
X57033475Y45027368D01*
X57195990Y45270589D01*
X57307932Y45540842D01*
X57365000Y45827740D01*
X57365000Y46120260D01*
X57307932Y46407158D01*
X57195990Y46677411D01*
X57033475Y46920632D01*
X56826632Y47127475D01*
X56652240Y47244000D01*
X56826632Y47360525D01*
X57033475Y47567368D01*
X57195990Y47810589D01*
X57307932Y48080842D01*
X57365000Y48367740D01*
X57365000Y48660260D01*
X57307932Y48947158D01*
X57195990Y49217411D01*
X57033475Y49460632D01*
X56826632Y49667475D01*
X56583411Y49829990D01*
X56313158Y49941932D01*
X56026260Y49999000D01*
X55733740Y49999000D01*
X55446842Y49941932D01*
X55176589Y49829990D01*
X54933368Y49667475D01*
X54726525Y49460632D01*
X54572450Y49230042D01*
X54572843Y49364000D01*
X54565487Y49438689D01*
X54543701Y49510508D01*
X54508322Y49576696D01*
X54460711Y49634711D01*
X54402696Y49682322D01*
X54336508Y49717701D01*
X54264689Y49739487D01*
X54190000Y49746843D01*
X53562250Y49745000D01*
X53467000Y49649750D01*
X53467000Y48641000D01*
X53487000Y48641000D01*
X53487000Y48387000D01*
X53467000Y48387000D01*
X53467000Y48367000D01*
X53213000Y48367000D01*
X53213000Y48387000D01*
X52204250Y48387000D01*
X52109000Y48291750D01*
X52107157Y47664000D01*
X52114513Y47589311D01*
X52136299Y47517492D01*
X52171678Y47451304D01*
X52219289Y47393289D01*
X52277304Y47345678D01*
X52343492Y47310299D01*
X52415311Y47288513D01*
X52490000Y47281157D01*
X52623958Y47281550D01*
X52393368Y47127475D01*
X52186525Y46920632D01*
X52024010Y46677411D01*
X51912068Y46407158D01*
X51855000Y46120260D01*
X48713851Y46120260D01*
X48665774Y46168337D01*
X48503561Y46276724D01*
X48516805Y46296544D01*
X48594826Y46484902D01*
X48634600Y46684861D01*
X48634600Y46888739D01*
X48594826Y47088698D01*
X48516805Y47277056D01*
X48403537Y47446574D01*
X48259374Y47590737D01*
X48089856Y47704005D01*
X47901498Y47782026D01*
X47701539Y47821800D01*
X47497661Y47821800D01*
X47297702Y47782026D01*
X47109344Y47704005D01*
X46939826Y47590737D01*
X46795663Y47446574D01*
X46682395Y47277056D01*
X46604374Y47088698D01*
X46564600Y46888739D01*
X46564600Y46684861D01*
X46604374Y46484902D01*
X46682395Y46296544D01*
X46795663Y46127026D01*
X46939826Y45982863D01*
X47102039Y45874476D01*
X47088795Y45854656D01*
X47010774Y45666298D01*
X46971000Y45466339D01*
X46971000Y45262461D01*
X47010774Y45062502D01*
X47046190Y44977000D01*
X46888061Y44977000D01*
X46688102Y44937226D01*
X46499744Y44859205D01*
X46330226Y44745937D01*
X46186063Y44601774D01*
X46072795Y44432256D01*
X45994774Y44243898D01*
X45955000Y44043939D01*
X27435550Y44043939D01*
X27524737Y44133126D01*
X27638005Y44302644D01*
X27716026Y44491002D01*
X27755800Y44690961D01*
X27755800Y44894839D01*
X27716026Y45094798D01*
X27638005Y45283156D01*
X27524737Y45452674D01*
X27380574Y45596837D01*
X27211056Y45710105D01*
X27022698Y45788126D01*
X26822739Y45827900D01*
X26618861Y45827900D01*
X26418902Y45788126D01*
X26230544Y45710105D01*
X26061026Y45596837D01*
X25916863Y45452674D01*
X25874114Y45388696D01*
X25848337Y45427274D01*
X25704174Y45571437D01*
X25534656Y45684705D01*
X25346298Y45762726D01*
X25146339Y45802500D01*
X24942461Y45802500D01*
X24742502Y45762726D01*
X24554144Y45684705D01*
X24384626Y45571437D01*
X24240463Y45427274D01*
X24127195Y45257756D01*
X24049174Y45069398D01*
X24009400Y44869439D01*
X14282405Y44869439D01*
X14269990Y44899411D01*
X14107475Y45142632D01*
X13900632Y45349475D01*
X13726240Y45466000D01*
X13900632Y45582525D01*
X14107475Y45789368D01*
X14269990Y46032589D01*
X14381932Y46302842D01*
X14439000Y46589740D01*
X14439000Y46882260D01*
X14432659Y46914139D01*
X24873000Y46914139D01*
X24873000Y46710261D01*
X24912774Y46510302D01*
X24990795Y46321944D01*
X25104063Y46152426D01*
X25248226Y46008263D01*
X25417744Y45894995D01*
X25606102Y45816974D01*
X25806061Y45777200D01*
X26009939Y45777200D01*
X26209898Y45816974D01*
X26398256Y45894995D01*
X26567774Y46008263D01*
X26711937Y46152426D01*
X26825205Y46321944D01*
X26903226Y46510302D01*
X26943000Y46710261D01*
X26943000Y46914139D01*
X26903226Y47114098D01*
X26825205Y47302456D01*
X26711937Y47471974D01*
X26567774Y47616137D01*
X26398256Y47729405D01*
X26209898Y47807426D01*
X26009939Y47847200D01*
X25806061Y47847200D01*
X25606102Y47807426D01*
X25417744Y47729405D01*
X25248226Y47616137D01*
X25104063Y47471974D01*
X24990795Y47302456D01*
X24912774Y47114098D01*
X24873000Y46914139D01*
X14432659Y46914139D01*
X14381932Y47169158D01*
X14269990Y47439411D01*
X14107475Y47682632D01*
X13900632Y47889475D01*
X13657411Y48051990D01*
X13430100Y48146145D01*
X13496949Y48171201D01*
X13702052Y48298353D01*
X13878408Y48463076D01*
X14019239Y48659039D01*
X14119134Y48878712D01*
X14143489Y48959020D01*
X14082627Y49149000D01*
X13081000Y49149000D01*
X13081000Y49129000D01*
X12827000Y49129000D01*
X12827000Y49149000D01*
X11825373Y49149000D01*
X11764511Y48959020D01*
X11788866Y48878712D01*
X11888761Y48659039D01*
X12029592Y48463076D01*
X12205948Y48298353D01*
X12411051Y48171201D01*
X12477900Y48146145D01*
X12250589Y48051990D01*
X12007368Y47889475D01*
X11800525Y47682632D01*
X11684000Y47508240D01*
X11567475Y47682632D01*
X11360632Y47889475D01*
X11117411Y48051990D01*
X10890100Y48146145D01*
X10956949Y48171201D01*
X11162052Y48298353D01*
X11338408Y48463076D01*
X11479239Y48659039D01*
X11579134Y48878712D01*
X11603489Y48959020D01*
X11542627Y49149000D01*
X10541000Y49149000D01*
X10541000Y49129000D01*
X10287000Y49129000D01*
X10287000Y49149000D01*
X9285373Y49149000D01*
X9224511Y48959020D01*
X9248866Y48878712D01*
X9348761Y48659039D01*
X9489592Y48463076D01*
X9665948Y48298353D01*
X9871051Y48171201D01*
X9937900Y48146145D01*
X9710589Y48051990D01*
X9467368Y47889475D01*
X9260525Y47682632D01*
X9098010Y47439411D01*
X8986068Y47169158D01*
X8929000Y46882260D01*
X735000Y46882260D01*
X735000Y49364000D01*
X52107157Y49364000D01*
X52109000Y48736250D01*
X52204250Y48641000D01*
X53213000Y48641000D01*
X53213000Y49649750D01*
X53117750Y49745000D01*
X52490000Y49746843D01*
X52415311Y49739487D01*
X52343492Y49717701D01*
X52277304Y49682322D01*
X52219289Y49634711D01*
X52171678Y49576696D01*
X52136299Y49510508D01*
X52114513Y49438689D01*
X52107157Y49364000D01*
X735000Y49364000D01*
X735000Y49592980D01*
X9224511Y49592980D01*
X9285373Y49403000D01*
X10287000Y49403000D01*
X10287000Y50405187D01*
X10541000Y50405187D01*
X10541000Y49403000D01*
X11542627Y49403000D01*
X11603489Y49592980D01*
X11764511Y49592980D01*
X11825373Y49403000D01*
X12827000Y49403000D01*
X12827000Y50405187D01*
X13081000Y50405187D01*
X13081000Y49403000D01*
X14082627Y49403000D01*
X14143489Y49592980D01*
X14119134Y49673288D01*
X14019239Y49892961D01*
X13878408Y50088924D01*
X13702052Y50253647D01*
X13496949Y50380799D01*
X13270981Y50465495D01*
X13081000Y50405187D01*
X12827000Y50405187D01*
X12637019Y50465495D01*
X12411051Y50380799D01*
X12205948Y50253647D01*
X12029592Y50088924D01*
X11888761Y49892961D01*
X11788866Y49673288D01*
X11764511Y49592980D01*
X11603489Y49592980D01*
X11579134Y49673288D01*
X11479239Y49892961D01*
X11338408Y50088924D01*
X11162052Y50253647D01*
X10956949Y50380799D01*
X10730981Y50465495D01*
X10541000Y50405187D01*
X10287000Y50405187D01*
X10097019Y50465495D01*
X9871051Y50380799D01*
X9665948Y50253647D01*
X9489592Y50088924D01*
X9348761Y49892961D01*
X9248866Y49673288D01*
X9224511Y49592980D01*
X735000Y49592980D01*
X735000Y50966000D01*
X9181157Y50966000D01*
X9188513Y50891311D01*
X9210299Y50819492D01*
X9245678Y50753304D01*
X9293289Y50695289D01*
X9351304Y50647678D01*
X9417492Y50612299D01*
X9489311Y50590513D01*
X9564000Y50583157D01*
X10191750Y50585000D01*
X10287000Y50680250D01*
X10287000Y51689000D01*
X10541000Y51689000D01*
X10541000Y50680250D01*
X10636250Y50585000D01*
X11264000Y50583157D01*
X11338689Y50590513D01*
X11410508Y50612299D01*
X11476696Y50647678D01*
X11534711Y50695289D01*
X11582322Y50753304D01*
X11617701Y50819492D01*
X11639487Y50891311D01*
X11646843Y50966000D01*
X11645279Y51499020D01*
X11764511Y51499020D01*
X11788866Y51418712D01*
X11888761Y51199039D01*
X12029592Y51003076D01*
X12205948Y50838353D01*
X12411051Y50711201D01*
X12637019Y50626505D01*
X12827000Y50686813D01*
X12827000Y51689000D01*
X13081000Y51689000D01*
X13081000Y50686813D01*
X13270981Y50626505D01*
X13496949Y50711201D01*
X13702052Y50838353D01*
X13878408Y51003076D01*
X14019239Y51199039D01*
X14119134Y51418712D01*
X14143489Y51499020D01*
X14082627Y51689000D01*
X13081000Y51689000D01*
X12827000Y51689000D01*
X11825373Y51689000D01*
X11764511Y51499020D01*
X11645279Y51499020D01*
X11645000Y51593750D01*
X11549750Y51689000D01*
X10541000Y51689000D01*
X10287000Y51689000D01*
X9278250Y51689000D01*
X9183000Y51593750D01*
X9181157Y50966000D01*
X735000Y50966000D01*
X735000Y52666000D01*
X9181157Y52666000D01*
X9183000Y52038250D01*
X9278250Y51943000D01*
X10287000Y51943000D01*
X10287000Y52951750D01*
X10541000Y52951750D01*
X10541000Y51943000D01*
X11549750Y51943000D01*
X11645000Y52038250D01*
X11645278Y52132980D01*
X11764511Y52132980D01*
X11825373Y51943000D01*
X12827000Y51943000D01*
X12827000Y52945187D01*
X13081000Y52945187D01*
X13081000Y51943000D01*
X14082627Y51943000D01*
X14143489Y52132980D01*
X14119134Y52213288D01*
X14019239Y52432961D01*
X13878408Y52628924D01*
X13861040Y52645147D01*
X43329408Y52645147D01*
X43329408Y52441269D01*
X43369182Y52241310D01*
X43447203Y52052952D01*
X43560471Y51883434D01*
X43704634Y51739271D01*
X43874152Y51626003D01*
X44062510Y51547982D01*
X44262469Y51508208D01*
X44466347Y51508208D01*
X44666306Y51547982D01*
X44854664Y51626003D01*
X45024182Y51739271D01*
X45168345Y51883434D01*
X45281613Y52052952D01*
X45359634Y52241310D01*
X45399408Y52441269D01*
X45399408Y52645147D01*
X45359634Y52845106D01*
X45340445Y52891433D01*
X63592200Y52891433D01*
X63592200Y52569367D01*
X63655032Y52253488D01*
X63778282Y51955937D01*
X63957213Y51688148D01*
X64184948Y51460413D01*
X64452737Y51281482D01*
X64750288Y51158232D01*
X65066167Y51095400D01*
X65388233Y51095400D01*
X65704112Y51158232D01*
X66001663Y51281482D01*
X66269452Y51460413D01*
X66497187Y51688148D01*
X66676118Y51955937D01*
X66799368Y52253488D01*
X66862200Y52569367D01*
X66862200Y52891433D01*
X66799368Y53207312D01*
X66676118Y53504863D01*
X66497187Y53772652D01*
X66269452Y54000387D01*
X66001663Y54179318D01*
X65704112Y54302568D01*
X65388233Y54365400D01*
X65066167Y54365400D01*
X64750288Y54302568D01*
X64452737Y54179318D01*
X64184948Y54000387D01*
X63957213Y53772652D01*
X63778282Y53504863D01*
X63655032Y53207312D01*
X63592200Y52891433D01*
X45340445Y52891433D01*
X45281613Y53033464D01*
X45168345Y53202982D01*
X45024182Y53347145D01*
X44854664Y53460413D01*
X44666306Y53538434D01*
X44466347Y53578208D01*
X44262469Y53578208D01*
X44062510Y53538434D01*
X43874152Y53460413D01*
X43704634Y53347145D01*
X43560471Y53202982D01*
X43447203Y53033464D01*
X43369182Y52845106D01*
X43329408Y52645147D01*
X13861040Y52645147D01*
X13702052Y52793647D01*
X13496949Y52920799D01*
X13270981Y53005495D01*
X13081000Y52945187D01*
X12827000Y52945187D01*
X12637019Y53005495D01*
X12411051Y52920799D01*
X12205948Y52793647D01*
X12029592Y52628924D01*
X11888761Y52432961D01*
X11788866Y52213288D01*
X11764511Y52132980D01*
X11645278Y52132980D01*
X11646843Y52666000D01*
X11639487Y52740689D01*
X11617701Y52812508D01*
X11582322Y52878696D01*
X11534711Y52936711D01*
X11476696Y52984322D01*
X11410508Y53019701D01*
X11338689Y53041487D01*
X11264000Y53048843D01*
X10636250Y53047000D01*
X10541000Y52951750D01*
X10287000Y52951750D01*
X10191750Y53047000D01*
X9564000Y53048843D01*
X9489311Y53041487D01*
X9417492Y53019701D01*
X9351304Y52984322D01*
X9293289Y52936711D01*
X9245678Y52878696D01*
X9210299Y52812508D01*
X9188513Y52740689D01*
X9181157Y52666000D01*
X735000Y52666000D01*
X735000Y58174633D01*
X1159000Y58174633D01*
X1159000Y57852567D01*
X1221832Y57536688D01*
X1345082Y57239137D01*
X1524013Y56971348D01*
X1751748Y56743613D01*
X2019537Y56564682D01*
X2317088Y56441432D01*
X2632967Y56378600D01*
X2955033Y56378600D01*
X3270912Y56441432D01*
X3568463Y56564682D01*
X3836252Y56743613D01*
X4063987Y56971348D01*
X4242918Y57239137D01*
X4264789Y57291939D01*
X5228000Y57291939D01*
X5228000Y57088061D01*
X5267774Y56888102D01*
X5345795Y56699744D01*
X5459063Y56530226D01*
X5603226Y56386063D01*
X5772744Y56272795D01*
X5961102Y56194774D01*
X6161061Y56155000D01*
X6364939Y56155000D01*
X6564898Y56194774D01*
X6753256Y56272795D01*
X6922774Y56386063D01*
X7066937Y56530226D01*
X7180205Y56699744D01*
X7258226Y56888102D01*
X7298000Y57088061D01*
X7298000Y57291939D01*
X7258226Y57491898D01*
X7199805Y57632939D01*
X18904000Y57632939D01*
X18904000Y57429061D01*
X18943774Y57229102D01*
X19021795Y57040744D01*
X19135063Y56871226D01*
X19279226Y56727063D01*
X19448744Y56613795D01*
X19637102Y56535774D01*
X19837061Y56496000D01*
X20040939Y56496000D01*
X20240898Y56535774D01*
X20429256Y56613795D01*
X20598774Y56727063D01*
X20742937Y56871226D01*
X20856205Y57040744D01*
X20934226Y57229102D01*
X20974000Y57429061D01*
X20974000Y57632939D01*
X20934226Y57832898D01*
X20856205Y58021256D01*
X20742937Y58190774D01*
X20598774Y58334937D01*
X20429256Y58448205D01*
X20240898Y58526226D01*
X20040939Y58566000D01*
X19837061Y58566000D01*
X19637102Y58526226D01*
X19448744Y58448205D01*
X19279226Y58334937D01*
X19135063Y58190774D01*
X19021795Y58021256D01*
X18943774Y57832898D01*
X18904000Y57632939D01*
X7199805Y57632939D01*
X7180205Y57680256D01*
X7066937Y57849774D01*
X6922774Y57993937D01*
X6753256Y58107205D01*
X6564898Y58185226D01*
X6364939Y58225000D01*
X6161061Y58225000D01*
X5961102Y58185226D01*
X5772744Y58107205D01*
X5603226Y57993937D01*
X5459063Y57849774D01*
X5345795Y57680256D01*
X5267774Y57491898D01*
X5228000Y57291939D01*
X4264789Y57291939D01*
X4366168Y57536688D01*
X4429000Y57852567D01*
X4429000Y58174633D01*
X4366168Y58490512D01*
X4242918Y58788063D01*
X4063987Y59055852D01*
X3836252Y59283587D01*
X3823313Y59292233D01*
X58969400Y59292233D01*
X58969400Y58970167D01*
X59032232Y58654288D01*
X59155482Y58356737D01*
X59334413Y58088948D01*
X59562148Y57861213D01*
X59829937Y57682282D01*
X60127488Y57559032D01*
X60443367Y57496200D01*
X60765433Y57496200D01*
X61081312Y57559032D01*
X61378863Y57682282D01*
X61646652Y57861213D01*
X61874387Y58088948D01*
X62053318Y58356737D01*
X62176568Y58654288D01*
X62239400Y58970167D01*
X62239400Y59292233D01*
X62176568Y59608112D01*
X62053318Y59905663D01*
X61874387Y60173452D01*
X61646652Y60401187D01*
X61378863Y60580118D01*
X61081312Y60703368D01*
X60765433Y60766200D01*
X60443367Y60766200D01*
X60127488Y60703368D01*
X59829937Y60580118D01*
X59562148Y60401187D01*
X59334413Y60173452D01*
X59155482Y59905663D01*
X59032232Y59608112D01*
X58969400Y59292233D01*
X3823313Y59292233D01*
X3568463Y59462518D01*
X3270912Y59585768D01*
X2955033Y59648600D01*
X2632967Y59648600D01*
X2317088Y59585768D01*
X2019537Y59462518D01*
X1751748Y59283587D01*
X1524013Y59055852D01*
X1345082Y58788063D01*
X1221832Y58490512D01*
X1159000Y58174633D01*
X735000Y58174633D01*
X735000Y58691544D01*
X724365Y58799524D01*
X682337Y58938072D01*
X614087Y59065759D01*
X522238Y59177677D01*
X410320Y59269526D01*
X282633Y59337776D01*
X248280Y59348197D01*
X-192192Y59531167D01*
X-559141Y59776426D01*
X-871457Y60088282D01*
X-1117259Y60454872D01*
X-1287172Y60862214D01*
X-1374730Y61294807D01*
X-1376274Y61660264D01*
X-498355Y61660264D01*
X-498355Y61389736D01*
X-445578Y61124407D01*
X-342051Y60874473D01*
X-191754Y60649537D01*
X-463Y60458246D01*
X224473Y60307949D01*
X474407Y60204422D01*
X739736Y60151645D01*
X1010264Y60151645D01*
X1275593Y60204422D01*
X1525527Y60307949D01*
X1750463Y60458246D01*
X1941754Y60649537D01*
X2092051Y60874473D01*
X2195578Y61124407D01*
X2248355Y61389736D01*
X2248355Y61660264D01*
X2195578Y61925593D01*
X2092051Y62175527D01*
X1941754Y62400463D01*
X1750463Y62591754D01*
X1525527Y62742051D01*
X1275593Y62845578D01*
X1010264Y62898355D01*
X739736Y62898355D01*
X474407Y62845578D01*
X224473Y62742051D01*
X-463Y62591754D01*
X-191754Y62400463D01*
X-342051Y62175527D01*
X-445578Y61925593D01*
X-498355Y61660264D01*
X-1376274Y61660264D01*
X-1376595Y61736163D01*
X-1292699Y62169481D01*
X-1126237Y62578245D01*
X-895604Y62928581D01*
X20925000Y62928581D01*
X20925000Y62547419D01*
X20999361Y62173581D01*
X21145225Y61821434D01*
X21356987Y61504509D01*
X21626509Y61234987D01*
X21943434Y61023225D01*
X22295581Y60877361D01*
X22669419Y60803000D01*
X23050581Y60803000D01*
X23424419Y60877361D01*
X23776566Y61023225D01*
X24093491Y61234987D01*
X24363013Y61504509D01*
X24574775Y61821434D01*
X24720639Y62173581D01*
X24795000Y62547419D01*
X24795000Y62928581D01*
X45265000Y62928581D01*
X45265000Y62547419D01*
X45339361Y62173581D01*
X45485225Y61821434D01*
X45696987Y61504509D01*
X45966509Y61234987D01*
X46283434Y61023225D01*
X46635581Y60877361D01*
X47009419Y60803000D01*
X47390581Y60803000D01*
X47764419Y60877361D01*
X48116566Y61023225D01*
X48433491Y61234987D01*
X48703013Y61504509D01*
X48807084Y61660264D01*
X67751645Y61660264D01*
X67751645Y61389736D01*
X67804422Y61124407D01*
X67907949Y60874473D01*
X68058246Y60649537D01*
X68249537Y60458246D01*
X68474473Y60307949D01*
X68724407Y60204422D01*
X68989736Y60151645D01*
X69260264Y60151645D01*
X69525593Y60204422D01*
X69775527Y60307949D01*
X70000463Y60458246D01*
X70191754Y60649537D01*
X70342051Y60874473D01*
X70445578Y61124407D01*
X70498355Y61389736D01*
X70498355Y61660264D01*
X70445578Y61925593D01*
X70342051Y62175527D01*
X70191754Y62400463D01*
X70000463Y62591754D01*
X69775527Y62742051D01*
X69525593Y62845578D01*
X69260264Y62898355D01*
X68989736Y62898355D01*
X68724407Y62845578D01*
X68474473Y62742051D01*
X68249537Y62591754D01*
X68058246Y62400463D01*
X67907949Y62175527D01*
X67804422Y61925593D01*
X67751645Y61660264D01*
X48807084Y61660264D01*
X48914775Y61821434D01*
X49060639Y62173581D01*
X49135000Y62547419D01*
X49135000Y62928581D01*
X49060639Y63302419D01*
X48914775Y63654566D01*
X48703013Y63971491D01*
X48433491Y64241013D01*
X48116566Y64452775D01*
X47820444Y64575433D01*
X53686200Y64575433D01*
X53686200Y64253367D01*
X53749032Y63937488D01*
X53872282Y63639937D01*
X54051213Y63372148D01*
X54278948Y63144413D01*
X54546737Y62965482D01*
X54844288Y62842232D01*
X55160167Y62779400D01*
X55482233Y62779400D01*
X55798112Y62842232D01*
X56095663Y62965482D01*
X56363452Y63144413D01*
X56591187Y63372148D01*
X56770118Y63639937D01*
X56893368Y63937488D01*
X56956200Y64253367D01*
X56956200Y64575433D01*
X56893368Y64891312D01*
X56770118Y65188863D01*
X56591187Y65456652D01*
X56363452Y65684387D01*
X56095663Y65863318D01*
X55798112Y65986568D01*
X55482233Y66049400D01*
X55160167Y66049400D01*
X54844288Y65986568D01*
X54546737Y65863318D01*
X54278948Y65684387D01*
X54051213Y65456652D01*
X53872282Y65188863D01*
X53749032Y64891312D01*
X53686200Y64575433D01*
X47820444Y64575433D01*
X47764419Y64598639D01*
X47390581Y64673000D01*
X47009419Y64673000D01*
X46635581Y64598639D01*
X46283434Y64452775D01*
X45966509Y64241013D01*
X45696987Y63971491D01*
X45485225Y63654566D01*
X45339361Y63302419D01*
X45265000Y62928581D01*
X24795000Y62928581D01*
X24720639Y63302419D01*
X24574775Y63654566D01*
X24363013Y63971491D01*
X24093491Y64241013D01*
X23776566Y64452775D01*
X23424419Y64598639D01*
X23050581Y64673000D01*
X22669419Y64673000D01*
X22295581Y64598639D01*
X21943434Y64452775D01*
X21626509Y64241013D01*
X21356987Y63971491D01*
X21145225Y63654566D01*
X20999361Y63302419D01*
X20925000Y62928581D01*
X-895604Y62928581D01*
X-883546Y62946896D01*
X-573873Y63261387D01*
X-209011Y63509740D01*
X228252Y63695727D01*
X282632Y63712223D01*
X410319Y63780473D01*
X522237Y63872322D01*
X614087Y63984240D01*
X682337Y64111927D01*
X724365Y64250475D01*
X735000Y64358455D01*
X735000Y67969854D01*
X789085Y68627715D01*
X2165000Y68627715D01*
X2165000Y67872285D01*
X2312377Y67131372D01*
X2601467Y66433446D01*
X3021161Y65805330D01*
X3555330Y65271161D01*
X4183446Y64851467D01*
X4881372Y64562377D01*
X5622285Y64415000D01*
X6377715Y64415000D01*
X7118628Y64562377D01*
X7816554Y64851467D01*
X8444670Y65271161D01*
X8464290Y65290781D01*
X33015400Y65290781D01*
X33015400Y64909619D01*
X33089761Y64535781D01*
X33235625Y64183634D01*
X33447387Y63866709D01*
X33716909Y63597187D01*
X34033834Y63385425D01*
X34385981Y63239561D01*
X34759819Y63165200D01*
X35140981Y63165200D01*
X35514819Y63239561D01*
X35866966Y63385425D01*
X36183891Y63597187D01*
X36453413Y63866709D01*
X36665175Y64183634D01*
X36811039Y64535781D01*
X36885400Y64909619D01*
X36885400Y65290781D01*
X36811039Y65664619D01*
X36665175Y66016766D01*
X36453413Y66333691D01*
X36183891Y66603213D01*
X35866966Y66814975D01*
X35514819Y66960839D01*
X35140981Y67035200D01*
X34759819Y67035200D01*
X34385981Y66960839D01*
X34033834Y66814975D01*
X33716909Y66603213D01*
X33447387Y66333691D01*
X33235625Y66016766D01*
X33089761Y65664619D01*
X33015400Y65290781D01*
X8464290Y65290781D01*
X8978839Y65805330D01*
X9398533Y66433446D01*
X9687623Y67131372D01*
X9835000Y67872285D01*
X9835000Y68495532D01*
X18007061Y68495532D01*
X18007061Y68004466D01*
X18102863Y67522836D01*
X18290786Y67069150D01*
X18563608Y66660844D01*
X18910844Y66313608D01*
X19319150Y66040786D01*
X19772836Y65852863D01*
X20254466Y65757061D01*
X20745532Y65757061D01*
X21227162Y65852863D01*
X21680848Y66040786D01*
X22089154Y66313608D01*
X22436390Y66660844D01*
X22709212Y67069150D01*
X22897135Y67522836D01*
X22992937Y68004466D01*
X22992937Y68495532D01*
X47007061Y68495532D01*
X47007061Y68004466D01*
X47102863Y67522836D01*
X47290786Y67069150D01*
X47563608Y66660844D01*
X47910844Y66313608D01*
X48319150Y66040786D01*
X48772836Y65852863D01*
X49254466Y65757061D01*
X49745532Y65757061D01*
X50227162Y65852863D01*
X50680848Y66040786D01*
X51089154Y66313608D01*
X51436390Y66660844D01*
X51709212Y67069150D01*
X51897135Y67522836D01*
X51992937Y68004466D01*
X51992937Y68495532D01*
X51966645Y68627715D01*
X60165000Y68627715D01*
X60165000Y67872285D01*
X60312377Y67131372D01*
X60601467Y66433446D01*
X61021161Y65805330D01*
X61555330Y65271161D01*
X62183446Y64851467D01*
X62881372Y64562377D01*
X63622285Y64415000D01*
X64377715Y64415000D01*
X65118628Y64562377D01*
X65816554Y64851467D01*
X66444670Y65271161D01*
X66978839Y65805330D01*
X67398533Y66433446D01*
X67687623Y67131372D01*
X67835000Y67872285D01*
X67835000Y68627715D01*
X67687623Y69368628D01*
X67398533Y70066554D01*
X66978839Y70694670D01*
X66444670Y71228839D01*
X65816554Y71648533D01*
X65118628Y71937623D01*
X64377715Y72085000D01*
X63622285Y72085000D01*
X62881372Y71937623D01*
X62183446Y71648533D01*
X61555330Y71228839D01*
X61021161Y70694670D01*
X60601467Y70066554D01*
X60312377Y69368628D01*
X60165000Y68627715D01*
X51966645Y68627715D01*
X51897135Y68977162D01*
X51709212Y69430848D01*
X51436390Y69839154D01*
X51089154Y70186390D01*
X50680848Y70459212D01*
X50227162Y70647135D01*
X49745532Y70742937D01*
X49254466Y70742937D01*
X48772836Y70647135D01*
X48319150Y70459212D01*
X47910844Y70186390D01*
X47563608Y69839154D01*
X47290786Y69430848D01*
X47102863Y68977162D01*
X47007061Y68495532D01*
X22992937Y68495532D01*
X22897135Y68977162D01*
X22709212Y69430848D01*
X22436390Y69839154D01*
X22089154Y70186390D01*
X21680848Y70459212D01*
X21227162Y70647135D01*
X20745532Y70742937D01*
X20254466Y70742937D01*
X19772836Y70647135D01*
X19319150Y70459212D01*
X18910844Y70186390D01*
X18563608Y69839154D01*
X18290786Y69430848D01*
X18102863Y68977162D01*
X18007061Y68495532D01*
X9835000Y68495532D01*
X9835000Y68627715D01*
X9687623Y69368628D01*
X9398533Y70066554D01*
X8978839Y70694670D01*
X8444670Y71228839D01*
X7816554Y71648533D01*
X7118628Y71937623D01*
X6377715Y72085000D01*
X5622285Y72085000D01*
X4881372Y71937623D01*
X4183446Y71648533D01*
X3555330Y71228839D01*
X3021161Y70694670D01*
X2601467Y70066554D01*
X2312377Y69368628D01*
X2165000Y68627715D01*
X789085Y68627715D01*
X808142Y68859503D01*
X1018237Y69695928D01*
X1362122Y70486809D01*
X1830559Y71210901D01*
X2410972Y71848765D01*
X3087766Y72383264D01*
X3842768Y72800048D01*
X4655712Y73087926D01*
X5517452Y73241426D01*
X6017319Y73264999D01*
X63969854Y73264999D01*
X64859503Y73191857D01*
%TA.AperFunction,Conductor*%
D20*
G36*
X64859503Y73191857D02*
G01*
X65695928Y72981762D01*
X66486804Y72637879D01*
X67210902Y72169440D01*
X67848766Y71589027D01*
X68383265Y70912233D01*
X68800049Y70157231D01*
X69087927Y69344288D01*
X69241427Y68482546D01*
X69265000Y67982679D01*
X69265001Y64358455D01*
X69275636Y64250475D01*
X69317664Y64111927D01*
X69385914Y63984240D01*
X69477763Y63872322D01*
X69589681Y63780473D01*
X69717368Y63712223D01*
X69751744Y63701795D01*
X70192190Y63518835D01*
X70559140Y63273576D01*
X70871462Y62961713D01*
X71117260Y62595130D01*
X71287172Y62187788D01*
X71374731Y61755191D01*
X71376596Y61313836D01*
X71292700Y60880521D01*
X71126235Y60471751D01*
X70883546Y60103103D01*
X70573871Y59788610D01*
X70209011Y59540259D01*
X69771754Y59354274D01*
X69717367Y59337776D01*
X69589680Y59269526D01*
X69477762Y59177676D01*
X69385913Y59065758D01*
X69317663Y58938071D01*
X69296372Y58867884D01*
X69296370Y58867879D01*
X69296369Y58867874D01*
X69275635Y58799523D01*
X69265000Y58691543D01*
X69265001Y15308455D01*
X69275636Y15200475D01*
X69317664Y15061927D01*
X69385914Y14934240D01*
X69477763Y14822322D01*
X69589681Y14730473D01*
X69717368Y14662223D01*
X69751744Y14651795D01*
X70192190Y14468835D01*
X70559140Y14223576D01*
X70871462Y13911713D01*
X71117260Y13545130D01*
X71287172Y13137788D01*
X71374731Y12705191D01*
X71376596Y12263836D01*
X71292700Y11830521D01*
X71126235Y11421751D01*
X70883546Y11053103D01*
X70573871Y10738610D01*
X70209011Y10490259D01*
X69771754Y10304274D01*
X69717367Y10287776D01*
X69589680Y10219526D01*
X69477762Y10127676D01*
X69385913Y10015758D01*
X69317663Y9888071D01*
X69296372Y9817884D01*
X69296370Y9817879D01*
X69296369Y9817874D01*
X69275635Y9749523D01*
X69265000Y9641543D01*
X69265001Y6030180D01*
X69191857Y5140496D01*
X68981761Y4304070D01*
X68637877Y3513191D01*
X68169443Y2789102D01*
X67589030Y2151237D01*
X66912233Y1616735D01*
X66157227Y1199948D01*
X65344287Y912072D01*
X64482547Y758573D01*
X63982680Y735000D01*
X6030167Y735000D01*
X5140495Y808143D01*
X4304069Y1018239D01*
X3513191Y1362123D01*
X2789102Y1830557D01*
X2151235Y2410971D01*
X1616736Y3087763D01*
X1199952Y3842765D01*
X912073Y4655712D01*
X758573Y5517453D01*
X735000Y6017319D01*
X735000Y6127715D01*
X2165000Y6127715D01*
X2165000Y5372285D01*
X2312377Y4631372D01*
X2601467Y3933446D01*
X3021161Y3305330D01*
X3555330Y2771161D01*
X4183446Y2351467D01*
X4881372Y2062377D01*
X5622285Y1915000D01*
X6377715Y1915000D01*
X7118628Y2062377D01*
X7816554Y2351467D01*
X8444670Y2771161D01*
X8605101Y2931592D01*
X11129000Y2931592D01*
X11129000Y2656408D01*
X11182686Y2386510D01*
X11287995Y2132273D01*
X11440880Y1903465D01*
X11635465Y1708880D01*
X11864273Y1555995D01*
X12118510Y1450686D01*
X12388408Y1397000D01*
X12663592Y1397000D01*
X12933490Y1450686D01*
X13187727Y1555995D01*
X13416535Y1708880D01*
X13611120Y1903465D01*
X13764005Y2132273D01*
X13869314Y2386510D01*
X13923000Y2656408D01*
X13923000Y2931592D01*
X21129000Y2931592D01*
X21129000Y2656408D01*
X21182686Y2386510D01*
X21287995Y2132273D01*
X21440880Y1903465D01*
X21635465Y1708880D01*
X21864273Y1555995D01*
X22118510Y1450686D01*
X22388408Y1397000D01*
X22663592Y1397000D01*
X22933490Y1450686D01*
X23187727Y1555995D01*
X23416535Y1708880D01*
X23611120Y1903465D01*
X23764005Y2132273D01*
X23869314Y2386510D01*
X23889807Y2489539D01*
X41738600Y2489539D01*
X41738600Y2285661D01*
X41778374Y2085702D01*
X41856395Y1897344D01*
X41969663Y1727826D01*
X42113826Y1583663D01*
X42283344Y1470395D01*
X42471702Y1392374D01*
X42671661Y1352600D01*
X42875539Y1352600D01*
X43075498Y1392374D01*
X43263856Y1470395D01*
X43433374Y1583663D01*
X43577537Y1727826D01*
X43690805Y1897344D01*
X43764200Y2074534D01*
X43837595Y1897344D01*
X43950863Y1727826D01*
X44095026Y1583663D01*
X44264544Y1470395D01*
X44452902Y1392374D01*
X44652861Y1352600D01*
X44856739Y1352600D01*
X45056698Y1392374D01*
X45245056Y1470395D01*
X45414574Y1583663D01*
X45558737Y1727826D01*
X45672005Y1897344D01*
X45750026Y2085702D01*
X45789800Y2285661D01*
X45789800Y2489539D01*
X45750026Y2689498D01*
X45672005Y2877856D01*
X45558737Y3047374D01*
X45414574Y3191537D01*
X45245056Y3304805D01*
X45190507Y3327400D01*
X45245056Y3349995D01*
X45414574Y3463263D01*
X45558737Y3607426D01*
X45672005Y3776944D01*
X45750026Y3965302D01*
X45789800Y4165261D01*
X45789800Y4369139D01*
X45750026Y4569098D01*
X45672005Y4757456D01*
X45558737Y4926974D01*
X45414574Y5071137D01*
X45245056Y5184405D01*
X45056698Y5262426D01*
X44856739Y5302200D01*
X44652861Y5302200D01*
X44452902Y5262426D01*
X44264544Y5184405D01*
X44095026Y5071137D01*
X43950863Y4926974D01*
X43837595Y4757456D01*
X43800121Y4666987D01*
X43741605Y4808256D01*
X43628337Y4977774D01*
X43484174Y5121937D01*
X43314656Y5235205D01*
X43126298Y5313226D01*
X42926339Y5353000D01*
X42722461Y5353000D01*
X42522502Y5313226D01*
X42334144Y5235205D01*
X42164626Y5121937D01*
X42020463Y4977774D01*
X41907195Y4808256D01*
X41829174Y4619898D01*
X41789400Y4419939D01*
X41789400Y4216061D01*
X41829174Y4016102D01*
X41907195Y3827744D01*
X42020463Y3658226D01*
X42164626Y3514063D01*
X42334144Y3400795D01*
X42424613Y3363321D01*
X42283344Y3304805D01*
X42113826Y3191537D01*
X41969663Y3047374D01*
X41856395Y2877856D01*
X41778374Y2689498D01*
X41738600Y2489539D01*
X23889807Y2489539D01*
X23923000Y2656408D01*
X23923000Y2931592D01*
X23869314Y3201490D01*
X23764005Y3455727D01*
X23611120Y3684535D01*
X23416535Y3879120D01*
X23187727Y4032005D01*
X22933490Y4137314D01*
X22663592Y4191000D01*
X22388408Y4191000D01*
X22118510Y4137314D01*
X21864273Y4032005D01*
X21635465Y3879120D01*
X21440880Y3684535D01*
X21287995Y3455727D01*
X21182686Y3201490D01*
X21129000Y2931592D01*
X13923000Y2931592D01*
X13869314Y3201490D01*
X13764005Y3455727D01*
X13611120Y3684535D01*
X13416535Y3879120D01*
X13187727Y4032005D01*
X12933490Y4137314D01*
X12663592Y4191000D01*
X12388408Y4191000D01*
X12118510Y4137314D01*
X11864273Y4032005D01*
X11635465Y3879120D01*
X11440880Y3684535D01*
X11287995Y3455727D01*
X11182686Y3201490D01*
X11129000Y2931592D01*
X8605101Y2931592D01*
X8978839Y3305330D01*
X9398533Y3933446D01*
X9687623Y4631372D01*
X9835000Y5372285D01*
X9835000Y6127715D01*
X9687623Y6868628D01*
X9398533Y7566554D01*
X9269423Y7759781D01*
X10638000Y7759781D01*
X10638000Y7378619D01*
X10712361Y7004781D01*
X10858225Y6652634D01*
X11069987Y6335709D01*
X11339509Y6066187D01*
X11656434Y5854425D01*
X12008581Y5708561D01*
X12382419Y5634200D01*
X12763581Y5634200D01*
X13137419Y5708561D01*
X13489566Y5854425D01*
X13700749Y5995533D01*
X47007061Y5995533D01*
X47007061Y5504467D01*
X47102863Y5022837D01*
X47290786Y4569151D01*
X47563608Y4160845D01*
X47910844Y3813609D01*
X48319150Y3540787D01*
X48772836Y3352864D01*
X49254466Y3257062D01*
X49745532Y3257062D01*
X50227162Y3352864D01*
X50680848Y3540787D01*
X51089154Y3813609D01*
X51436390Y4160845D01*
X51709212Y4569151D01*
X51851197Y4911934D01*
X56064200Y4911934D01*
X56064200Y4708056D01*
X56103974Y4508097D01*
X56181995Y4319739D01*
X56295263Y4150221D01*
X56439426Y4006058D01*
X56608944Y3892790D01*
X56797302Y3814769D01*
X56861509Y3801998D01*
X56797302Y3789226D01*
X56608944Y3711205D01*
X56439426Y3597937D01*
X56295263Y3453774D01*
X56181995Y3284256D01*
X56103974Y3095898D01*
X56064200Y2895939D01*
X56064200Y2692061D01*
X56103974Y2492102D01*
X56181995Y2303744D01*
X56295263Y2134226D01*
X56439426Y1990063D01*
X56608944Y1876795D01*
X56797302Y1798774D01*
X56997261Y1759000D01*
X57201139Y1759000D01*
X57401098Y1798774D01*
X57589456Y1876795D01*
X57758974Y1990063D01*
X57903137Y2134226D01*
X58016405Y2303744D01*
X58094426Y2492102D01*
X58134200Y2692061D01*
X58134200Y2895939D01*
X58094426Y3095898D01*
X58016405Y3284256D01*
X57903137Y3453774D01*
X57758974Y3597937D01*
X57589456Y3711205D01*
X57401098Y3789226D01*
X57336891Y3801998D01*
X57401098Y3814769D01*
X57589456Y3892790D01*
X57758974Y4006058D01*
X57903137Y4150221D01*
X58016405Y4319739D01*
X58094426Y4508097D01*
X58134200Y4708056D01*
X58134200Y4911934D01*
X58094426Y5111893D01*
X58016405Y5300251D01*
X57903137Y5469769D01*
X57758974Y5613932D01*
X57589456Y5727200D01*
X57401098Y5805221D01*
X57201139Y5844995D01*
X56997261Y5844995D01*
X56797302Y5805221D01*
X56608944Y5727200D01*
X56439426Y5613932D01*
X56295263Y5469769D01*
X56181995Y5300251D01*
X56103974Y5111893D01*
X56064200Y4911934D01*
X51851197Y4911934D01*
X51897135Y5022837D01*
X51992937Y5504467D01*
X51992937Y5995533D01*
X51966645Y6127715D01*
X60165000Y6127715D01*
X60165000Y5372285D01*
X60312377Y4631372D01*
X60601467Y3933446D01*
X61021161Y3305330D01*
X61555330Y2771161D01*
X62183446Y2351467D01*
X62881372Y2062377D01*
X63622285Y1915000D01*
X64377715Y1915000D01*
X65118628Y2062377D01*
X65816554Y2351467D01*
X66444670Y2771161D01*
X66978839Y3305330D01*
X67398533Y3933446D01*
X67687623Y4631372D01*
X67835000Y5372285D01*
X67835000Y6127715D01*
X67687623Y6868628D01*
X67398533Y7566554D01*
X66978839Y8194670D01*
X66444670Y8728839D01*
X65816554Y9148533D01*
X65118628Y9437623D01*
X64377715Y9585000D01*
X63622285Y9585000D01*
X62881372Y9437623D01*
X62183446Y9148533D01*
X61555330Y8728839D01*
X61021161Y8194670D01*
X60601467Y7566554D01*
X60312377Y6868628D01*
X60165000Y6127715D01*
X51966645Y6127715D01*
X51897135Y6477163D01*
X51709212Y6930849D01*
X51436390Y7339155D01*
X51089154Y7686391D01*
X50680848Y7959213D01*
X50227162Y8147136D01*
X49745532Y8242938D01*
X49254466Y8242938D01*
X48772836Y8147136D01*
X48319150Y7959213D01*
X47910844Y7686391D01*
X47563608Y7339155D01*
X47290786Y6930849D01*
X47102863Y6477163D01*
X47007061Y5995533D01*
X13700749Y5995533D01*
X13806491Y6066187D01*
X14076013Y6335709D01*
X14287775Y6652634D01*
X14433639Y7004781D01*
X14508000Y7378619D01*
X14508000Y7759781D01*
X14454899Y8026739D01*
X36328400Y8026739D01*
X36328400Y7822861D01*
X36368174Y7622902D01*
X36446195Y7434544D01*
X36559463Y7265026D01*
X36703626Y7120863D01*
X36873144Y7007595D01*
X37061502Y6929574D01*
X37261461Y6889800D01*
X37465339Y6889800D01*
X37533327Y6903323D01*
X37561974Y6759302D01*
X37639995Y6570944D01*
X37753263Y6401426D01*
X37897426Y6257263D01*
X38066944Y6143995D01*
X38255302Y6065974D01*
X38455261Y6026200D01*
X38659139Y6026200D01*
X38859098Y6065974D01*
X39047456Y6143995D01*
X39216974Y6257263D01*
X39361137Y6401426D01*
X39474405Y6570944D01*
X39552426Y6759302D01*
X39571353Y6854457D01*
X39649061Y6839000D01*
X39852939Y6839000D01*
X40052898Y6878774D01*
X40241256Y6956795D01*
X40410774Y7070063D01*
X40554937Y7214226D01*
X40668205Y7383744D01*
X40746226Y7572102D01*
X40786000Y7772061D01*
X40786000Y7975939D01*
X40746226Y8175898D01*
X40668205Y8364256D01*
X40554937Y8533774D01*
X40410774Y8677937D01*
X40241256Y8791205D01*
X40052898Y8869226D01*
X39852939Y8909000D01*
X39649061Y8909000D01*
X39449102Y8869226D01*
X39260744Y8791205D01*
X39091226Y8677937D01*
X38947063Y8533774D01*
X38833795Y8364256D01*
X38755774Y8175898D01*
X38736847Y8080743D01*
X38659139Y8096200D01*
X38455261Y8096200D01*
X38387273Y8082677D01*
X38358626Y8226698D01*
X38280605Y8415056D01*
X38167337Y8584574D01*
X38023174Y8728737D01*
X37853656Y8842005D01*
X37665298Y8920026D01*
X37465339Y8959800D01*
X37261461Y8959800D01*
X37061502Y8920026D01*
X36873144Y8842005D01*
X36703626Y8728737D01*
X36559463Y8584574D01*
X36446195Y8415056D01*
X36368174Y8226698D01*
X36328400Y8026739D01*
X14454899Y8026739D01*
X14433639Y8133619D01*
X14287775Y8485766D01*
X14076013Y8802691D01*
X13806491Y9072213D01*
X13489566Y9283975D01*
X13137419Y9429839D01*
X12763581Y9504200D01*
X12382419Y9504200D01*
X12008581Y9429839D01*
X11656434Y9283975D01*
X11339509Y9072213D01*
X11069987Y8802691D01*
X10858225Y8485766D01*
X10712361Y8133619D01*
X10638000Y7759781D01*
X9269423Y7759781D01*
X8978839Y8194670D01*
X8444670Y8728839D01*
X7816554Y9148533D01*
X7118628Y9437623D01*
X6377715Y9585000D01*
X5622285Y9585000D01*
X4881372Y9437623D01*
X4183446Y9148533D01*
X3555330Y8728839D01*
X3021161Y8194670D01*
X2601467Y7566554D01*
X2312377Y6868628D01*
X2165000Y6127715D01*
X735000Y6127715D01*
X735000Y9641544D01*
X724365Y9749524D01*
X682337Y9888072D01*
X614087Y10015759D01*
X522238Y10127677D01*
X410320Y10219526D01*
X282633Y10287776D01*
X248280Y10298197D01*
X-192192Y10481167D01*
X-559141Y10726426D01*
X-871457Y11038282D01*
X-1117259Y11404872D01*
X-1287172Y11812214D01*
X-1374730Y12244807D01*
X-1376274Y12610264D01*
X-498355Y12610264D01*
X-498355Y12339736D01*
X-445578Y12074407D01*
X-342051Y11824473D01*
X-191754Y11599537D01*
X-463Y11408246D01*
X224473Y11257949D01*
X474407Y11154422D01*
X739736Y11101645D01*
X1010264Y11101645D01*
X1275593Y11154422D01*
X1525527Y11257949D01*
X1750463Y11408246D01*
X1941754Y11599537D01*
X2092051Y11824473D01*
X2181300Y12039939D01*
X18269000Y12039939D01*
X18269000Y11836061D01*
X18308774Y11636102D01*
X18386795Y11447744D01*
X18500063Y11278226D01*
X18644226Y11134063D01*
X18813744Y11020795D01*
X19002102Y10942774D01*
X19202061Y10903000D01*
X19405939Y10903000D01*
X19605898Y10942774D01*
X19794256Y11020795D01*
X19939000Y11117510D01*
X20083744Y11020795D01*
X20272102Y10942774D01*
X20472061Y10903000D01*
X20675939Y10903000D01*
X20842039Y10936039D01*
X20809000Y10769939D01*
X20809000Y10566061D01*
X20848774Y10366102D01*
X20926795Y10177744D01*
X21040063Y10008226D01*
X21184226Y9864063D01*
X21353744Y9750795D01*
X21542102Y9672774D01*
X21742061Y9633000D01*
X21945939Y9633000D01*
X22145898Y9672774D01*
X22334256Y9750795D01*
X22503774Y9864063D01*
X22647937Y10008226D01*
X22761205Y10177744D01*
X22839226Y10366102D01*
X22879000Y10566061D01*
X22879000Y10769939D01*
X22839226Y10969898D01*
X22761205Y11158256D01*
X22664490Y11303000D01*
X22761205Y11447744D01*
X22839226Y11636102D01*
X22879000Y11836061D01*
X22879000Y12039939D01*
X22839226Y12239898D01*
X22761205Y12428256D01*
X22681236Y12547939D01*
X27413000Y12547939D01*
X27413000Y12344061D01*
X27452774Y12144102D01*
X27530795Y11955744D01*
X27627510Y11811000D01*
X27530795Y11666256D01*
X27452774Y11477898D01*
X27413000Y11277939D01*
X27413000Y11074061D01*
X27452774Y10874102D01*
X27530795Y10685744D01*
X27644063Y10516226D01*
X27788226Y10372063D01*
X27957744Y10258795D01*
X28146102Y10180774D01*
X28346061Y10141000D01*
X28549939Y10141000D01*
X28749898Y10180774D01*
X28938256Y10258795D01*
X29107774Y10372063D01*
X29251937Y10516226D01*
X29337000Y10643532D01*
X29422063Y10516226D01*
X29566226Y10372063D01*
X29735744Y10258795D01*
X29924102Y10180774D01*
X30124061Y10141000D01*
X30327939Y10141000D01*
X30527898Y10180774D01*
X30716256Y10258795D01*
X30885774Y10372063D01*
X31029937Y10516226D01*
X31143205Y10685744D01*
X31221226Y10874102D01*
X31261000Y11074061D01*
X31261000Y11277939D01*
X31221226Y11477898D01*
X31143205Y11666256D01*
X31046490Y11811000D01*
X31143205Y11955744D01*
X31221226Y12144102D01*
X31261000Y12344061D01*
X31261000Y12547939D01*
X31248603Y12610264D01*
X67751645Y12610264D01*
X67751645Y12339736D01*
X67804422Y12074407D01*
X67907949Y11824473D01*
X68058246Y11599537D01*
X68249537Y11408246D01*
X68474473Y11257949D01*
X68724407Y11154422D01*
X68989736Y11101645D01*
X69260264Y11101645D01*
X69525593Y11154422D01*
X69775527Y11257949D01*
X70000463Y11408246D01*
X70191754Y11599537D01*
X70342051Y11824473D01*
X70445578Y12074407D01*
X70498355Y12339736D01*
X70498355Y12610264D01*
X70445578Y12875593D01*
X70342051Y13125527D01*
X70191754Y13350463D01*
X70000463Y13541754D01*
X69775527Y13692051D01*
X69525593Y13795578D01*
X69260264Y13848355D01*
X68989736Y13848355D01*
X68724407Y13795578D01*
X68474473Y13692051D01*
X68249537Y13541754D01*
X68058246Y13350463D01*
X67907949Y13125527D01*
X67804422Y12875593D01*
X67751645Y12610264D01*
X31248603Y12610264D01*
X31221226Y12747898D01*
X31143205Y12936256D01*
X31046490Y13081000D01*
X31143205Y13225744D01*
X31221226Y13414102D01*
X31261000Y13614061D01*
X31261000Y13817939D01*
X31221226Y14017898D01*
X31143205Y14206256D01*
X31029937Y14375774D01*
X30885774Y14519937D01*
X30716256Y14633205D01*
X30527898Y14711226D01*
X30327939Y14751000D01*
X30124061Y14751000D01*
X29924102Y14711226D01*
X29735744Y14633205D01*
X29566226Y14519937D01*
X29422063Y14375774D01*
X29308795Y14206256D01*
X29230774Y14017898D01*
X29191000Y13817939D01*
X29191000Y13614061D01*
X29230774Y13414102D01*
X29308795Y13225744D01*
X29405510Y13081000D01*
X29337000Y12978468D01*
X29251937Y13105774D01*
X29107774Y13249937D01*
X28938256Y13363205D01*
X28749898Y13441226D01*
X28549939Y13481000D01*
X28346061Y13481000D01*
X28146102Y13441226D01*
X27957744Y13363205D01*
X27788226Y13249937D01*
X27644063Y13105774D01*
X27530795Y12936256D01*
X27452774Y12747898D01*
X27413000Y12547939D01*
X22681236Y12547939D01*
X22647937Y12597774D01*
X22503774Y12741937D01*
X22334256Y12855205D01*
X22145898Y12933226D01*
X21945939Y12973000D01*
X21742061Y12973000D01*
X21542102Y12933226D01*
X21353744Y12855205D01*
X21209000Y12758490D01*
X21064256Y12855205D01*
X20875898Y12933226D01*
X20675939Y12973000D01*
X20472061Y12973000D01*
X20272102Y12933226D01*
X20083744Y12855205D01*
X19939000Y12758490D01*
X19794256Y12855205D01*
X19605898Y12933226D01*
X19405939Y12973000D01*
X19202061Y12973000D01*
X19002102Y12933226D01*
X18813744Y12855205D01*
X18644226Y12741937D01*
X18500063Y12597774D01*
X18386795Y12428256D01*
X18308774Y12239898D01*
X18269000Y12039939D01*
X2181300Y12039939D01*
X2195578Y12074407D01*
X2248355Y12339736D01*
X2248355Y12610264D01*
X2195578Y12875593D01*
X2092051Y13125527D01*
X1941754Y13350463D01*
X1750463Y13541754D01*
X1525527Y13692051D01*
X1275593Y13795578D01*
X1010264Y13848355D01*
X739736Y13848355D01*
X474407Y13795578D01*
X224473Y13692051D01*
X-463Y13541754D01*
X-191754Y13350463D01*
X-342051Y13125527D01*
X-445578Y12875593D01*
X-498355Y12610264D01*
X-1376274Y12610264D01*
X-1376595Y12686163D01*
X-1292699Y13119481D01*
X-1126237Y13528245D01*
X-883546Y13896896D01*
X-573873Y14211387D01*
X-209011Y14459740D01*
X228252Y14645727D01*
X282632Y14662223D01*
X410319Y14730473D01*
X522237Y14822322D01*
X614087Y14934240D01*
X682337Y15061927D01*
X724365Y15200475D01*
X735000Y15308455D01*
X735000Y16192581D01*
X11273000Y16192581D01*
X11273000Y15811419D01*
X11347361Y15437581D01*
X11493225Y15085434D01*
X11704987Y14768509D01*
X11974509Y14498987D01*
X12291434Y14287225D01*
X12643581Y14141361D01*
X13017419Y14067000D01*
X13398581Y14067000D01*
X13772419Y14141361D01*
X14124566Y14287225D01*
X14441491Y14498987D01*
X14711013Y14768509D01*
X14922775Y15085434D01*
X15068639Y15437581D01*
X15079928Y15494339D01*
X31832600Y15494339D01*
X31832600Y15290461D01*
X31872374Y15090502D01*
X31950395Y14902144D01*
X32063663Y14732626D01*
X32207826Y14588463D01*
X32377344Y14475195D01*
X32565702Y14397174D01*
X32765661Y14357400D01*
X32969539Y14357400D01*
X33169498Y14397174D01*
X33357856Y14475195D01*
X33527374Y14588463D01*
X33671537Y14732626D01*
X33784805Y14902144D01*
X33862826Y15090502D01*
X33902600Y15290461D01*
X33902600Y15494339D01*
X33862826Y15694298D01*
X33784805Y15882656D01*
X33671537Y16052174D01*
X33527374Y16196337D01*
X33357856Y16309605D01*
X33169498Y16387626D01*
X32969539Y16427400D01*
X32765661Y16427400D01*
X32565702Y16387626D01*
X32377344Y16309605D01*
X32207826Y16196337D01*
X32063663Y16052174D01*
X31950395Y15882656D01*
X31872374Y15694298D01*
X31832600Y15494339D01*
X15079928Y15494339D01*
X15143000Y15811419D01*
X15143000Y16192581D01*
X15068639Y16566419D01*
X14922775Y16918566D01*
X14711013Y17235491D01*
X14674165Y17272339D01*
X36353800Y17272339D01*
X36353800Y17068461D01*
X36393574Y16868502D01*
X36471595Y16680144D01*
X36584863Y16510626D01*
X36729026Y16366463D01*
X36898544Y16253195D01*
X37086902Y16175174D01*
X37286861Y16135400D01*
X37490739Y16135400D01*
X37690698Y16175174D01*
X37879056Y16253195D01*
X38048574Y16366463D01*
X38192737Y16510626D01*
X38306005Y16680144D01*
X38384026Y16868502D01*
X38423800Y17068461D01*
X38423800Y17068881D01*
X52027300Y17068881D01*
X52027300Y16687719D01*
X52101661Y16313881D01*
X52247525Y15961734D01*
X52459287Y15644809D01*
X52728809Y15375287D01*
X53045734Y15163525D01*
X53397881Y15017661D01*
X53771719Y14943300D01*
X54152881Y14943300D01*
X54526719Y15017661D01*
X54878866Y15163525D01*
X55195791Y15375287D01*
X55465313Y15644809D01*
X55677075Y15961734D01*
X55822939Y16313881D01*
X55897300Y16687719D01*
X55897300Y17068881D01*
X55822939Y17442719D01*
X55677075Y17794866D01*
X55465313Y18111791D01*
X55195791Y18381313D01*
X54878866Y18593075D01*
X54526719Y18738939D01*
X54152881Y18813300D01*
X53771719Y18813300D01*
X53397881Y18738939D01*
X53045734Y18593075D01*
X52728809Y18381313D01*
X52459287Y18111791D01*
X52247525Y17794866D01*
X52101661Y17442719D01*
X52027300Y17068881D01*
X38423800Y17068881D01*
X38423800Y17272339D01*
X38384026Y17472298D01*
X38306005Y17660656D01*
X38192737Y17830174D01*
X38048574Y17974337D01*
X37879056Y18087605D01*
X37690698Y18165626D01*
X37490739Y18205400D01*
X37286861Y18205400D01*
X37086902Y18165626D01*
X36898544Y18087605D01*
X36729026Y17974337D01*
X36584863Y17830174D01*
X36471595Y17660656D01*
X36393574Y17472298D01*
X36353800Y17272339D01*
X14674165Y17272339D01*
X14441491Y17505013D01*
X14124566Y17716775D01*
X13772419Y17862639D01*
X13398581Y17937000D01*
X13017419Y17937000D01*
X12643581Y17862639D01*
X12291434Y17716775D01*
X11974509Y17505013D01*
X11704987Y17235491D01*
X11493225Y16918566D01*
X11347361Y16566419D01*
X11273000Y16192581D01*
X735000Y16192581D01*
X735000Y19913939D01*
X30207000Y19913939D01*
X30207000Y19710061D01*
X30246774Y19510102D01*
X30324795Y19321744D01*
X30438063Y19152226D01*
X30582226Y19008063D01*
X30751744Y18894795D01*
X30940102Y18816774D01*
X31140061Y18777000D01*
X31343939Y18777000D01*
X31543898Y18816774D01*
X31732256Y18894795D01*
X31812989Y18948739D01*
X33864600Y18948739D01*
X33864600Y18744861D01*
X33904374Y18544902D01*
X33982395Y18356544D01*
X34095663Y18187026D01*
X34239826Y18042863D01*
X34409344Y17929595D01*
X34597702Y17851574D01*
X34797661Y17811800D01*
X35001539Y17811800D01*
X35201498Y17851574D01*
X35389856Y17929595D01*
X35559374Y18042863D01*
X35703537Y18187026D01*
X35816805Y18356544D01*
X35894826Y18544902D01*
X35934600Y18744861D01*
X35934600Y18948739D01*
X35894826Y19148698D01*
X35819836Y19329739D01*
X36760200Y19329739D01*
X36760200Y19125861D01*
X36799974Y18925902D01*
X36877995Y18737544D01*
X36991263Y18568026D01*
X37135426Y18423863D01*
X37304944Y18310595D01*
X37493302Y18232574D01*
X37693261Y18192800D01*
X37897139Y18192800D01*
X38097098Y18232574D01*
X38285456Y18310595D01*
X38454974Y18423863D01*
X38522650Y18491539D01*
X39782800Y18491539D01*
X39782800Y18287661D01*
X39822574Y18087702D01*
X39900595Y17899344D01*
X40013863Y17729826D01*
X40158026Y17585663D01*
X40327544Y17472395D01*
X40515902Y17394374D01*
X40715861Y17354600D01*
X40919739Y17354600D01*
X41119698Y17394374D01*
X41308056Y17472395D01*
X41477574Y17585663D01*
X41621737Y17729826D01*
X41735005Y17899344D01*
X41813026Y18087702D01*
X41852800Y18287661D01*
X41852800Y18491539D01*
X41813026Y18691498D01*
X41735005Y18879856D01*
X41621737Y19049374D01*
X41477574Y19193537D01*
X41308056Y19306805D01*
X41119698Y19384826D01*
X40919739Y19424600D01*
X40715861Y19424600D01*
X40515902Y19384826D01*
X40327544Y19306805D01*
X40158026Y19193537D01*
X40013863Y19049374D01*
X39900595Y18879856D01*
X39822574Y18691498D01*
X39782800Y18491539D01*
X38522650Y18491539D01*
X38599137Y18568026D01*
X38712405Y18737544D01*
X38790426Y18925902D01*
X38802446Y18986329D01*
X38966502Y18918374D01*
X39166461Y18878600D01*
X39370339Y18878600D01*
X39570298Y18918374D01*
X39758656Y18996395D01*
X39928174Y19109663D01*
X40072337Y19253826D01*
X40185605Y19423344D01*
X40263626Y19611702D01*
X40303400Y19811661D01*
X40303400Y20015539D01*
X40263626Y20215498D01*
X40185605Y20403856D01*
X40072337Y20573374D01*
X39928174Y20717537D01*
X39758656Y20830805D01*
X39570298Y20908826D01*
X39370339Y20948600D01*
X39166461Y20948600D01*
X39024588Y20920380D01*
X39042605Y20947344D01*
X39120626Y21135702D01*
X39160400Y21335661D01*
X39160400Y21539539D01*
X39120626Y21739498D01*
X39042605Y21927856D01*
X38929337Y22097374D01*
X38785174Y22241537D01*
X38615656Y22354805D01*
X38427298Y22432826D01*
X38227339Y22472600D01*
X38023461Y22472600D01*
X37823502Y22432826D01*
X37635144Y22354805D01*
X37465626Y22241537D01*
X37321463Y22097374D01*
X37208195Y21927856D01*
X37130174Y21739498D01*
X37090400Y21539539D01*
X37090400Y21335661D01*
X37130174Y21135702D01*
X37208195Y20947344D01*
X37321463Y20777826D01*
X37465626Y20633663D01*
X37635144Y20520395D01*
X37823502Y20442374D01*
X38023461Y20402600D01*
X38227339Y20402600D01*
X38369212Y20430820D01*
X38351195Y20403856D01*
X38273174Y20215498D01*
X38261154Y20155071D01*
X38097098Y20223026D01*
X37897139Y20262800D01*
X37693261Y20262800D01*
X37493302Y20223026D01*
X37304944Y20145005D01*
X37135426Y20031737D01*
X36991263Y19887574D01*
X36877995Y19718056D01*
X36799974Y19529698D01*
X36760200Y19329739D01*
X35819836Y19329739D01*
X35816805Y19337056D01*
X35703537Y19506574D01*
X35559374Y19650737D01*
X35389856Y19764005D01*
X35201498Y19842026D01*
X35001539Y19881800D01*
X34797661Y19881800D01*
X34597702Y19842026D01*
X34409344Y19764005D01*
X34239826Y19650737D01*
X34095663Y19506574D01*
X33982395Y19337056D01*
X33904374Y19148698D01*
X33864600Y18948739D01*
X31812989Y18948739D01*
X31901774Y19008063D01*
X32045937Y19152226D01*
X32159205Y19321744D01*
X32237226Y19510102D01*
X32277000Y19710061D01*
X32277000Y19913939D01*
X32237226Y20113898D01*
X32159205Y20302256D01*
X32045937Y20471774D01*
X31901774Y20615937D01*
X31732256Y20729205D01*
X31543898Y20807226D01*
X31343939Y20847000D01*
X31140061Y20847000D01*
X30940102Y20807226D01*
X30751744Y20729205D01*
X30582226Y20615937D01*
X30438063Y20471774D01*
X30324795Y20302256D01*
X30246774Y20113898D01*
X30207000Y19913939D01*
X735000Y19913939D01*
X735000Y21056939D01*
X16592600Y21056939D01*
X16592600Y20853061D01*
X16632374Y20653102D01*
X16710395Y20464744D01*
X16823663Y20295226D01*
X16967826Y20151063D01*
X17137344Y20037795D01*
X17325702Y19959774D01*
X17525661Y19920000D01*
X17729539Y19920000D01*
X17929498Y19959774D01*
X18117856Y20037795D01*
X18287374Y20151063D01*
X18431537Y20295226D01*
X18544805Y20464744D01*
X18622826Y20653102D01*
X18662600Y20853061D01*
X18662600Y21056939D01*
X18622826Y21256898D01*
X18544805Y21445256D01*
X18431537Y21614774D01*
X18287374Y21758937D01*
X18117856Y21872205D01*
X17929498Y21950226D01*
X17729539Y21990000D01*
X17525661Y21990000D01*
X17325702Y21950226D01*
X17137344Y21872205D01*
X16967826Y21758937D01*
X16823663Y21614774D01*
X16710395Y21445256D01*
X16632374Y21256898D01*
X16592600Y21056939D01*
X735000Y21056939D01*
X735000Y26504981D01*
X1367000Y26504981D01*
X1367000Y26123819D01*
X1441361Y25749981D01*
X1587225Y25397834D01*
X1798987Y25080909D01*
X2068509Y24811387D01*
X2385434Y24599625D01*
X2737581Y24453761D01*
X3111419Y24379400D01*
X3492581Y24379400D01*
X3866419Y24453761D01*
X4218566Y24599625D01*
X4535491Y24811387D01*
X4805013Y25080909D01*
X5016775Y25397834D01*
X5162639Y25749981D01*
X5237000Y26123819D01*
X5237000Y26504981D01*
X5162639Y26878819D01*
X5016775Y27230966D01*
X4805013Y27547891D01*
X4535491Y27817413D01*
X4218566Y28029175D01*
X3866419Y28175039D01*
X3492581Y28249400D01*
X3111419Y28249400D01*
X2737581Y28175039D01*
X2385434Y28029175D01*
X2068509Y27817413D01*
X1798987Y27547891D01*
X1587225Y27230966D01*
X1441361Y26878819D01*
X1367000Y26504981D01*
X735000Y26504981D01*
X735000Y32613939D01*
X1403400Y32613939D01*
X1403400Y32410061D01*
X1443174Y32210102D01*
X1521195Y32021744D01*
X1634463Y31852226D01*
X1778626Y31708063D01*
X1948144Y31594795D01*
X2136502Y31516774D01*
X2336461Y31477000D01*
X2540339Y31477000D01*
X2740298Y31516774D01*
X2928656Y31594795D01*
X3098174Y31708063D01*
X3242337Y31852226D01*
X3355605Y32021744D01*
X3433626Y32210102D01*
X3473400Y32410061D01*
X3473400Y32613939D01*
X3433626Y32813898D01*
X3355605Y33002256D01*
X3242337Y33171774D01*
X3098174Y33315937D01*
X2928656Y33429205D01*
X2740298Y33507226D01*
X2540339Y33547000D01*
X2336461Y33547000D01*
X2136502Y33507226D01*
X1948144Y33429205D01*
X1778626Y33315937D01*
X1634463Y33171774D01*
X1521195Y33002256D01*
X1443174Y32813898D01*
X1403400Y32613939D01*
X735000Y32613939D01*
X735000Y37439939D01*
X1378000Y37439939D01*
X1378000Y37236061D01*
X1417774Y37036102D01*
X1495795Y36847744D01*
X1609063Y36678226D01*
X1753226Y36534063D01*
X1922744Y36420795D01*
X2111102Y36342774D01*
X2311061Y36303000D01*
X2514939Y36303000D01*
X2714898Y36342774D01*
X2903256Y36420795D01*
X3072774Y36534063D01*
X3216937Y36678226D01*
X3330205Y36847744D01*
X3408226Y37036102D01*
X3448000Y37236061D01*
X3448000Y37439939D01*
X3408226Y37639898D01*
X3330205Y37828256D01*
X3216937Y37997774D01*
X3072774Y38141937D01*
X2903256Y38255205D01*
X2714898Y38333226D01*
X2514939Y38373000D01*
X2311061Y38373000D01*
X2111102Y38333226D01*
X1922744Y38255205D01*
X1753226Y38141937D01*
X1609063Y37997774D01*
X1495795Y37828256D01*
X1417774Y37639898D01*
X1378000Y37439939D01*
X735000Y37439939D01*
X735000Y46882260D01*
X8929000Y46882260D01*
X8929000Y46589740D01*
X8986068Y46302842D01*
X9098010Y46032589D01*
X9260525Y45789368D01*
X9467368Y45582525D01*
X9641760Y45466000D01*
X9467368Y45349475D01*
X9260525Y45142632D01*
X9098010Y44899411D01*
X8986068Y44629158D01*
X8929000Y44342260D01*
X8929000Y44049740D01*
X8986068Y43762842D01*
X9098010Y43492589D01*
X9260525Y43249368D01*
X9467368Y43042525D01*
X9641760Y42926000D01*
X9467368Y42809475D01*
X9260525Y42602632D01*
X9098010Y42359411D01*
X8986068Y42089158D01*
X8929000Y41802260D01*
X8929000Y41509740D01*
X8986068Y41222842D01*
X9098010Y40952589D01*
X9260525Y40709368D01*
X9467368Y40502525D01*
X9641760Y40386000D01*
X9467368Y40269475D01*
X9260525Y40062632D01*
X9098010Y39819411D01*
X8986068Y39549158D01*
X8929000Y39262260D01*
X8929000Y38969740D01*
X8986068Y38682842D01*
X9098010Y38412589D01*
X9260525Y38169368D01*
X9467368Y37962525D01*
X9641760Y37846000D01*
X9467368Y37729475D01*
X9260525Y37522632D01*
X9098010Y37279411D01*
X8986068Y37009158D01*
X8929000Y36722260D01*
X8929000Y36429740D01*
X8986068Y36142842D01*
X9098010Y35872589D01*
X9260525Y35629368D01*
X9467368Y35422525D01*
X9641760Y35306000D01*
X9467368Y35189475D01*
X9260525Y34982632D01*
X9098010Y34739411D01*
X8986068Y34469158D01*
X8929000Y34182260D01*
X8929000Y33889740D01*
X8986068Y33602842D01*
X9098010Y33332589D01*
X9260525Y33089368D01*
X9467368Y32882525D01*
X9641760Y32766000D01*
X9467368Y32649475D01*
X9260525Y32442632D01*
X9098010Y32199411D01*
X8986068Y31929158D01*
X8929000Y31642260D01*
X8929000Y31349740D01*
X8986068Y31062842D01*
X9098010Y30792589D01*
X9260525Y30549368D01*
X9467368Y30342525D01*
X9641760Y30226000D01*
X9467368Y30109475D01*
X9260525Y29902632D01*
X9098010Y29659411D01*
X8986068Y29389158D01*
X8929000Y29102260D01*
X8929000Y28809740D01*
X8986068Y28522842D01*
X9098010Y28252589D01*
X9260525Y28009368D01*
X9467368Y27802525D01*
X9641760Y27686000D01*
X9467368Y27569475D01*
X9260525Y27362632D01*
X9098010Y27119411D01*
X8986068Y26849158D01*
X8929000Y26562260D01*
X8929000Y26269740D01*
X8986068Y25982842D01*
X9098010Y25712589D01*
X9260525Y25469368D01*
X9467368Y25262525D01*
X9641760Y25146000D01*
X9467368Y25029475D01*
X9260525Y24822632D01*
X9098010Y24579411D01*
X8986068Y24309158D01*
X8929000Y24022260D01*
X8929000Y23729740D01*
X8986068Y23442842D01*
X9098010Y23172589D01*
X9260525Y22929368D01*
X9467368Y22722525D01*
X9710589Y22560010D01*
X9980842Y22448068D01*
X10267740Y22391000D01*
X10560260Y22391000D01*
X10847158Y22448068D01*
X11117411Y22560010D01*
X11360632Y22722525D01*
X11567475Y22929368D01*
X11684000Y23103760D01*
X11800525Y22929368D01*
X12007368Y22722525D01*
X12250589Y22560010D01*
X12520842Y22448068D01*
X12807740Y22391000D01*
X13100260Y22391000D01*
X13387158Y22448068D01*
X13657411Y22560010D01*
X13900632Y22722525D01*
X14107475Y22929368D01*
X14269990Y23172589D01*
X14381932Y23442842D01*
X14439000Y23729740D01*
X14439000Y24022260D01*
X14381932Y24309158D01*
X14269990Y24579411D01*
X14107475Y24822632D01*
X13900632Y25029475D01*
X13726240Y25146000D01*
X13900632Y25262525D01*
X14042339Y25404232D01*
X20660493Y25404232D01*
X20660493Y25200354D01*
X20700267Y25000395D01*
X20778288Y24812037D01*
X20891556Y24642519D01*
X21035719Y24498356D01*
X21205237Y24385088D01*
X21393595Y24307067D01*
X21593554Y24267293D01*
X21797432Y24267293D01*
X21997391Y24307067D01*
X22185749Y24385088D01*
X22355267Y24498356D01*
X22499430Y24642519D01*
X22612698Y24812037D01*
X22690719Y25000395D01*
X22730493Y25200354D01*
X22730493Y25400339D01*
X31172200Y25400339D01*
X31172200Y25196461D01*
X31211974Y24996502D01*
X31289995Y24808144D01*
X31403263Y24638626D01*
X31547426Y24494463D01*
X31716944Y24381195D01*
X31905302Y24303174D01*
X32105261Y24263400D01*
X32309139Y24263400D01*
X32509098Y24303174D01*
X32697456Y24381195D01*
X32866974Y24494463D01*
X33011137Y24638626D01*
X33124405Y24808144D01*
X33197284Y24984089D01*
X34117000Y24984089D01*
X34117000Y24799911D01*
X34152932Y24619271D01*
X34223414Y24449111D01*
X34325738Y24295972D01*
X34455972Y24165738D01*
X34609111Y24063414D01*
X34779271Y23992932D01*
X34959911Y23957000D01*
X35144089Y23957000D01*
X35324729Y23992932D01*
X35494889Y24063414D01*
X35648028Y24165738D01*
X35778262Y24295972D01*
X35880586Y24449111D01*
X35951068Y24619271D01*
X35987000Y24799911D01*
X35987000Y24984089D01*
X35961742Y25111070D01*
X36086729Y25135932D01*
X36201162Y25183331D01*
X36226836Y25144907D01*
X36370999Y25000744D01*
X36540517Y24887476D01*
X36728875Y24809455D01*
X36767995Y24801674D01*
X36799974Y24640902D01*
X36877995Y24452544D01*
X36991263Y24283026D01*
X37135426Y24138863D01*
X37304944Y24025595D01*
X37493302Y23947574D01*
X37693261Y23907800D01*
X37897139Y23907800D01*
X38097098Y23947574D01*
X38285456Y24025595D01*
X38454974Y24138863D01*
X38599137Y24283026D01*
X38712405Y24452544D01*
X38790426Y24640902D01*
X38830200Y24840861D01*
X38830200Y25044739D01*
X38790426Y25244698D01*
X38712405Y25433056D01*
X38599137Y25602574D01*
X38454974Y25746737D01*
X38285456Y25860005D01*
X38097098Y25938026D01*
X38057978Y25945807D01*
X38034551Y26063589D01*
X39133500Y26063589D01*
X39133500Y25879411D01*
X39169432Y25698771D01*
X39239914Y25528611D01*
X39296174Y25444411D01*
X39232932Y25291729D01*
X39197000Y25111089D01*
X39197000Y24926911D01*
X39232932Y24746271D01*
X39303414Y24576111D01*
X39405738Y24422972D01*
X39535972Y24292738D01*
X39689111Y24190414D01*
X39859271Y24119932D01*
X40039911Y24084000D01*
X40224089Y24084000D01*
X40404729Y24119932D01*
X40574889Y24190414D01*
X40728028Y24292738D01*
X40858262Y24422972D01*
X40960586Y24576111D01*
X41031068Y24746271D01*
X41067000Y24926911D01*
X41067000Y25111089D01*
X41031068Y25291729D01*
X40960586Y25461889D01*
X40904326Y25546089D01*
X40967568Y25698771D01*
X41003500Y25879411D01*
X41003500Y26063589D01*
X40990869Y26127089D01*
X42181500Y26127089D01*
X42181500Y25942911D01*
X42217432Y25762271D01*
X42287914Y25592111D01*
X42390238Y25438972D01*
X42520472Y25308738D01*
X42673611Y25206414D01*
X42843771Y25135932D01*
X43024411Y25100000D01*
X43208589Y25100000D01*
X43389229Y25135932D01*
X43559389Y25206414D01*
X43712528Y25308738D01*
X43836574Y25432784D01*
X43913411Y25417500D01*
X44097589Y25417500D01*
X44278229Y25453432D01*
X44448389Y25523914D01*
X44601528Y25626238D01*
X44731762Y25756472D01*
X44834086Y25909611D01*
X44904568Y26079771D01*
X44940500Y26260411D01*
X44940500Y26444589D01*
X44904568Y26625229D01*
X44834086Y26795389D01*
X44731762Y26948528D01*
X44601528Y27078762D01*
X44448389Y27181086D01*
X44278229Y27251568D01*
X44097589Y27287500D01*
X43913411Y27287500D01*
X43732771Y27251568D01*
X43562611Y27181086D01*
X43409472Y27078762D01*
X43285426Y26954716D01*
X43208589Y26970000D01*
X43024411Y26970000D01*
X42843771Y26934068D01*
X42673611Y26863586D01*
X42520472Y26761262D01*
X42390238Y26631028D01*
X42287914Y26477889D01*
X42217432Y26307729D01*
X42181500Y26127089D01*
X40990869Y26127089D01*
X40967568Y26244229D01*
X40897086Y26414389D01*
X40794762Y26567528D01*
X40664528Y26697762D01*
X40511389Y26800086D01*
X40341229Y26870568D01*
X40160589Y26906500D01*
X39976411Y26906500D01*
X39795771Y26870568D01*
X39625611Y26800086D01*
X39472472Y26697762D01*
X39342238Y26567528D01*
X39239914Y26414389D01*
X39169432Y26244229D01*
X39133500Y26063589D01*
X38034551Y26063589D01*
X38025999Y26106579D01*
X37947978Y26294937D01*
X37834710Y26464455D01*
X37707438Y26591727D01*
X37837137Y26721426D01*
X37950405Y26890944D01*
X38028426Y27079302D01*
X38068200Y27279261D01*
X38068200Y27483139D01*
X38028426Y27683098D01*
X37950405Y27871456D01*
X37837137Y28040974D01*
X37692974Y28185137D01*
X37596240Y28249772D01*
X37730089Y28305214D01*
X37883228Y28407538D01*
X38013462Y28537772D01*
X38115786Y28690911D01*
X38186268Y28861071D01*
X38222200Y29041711D01*
X38222200Y29225889D01*
X38186268Y29406529D01*
X38115786Y29576689D01*
X38013462Y29729828D01*
X37883228Y29860062D01*
X37730089Y29962386D01*
X37559929Y30032868D01*
X37404548Y30063776D01*
X37398868Y30092329D01*
X37328386Y30262489D01*
X37226062Y30415628D01*
X37095828Y30545862D01*
X36970146Y30629840D01*
X36977600Y30667311D01*
X36977600Y30837697D01*
X37083661Y30816600D01*
X37287539Y30816600D01*
X37487498Y30856374D01*
X37675856Y30934395D01*
X37845374Y31047663D01*
X37989537Y31191826D01*
X38102805Y31361344D01*
X38180826Y31549702D01*
X38198787Y31639997D01*
X38252061Y31629400D01*
X38455939Y31629400D01*
X38655898Y31669174D01*
X38844256Y31747195D01*
X39013774Y31860463D01*
X39157937Y32004626D01*
X39271205Y32174144D01*
X39349226Y32362502D01*
X39389000Y32562461D01*
X39389000Y32766339D01*
X39349226Y32966298D01*
X39271205Y33154656D01*
X39157937Y33324174D01*
X39013774Y33468337D01*
X38961989Y33502939D01*
X44367500Y33502939D01*
X44367500Y33299061D01*
X44407274Y33099102D01*
X44485295Y32910744D01*
X44598563Y32741226D01*
X44742726Y32597063D01*
X44912244Y32483795D01*
X45100602Y32405774D01*
X45300561Y32366000D01*
X45504439Y32366000D01*
X45704398Y32405774D01*
X45892756Y32483795D01*
X46062274Y32597063D01*
X46206437Y32741226D01*
X46319705Y32910744D01*
X46397726Y33099102D01*
X46437500Y33299061D01*
X46437500Y33502939D01*
X46397726Y33702898D01*
X46319705Y33891256D01*
X46206437Y34060774D01*
X46062274Y34204937D01*
X45892756Y34318205D01*
X45868050Y34328439D01*
X46717000Y34328439D01*
X46717000Y34124561D01*
X46756774Y33924602D01*
X46834795Y33736244D01*
X46948063Y33566726D01*
X47092226Y33422563D01*
X47261744Y33309295D01*
X47450102Y33231274D01*
X47650061Y33191500D01*
X47853939Y33191500D01*
X48053898Y33231274D01*
X48242256Y33309295D01*
X48411774Y33422563D01*
X48555937Y33566726D01*
X48669205Y33736244D01*
X48747226Y33924602D01*
X48787000Y34124561D01*
X48787000Y34328439D01*
X48747226Y34528398D01*
X48669205Y34716756D01*
X48555937Y34886274D01*
X48411774Y35030437D01*
X48242256Y35143705D01*
X48053898Y35221726D01*
X47853939Y35261500D01*
X47650061Y35261500D01*
X47450102Y35221726D01*
X47261744Y35143705D01*
X47092226Y35030437D01*
X46948063Y34886274D01*
X46834795Y34716756D01*
X46756774Y34528398D01*
X46717000Y34328439D01*
X45868050Y34328439D01*
X45704398Y34396226D01*
X45504439Y34436000D01*
X45300561Y34436000D01*
X45100602Y34396226D01*
X44912244Y34318205D01*
X44742726Y34204937D01*
X44598563Y34060774D01*
X44485295Y33891256D01*
X44407274Y33702898D01*
X44367500Y33502939D01*
X38961989Y33502939D01*
X38844256Y33581605D01*
X38655898Y33659626D01*
X38455939Y33699400D01*
X38252061Y33699400D01*
X38052102Y33659626D01*
X37863744Y33581605D01*
X37694226Y33468337D01*
X37550063Y33324174D01*
X37436795Y33154656D01*
X37358774Y32966298D01*
X37340813Y32876003D01*
X37287539Y32886600D01*
X37083661Y32886600D01*
X36893507Y32848776D01*
X36860026Y33017098D01*
X36782005Y33205456D01*
X36668737Y33374974D01*
X36524574Y33519137D01*
X36355056Y33632405D01*
X36166698Y33710426D01*
X35966739Y33750200D01*
X35762861Y33750200D01*
X35562902Y33710426D01*
X35374544Y33632405D01*
X35205026Y33519137D01*
X35060863Y33374974D01*
X34947595Y33205456D01*
X34869574Y33017098D01*
X34829800Y32817139D01*
X34829800Y32613261D01*
X34869574Y32413302D01*
X34947595Y32224944D01*
X35060863Y32055426D01*
X35205026Y31911263D01*
X35374544Y31797995D01*
X35562902Y31719974D01*
X35762861Y31680200D01*
X35879124Y31680200D01*
X35769871Y31658468D01*
X35599711Y31587986D01*
X35446572Y31485662D01*
X35316338Y31355428D01*
X35214014Y31202289D01*
X35143532Y31032129D01*
X35107600Y30851489D01*
X35107600Y30667311D01*
X35143532Y30486671D01*
X35214014Y30316511D01*
X35316338Y30163372D01*
X35446572Y30033138D01*
X35572254Y29949160D01*
X35564800Y29911689D01*
X35564800Y29727511D01*
X35600732Y29546871D01*
X35671214Y29376711D01*
X35773538Y29223572D01*
X35903772Y29093338D01*
X36056911Y28991014D01*
X36227071Y28920532D01*
X36382452Y28889624D01*
X36388132Y28861071D01*
X36458614Y28690911D01*
X36560938Y28537772D01*
X36691172Y28407538D01*
X36736259Y28377412D01*
X36731302Y28376426D01*
X36542944Y28298405D01*
X36373426Y28185137D01*
X36229263Y28040974D01*
X36115995Y27871456D01*
X36037974Y27683098D01*
X35998200Y27483139D01*
X35998200Y27279261D01*
X36037974Y27079302D01*
X36100494Y26928366D01*
X36086729Y26934068D01*
X35906089Y26970000D01*
X35721911Y26970000D01*
X35541271Y26934068D01*
X35371111Y26863586D01*
X35217972Y26761262D01*
X35087738Y26631028D01*
X34985414Y26477889D01*
X34914932Y26307729D01*
X34879000Y26127089D01*
X34879000Y25942911D01*
X34904258Y25815930D01*
X34779271Y25791068D01*
X34609111Y25720586D01*
X34455972Y25618262D01*
X34325738Y25488028D01*
X34223414Y25334889D01*
X34152932Y25164729D01*
X34117000Y24984089D01*
X33197284Y24984089D01*
X33202426Y24996502D01*
X33242200Y25196461D01*
X33242200Y25400339D01*
X33202724Y25598800D01*
X33222574Y25612063D01*
X33366737Y25756226D01*
X33480005Y25925744D01*
X33558026Y26114102D01*
X33597800Y26314061D01*
X33597800Y26517939D01*
X33558026Y26717898D01*
X33480005Y26906256D01*
X33451177Y26949400D01*
X33480005Y26992544D01*
X33558026Y27180902D01*
X33597800Y27380861D01*
X33597800Y27584739D01*
X33558026Y27784698D01*
X33480005Y27973056D01*
X33366737Y28142574D01*
X33222574Y28286737D01*
X33172759Y28320022D01*
X33190893Y28347162D01*
X34305073Y28347162D01*
X34305073Y28162984D01*
X34341005Y27982344D01*
X34411487Y27812184D01*
X34513811Y27659045D01*
X34644045Y27528811D01*
X34797184Y27426487D01*
X34967344Y27356005D01*
X35147984Y27320073D01*
X35332162Y27320073D01*
X35512802Y27356005D01*
X35682962Y27426487D01*
X35836101Y27528811D01*
X35966335Y27659045D01*
X36068659Y27812184D01*
X36139141Y27982344D01*
X36175073Y28162984D01*
X36175073Y28347162D01*
X36139141Y28527802D01*
X36068659Y28697962D01*
X35966335Y28851101D01*
X35836101Y28981335D01*
X35682962Y29083659D01*
X35512802Y29154141D01*
X35332162Y29190073D01*
X35147984Y29190073D01*
X34967344Y29154141D01*
X34797184Y29083659D01*
X34644045Y28981335D01*
X34513811Y28851101D01*
X34411487Y28697962D01*
X34341005Y28527802D01*
X34305073Y28347162D01*
X33190893Y28347162D01*
X33272802Y28469747D01*
X33350823Y28658105D01*
X33390597Y28858064D01*
X33390597Y29061942D01*
X33350823Y29261901D01*
X33272802Y29450259D01*
X33159534Y29619777D01*
X33090371Y29688940D01*
X33220298Y29714784D01*
X33408656Y29792805D01*
X33578174Y29906073D01*
X33722337Y30050236D01*
X33835605Y30219754D01*
X33913626Y30408112D01*
X33953400Y30608071D01*
X33953400Y30811949D01*
X33913626Y31011908D01*
X33835605Y31200266D01*
X33722337Y31369784D01*
X33578174Y31513947D01*
X33496330Y31568633D01*
X33628974Y31657263D01*
X33773137Y31801426D01*
X33886405Y31970944D01*
X33964426Y32159302D01*
X34004200Y32359261D01*
X34004200Y32563139D01*
X33964426Y32763098D01*
X33886405Y32951456D01*
X33773137Y33120974D01*
X33628974Y33265137D01*
X33459456Y33378405D01*
X33338310Y33428586D01*
X33303570Y33603236D01*
X33225549Y33791594D01*
X33112281Y33961112D01*
X32968118Y34105275D01*
X32798600Y34218543D01*
X32610242Y34296564D01*
X32410283Y34336338D01*
X32206405Y34336338D01*
X32006446Y34296564D01*
X31818088Y34218543D01*
X31648570Y34105275D01*
X31504407Y33961112D01*
X31391139Y33791594D01*
X31313118Y33603236D01*
X31273344Y33403277D01*
X31273344Y33199399D01*
X31313118Y32999440D01*
X31391139Y32811082D01*
X31504407Y32641564D01*
X31648570Y32497401D01*
X31695134Y32466288D01*
X31598226Y32401537D01*
X31454063Y32257374D01*
X31340795Y32087856D01*
X31262774Y31899498D01*
X31223000Y31699539D01*
X31223000Y31495661D01*
X31262774Y31295702D01*
X31340795Y31107344D01*
X31454063Y30937826D01*
X31598226Y30793663D01*
X31767744Y30680395D01*
X31883400Y30632488D01*
X31883400Y30608071D01*
X31923174Y30408112D01*
X32001195Y30219754D01*
X32114463Y30050236D01*
X32183626Y29981073D01*
X32053699Y29955229D01*
X31865341Y29877208D01*
X31695823Y29763940D01*
X31551660Y29619777D01*
X31438392Y29450259D01*
X31360371Y29261901D01*
X31320597Y29061942D01*
X31320597Y28858064D01*
X31360371Y28658105D01*
X31438392Y28469747D01*
X31551660Y28300229D01*
X31695823Y28156066D01*
X31745638Y28122781D01*
X31645595Y27973056D01*
X31567574Y27784698D01*
X31527800Y27584739D01*
X31527800Y27380861D01*
X31567574Y27180902D01*
X31645595Y26992544D01*
X31674423Y26949400D01*
X31645595Y26906256D01*
X31567574Y26717898D01*
X31527800Y26517939D01*
X31527800Y26314061D01*
X31567276Y26115600D01*
X31547426Y26102337D01*
X31403263Y25958174D01*
X31289995Y25788656D01*
X31211974Y25600298D01*
X31172200Y25400339D01*
X22730493Y25400339D01*
X22730493Y25404232D01*
X22690719Y25604191D01*
X22612698Y25792549D01*
X22499430Y25962067D01*
X22355267Y26106230D01*
X22185749Y26219498D01*
X21997391Y26297519D01*
X21797432Y26337293D01*
X21593554Y26337293D01*
X21393595Y26297519D01*
X21205237Y26219498D01*
X21035719Y26106230D01*
X20891556Y25962067D01*
X20778288Y25792549D01*
X20700267Y25604191D01*
X20660493Y25404232D01*
X14042339Y25404232D01*
X14107475Y25469368D01*
X14269990Y25712589D01*
X14381932Y25982842D01*
X14439000Y26269740D01*
X14439000Y26562260D01*
X14381932Y26849158D01*
X14269990Y27119411D01*
X14107475Y27362632D01*
X13900632Y27569475D01*
X13726240Y27686000D01*
X13900632Y27802525D01*
X14107475Y28009368D01*
X14269990Y28252589D01*
X14381932Y28522842D01*
X14437846Y28803939D01*
X24365000Y28803939D01*
X24365000Y28600061D01*
X24404774Y28400102D01*
X24482795Y28211744D01*
X24596063Y28042226D01*
X24740226Y27898063D01*
X24909744Y27784795D01*
X25098102Y27706774D01*
X25298061Y27667000D01*
X25501939Y27667000D01*
X25701898Y27706774D01*
X25890256Y27784795D01*
X26059774Y27898063D01*
X26203937Y28042226D01*
X26211037Y28052852D01*
X26315026Y27948863D01*
X26484544Y27835595D01*
X26672902Y27757574D01*
X26872861Y27717800D01*
X27076739Y27717800D01*
X27276698Y27757574D01*
X27465056Y27835595D01*
X27634574Y27948863D01*
X27778737Y28093026D01*
X27879337Y28243585D01*
X27957744Y28191195D01*
X28146102Y28113174D01*
X28346061Y28073400D01*
X28549939Y28073400D01*
X28749898Y28113174D01*
X28938256Y28191195D01*
X29107774Y28304463D01*
X29251937Y28448626D01*
X29365205Y28618144D01*
X29443226Y28806502D01*
X29483000Y29006461D01*
X29483000Y29210339D01*
X29443226Y29410298D01*
X29365205Y29598656D01*
X29251937Y29768174D01*
X29107774Y29912337D01*
X28938256Y30025605D01*
X28749898Y30103626D01*
X28549939Y30143400D01*
X28346061Y30143400D01*
X28146102Y30103626D01*
X27957744Y30025605D01*
X27788226Y29912337D01*
X27644063Y29768174D01*
X27543463Y29617615D01*
X27465056Y29670005D01*
X27276698Y29748026D01*
X27076739Y29787800D01*
X26872861Y29787800D01*
X26672902Y29748026D01*
X26484544Y29670005D01*
X26315026Y29556737D01*
X26170863Y29412574D01*
X26163763Y29401948D01*
X26059774Y29505937D01*
X25890256Y29619205D01*
X25701898Y29697226D01*
X25501939Y29737000D01*
X25298061Y29737000D01*
X25098102Y29697226D01*
X24909744Y29619205D01*
X24740226Y29505937D01*
X24596063Y29361774D01*
X24482795Y29192256D01*
X24404774Y29003898D01*
X24365000Y28803939D01*
X14437846Y28803939D01*
X14439000Y28809740D01*
X14439000Y29102260D01*
X14381932Y29389158D01*
X14269990Y29659411D01*
X14107475Y29902632D01*
X13900632Y30109475D01*
X13726240Y30226000D01*
X13900632Y30342525D01*
X14107475Y30549368D01*
X14269990Y30792589D01*
X14287946Y30835939D01*
X22688600Y30835939D01*
X22688600Y30632061D01*
X22728374Y30432102D01*
X22806395Y30243744D01*
X22919663Y30074226D01*
X23063826Y29930063D01*
X23233344Y29816795D01*
X23421702Y29738774D01*
X23621661Y29699000D01*
X23825539Y29699000D01*
X24025498Y29738774D01*
X24213856Y29816795D01*
X24383374Y29930063D01*
X24527537Y30074226D01*
X24640805Y30243744D01*
X24718826Y30432102D01*
X24758600Y30632061D01*
X24758600Y30835939D01*
X24718826Y31035898D01*
X24640805Y31224256D01*
X24527537Y31393774D01*
X24383374Y31537937D01*
X24213856Y31651205D01*
X24025498Y31729226D01*
X23825539Y31769000D01*
X23621661Y31769000D01*
X23421702Y31729226D01*
X23233344Y31651205D01*
X23063826Y31537937D01*
X22919663Y31393774D01*
X22806395Y31224256D01*
X22728374Y31035898D01*
X22688600Y30835939D01*
X14287946Y30835939D01*
X14381932Y31062842D01*
X14439000Y31349740D01*
X14439000Y31642260D01*
X14381932Y31929158D01*
X14269990Y32199411D01*
X14107475Y32442632D01*
X13900632Y32649475D01*
X13726240Y32766000D01*
X13900632Y32882525D01*
X14107475Y33089368D01*
X14269990Y33332589D01*
X14381932Y33602842D01*
X14439000Y33889740D01*
X14439000Y34182260D01*
X14381932Y34469158D01*
X14269990Y34739411D01*
X14107475Y34982632D01*
X13900632Y35189475D01*
X13726240Y35306000D01*
X13900632Y35422525D01*
X14107475Y35629368D01*
X14269990Y35872589D01*
X14381932Y36142842D01*
X14439000Y36429740D01*
X14439000Y36722260D01*
X14381932Y37009158D01*
X14371834Y37033539D01*
X22841000Y37033539D01*
X22841000Y36829661D01*
X22880774Y36629702D01*
X22958795Y36441344D01*
X23072063Y36271826D01*
X23216226Y36127663D01*
X23385744Y36014395D01*
X23574102Y35936374D01*
X23774061Y35896600D01*
X23977939Y35896600D01*
X24177898Y35936374D01*
X24366256Y36014395D01*
X24535774Y36127663D01*
X24679937Y36271826D01*
X24793205Y36441344D01*
X24849122Y36576339D01*
X37268200Y36576339D01*
X37268200Y36372461D01*
X37307974Y36172502D01*
X37385995Y35984144D01*
X37499263Y35814626D01*
X37643426Y35670463D01*
X37812944Y35557195D01*
X38001302Y35479174D01*
X38201261Y35439400D01*
X38405139Y35439400D01*
X38605098Y35479174D01*
X38793456Y35557195D01*
X38962974Y35670463D01*
X39107137Y35814626D01*
X39220405Y35984144D01*
X39298426Y36172502D01*
X39338200Y36372461D01*
X39338200Y36576339D01*
X39298426Y36776298D01*
X39220405Y36964656D01*
X39107137Y37134174D01*
X38962974Y37278337D01*
X38793456Y37391605D01*
X38605098Y37469626D01*
X38405139Y37509400D01*
X38201261Y37509400D01*
X38001302Y37469626D01*
X37812944Y37391605D01*
X37643426Y37278337D01*
X37499263Y37134174D01*
X37385995Y36964656D01*
X37307974Y36776298D01*
X37268200Y36576339D01*
X24849122Y36576339D01*
X24871226Y36629702D01*
X24911000Y36829661D01*
X24911000Y37033539D01*
X24871226Y37233498D01*
X24793205Y37421856D01*
X24679937Y37591374D01*
X24535774Y37735537D01*
X24366256Y37848805D01*
X24177898Y37926826D01*
X23977939Y37966600D01*
X23774061Y37966600D01*
X23574102Y37926826D01*
X23385744Y37848805D01*
X23216226Y37735537D01*
X23072063Y37591374D01*
X22958795Y37421856D01*
X22880774Y37233498D01*
X22841000Y37033539D01*
X14371834Y37033539D01*
X14269990Y37279411D01*
X14107475Y37522632D01*
X13900632Y37729475D01*
X13726240Y37846000D01*
X13900632Y37962525D01*
X14107475Y38169368D01*
X14269990Y38412589D01*
X14381932Y38682842D01*
X14397426Y38760739D01*
X31858000Y38760739D01*
X31858000Y38556861D01*
X31897774Y38356902D01*
X31975795Y38168544D01*
X32089063Y37999026D01*
X32233226Y37854863D01*
X32402744Y37741595D01*
X32591102Y37663574D01*
X32791061Y37623800D01*
X32994939Y37623800D01*
X33194898Y37663574D01*
X33383256Y37741595D01*
X33552774Y37854863D01*
X33696937Y37999026D01*
X33810205Y38168544D01*
X33888226Y38356902D01*
X33928000Y38556861D01*
X33928000Y38760739D01*
X33888226Y38960698D01*
X33810205Y39149056D01*
X33696937Y39318574D01*
X33552774Y39462737D01*
X33383256Y39576005D01*
X33194898Y39654026D01*
X32994939Y39693800D01*
X32791061Y39693800D01*
X32591102Y39654026D01*
X32402744Y39576005D01*
X32233226Y39462737D01*
X32089063Y39318574D01*
X31975795Y39149056D01*
X31897774Y38960698D01*
X31858000Y38760739D01*
X14397426Y38760739D01*
X14439000Y38969740D01*
X14439000Y39262260D01*
X14381932Y39549158D01*
X14269990Y39819411D01*
X14107475Y40062632D01*
X13900632Y40269475D01*
X13726240Y40386000D01*
X13900632Y40502525D01*
X14107475Y40709368D01*
X14129238Y40741939D01*
X19539000Y40741939D01*
X19539000Y40538061D01*
X19578774Y40338102D01*
X19656795Y40149744D01*
X19770063Y39980226D01*
X19914226Y39836063D01*
X20083744Y39722795D01*
X20272102Y39644774D01*
X20472061Y39605000D01*
X20675939Y39605000D01*
X20875898Y39644774D01*
X21064256Y39722795D01*
X21233774Y39836063D01*
X21377937Y39980226D01*
X21491205Y40149744D01*
X21568164Y40335539D01*
X28073400Y40335539D01*
X28073400Y40131661D01*
X28113174Y39931702D01*
X28191195Y39743344D01*
X28304463Y39573826D01*
X28448626Y39429663D01*
X28618144Y39316395D01*
X28806502Y39238374D01*
X29006461Y39198600D01*
X29210339Y39198600D01*
X29410298Y39238374D01*
X29598656Y39316395D01*
X29768174Y39429663D01*
X29912337Y39573826D01*
X30025605Y39743344D01*
X30103626Y39931702D01*
X30143400Y40131661D01*
X30143400Y40335539D01*
X30103626Y40535498D01*
X30025605Y40723856D01*
X29912337Y40893374D01*
X29768174Y41037537D01*
X29598656Y41150805D01*
X29410298Y41228826D01*
X29210339Y41268600D01*
X29006461Y41268600D01*
X28806502Y41228826D01*
X28618144Y41150805D01*
X28448626Y41037537D01*
X28304463Y40893374D01*
X28191195Y40723856D01*
X28113174Y40535498D01*
X28073400Y40335539D01*
X21568164Y40335539D01*
X21569226Y40338102D01*
X21609000Y40538061D01*
X21609000Y40741939D01*
X21569226Y40941898D01*
X21491205Y41130256D01*
X21377937Y41299774D01*
X21233774Y41443937D01*
X21064256Y41557205D01*
X20947569Y41605539D01*
X24161800Y41605539D01*
X24161800Y41401661D01*
X24201574Y41201702D01*
X24279595Y41013344D01*
X24392863Y40843826D01*
X24537026Y40699663D01*
X24706544Y40586395D01*
X24894902Y40508374D01*
X25094861Y40468600D01*
X25298739Y40468600D01*
X25498698Y40508374D01*
X25687056Y40586395D01*
X25856574Y40699663D01*
X26000737Y40843826D01*
X26114005Y41013344D01*
X26192026Y41201702D01*
X26231800Y41401661D01*
X26231800Y41605539D01*
X26192026Y41805498D01*
X26114005Y41993856D01*
X26017064Y42138939D01*
X29572000Y42138939D01*
X29572000Y41935061D01*
X29611774Y41735102D01*
X29689795Y41546744D01*
X29803063Y41377226D01*
X29947226Y41233063D01*
X30116744Y41119795D01*
X30305102Y41041774D01*
X30505061Y41002000D01*
X30708939Y41002000D01*
X30908898Y41041774D01*
X31097256Y41119795D01*
X31266774Y41233063D01*
X31410937Y41377226D01*
X31524205Y41546744D01*
X31602226Y41735102D01*
X31642000Y41935061D01*
X31642000Y42138939D01*
X32112000Y42138939D01*
X32112000Y41935061D01*
X32151774Y41735102D01*
X32229795Y41546744D01*
X32343063Y41377226D01*
X32487226Y41233063D01*
X32656744Y41119795D01*
X32845102Y41041774D01*
X33045061Y41002000D01*
X33248939Y41002000D01*
X33448898Y41041774D01*
X33637256Y41119795D01*
X33806774Y41233063D01*
X33950937Y41377226D01*
X34064205Y41546744D01*
X34142226Y41735102D01*
X34182000Y41935061D01*
X34182000Y42138939D01*
X34142226Y42338898D01*
X34064205Y42527256D01*
X33950937Y42696774D01*
X33806774Y42840937D01*
X33637256Y42954205D01*
X33448898Y43032226D01*
X33248939Y43072000D01*
X33045061Y43072000D01*
X32845102Y43032226D01*
X32656744Y42954205D01*
X32487226Y42840937D01*
X32343063Y42696774D01*
X32229795Y42527256D01*
X32151774Y42338898D01*
X32112000Y42138939D01*
X31642000Y42138939D01*
X31602226Y42338898D01*
X31524205Y42527256D01*
X31410937Y42696774D01*
X31266774Y42840937D01*
X31097256Y42954205D01*
X30908898Y43032226D01*
X30708939Y43072000D01*
X30505061Y43072000D01*
X30305102Y43032226D01*
X30116744Y42954205D01*
X29947226Y42840937D01*
X29803063Y42696774D01*
X29689795Y42527256D01*
X29611774Y42338898D01*
X29572000Y42138939D01*
X26017064Y42138939D01*
X26000737Y42163374D01*
X25856574Y42307537D01*
X25687056Y42420805D01*
X25498698Y42498826D01*
X25298739Y42538600D01*
X25094861Y42538600D01*
X24894902Y42498826D01*
X24706544Y42420805D01*
X24537026Y42307537D01*
X24392863Y42163374D01*
X24279595Y41993856D01*
X24201574Y41805498D01*
X24161800Y41605539D01*
X20947569Y41605539D01*
X20875898Y41635226D01*
X20675939Y41675000D01*
X20472061Y41675000D01*
X20272102Y41635226D01*
X20083744Y41557205D01*
X19914226Y41443937D01*
X19770063Y41299774D01*
X19656795Y41130256D01*
X19578774Y40941898D01*
X19539000Y40741939D01*
X14129238Y40741939D01*
X14269990Y40952589D01*
X14381932Y41222842D01*
X14439000Y41509740D01*
X14439000Y41802260D01*
X14381932Y42089158D01*
X14269990Y42359411D01*
X14107475Y42602632D01*
X13900632Y42809475D01*
X13726240Y42926000D01*
X13900632Y43042525D01*
X14107475Y43249368D01*
X14269990Y43492589D01*
X14381932Y43762842D01*
X14439000Y44049740D01*
X14439000Y44342260D01*
X14381932Y44629158D01*
X14282405Y44869439D01*
X24009400Y44869439D01*
X24009400Y44665561D01*
X24049174Y44465602D01*
X24127195Y44277244D01*
X24240463Y44107726D01*
X24384626Y43963563D01*
X24554144Y43850295D01*
X24742502Y43772274D01*
X24942461Y43732500D01*
X24948149Y43732500D01*
X24990795Y43629544D01*
X25104063Y43460026D01*
X25248226Y43315863D01*
X25417744Y43202595D01*
X25606102Y43124574D01*
X25806061Y43084800D01*
X26009939Y43084800D01*
X26209898Y43124574D01*
X26398256Y43202595D01*
X26567774Y43315863D01*
X26711937Y43460026D01*
X26825205Y43629544D01*
X26883367Y43769960D01*
X27022698Y43797674D01*
X27211056Y43875695D01*
X27380574Y43988963D01*
X27435550Y44043939D01*
X45955000Y44043939D01*
X45955000Y43840061D01*
X45994774Y43640102D01*
X46072795Y43451744D01*
X46186063Y43282226D01*
X46330226Y43138063D01*
X46499744Y43024795D01*
X46688102Y42946774D01*
X46888061Y42907000D01*
X47091939Y42907000D01*
X47291898Y42946774D01*
X47480256Y43024795D01*
X47649774Y43138063D01*
X47793937Y43282226D01*
X47907205Y43451744D01*
X47985226Y43640102D01*
X48025000Y43840061D01*
X48025000Y44043939D01*
X47985226Y44243898D01*
X47949810Y44329400D01*
X48107939Y44329400D01*
X48307898Y44369174D01*
X48496256Y44447195D01*
X48665774Y44560463D01*
X48809937Y44704626D01*
X48923205Y44874144D01*
X49001226Y45062502D01*
X49041000Y45262461D01*
X49041000Y45466339D01*
X49001226Y45666298D01*
X48923205Y45854656D01*
X48809937Y46024174D01*
X48713851Y46120260D01*
X51855000Y46120260D01*
X51855000Y45827740D01*
X51912068Y45540842D01*
X52024010Y45270589D01*
X52186525Y45027368D01*
X52393368Y44820525D01*
X52567760Y44704000D01*
X52393368Y44587475D01*
X52186525Y44380632D01*
X52024010Y44137411D01*
X51912068Y43867158D01*
X51855000Y43580260D01*
X51855000Y43287740D01*
X51912068Y43000842D01*
X52024010Y42730589D01*
X52186525Y42487368D01*
X52393368Y42280525D01*
X52567760Y42164000D01*
X52393368Y42047475D01*
X52186525Y41840632D01*
X52024010Y41597411D01*
X51912068Y41327158D01*
X51855000Y41040260D01*
X51855000Y40747740D01*
X51912068Y40460842D01*
X52024010Y40190589D01*
X52186525Y39947368D01*
X52393368Y39740525D01*
X52567760Y39624000D01*
X52393368Y39507475D01*
X52186525Y39300632D01*
X52024010Y39057411D01*
X51912068Y38787158D01*
X51855000Y38500260D01*
X51855000Y38207740D01*
X51912068Y37920842D01*
X52024010Y37650589D01*
X52186525Y37407368D01*
X52393368Y37200525D01*
X52567760Y37084000D01*
X52393368Y36967475D01*
X52186525Y36760632D01*
X52024010Y36517411D01*
X51912068Y36247158D01*
X51855000Y35960260D01*
X51855000Y35667740D01*
X51912068Y35380842D01*
X52024010Y35110589D01*
X52186525Y34867368D01*
X52393368Y34660525D01*
X52567760Y34544000D01*
X52393368Y34427475D01*
X52186525Y34220632D01*
X52024010Y33977411D01*
X51912068Y33707158D01*
X51855000Y33420260D01*
X51855000Y33127740D01*
X51912068Y32840842D01*
X52024010Y32570589D01*
X52186525Y32327368D01*
X52393368Y32120525D01*
X52567760Y32004000D01*
X52393368Y31887475D01*
X52186525Y31680632D01*
X52024010Y31437411D01*
X51912068Y31167158D01*
X51855000Y30880260D01*
X51855000Y30587740D01*
X51912068Y30300842D01*
X52024010Y30030589D01*
X52186525Y29787368D01*
X52393368Y29580525D01*
X52567760Y29464000D01*
X52393368Y29347475D01*
X52186525Y29140632D01*
X52024010Y28897411D01*
X51912068Y28627158D01*
X51855000Y28340260D01*
X51855000Y28047740D01*
X51912068Y27760842D01*
X52024010Y27490589D01*
X52186525Y27247368D01*
X52393368Y27040525D01*
X52567760Y26924000D01*
X52393368Y26807475D01*
X52186525Y26600632D01*
X52024010Y26357411D01*
X51912068Y26087158D01*
X51855000Y25800260D01*
X51855000Y25507740D01*
X51912068Y25220842D01*
X52024010Y24950589D01*
X52186525Y24707368D01*
X52393368Y24500525D01*
X52636589Y24338010D01*
X52906842Y24226068D01*
X53193740Y24169000D01*
X53486260Y24169000D01*
X53773158Y24226068D01*
X54043411Y24338010D01*
X54286632Y24500525D01*
X54493475Y24707368D01*
X54610000Y24881760D01*
X54726525Y24707368D01*
X54933368Y24500525D01*
X55176589Y24338010D01*
X55446842Y24226068D01*
X55733740Y24169000D01*
X56026260Y24169000D01*
X56313158Y24226068D01*
X56583411Y24338010D01*
X56826632Y24500525D01*
X57033475Y24707368D01*
X57195990Y24950589D01*
X57307932Y25220842D01*
X57365000Y25507740D01*
X57365000Y25800260D01*
X57307932Y26087158D01*
X57195990Y26357411D01*
X57033475Y26600632D01*
X56826632Y26807475D01*
X56652240Y26924000D01*
X56826632Y27040525D01*
X56862846Y27076739D01*
X57435800Y27076739D01*
X57435800Y26872861D01*
X57475574Y26672902D01*
X57553595Y26484544D01*
X57666863Y26315026D01*
X57811026Y26170863D01*
X57980544Y26057595D01*
X58168902Y25979574D01*
X58368861Y25939800D01*
X58572739Y25939800D01*
X58772698Y25979574D01*
X58961056Y26057595D01*
X59130574Y26170863D01*
X59274737Y26315026D01*
X59388005Y26484544D01*
X59466026Y26672902D01*
X59505800Y26872861D01*
X59505800Y27076739D01*
X59466026Y27276698D01*
X59388005Y27465056D01*
X59274737Y27634574D01*
X59130574Y27778737D01*
X58961056Y27892005D01*
X58772698Y27970026D01*
X58572739Y28009800D01*
X58368861Y28009800D01*
X58168902Y27970026D01*
X57980544Y27892005D01*
X57811026Y27778737D01*
X57666863Y27634574D01*
X57553595Y27465056D01*
X57475574Y27276698D01*
X57435800Y27076739D01*
X56862846Y27076739D01*
X57033475Y27247368D01*
X57195990Y27490589D01*
X57307932Y27760842D01*
X57365000Y28047740D01*
X57365000Y28340260D01*
X57307932Y28627158D01*
X57195990Y28897411D01*
X57033475Y29140632D01*
X56826632Y29347475D01*
X56652240Y29464000D01*
X56826632Y29580525D01*
X57033475Y29787368D01*
X57195990Y30030589D01*
X57307932Y30300842D01*
X57365000Y30587740D01*
X57365000Y30835939D01*
X63989000Y30835939D01*
X63989000Y30632061D01*
X64028774Y30432102D01*
X64106795Y30243744D01*
X64220063Y30074226D01*
X64364226Y29930063D01*
X64533744Y29816795D01*
X64722102Y29738774D01*
X64922061Y29699000D01*
X65125939Y29699000D01*
X65325898Y29738774D01*
X65514256Y29816795D01*
X65683774Y29930063D01*
X65827937Y30074226D01*
X65941205Y30243744D01*
X66019226Y30432102D01*
X66059000Y30632061D01*
X66059000Y30835939D01*
X66019226Y31035898D01*
X65941205Y31224256D01*
X65827937Y31393774D01*
X65683774Y31537937D01*
X65514256Y31651205D01*
X65325898Y31729226D01*
X65125939Y31769000D01*
X64922061Y31769000D01*
X64722102Y31729226D01*
X64533744Y31651205D01*
X64364226Y31537937D01*
X64220063Y31393774D01*
X64106795Y31224256D01*
X64028774Y31035898D01*
X63989000Y30835939D01*
X57365000Y30835939D01*
X57365000Y30880260D01*
X57307932Y31167158D01*
X57195990Y31437411D01*
X57033475Y31680632D01*
X56826632Y31887475D01*
X56652240Y32004000D01*
X56804802Y32105939D01*
X57537400Y32105939D01*
X57537400Y31902061D01*
X57577174Y31702102D01*
X57655195Y31513744D01*
X57768463Y31344226D01*
X57912626Y31200063D01*
X58082144Y31086795D01*
X58270502Y31008774D01*
X58470461Y30969000D01*
X58674339Y30969000D01*
X58874298Y31008774D01*
X59062656Y31086795D01*
X59232174Y31200063D01*
X59376337Y31344226D01*
X59489605Y31513744D01*
X59567626Y31702102D01*
X59607400Y31902061D01*
X59607400Y32105939D01*
X59567626Y32305898D01*
X59489605Y32494256D01*
X59376337Y32663774D01*
X59232174Y32807937D01*
X59062656Y32921205D01*
X58874298Y32999226D01*
X58674339Y33039000D01*
X58470461Y33039000D01*
X58270502Y32999226D01*
X58082144Y32921205D01*
X57912626Y32807937D01*
X57768463Y32663774D01*
X57655195Y32494256D01*
X57577174Y32305898D01*
X57537400Y32105939D01*
X56804802Y32105939D01*
X56826632Y32120525D01*
X57033475Y32327368D01*
X57195990Y32570589D01*
X57307932Y32840842D01*
X57365000Y33127740D01*
X57365000Y33420260D01*
X57307932Y33707158D01*
X57195990Y33977411D01*
X57033475Y34220632D01*
X56826632Y34427475D01*
X56652240Y34544000D01*
X56826632Y34660525D01*
X57033475Y34867368D01*
X57195990Y35110589D01*
X57307932Y35380842D01*
X57353741Y35611139D01*
X61398200Y35611139D01*
X61398200Y35407261D01*
X61437974Y35207302D01*
X61515995Y35018944D01*
X61629263Y34849426D01*
X61773426Y34705263D01*
X61942944Y34591995D01*
X62131302Y34513974D01*
X62331261Y34474200D01*
X62535139Y34474200D01*
X62735098Y34513974D01*
X62923456Y34591995D01*
X63092974Y34705263D01*
X63237137Y34849426D01*
X63350405Y35018944D01*
X63428426Y35207302D01*
X63468200Y35407261D01*
X63468200Y35611139D01*
X63428426Y35811098D01*
X63350405Y35999456D01*
X63237137Y36168974D01*
X63092974Y36313137D01*
X62923456Y36426405D01*
X62735098Y36504426D01*
X62535139Y36544200D01*
X62331261Y36544200D01*
X62131302Y36504426D01*
X61942944Y36426405D01*
X61773426Y36313137D01*
X61629263Y36168974D01*
X61515995Y35999456D01*
X61437974Y35811098D01*
X61398200Y35611139D01*
X57353741Y35611139D01*
X57365000Y35667740D01*
X57365000Y35960260D01*
X57307932Y36247158D01*
X57195990Y36517411D01*
X57033475Y36760632D01*
X56826632Y36967475D01*
X56652240Y37084000D01*
X56804802Y37185939D01*
X66579800Y37185939D01*
X66579800Y36982061D01*
X66619574Y36782102D01*
X66697595Y36593744D01*
X66810863Y36424226D01*
X66955026Y36280063D01*
X67124544Y36166795D01*
X67312902Y36088774D01*
X67512861Y36049000D01*
X67716739Y36049000D01*
X67916698Y36088774D01*
X68105056Y36166795D01*
X68274574Y36280063D01*
X68418737Y36424226D01*
X68532005Y36593744D01*
X68610026Y36782102D01*
X68649800Y36982061D01*
X68649800Y37185939D01*
X68610026Y37385898D01*
X68532005Y37574256D01*
X68418737Y37743774D01*
X68274574Y37887937D01*
X68105056Y38001205D01*
X67916698Y38079226D01*
X67716739Y38119000D01*
X67512861Y38119000D01*
X67312902Y38079226D01*
X67124544Y38001205D01*
X66955026Y37887937D01*
X66810863Y37743774D01*
X66697595Y37574256D01*
X66619574Y37385898D01*
X66579800Y37185939D01*
X56804802Y37185939D01*
X56826632Y37200525D01*
X57033475Y37407368D01*
X57195990Y37650589D01*
X57307932Y37920842D01*
X57365000Y38207740D01*
X57365000Y38500260D01*
X57307932Y38787158D01*
X57195990Y39057411D01*
X57033475Y39300632D01*
X56826632Y39507475D01*
X56652240Y39624000D01*
X56826632Y39740525D01*
X57033475Y39947368D01*
X57195990Y40190589D01*
X57307932Y40460842D01*
X57365000Y40747740D01*
X57365000Y41040260D01*
X57307932Y41327158D01*
X57195990Y41597411D01*
X57190560Y41605539D01*
X61347400Y41605539D01*
X61347400Y41401661D01*
X61387174Y41201702D01*
X61465195Y41013344D01*
X61578463Y40843826D01*
X61722626Y40699663D01*
X61892144Y40586395D01*
X62080502Y40508374D01*
X62280461Y40468600D01*
X62484339Y40468600D01*
X62684298Y40508374D01*
X62872656Y40586395D01*
X63042174Y40699663D01*
X63186337Y40843826D01*
X63299605Y41013344D01*
X63377626Y41201702D01*
X63417400Y41401661D01*
X63417400Y41605539D01*
X63377626Y41805498D01*
X63299605Y41993856D01*
X63186337Y42163374D01*
X63042174Y42307537D01*
X62872656Y42420805D01*
X62684298Y42498826D01*
X62484339Y42538600D01*
X62280461Y42538600D01*
X62080502Y42498826D01*
X61892144Y42420805D01*
X61722626Y42307537D01*
X61578463Y42163374D01*
X61465195Y41993856D01*
X61387174Y41805498D01*
X61347400Y41605539D01*
X57190560Y41605539D01*
X57033475Y41840632D01*
X56826632Y42047475D01*
X56652240Y42164000D01*
X56826632Y42280525D01*
X57033475Y42487368D01*
X57195990Y42730589D01*
X57307932Y43000842D01*
X57365000Y43287740D01*
X57365000Y43580260D01*
X57307932Y43867158D01*
X57195990Y44137411D01*
X57033475Y44380632D01*
X56826632Y44587475D01*
X56652240Y44704000D01*
X56826632Y44820525D01*
X57033475Y45027368D01*
X57195990Y45270589D01*
X57307932Y45540842D01*
X57365000Y45827740D01*
X57365000Y46120260D01*
X57307932Y46407158D01*
X57195990Y46677411D01*
X57033475Y46920632D01*
X56826632Y47127475D01*
X56652240Y47244000D01*
X56826632Y47360525D01*
X57033475Y47567368D01*
X57195990Y47810589D01*
X57307932Y48080842D01*
X57365000Y48367740D01*
X57365000Y48660260D01*
X57307932Y48947158D01*
X57195990Y49217411D01*
X57033475Y49460632D01*
X56826632Y49667475D01*
X56583411Y49829990D01*
X56313158Y49941932D01*
X56026260Y49999000D01*
X55733740Y49999000D01*
X55446842Y49941932D01*
X55176589Y49829990D01*
X54933368Y49667475D01*
X54726525Y49460632D01*
X54572450Y49230042D01*
X54572843Y49364000D01*
X54565487Y49438689D01*
X54543701Y49510508D01*
X54508322Y49576696D01*
X54460711Y49634711D01*
X54402696Y49682322D01*
X54336508Y49717701D01*
X54264689Y49739487D01*
X54190000Y49746843D01*
X53562250Y49745000D01*
X53467000Y49649750D01*
X53467000Y48641000D01*
X53487000Y48641000D01*
X53487000Y48387000D01*
X53467000Y48387000D01*
X53467000Y48367000D01*
X53213000Y48367000D01*
X53213000Y48387000D01*
X52204250Y48387000D01*
X52109000Y48291750D01*
X52107157Y47664000D01*
X52114513Y47589311D01*
X52136299Y47517492D01*
X52171678Y47451304D01*
X52219289Y47393289D01*
X52277304Y47345678D01*
X52343492Y47310299D01*
X52415311Y47288513D01*
X52490000Y47281157D01*
X52623958Y47281550D01*
X52393368Y47127475D01*
X52186525Y46920632D01*
X52024010Y46677411D01*
X51912068Y46407158D01*
X51855000Y46120260D01*
X48713851Y46120260D01*
X48665774Y46168337D01*
X48503561Y46276724D01*
X48516805Y46296544D01*
X48594826Y46484902D01*
X48634600Y46684861D01*
X48634600Y46888739D01*
X48594826Y47088698D01*
X48516805Y47277056D01*
X48403537Y47446574D01*
X48259374Y47590737D01*
X48089856Y47704005D01*
X47901498Y47782026D01*
X47701539Y47821800D01*
X47497661Y47821800D01*
X47297702Y47782026D01*
X47109344Y47704005D01*
X46939826Y47590737D01*
X46795663Y47446574D01*
X46682395Y47277056D01*
X46604374Y47088698D01*
X46564600Y46888739D01*
X46564600Y46684861D01*
X46604374Y46484902D01*
X46682395Y46296544D01*
X46795663Y46127026D01*
X46939826Y45982863D01*
X47102039Y45874476D01*
X47088795Y45854656D01*
X47010774Y45666298D01*
X46971000Y45466339D01*
X46971000Y45262461D01*
X47010774Y45062502D01*
X47046190Y44977000D01*
X46888061Y44977000D01*
X46688102Y44937226D01*
X46499744Y44859205D01*
X46330226Y44745937D01*
X46186063Y44601774D01*
X46072795Y44432256D01*
X45994774Y44243898D01*
X45955000Y44043939D01*
X27435550Y44043939D01*
X27524737Y44133126D01*
X27638005Y44302644D01*
X27716026Y44491002D01*
X27755800Y44690961D01*
X27755800Y44894839D01*
X27716026Y45094798D01*
X27638005Y45283156D01*
X27524737Y45452674D01*
X27380574Y45596837D01*
X27211056Y45710105D01*
X27022698Y45788126D01*
X26822739Y45827900D01*
X26618861Y45827900D01*
X26418902Y45788126D01*
X26230544Y45710105D01*
X26061026Y45596837D01*
X25916863Y45452674D01*
X25874114Y45388696D01*
X25848337Y45427274D01*
X25704174Y45571437D01*
X25534656Y45684705D01*
X25346298Y45762726D01*
X25146339Y45802500D01*
X24942461Y45802500D01*
X24742502Y45762726D01*
X24554144Y45684705D01*
X24384626Y45571437D01*
X24240463Y45427274D01*
X24127195Y45257756D01*
X24049174Y45069398D01*
X24009400Y44869439D01*
X14282405Y44869439D01*
X14269990Y44899411D01*
X14107475Y45142632D01*
X13900632Y45349475D01*
X13726240Y45466000D01*
X13900632Y45582525D01*
X14107475Y45789368D01*
X14269990Y46032589D01*
X14381932Y46302842D01*
X14439000Y46589740D01*
X14439000Y46882260D01*
X14432659Y46914139D01*
X24873000Y46914139D01*
X24873000Y46710261D01*
X24912774Y46510302D01*
X24990795Y46321944D01*
X25104063Y46152426D01*
X25248226Y46008263D01*
X25417744Y45894995D01*
X25606102Y45816974D01*
X25806061Y45777200D01*
X26009939Y45777200D01*
X26209898Y45816974D01*
X26398256Y45894995D01*
X26567774Y46008263D01*
X26711937Y46152426D01*
X26825205Y46321944D01*
X26903226Y46510302D01*
X26943000Y46710261D01*
X26943000Y46914139D01*
X26903226Y47114098D01*
X26825205Y47302456D01*
X26711937Y47471974D01*
X26567774Y47616137D01*
X26398256Y47729405D01*
X26209898Y47807426D01*
X26009939Y47847200D01*
X25806061Y47847200D01*
X25606102Y47807426D01*
X25417744Y47729405D01*
X25248226Y47616137D01*
X25104063Y47471974D01*
X24990795Y47302456D01*
X24912774Y47114098D01*
X24873000Y46914139D01*
X14432659Y46914139D01*
X14381932Y47169158D01*
X14269990Y47439411D01*
X14107475Y47682632D01*
X13900632Y47889475D01*
X13657411Y48051990D01*
X13430100Y48146145D01*
X13496949Y48171201D01*
X13702052Y48298353D01*
X13878408Y48463076D01*
X14019239Y48659039D01*
X14119134Y48878712D01*
X14143489Y48959020D01*
X14082627Y49149000D01*
X13081000Y49149000D01*
X13081000Y49129000D01*
X12827000Y49129000D01*
X12827000Y49149000D01*
X11825373Y49149000D01*
X11764511Y48959020D01*
X11788866Y48878712D01*
X11888761Y48659039D01*
X12029592Y48463076D01*
X12205948Y48298353D01*
X12411051Y48171201D01*
X12477900Y48146145D01*
X12250589Y48051990D01*
X12007368Y47889475D01*
X11800525Y47682632D01*
X11684000Y47508240D01*
X11567475Y47682632D01*
X11360632Y47889475D01*
X11117411Y48051990D01*
X10890100Y48146145D01*
X10956949Y48171201D01*
X11162052Y48298353D01*
X11338408Y48463076D01*
X11479239Y48659039D01*
X11579134Y48878712D01*
X11603489Y48959020D01*
X11542627Y49149000D01*
X10541000Y49149000D01*
X10541000Y49129000D01*
X10287000Y49129000D01*
X10287000Y49149000D01*
X9285373Y49149000D01*
X9224511Y48959020D01*
X9248866Y48878712D01*
X9348761Y48659039D01*
X9489592Y48463076D01*
X9665948Y48298353D01*
X9871051Y48171201D01*
X9937900Y48146145D01*
X9710589Y48051990D01*
X9467368Y47889475D01*
X9260525Y47682632D01*
X9098010Y47439411D01*
X8986068Y47169158D01*
X8929000Y46882260D01*
X735000Y46882260D01*
X735000Y49364000D01*
X52107157Y49364000D01*
X52109000Y48736250D01*
X52204250Y48641000D01*
X53213000Y48641000D01*
X53213000Y49649750D01*
X53117750Y49745000D01*
X52490000Y49746843D01*
X52415311Y49739487D01*
X52343492Y49717701D01*
X52277304Y49682322D01*
X52219289Y49634711D01*
X52171678Y49576696D01*
X52136299Y49510508D01*
X52114513Y49438689D01*
X52107157Y49364000D01*
X735000Y49364000D01*
X735000Y49592980D01*
X9224511Y49592980D01*
X9285373Y49403000D01*
X10287000Y49403000D01*
X10287000Y50405187D01*
X10541000Y50405187D01*
X10541000Y49403000D01*
X11542627Y49403000D01*
X11603489Y49592980D01*
X11764511Y49592980D01*
X11825373Y49403000D01*
X12827000Y49403000D01*
X12827000Y50405187D01*
X13081000Y50405187D01*
X13081000Y49403000D01*
X14082627Y49403000D01*
X14143489Y49592980D01*
X14119134Y49673288D01*
X14019239Y49892961D01*
X13878408Y50088924D01*
X13702052Y50253647D01*
X13496949Y50380799D01*
X13270981Y50465495D01*
X13081000Y50405187D01*
X12827000Y50405187D01*
X12637019Y50465495D01*
X12411051Y50380799D01*
X12205948Y50253647D01*
X12029592Y50088924D01*
X11888761Y49892961D01*
X11788866Y49673288D01*
X11764511Y49592980D01*
X11603489Y49592980D01*
X11579134Y49673288D01*
X11479239Y49892961D01*
X11338408Y50088924D01*
X11162052Y50253647D01*
X10956949Y50380799D01*
X10730981Y50465495D01*
X10541000Y50405187D01*
X10287000Y50405187D01*
X10097019Y50465495D01*
X9871051Y50380799D01*
X9665948Y50253647D01*
X9489592Y50088924D01*
X9348761Y49892961D01*
X9248866Y49673288D01*
X9224511Y49592980D01*
X735000Y49592980D01*
X735000Y50966000D01*
X9181157Y50966000D01*
X9188513Y50891311D01*
X9210299Y50819492D01*
X9245678Y50753304D01*
X9293289Y50695289D01*
X9351304Y50647678D01*
X9417492Y50612299D01*
X9489311Y50590513D01*
X9564000Y50583157D01*
X10191750Y50585000D01*
X10287000Y50680250D01*
X10287000Y51689000D01*
X10541000Y51689000D01*
X10541000Y50680250D01*
X10636250Y50585000D01*
X11264000Y50583157D01*
X11338689Y50590513D01*
X11410508Y50612299D01*
X11476696Y50647678D01*
X11534711Y50695289D01*
X11582322Y50753304D01*
X11617701Y50819492D01*
X11639487Y50891311D01*
X11646843Y50966000D01*
X11645279Y51499020D01*
X11764511Y51499020D01*
X11788866Y51418712D01*
X11888761Y51199039D01*
X12029592Y51003076D01*
X12205948Y50838353D01*
X12411051Y50711201D01*
X12637019Y50626505D01*
X12827000Y50686813D01*
X12827000Y51689000D01*
X13081000Y51689000D01*
X13081000Y50686813D01*
X13270981Y50626505D01*
X13496949Y50711201D01*
X13702052Y50838353D01*
X13878408Y51003076D01*
X14019239Y51199039D01*
X14119134Y51418712D01*
X14143489Y51499020D01*
X14082627Y51689000D01*
X13081000Y51689000D01*
X12827000Y51689000D01*
X11825373Y51689000D01*
X11764511Y51499020D01*
X11645279Y51499020D01*
X11645000Y51593750D01*
X11549750Y51689000D01*
X10541000Y51689000D01*
X10287000Y51689000D01*
X9278250Y51689000D01*
X9183000Y51593750D01*
X9181157Y50966000D01*
X735000Y50966000D01*
X735000Y52666000D01*
X9181157Y52666000D01*
X9183000Y52038250D01*
X9278250Y51943000D01*
X10287000Y51943000D01*
X10287000Y52951750D01*
X10541000Y52951750D01*
X10541000Y51943000D01*
X11549750Y51943000D01*
X11645000Y52038250D01*
X11645278Y52132980D01*
X11764511Y52132980D01*
X11825373Y51943000D01*
X12827000Y51943000D01*
X12827000Y52945187D01*
X13081000Y52945187D01*
X13081000Y51943000D01*
X14082627Y51943000D01*
X14143489Y52132980D01*
X14119134Y52213288D01*
X14019239Y52432961D01*
X13878408Y52628924D01*
X13861040Y52645147D01*
X43329408Y52645147D01*
X43329408Y52441269D01*
X43369182Y52241310D01*
X43447203Y52052952D01*
X43560471Y51883434D01*
X43704634Y51739271D01*
X43874152Y51626003D01*
X44062510Y51547982D01*
X44262469Y51508208D01*
X44466347Y51508208D01*
X44666306Y51547982D01*
X44854664Y51626003D01*
X45024182Y51739271D01*
X45168345Y51883434D01*
X45281613Y52052952D01*
X45359634Y52241310D01*
X45399408Y52441269D01*
X45399408Y52645147D01*
X45359634Y52845106D01*
X45340445Y52891433D01*
X63592200Y52891433D01*
X63592200Y52569367D01*
X63655032Y52253488D01*
X63778282Y51955937D01*
X63957213Y51688148D01*
X64184948Y51460413D01*
X64452737Y51281482D01*
X64750288Y51158232D01*
X65066167Y51095400D01*
X65388233Y51095400D01*
X65704112Y51158232D01*
X66001663Y51281482D01*
X66269452Y51460413D01*
X66497187Y51688148D01*
X66676118Y51955937D01*
X66799368Y52253488D01*
X66862200Y52569367D01*
X66862200Y52891433D01*
X66799368Y53207312D01*
X66676118Y53504863D01*
X66497187Y53772652D01*
X66269452Y54000387D01*
X66001663Y54179318D01*
X65704112Y54302568D01*
X65388233Y54365400D01*
X65066167Y54365400D01*
X64750288Y54302568D01*
X64452737Y54179318D01*
X64184948Y54000387D01*
X63957213Y53772652D01*
X63778282Y53504863D01*
X63655032Y53207312D01*
X63592200Y52891433D01*
X45340445Y52891433D01*
X45281613Y53033464D01*
X45168345Y53202982D01*
X45024182Y53347145D01*
X44854664Y53460413D01*
X44666306Y53538434D01*
X44466347Y53578208D01*
X44262469Y53578208D01*
X44062510Y53538434D01*
X43874152Y53460413D01*
X43704634Y53347145D01*
X43560471Y53202982D01*
X43447203Y53033464D01*
X43369182Y52845106D01*
X43329408Y52645147D01*
X13861040Y52645147D01*
X13702052Y52793647D01*
X13496949Y52920799D01*
X13270981Y53005495D01*
X13081000Y52945187D01*
X12827000Y52945187D01*
X12637019Y53005495D01*
X12411051Y52920799D01*
X12205948Y52793647D01*
X12029592Y52628924D01*
X11888761Y52432961D01*
X11788866Y52213288D01*
X11764511Y52132980D01*
X11645278Y52132980D01*
X11646843Y52666000D01*
X11639487Y52740689D01*
X11617701Y52812508D01*
X11582322Y52878696D01*
X11534711Y52936711D01*
X11476696Y52984322D01*
X11410508Y53019701D01*
X11338689Y53041487D01*
X11264000Y53048843D01*
X10636250Y53047000D01*
X10541000Y52951750D01*
X10287000Y52951750D01*
X10191750Y53047000D01*
X9564000Y53048843D01*
X9489311Y53041487D01*
X9417492Y53019701D01*
X9351304Y52984322D01*
X9293289Y52936711D01*
X9245678Y52878696D01*
X9210299Y52812508D01*
X9188513Y52740689D01*
X9181157Y52666000D01*
X735000Y52666000D01*
X735000Y58174633D01*
X1159000Y58174633D01*
X1159000Y57852567D01*
X1221832Y57536688D01*
X1345082Y57239137D01*
X1524013Y56971348D01*
X1751748Y56743613D01*
X2019537Y56564682D01*
X2317088Y56441432D01*
X2632967Y56378600D01*
X2955033Y56378600D01*
X3270912Y56441432D01*
X3568463Y56564682D01*
X3836252Y56743613D01*
X4063987Y56971348D01*
X4242918Y57239137D01*
X4264789Y57291939D01*
X5228000Y57291939D01*
X5228000Y57088061D01*
X5267774Y56888102D01*
X5345795Y56699744D01*
X5459063Y56530226D01*
X5603226Y56386063D01*
X5772744Y56272795D01*
X5961102Y56194774D01*
X6161061Y56155000D01*
X6364939Y56155000D01*
X6564898Y56194774D01*
X6753256Y56272795D01*
X6922774Y56386063D01*
X7066937Y56530226D01*
X7180205Y56699744D01*
X7258226Y56888102D01*
X7298000Y57088061D01*
X7298000Y57291939D01*
X7258226Y57491898D01*
X7199805Y57632939D01*
X18904000Y57632939D01*
X18904000Y57429061D01*
X18943774Y57229102D01*
X19021795Y57040744D01*
X19135063Y56871226D01*
X19279226Y56727063D01*
X19448744Y56613795D01*
X19637102Y56535774D01*
X19837061Y56496000D01*
X20040939Y56496000D01*
X20240898Y56535774D01*
X20429256Y56613795D01*
X20598774Y56727063D01*
X20742937Y56871226D01*
X20856205Y57040744D01*
X20934226Y57229102D01*
X20974000Y57429061D01*
X20974000Y57632939D01*
X20934226Y57832898D01*
X20856205Y58021256D01*
X20742937Y58190774D01*
X20598774Y58334937D01*
X20429256Y58448205D01*
X20240898Y58526226D01*
X20040939Y58566000D01*
X19837061Y58566000D01*
X19637102Y58526226D01*
X19448744Y58448205D01*
X19279226Y58334937D01*
X19135063Y58190774D01*
X19021795Y58021256D01*
X18943774Y57832898D01*
X18904000Y57632939D01*
X7199805Y57632939D01*
X7180205Y57680256D01*
X7066937Y57849774D01*
X6922774Y57993937D01*
X6753256Y58107205D01*
X6564898Y58185226D01*
X6364939Y58225000D01*
X6161061Y58225000D01*
X5961102Y58185226D01*
X5772744Y58107205D01*
X5603226Y57993937D01*
X5459063Y57849774D01*
X5345795Y57680256D01*
X5267774Y57491898D01*
X5228000Y57291939D01*
X4264789Y57291939D01*
X4366168Y57536688D01*
X4429000Y57852567D01*
X4429000Y58174633D01*
X4366168Y58490512D01*
X4242918Y58788063D01*
X4063987Y59055852D01*
X3836252Y59283587D01*
X3823313Y59292233D01*
X58969400Y59292233D01*
X58969400Y58970167D01*
X59032232Y58654288D01*
X59155482Y58356737D01*
X59334413Y58088948D01*
X59562148Y57861213D01*
X59829937Y57682282D01*
X60127488Y57559032D01*
X60443367Y57496200D01*
X60765433Y57496200D01*
X61081312Y57559032D01*
X61378863Y57682282D01*
X61646652Y57861213D01*
X61874387Y58088948D01*
X62053318Y58356737D01*
X62176568Y58654288D01*
X62239400Y58970167D01*
X62239400Y59292233D01*
X62176568Y59608112D01*
X62053318Y59905663D01*
X61874387Y60173452D01*
X61646652Y60401187D01*
X61378863Y60580118D01*
X61081312Y60703368D01*
X60765433Y60766200D01*
X60443367Y60766200D01*
X60127488Y60703368D01*
X59829937Y60580118D01*
X59562148Y60401187D01*
X59334413Y60173452D01*
X59155482Y59905663D01*
X59032232Y59608112D01*
X58969400Y59292233D01*
X3823313Y59292233D01*
X3568463Y59462518D01*
X3270912Y59585768D01*
X2955033Y59648600D01*
X2632967Y59648600D01*
X2317088Y59585768D01*
X2019537Y59462518D01*
X1751748Y59283587D01*
X1524013Y59055852D01*
X1345082Y58788063D01*
X1221832Y58490512D01*
X1159000Y58174633D01*
X735000Y58174633D01*
X735000Y58691544D01*
X724365Y58799524D01*
X682337Y58938072D01*
X614087Y59065759D01*
X522238Y59177677D01*
X410320Y59269526D01*
X282633Y59337776D01*
X248280Y59348197D01*
X-192192Y59531167D01*
X-559141Y59776426D01*
X-871457Y60088282D01*
X-1117259Y60454872D01*
X-1287172Y60862214D01*
X-1374730Y61294807D01*
X-1376274Y61660264D01*
X-498355Y61660264D01*
X-498355Y61389736D01*
X-445578Y61124407D01*
X-342051Y60874473D01*
X-191754Y60649537D01*
X-463Y60458246D01*
X224473Y60307949D01*
X474407Y60204422D01*
X739736Y60151645D01*
X1010264Y60151645D01*
X1275593Y60204422D01*
X1525527Y60307949D01*
X1750463Y60458246D01*
X1941754Y60649537D01*
X2092051Y60874473D01*
X2195578Y61124407D01*
X2248355Y61389736D01*
X2248355Y61660264D01*
X2195578Y61925593D01*
X2092051Y62175527D01*
X1941754Y62400463D01*
X1750463Y62591754D01*
X1525527Y62742051D01*
X1275593Y62845578D01*
X1010264Y62898355D01*
X739736Y62898355D01*
X474407Y62845578D01*
X224473Y62742051D01*
X-463Y62591754D01*
X-191754Y62400463D01*
X-342051Y62175527D01*
X-445578Y61925593D01*
X-498355Y61660264D01*
X-1376274Y61660264D01*
X-1376595Y61736163D01*
X-1292699Y62169481D01*
X-1126237Y62578245D01*
X-895604Y62928581D01*
X20925000Y62928581D01*
X20925000Y62547419D01*
X20999361Y62173581D01*
X21145225Y61821434D01*
X21356987Y61504509D01*
X21626509Y61234987D01*
X21943434Y61023225D01*
X22295581Y60877361D01*
X22669419Y60803000D01*
X23050581Y60803000D01*
X23424419Y60877361D01*
X23776566Y61023225D01*
X24093491Y61234987D01*
X24363013Y61504509D01*
X24574775Y61821434D01*
X24720639Y62173581D01*
X24795000Y62547419D01*
X24795000Y62928581D01*
X45265000Y62928581D01*
X45265000Y62547419D01*
X45339361Y62173581D01*
X45485225Y61821434D01*
X45696987Y61504509D01*
X45966509Y61234987D01*
X46283434Y61023225D01*
X46635581Y60877361D01*
X47009419Y60803000D01*
X47390581Y60803000D01*
X47764419Y60877361D01*
X48116566Y61023225D01*
X48433491Y61234987D01*
X48703013Y61504509D01*
X48807084Y61660264D01*
X67751645Y61660264D01*
X67751645Y61389736D01*
X67804422Y61124407D01*
X67907949Y60874473D01*
X68058246Y60649537D01*
X68249537Y60458246D01*
X68474473Y60307949D01*
X68724407Y60204422D01*
X68989736Y60151645D01*
X69260264Y60151645D01*
X69525593Y60204422D01*
X69775527Y60307949D01*
X70000463Y60458246D01*
X70191754Y60649537D01*
X70342051Y60874473D01*
X70445578Y61124407D01*
X70498355Y61389736D01*
X70498355Y61660264D01*
X70445578Y61925593D01*
X70342051Y62175527D01*
X70191754Y62400463D01*
X70000463Y62591754D01*
X69775527Y62742051D01*
X69525593Y62845578D01*
X69260264Y62898355D01*
X68989736Y62898355D01*
X68724407Y62845578D01*
X68474473Y62742051D01*
X68249537Y62591754D01*
X68058246Y62400463D01*
X67907949Y62175527D01*
X67804422Y61925593D01*
X67751645Y61660264D01*
X48807084Y61660264D01*
X48914775Y61821434D01*
X49060639Y62173581D01*
X49135000Y62547419D01*
X49135000Y62928581D01*
X49060639Y63302419D01*
X48914775Y63654566D01*
X48703013Y63971491D01*
X48433491Y64241013D01*
X48116566Y64452775D01*
X47820444Y64575433D01*
X53686200Y64575433D01*
X53686200Y64253367D01*
X53749032Y63937488D01*
X53872282Y63639937D01*
X54051213Y63372148D01*
X54278948Y63144413D01*
X54546737Y62965482D01*
X54844288Y62842232D01*
X55160167Y62779400D01*
X55482233Y62779400D01*
X55798112Y62842232D01*
X56095663Y62965482D01*
X56363452Y63144413D01*
X56591187Y63372148D01*
X56770118Y63639937D01*
X56893368Y63937488D01*
X56956200Y64253367D01*
X56956200Y64575433D01*
X56893368Y64891312D01*
X56770118Y65188863D01*
X56591187Y65456652D01*
X56363452Y65684387D01*
X56095663Y65863318D01*
X55798112Y65986568D01*
X55482233Y66049400D01*
X55160167Y66049400D01*
X54844288Y65986568D01*
X54546737Y65863318D01*
X54278948Y65684387D01*
X54051213Y65456652D01*
X53872282Y65188863D01*
X53749032Y64891312D01*
X53686200Y64575433D01*
X47820444Y64575433D01*
X47764419Y64598639D01*
X47390581Y64673000D01*
X47009419Y64673000D01*
X46635581Y64598639D01*
X46283434Y64452775D01*
X45966509Y64241013D01*
X45696987Y63971491D01*
X45485225Y63654566D01*
X45339361Y63302419D01*
X45265000Y62928581D01*
X24795000Y62928581D01*
X24720639Y63302419D01*
X24574775Y63654566D01*
X24363013Y63971491D01*
X24093491Y64241013D01*
X23776566Y64452775D01*
X23424419Y64598639D01*
X23050581Y64673000D01*
X22669419Y64673000D01*
X22295581Y64598639D01*
X21943434Y64452775D01*
X21626509Y64241013D01*
X21356987Y63971491D01*
X21145225Y63654566D01*
X20999361Y63302419D01*
X20925000Y62928581D01*
X-895604Y62928581D01*
X-883546Y62946896D01*
X-573873Y63261387D01*
X-209011Y63509740D01*
X228252Y63695727D01*
X282632Y63712223D01*
X410319Y63780473D01*
X522237Y63872322D01*
X614087Y63984240D01*
X682337Y64111927D01*
X724365Y64250475D01*
X735000Y64358455D01*
X735000Y67969854D01*
X789085Y68627715D01*
X2165000Y68627715D01*
X2165000Y67872285D01*
X2312377Y67131372D01*
X2601467Y66433446D01*
X3021161Y65805330D01*
X3555330Y65271161D01*
X4183446Y64851467D01*
X4881372Y64562377D01*
X5622285Y64415000D01*
X6377715Y64415000D01*
X7118628Y64562377D01*
X7816554Y64851467D01*
X8444670Y65271161D01*
X8464290Y65290781D01*
X33015400Y65290781D01*
X33015400Y64909619D01*
X33089761Y64535781D01*
X33235625Y64183634D01*
X33447387Y63866709D01*
X33716909Y63597187D01*
X34033834Y63385425D01*
X34385981Y63239561D01*
X34759819Y63165200D01*
X35140981Y63165200D01*
X35514819Y63239561D01*
X35866966Y63385425D01*
X36183891Y63597187D01*
X36453413Y63866709D01*
X36665175Y64183634D01*
X36811039Y64535781D01*
X36885400Y64909619D01*
X36885400Y65290781D01*
X36811039Y65664619D01*
X36665175Y66016766D01*
X36453413Y66333691D01*
X36183891Y66603213D01*
X35866966Y66814975D01*
X35514819Y66960839D01*
X35140981Y67035200D01*
X34759819Y67035200D01*
X34385981Y66960839D01*
X34033834Y66814975D01*
X33716909Y66603213D01*
X33447387Y66333691D01*
X33235625Y66016766D01*
X33089761Y65664619D01*
X33015400Y65290781D01*
X8464290Y65290781D01*
X8978839Y65805330D01*
X9398533Y66433446D01*
X9687623Y67131372D01*
X9835000Y67872285D01*
X9835000Y68495532D01*
X18007061Y68495532D01*
X18007061Y68004466D01*
X18102863Y67522836D01*
X18290786Y67069150D01*
X18563608Y66660844D01*
X18910844Y66313608D01*
X19319150Y66040786D01*
X19772836Y65852863D01*
X20254466Y65757061D01*
X20745532Y65757061D01*
X21227162Y65852863D01*
X21680848Y66040786D01*
X22089154Y66313608D01*
X22436390Y66660844D01*
X22709212Y67069150D01*
X22897135Y67522836D01*
X22992937Y68004466D01*
X22992937Y68495532D01*
X47007061Y68495532D01*
X47007061Y68004466D01*
X47102863Y67522836D01*
X47290786Y67069150D01*
X47563608Y66660844D01*
X47910844Y66313608D01*
X48319150Y66040786D01*
X48772836Y65852863D01*
X49254466Y65757061D01*
X49745532Y65757061D01*
X50227162Y65852863D01*
X50680848Y66040786D01*
X51089154Y66313608D01*
X51436390Y66660844D01*
X51709212Y67069150D01*
X51897135Y67522836D01*
X51992937Y68004466D01*
X51992937Y68495532D01*
X51966645Y68627715D01*
X60165000Y68627715D01*
X60165000Y67872285D01*
X60312377Y67131372D01*
X60601467Y66433446D01*
X61021161Y65805330D01*
X61555330Y65271161D01*
X62183446Y64851467D01*
X62881372Y64562377D01*
X63622285Y64415000D01*
X64377715Y64415000D01*
X65118628Y64562377D01*
X65816554Y64851467D01*
X66444670Y65271161D01*
X66978839Y65805330D01*
X67398533Y66433446D01*
X67687623Y67131372D01*
X67835000Y67872285D01*
X67835000Y68627715D01*
X67687623Y69368628D01*
X67398533Y70066554D01*
X66978839Y70694670D01*
X66444670Y71228839D01*
X65816554Y71648533D01*
X65118628Y71937623D01*
X64377715Y72085000D01*
X63622285Y72085000D01*
X62881372Y71937623D01*
X62183446Y71648533D01*
X61555330Y71228839D01*
X61021161Y70694670D01*
X60601467Y70066554D01*
X60312377Y69368628D01*
X60165000Y68627715D01*
X51966645Y68627715D01*
X51897135Y68977162D01*
X51709212Y69430848D01*
X51436390Y69839154D01*
X51089154Y70186390D01*
X50680848Y70459212D01*
X50227162Y70647135D01*
X49745532Y70742937D01*
X49254466Y70742937D01*
X48772836Y70647135D01*
X48319150Y70459212D01*
X47910844Y70186390D01*
X47563608Y69839154D01*
X47290786Y69430848D01*
X47102863Y68977162D01*
X47007061Y68495532D01*
X22992937Y68495532D01*
X22897135Y68977162D01*
X22709212Y69430848D01*
X22436390Y69839154D01*
X22089154Y70186390D01*
X21680848Y70459212D01*
X21227162Y70647135D01*
X20745532Y70742937D01*
X20254466Y70742937D01*
X19772836Y70647135D01*
X19319150Y70459212D01*
X18910844Y70186390D01*
X18563608Y69839154D01*
X18290786Y69430848D01*
X18102863Y68977162D01*
X18007061Y68495532D01*
X9835000Y68495532D01*
X9835000Y68627715D01*
X9687623Y69368628D01*
X9398533Y70066554D01*
X8978839Y70694670D01*
X8444670Y71228839D01*
X7816554Y71648533D01*
X7118628Y71937623D01*
X6377715Y72085000D01*
X5622285Y72085000D01*
X4881372Y71937623D01*
X4183446Y71648533D01*
X3555330Y71228839D01*
X3021161Y70694670D01*
X2601467Y70066554D01*
X2312377Y69368628D01*
X2165000Y68627715D01*
X789085Y68627715D01*
X808142Y68859503D01*
X1018237Y69695928D01*
X1362122Y70486809D01*
X1830559Y71210901D01*
X2410972Y71848765D01*
X3087766Y72383264D01*
X3842768Y72800048D01*
X4655712Y73087926D01*
X5517452Y73241426D01*
X6017319Y73264999D01*
X63969854Y73264999D01*
X64859503Y73191857D01*
G37*
%TD.AperFunction*%
%TD*%
M02*
